<svg width="24" height="24" viewBox="0 0 24 24" fill="none" xmlns="http://www.w3.org/2000/svg">
<path d="M9.19826 23.7145C9.00676 23.7145 8.81519 23.6423 8.66801 23.4974C8.37047 23.2045 8.36662 22.7259 8.65952 22.4283L21.2581 9.62768C22.8959 7.96353 22.9027 5.26274 21.2732 3.60708L20.7057 3.03038C19.9232 2.2353 18.8822 1.79752 17.7744 1.79752C16.6581 1.79752 15.6069 2.24106 14.8143 3.04633L2.29218 15.6316C1.25104 16.6893 1.24661 18.4106 2.28487 19.4656L2.67724 19.8643C3.20033 20.3958 3.93499 20.7006 4.69285 20.7006C5.40049 20.7006 6.04993 20.4367 6.52169 19.9574L17.7628 8.53595C18.1862 8.10569 18.1887 7.40803 17.7681 6.98073L17.5586 6.76774C17.3599 6.56591 17.096 6.45476 16.8155 6.45476C16.5321 6.45476 16.2645 6.56805 16.0621 6.77365L5.67211 17.3307C5.37922 17.6281 4.90066 17.632 4.60305 17.3392C4.3055 17.0464 4.30166 16.5677 4.59455 16.2701L14.9847 5.71315C15.4736 5.21643 16.1238 4.94289 16.8156 4.94289C17.5044 4.94289 18.151 5.21437 18.6362 5.70732L18.8457 5.92038C19.8417 6.93221 19.8393 8.58137 18.8403 9.59637L7.59932 21.0179C6.84109 21.7882 5.80903 22.2125 4.693 22.2125C3.53273 22.2125 2.4054 21.7432 1.59983 20.9247L1.20747 20.5261C-0.406468 18.8863 -0.401889 16.2136 1.21766 14.5681L13.7398 1.98288C14.8159 0.889374 16.2498 0.285645 17.7745 0.285645C19.2905 0.285645 20.7143 0.883835 21.7832 1.96996L22.3508 2.54666C24.5557 4.78707 24.5489 8.43935 22.3355 10.6883L9.737 23.4888C9.58908 23.6391 9.39367 23.7145 9.19826 23.7145Z" fill="#3C3C3C"/>
</svg>
