<svg width="37" height="38" viewBox="0 0 37 38" fill="none" xmlns="http://www.w3.org/2000/svg">
<path fill-rule="evenodd" clip-rule="evenodd" d="M36.9837 37.3943C36.6506 37.4599 31.2831 37.45 31.0634 37.3872C31.2064 37.1608 31.4137 37.0022 31.5931 36.8202C31.7699 36.6407 31.9613 36.4753 32.1268 36.3218V33.7103C31.3748 32.9583 30.6116 32.1953 29.8284 31.4122C30.8384 30.4296 31.8313 29.4636 32.817 28.5046V27.5283C32.1669 26.8771 31.4997 26.2089 30.8315 25.5395V21.3053C29.8714 20.3457 28.9155 19.3907 27.9608 18.4366V17.833C27.5483 17.4194 27.1292 16.9992 26.7077 16.5766V14.7694C26.8781 14.5924 27.0581 14.4053 27.2349 14.2215V12.7658C26.6198 12.1478 25.9872 11.5122 25.3544 10.8764C25.4629 10.7317 25.5899 10.7885 25.699 10.7801C25.8149 10.7713 25.932 10.7782 26.0526 10.7782C26.2405 10.597 26.4214 10.4226 26.6027 10.2476H26.8511C27.0651 10.3642 27.0651 10.3642 27.4133 10.3432C27.531 10.2335 27.6618 10.1116 27.7885 9.99368H28.2041C28.2903 10.0676 28.3719 10.1375 28.4763 10.2273C28.788 10.2273 29.1208 10.2349 29.4528 10.223C29.5644 10.2189 29.6724 10.1521 29.7851 10.1367C29.9 10.1211 30.0188 10.1332 30.186 10.1332C30.3312 10.3045 30.4947 10.4971 30.6401 10.6687C30.8125 10.6794 30.9372 10.6872 31.0743 10.6958C31.1884 10.8004 31.3072 10.9094 31.4346 11.0263C31.5102 11.0299 31.5897 11.0336 31.679 11.038C31.7863 10.9407 31.8923 10.8447 32.0086 10.7394H32.2794C32.3006 10.802 32.3227 10.8673 32.343 10.9272C32.4707 11.0293 32.6666 10.9166 32.783 11.1102C32.7914 11.1534 32.8065 11.2311 32.8265 11.3335C33.0243 11.3491 33.2179 11.3644 33.4183 11.3804C33.4433 11.4513 33.4662 11.5162 33.4932 11.5925H33.9334C34.1864 11.4445 34.1877 11.2928 34.5963 11.6585C34.7504 11.7414 34.9046 11.8242 35.0639 11.9099C35.1479 11.8768 35.2442 11.8388 35.3368 11.8023C35.4258 11.8701 35.4966 11.9241 35.5728 11.9822H35.8275C36.0089 11.8087 36.1964 11.6293 36.369 11.4642H36.9787C36.9864 11.6058 36.9988 11.7288 36.9989 11.8517C37 14.2753 36.9998 16.699 36.9998 19.1226C36.9998 25.0689 36.9998 31.0152 36.9991 36.9615C36.9991 37.1031 36.9892 37.2447 36.9837 37.3943Z" fill="#484848"/>
<mask id="mask0" mask-type="alpha" maskUnits="userSpaceOnUse" x="0" y="0" width="14" height="20">
<path d="M0 0.325562H13.4978V19.7812H0V0.325562Z" fill="white"/>
</mask>
<g mask="url(#mask0)">
<path fill-rule="evenodd" clip-rule="evenodd" d="M13.4963 19.2967C13.321 19.3092 13.2777 19.484 13.1592 19.5775C12.9885 19.6013 12.9405 19.4178 12.7785 19.3403H12.3265C12.2762 19.3861 12.2176 19.4394 12.1576 19.4942C12.1433 19.5778 12.1299 19.6563 12.1143 19.7476C12.0657 19.759 12.0181 19.7704 11.9717 19.7812C11.8454 19.5666 12.0485 19.4865 12.1247 19.3445V19.0558C11.9576 18.92 11.776 19.0124 11.5769 18.9496C11.3147 18.6863 11.0247 18.3951 10.7439 18.1131C10.6125 18.098 10.4999 18.085 10.3731 18.0705C10.3596 17.9409 10.3476 17.8268 10.3325 17.6832C10.2146 17.5677 10.0808 17.4365 9.95546 17.3137C9.80524 17.2886 9.66549 17.2703 9.52808 17.2409C9.4007 17.2135 9.27578 17.1742 9.1241 17.1332C9.10873 17.0409 9.09145 16.9374 9.07418 16.8339C9.08354 16.8242 9.09301 16.8144 9.10248 16.8047C9.01367 16.7185 8.92496 16.6324 8.85308 16.5627C8.69973 16.5536 8.5845 16.5468 8.44821 16.5387C8.31849 16.4123 8.1783 16.2758 8.03476 16.136H7.3329C7.18457 16.2801 7.03825 16.4222 6.87955 16.5763C6.73167 16.434 6.59738 16.3049 6.43479 16.1485H5.85718C5.83813 15.9204 5.8213 15.7194 5.80269 15.4956C5.66673 15.4801 5.54581 15.4664 5.37386 15.4468C5.32594 15.3891 5.25194 15.2999 5.16457 15.1947C5.15577 15.092 5.14529 14.9685 5.13259 14.8198C4.95517 14.8087 4.78957 14.7984 4.634 14.7887C4.4061 14.6881 4.49235 14.4752 4.44878 14.2974C4.42705 14.2716 4.40053 14.2356 4.36943 14.2042C3.94684 13.7774 3.52359 13.3511 3.09008 12.9143C3.02622 12.8949 2.95011 12.8717 2.82474 12.8336C2.66181 12.6526 2.4699 12.4392 2.29438 12.2442C2.18227 12.2221 2.10471 12.2068 2.0267 12.1915C1.92841 12.0975 1.83156 12.0048 1.73227 11.9099C1.65225 11.8976 1.57391 11.8855 1.50069 11.8743C1.43338 11.8193 1.37142 11.7688 1.31213 11.7205C1.19835 11.7139 1.09215 11.7077 0.97725 11.7011C0.874278 11.6081 0.768631 11.5129 0.642033 11.3987H0.0569625C0.000147732 11.1556 -0.0209354 7.24267 0.0259817 6.49989C0.135975 6.51308 0.177097 6.60893 0.24608 6.67208C0.251763 6.78011 0.257558 6.88769 0.264913 7.02628C0.58386 7.34935 0.916292 7.68753 1.25028 8.02402C1.57848 8.35454 1.90824 8.68336 2.19932 8.97497C2.27187 9.15314 2.17559 9.32567 2.36805 9.43245C2.53354 9.26421 2.7728 9.15776 2.78885 8.84991C2.72332 8.77797 2.65969 8.70377 2.59138 8.63408C2.33395 8.37167 2.07451 8.11119 1.81685 7.8489C1.69806 7.7279 1.58595 7.59833 1.38446 7.57702C1.37008 7.46448 1.35671 7.36017 1.33955 7.22553C1.03631 6.91746 0.716253 6.59236 0.393183 6.26421V5.77786C0.34504 5.70185 0.302135 5.63431 0.252766 5.55627C0.245188 5.46888 0.23683 5.37066 0.227469 5.26117C0.163167 5.18539 0.0941841 5.10397 0.0226384 5.0194V0.378561C0.0380174 0.362999 0.0438124 0.356008 0.0507218 0.35037C0.0574083 0.344957 0.064652 0.337966 0.0723415 0.336838C0.107557 0.331876 0.142996 0.325562 0.178434 0.325562C1.90768 0.325787 3.63704 0.326464 5.36639 0.328042C5.39202 0.328042 5.41754 0.339319 5.46624 0.350708C5.51116 0.621006 5.48229 0.899648 5.48731 1.17603C5.49243 1.45558 5.48853 1.73524 5.48853 2.01489V2.85928C7.45883 4.85397 9.424 6.84349 11.383 8.82668C11.3913 8.98782 11.3985 9.13126 11.4068 9.29139C11.5545 9.44768 11.7077 9.6095 11.8758 9.78732V12.9163C12.1047 13.1554 12.3269 13.3873 12.5472 13.6173V14.1619C12.4522 14.2695 12.3463 14.3896 12.2381 14.5123V17.3907C12.5743 17.7348 12.9119 18.0804 13.2568 18.4336V18.918C13.3079 19.0675 13.5258 19.1072 13.495 19.2967H13.4963Z" fill="#484848"/>
</g>
<path fill-rule="evenodd" clip-rule="evenodd" d="M18.4885 19.9873C18.5859 19.9743 18.6832 19.9614 18.7966 19.9463C18.8804 19.8728 18.9745 19.7901 19.0616 19.7136C19.1868 19.6946 19.3012 19.6774 19.4397 19.6564C19.5322 20.0448 19.8621 20.2695 20.1234 20.5488C20.2653 20.7002 20.4021 20.8563 20.5263 20.9939H21.0549C21.2657 21.1543 21.4903 21.1643 21.745 21.0878C21.7515 21.0118 21.7582 20.9343 21.7657 20.8453C21.6603 20.7424 21.5581 20.6427 21.4516 20.5386H20.817C20.5553 20.2712 20.3096 20.0203 20.0265 19.7311C20.0142 19.6889 19.9848 19.588 19.9542 19.4833C20.022 19.4013 20.1189 19.4381 20.2045 19.4323C20.2851 19.4268 20.3664 19.4311 20.4376 19.4311C20.6015 19.322 20.7217 19.2103 20.6214 18.9716C20.3663 18.9641 20.1012 18.9564 19.8055 18.948C19.7838 18.0308 19.8097 17.1316 19.7907 16.2085C19.5216 15.9644 19.2479 15.7161 19.0036 15.4944V13.1439C19.1294 13.0241 19.2597 12.8999 19.4155 12.7515H20.0286C20.6685 12.1128 21.2678 11.5146 21.9192 10.8645V10.0361C22.0957 9.94217 22.2155 10.0196 22.3399 10.1191H22.9637C23.1551 10.3265 23.344 10.5312 23.5676 10.7734C23.5704 10.8365 23.5763 10.9618 23.5842 11.1352C23.627 11.1732 23.6933 11.2322 23.7679 11.2985C23.9785 11.2985 24.1935 11.3341 24.3899 11.2888C24.5992 11.2405 24.7956 11.369 25.0115 11.2794C25.0332 11.2267 25.0598 11.162 25.088 11.0934C25.1835 11.0544 25.2821 11.0142 25.3509 10.986C25.9719 11.6057 26.5832 12.2158 27.2344 12.8656V14.1463C27.0721 14.3149 26.8978 14.496 26.6985 14.7029C26.6933 15.2636 26.6877 15.8471 26.682 16.46C26.5543 16.4682 26.4499 16.4807 26.3455 16.4808C25.5239 16.4825 24.7023 16.4818 23.8807 16.4818H23.5333C22.9952 17.018 22.4529 17.5582 21.8936 18.1155H21.2362C21.1018 18.253 20.983 18.3746 20.8671 18.4932V19.5991C21.2048 19.9161 21.5597 20.2492 21.9033 20.5718V21.3327C22.3144 21.745 22.7272 22.159 23.1382 22.571V23.6381C24.5783 25.0782 26.0262 26.526 27.4948 27.9946V29.4617C28.2058 30.1719 28.8752 30.8405 29.5707 31.5352C29.6457 31.5393 29.7622 31.5455 29.8426 31.5499C30.6087 32.315 31.3549 33.06 32.1353 33.8393V36.2167C31.7295 36.6134 31.3235 37.0101 30.8845 37.4391H26.8341C26.0227 36.6279 25.2064 35.8123 24.3892 34.9952H22.0931C20.8691 33.773 19.6478 32.5507 18.4261 31.3289C18.4344 31.3092 18.4427 31.2897 18.451 31.27H19.2455C19.7522 30.764 20.2427 30.2745 20.7169 29.8011C21.1937 30.2796 21.6571 30.7448 22.1667 31.256C22.1545 31.3553 22.1331 31.5299 22.1121 31.7011C22.2005 31.7985 22.279 31.8852 22.3674 31.9827C22.379 32.0668 22.3921 32.1629 22.4074 32.274C22.508 32.2916 22.603 32.3084 22.7019 32.3257C22.8929 32.5106 23.0863 32.6977 23.2925 32.8973C23.4029 32.8044 23.4978 32.7248 23.6104 32.6301H24.0377C24.0636 32.521 24.0856 32.4276 24.1068 32.3378C24.2187 32.2976 24.3254 32.2594 24.4628 32.2102C24.5335 32.2967 24.613 32.3944 24.7329 32.5412V33.3216C24.8447 33.4443 24.9352 33.5438 25.0227 33.6401C25.0346 33.7619 25.0458 33.876 25.059 34.0108C25.1783 34.0236 25.2833 34.035 25.4205 34.0498C25.5374 34.16 25.6743 34.289 25.8349 34.4403H26.6804C26.7716 34.5082 26.8362 34.5561 26.9168 34.6162H27.178C27.2132 34.56 27.2496 34.5019 27.29 34.4375C27.33 34.4433 27.3705 34.4384 27.3974 34.4552C27.5021 34.5208 27.6089 34.5514 27.7466 34.5001C27.7656 34.4316 27.7866 34.356 27.8156 34.2518C27.8913 34.1738 27.985 34.0773 28.0812 33.9784C28.4037 34.0048 28.7234 33.8936 29.0001 34.073H29.4315C29.4431 33.981 29.4528 33.9044 29.4589 33.8555C29.3595 33.6203 29.1671 33.6645 28.9911 33.6401C28.9336 33.5998 28.8677 33.5538 28.7884 33.4984H28.499C28.4354 33.5385 28.3674 33.5815 28.3279 33.6066C27.9825 33.6791 27.6483 33.5283 27.3405 33.7406C27.2529 33.5284 27.3237 33.3262 27.2762 33.1084C27.2387 33.0591 27.1848 32.9883 27.1226 32.9064V32.5152C27.0581 32.4551 26.9738 32.3766 26.9183 32.3249C26.6228 32.2807 26.3761 32.2438 26.1356 32.2076C25.9001 32.3975 25.6486 32.334 25.3952 32.3192C25.3728 32.2218 25.3528 32.135 25.3313 32.0405C25.2491 31.9528 25.1631 31.8608 25.102 31.7955C25.0546 31.6443 25.0107 31.5279 24.9828 31.4077C24.9627 31.3215 24.9572 31.2303 24.9568 31.1413C24.9546 30.6001 24.9556 30.0589 24.9556 29.508C24.8529 29.3955 24.7504 29.2831 24.6334 29.155V27.9572C24.5195 27.8352 24.4151 27.7235 24.2858 27.5853V25.8362C24.0954 25.639 23.9207 25.4579 23.7448 25.2757C23.7324 25.1742 23.7203 25.0765 23.7047 24.9503C23.4264 24.6847 23.1328 24.4045 22.8392 24.1246C22.794 23.973 22.917 23.7892 22.738 23.6796C22.5396 23.7468 22.4398 23.9289 22.3081 24.0427C22.2405 24.1445 22.3092 24.2882 22.1697 24.3351C21.9601 24.2064 21.2916 23.5272 21.1878 23.3254C21.2839 23.3201 21.3684 23.3155 21.4467 23.3112C21.5511 23.4064 21.6442 23.4912 21.7434 23.5818C21.8844 23.5855 22.0431 23.6559 22.1584 23.4504C22.0235 23.308 21.8893 23.1659 21.7623 23.0314C21.7348 22.8886 21.7097 22.7583 21.6845 22.6268C21.7155 22.6122 21.7391 22.6012 21.7726 22.5852C21.8181 22.6228 21.8646 22.6613 21.9311 22.7162C22.0533 22.7082 22.1925 22.699 22.3416 22.6892V21.9426C22.2201 21.9369 22.1158 21.9319 22.0103 21.9268C21.9039 22.0224 21.8041 22.112 21.7004 22.2049H20.2809C20.0827 21.9923 19.8806 21.7754 19.6504 21.5285C19.6467 21.4774 19.6397 21.3793 19.6335 21.2928C19.5652 21.1618 19.4692 21.1138 19.3161 21.1455C19.2814 21.1833 19.2356 21.2332 19.2052 21.2665C19.0483 21.2078 18.9081 21.1554 18.7681 21.1032C18.6117 21.0194 18.6299 20.8847 18.6771 20.727C18.762 20.7188 18.8402 20.7112 18.9159 20.704C18.9893 20.7566 19.0545 20.8034 19.1267 20.8552C19.317 20.8777 19.5119 20.8847 19.7304 20.8402C19.7364 20.7436 19.7416 20.6585 19.7462 20.5833C19.5976 20.497 19.4677 20.4215 19.2986 20.3234H18.7171C18.7699 20.2856 18.7956 20.2669 18.821 20.2488C18.8577 20.1266 18.7981 20.0536 18.694 20.0164C18.6275 19.9927 18.5532 19.9908 18.4825 19.9791L18.4885 19.9873Z" fill="#484848"/>
<path fill-rule="evenodd" clip-rule="evenodd" d="M24.765 10.0279V9.43695C25.1519 9.04074 25.5415 8.64182 25.9365 8.23733V6.27991C26.3148 5.91322 26.6959 5.54368 27.0745 5.17665V4.82209C27.0745 3.3241 27.074 1.8261 27.0754 0.328108C27.0755 0.222106 27.0887 0.116217 27.0965 0H36.9694C36.9798 0.118373 36.9983 0.231526 36.9985 0.344678C37.0008 1.29802 36.9999 2.25125 36.9999 3.20448C36.9999 4.94762 37.0003 6.69076 36.9991 8.4339C36.999 8.5584 36.9873 8.6829 36.9798 8.83055H36.3719C36.2836 8.89786 36.2198 8.94655 36.1484 9.00091C36.0784 9.01419 36.0001 9.02917 35.9073 9.04687C35.8792 9.12859 35.8504 9.21178 35.8384 9.24628C35.7238 9.38713 35.6384 9.49177 35.5781 9.56576C35.3019 9.60356 35.0748 9.63465 34.8524 9.66496C34.7716 9.60208 34.7014 9.54738 34.6236 9.48677H34.2682C34.1378 9.36647 34.0065 9.24526 33.8719 9.12098H33.6109C33.4149 9.28067 33.1889 9.46453 32.9629 9.6485C32.976 9.66076 32.9893 9.67313 33.0025 9.68538C32.9305 9.80455 32.8585 9.92361 32.7895 10.0377H32.4522C32.2547 9.96991 32.0899 9.91339 31.9245 9.85665C31.8105 9.59175 31.8999 9.339 31.9624 9.04449C31.8923 8.98354 31.8122 8.91386 31.7436 8.85439C31.56 8.8225 31.4021 8.82159 31.2837 8.94677H30.6423C30.5933 8.99921 30.5457 9.05017 30.5044 9.09454C30.2648 9.15424 30.0075 9.02928 29.7845 9.23005C29.7621 9.17887 29.744 9.14243 29.7301 9.10441C29.7178 9.07093 29.71 9.03564 29.6977 8.99228C29.6512 8.97219 29.6035 8.95165 29.555 8.93054C29.5227 8.8688 29.4901 8.80649 29.4525 8.73465H28.8907C28.8192 8.67757 28.7567 8.62763 28.6968 8.57985C28.603 8.53025 28.471 8.58064 28.3999 8.43424C28.6026 8.25696 28.8517 8.18557 29.1168 8.13359C29.13 8.10045 29.1458 8.06902 29.1547 8.03565C29.1638 8.00138 29.1662 7.96528 29.1708 7.9343C29.3055 7.8527 29.4341 7.77462 29.5724 7.69074V7.34743C29.2977 7.07085 29.0254 6.79687 28.7293 6.49873C28.3096 6.50508 27.8572 6.45719 27.387 6.5347C27.361 6.45787 27.3332 6.37604 27.2982 6.27322H26.9877C26.9749 6.47183 26.9636 6.64877 26.9516 6.83467C26.8189 6.8568 26.7078 6.87541 26.6018 6.893C26.5516 7.14291 26.577 7.18502 26.8607 7.32779C26.8638 7.36502 26.8701 7.40917 26.8704 7.45332C26.8709 7.49826 26.8654 7.5432 26.8608 7.61595C26.4763 7.99604 26.0795 8.3885 25.7029 8.76087C25.6895 8.88208 25.6807 8.96278 25.67 9.05856C25.4593 9.2784 25.2418 9.50539 25.0243 9.73226C24.9714 9.86425 25.0778 10.0425 24.8974 10.1429C24.8529 10.1042 24.8077 10.0651 24.765 10.0279Z" fill="#484848"/>
<path fill-rule="evenodd" clip-rule="evenodd" d="M13.0074 23.6953C12.8929 23.5673 12.7976 23.4607 12.6934 23.3441V22.1863C12.623 22.0983 12.5615 22.0216 12.4907 21.9334V20.943C12.5377 20.8911 12.5971 20.8254 12.6685 20.7463H13.4004C13.6127 20.5308 13.8131 20.3272 14.0246 20.1125C13.9541 20.0188 13.8907 19.9347 13.8147 19.8342V19.0936C13.8202 19.0933 13.8255 19.0928 13.8308 19.0925V19.8152C13.9018 19.8921 13.962 19.9572 14.0219 20.0225H14.6393C14.7051 20.0727 14.7686 20.1213 14.8578 20.1893H16.2516C16.343 20.2935 16.4292 20.3914 16.5326 20.5093C16.3391 20.7161 16.1628 20.9043 15.9714 21.1088V22.817H15.3057C14.8568 23.2773 14.4436 23.7012 14.0146 24.1412V26.0551C14.4077 26.4583 14.8148 26.8758 15.2399 27.3118V28.1958C17.5031 30.5056 19.7297 32.7778 21.9959 35.0903H24.1247C24.8955 35.8772 25.636 36.6332 26.3864 37.3993C26.3523 37.4095 26.3075 37.4305 26.2611 37.4351C26.1906 37.4421 26.119 37.438 26.0479 37.438C22.6236 37.438 19.1995 37.4382 15.7753 37.4374C15.6444 37.4373 15.5134 37.426 15.3592 37.419C15.3472 37.2923 15.3292 37.1872 15.3285 37.0822C15.3253 36.6191 15.3272 36.1561 15.3272 35.6895C15.1729 35.5258 15.0258 35.3696 14.8632 35.197V34.4039C14.7334 34.2624 14.6185 34.1372 14.5009 34.009V33.5929C14.5544 33.5239 14.609 33.4533 14.6662 33.3797C14.681 33.1465 14.718 32.9099 14.5956 32.691C14.4903 32.5028 14.4841 32.2951 14.4824 32.0464C14.3696 31.9382 14.241 31.8152 14.113 31.6926H13.0383C12.8683 31.8358 12.6997 31.9779 12.5133 32.1349C12.5182 32.1768 12.5262 32.2451 12.5353 32.3227C12.4998 32.3196 12.4576 32.323 12.4551 32.3145C12.4311 32.2305 12.4138 32.1446 12.3919 32.0478C12.3023 32.0303 12.2171 32.0135 12.0961 31.9898C12.0685 31.9097 12.019 31.8141 12.0034 31.713C11.9074 31.0918 11.9513 30.4652 11.9442 29.8406C11.9436 29.7874 11.952 29.7343 11.9572 29.6684C12.0557 29.6493 12.1479 29.6314 12.2618 29.6092C12.2668 29.5062 12.2754 29.4088 12.2757 29.3114C12.2773 28.8935 12.2774 28.4754 12.276 28.0575C12.2755 27.9358 12.2803 27.8191 12.4197 27.735C12.494 27.7293 12.5905 27.722 12.7194 27.7122C12.8659 27.5491 13.0274 27.3693 13.2117 27.1638V25.7278C13.1496 25.6531 13.0867 25.5776 13.0074 25.4826V23.6953Z" fill="#484848"/>
<path fill-rule="evenodd" clip-rule="evenodd" d="M13.7908 17.8408C13.7201 17.9827 13.7201 17.9827 13.5208 18.0484C13.177 17.7029 12.8419 17.366 12.47 16.9922V14.2915C12.5747 14.176 12.6771 14.0629 12.7819 13.9473V13.2495C12.5699 13.0679 12.3371 12.8682 12.1041 12.6687C12.1135 12.6537 12.1228 12.6388 12.1323 12.6239C12.1263 12.5077 12.1154 12.3915 12.1152 12.2753C12.1136 11.4521 12.1143 10.629 12.1143 9.80584V9.40594C11.9508 9.26973 11.7912 9.13669 11.6454 9.01497V8.55058C12.7237 7.4719 13.8078 6.38734 14.9081 5.28672V0.0442543C15.1391 -0.00314629 23.1106 -0.0178529 23.5186 0.0269458C23.5251 0.124688 23.535 0.228653 23.5384 0.332957C23.5419 0.440994 23.5392 0.549258 23.5392 0.659331C23.057 1.13334 22.5815 1.60101 22.1018 2.07264V6.32569C21.9644 6.47151 21.8534 6.58928 21.7329 6.71711V7.94342C21.9997 8.2061 22.2558 8.45838 22.5399 8.73803H23.4223C23.8529 9.10705 24.8015 10.0859 24.9123 10.2777C24.814 10.298 24.7209 10.3172 24.6183 10.3383C24.5636 10.2975 24.5065 10.2548 24.4392 10.2047C24.3525 10.1957 24.2551 10.1856 24.1418 10.1737C24.1128 10.0907 24.0841 10.0085 24.0686 9.964C23.7968 9.68796 23.5502 9.4375 23.3013 9.18455C23.0421 9.16215 23.0421 9.16215 22.8816 9.48931C22.8529 9.41815 22.8284 9.35763 22.7951 9.2755H22.2594C22.2185 9.19269 22.1874 9.1299 22.1509 9.05637C22.0338 9.042 21.912 8.98578 21.8071 9.10321L21.8124 9.09653C21.7308 9.06124 21.6394 9.03895 21.5699 8.98725C21.495 8.93148 21.4404 8.8481 21.3779 8.77785C21.4423 8.63972 21.6074 8.56868 21.5206 8.39208C21.2429 8.07657 20.9531 7.74748 20.6766 7.43344V6.77729C20.7606 6.62808 20.9761 6.53067 20.8478 6.29378C20.7622 6.27693 20.6679 6.25838 20.5614 6.23745C20.5417 6.17081 20.5219 6.10407 20.4983 6.02454C20.3757 5.99117 20.2259 5.98732 20.1661 5.77521V5.19056C20.2036 5.17076 20.2678 5.13716 20.3034 5.11838V4.73307C20.1174 4.59279 19.9558 4.47073 19.7758 4.33497C19.7189 4.33022 19.6385 4.32332 19.545 4.3154C19.4837 4.26597 19.4142 4.20997 19.3481 4.1568H19.0204C18.9981 4.2301 18.9801 4.28927 18.9581 4.36178C18.9048 4.39097 18.843 4.42468 18.7624 4.4688C18.7666 4.53906 18.7711 4.61508 18.7762 4.70106C18.8832 4.71678 18.97 4.72956 19.0724 4.74461C19.0877 4.83138 19.1031 4.91758 19.1162 4.99157C19.2266 5.21522 19.4481 5.10368 19.6207 5.18423C19.7256 5.48515 19.5944 5.82227 19.7048 6.13054C19.8114 6.18801 19.9109 6.24163 20.013 6.2965V7.31714C20.0948 7.4943 20.1536 7.62168 20.2123 7.74906C20.1946 7.76287 20.1768 7.77655 20.1591 7.79024C20.3801 7.98935 20.601 8.18857 20.8066 8.37364C20.8021 8.47512 20.7993 8.53598 20.7968 8.59334C20.8954 8.70579 20.9893 8.81292 21.0769 8.91281C21.0007 9.07809 21.0007 9.07809 20.8719 9.0963C20.74 8.93679 20.6262 8.77943 20.4925 8.64142C20.1281 8.26527 19.7556 7.89704 19.3856 7.5262C19.3223 7.46285 19.2559 7.40267 19.1782 7.32879H18.3288C17.974 6.95513 17.6203 6.5826 17.2766 6.22059H16.8101C16.6905 6.11086 16.5784 6.00768 16.4545 5.89399C16.3655 5.89852 16.2709 5.90327 16.1595 5.90881C16.1687 6.0302 16.176 6.12522 16.1808 6.18643C15.8109 6.55783 15.4613 6.90875 15.076 7.29553H14.9211C14.9035 7.20922 14.8877 7.13184 14.8732 7.06045C14.6373 6.9876 14.3355 6.98624 14.0793 7.05853C14.0724 7.13071 14.076 7.21306 14.0544 7.28818C14.0358 7.35255 13.9885 7.40855 13.9521 7.47133H13.3224C13.2122 7.54464 13.1154 7.60856 13.1431 7.77022C13.1908 7.79499 13.2441 7.82237 13.3093 7.8562C13.3567 7.94534 13.4107 8.04716 13.4683 8.15542V10.1319C13.3993 10.2166 13.3314 10.2999 13.2478 10.4025V11.0582C13.084 11.078 12.936 11.0957 12.7918 11.1132C12.6858 11.3658 12.7478 11.4864 12.9954 11.4998C13.1658 11.5091 13.337 11.5015 13.5163 11.5015C13.5595 11.5631 13.5987 11.6189 13.6384 11.6758C13.7379 11.6894 13.8349 11.7028 13.941 11.7174C13.9724 11.7839 14.0023 11.8474 14.0388 11.9244C14.0841 11.9424 14.1414 11.9652 14.1964 11.9871C14.209 12.0038 14.2281 12.0174 14.2293 12.0323C14.2431 12.2038 14.3723 12.2971 14.4769 12.4074C14.5494 12.4839 14.6521 12.5497 14.5872 12.6793C14.4697 12.7804 14.3875 12.6587 14.2659 12.6279C14.1441 12.7397 14.0132 12.8597 13.8551 13.0047H13.1577C13.1495 13.1621 13.1426 13.2929 13.1378 13.3856C13.2114 13.5859 13.3648 13.6014 13.5347 13.6495C13.4645 13.7082 13.4162 13.7487 13.3537 13.8011V14.0355C13.4056 14.1011 13.4611 14.1711 13.5248 14.2513C13.5208 14.332 13.5166 14.4197 13.5117 14.5186C13.3683 14.5363 13.2384 14.5521 13.0963 14.5696V15.1216C13.1604 15.1896 13.234 15.2678 13.3098 15.3482C13.3902 15.3628 13.4687 15.3771 13.5501 15.3918C13.689 15.5518 13.9039 15.6523 13.9154 15.9136C14.1952 15.9329 14.3117 16.1786 14.5196 16.3319C14.5812 16.3411 14.6599 16.353 14.76 16.3682C14.7791 16.4572 14.7992 16.5514 14.8203 16.6502C14.8804 16.7317 14.9434 16.8171 15.011 16.9086C14.969 16.9707 14.9352 17.0206 14.898 17.0756C14.7343 17.0833 14.5764 17.0906 14.3833 17.0997C14.455 17.2367 14.509 17.3396 14.5697 17.4556C14.2994 17.5739 14.2377 17.3539 14.1021 17.2465C14.1515 17.171 14.1945 17.1053 14.2395 17.0366V16.7752C14.0358 16.5872 13.8249 16.3925 13.5951 16.1803H13.0651C13.0535 16.3317 13.0429 16.4704 13.0326 16.6081C13.1441 16.7363 13.2467 16.8542 13.3493 16.9721L13.3238 17.0009C13.1878 16.9241 13.0517 16.8472 12.9017 16.7625C12.8444 16.8064 12.7912 16.8469 12.7135 16.9064C12.8593 17.0593 12.9883 17.1941 13.1137 17.3253C13.2491 17.3444 13.372 17.3617 13.5104 17.3811C13.525 17.5403 13.5387 17.69 13.551 17.8237C13.6419 17.9023 13.719 17.8764 13.796 17.8479L13.7908 17.8408Z" fill="#484848"/>
<path fill-rule="evenodd" clip-rule="evenodd" d="M14.7149 5.45433C13.6558 6.5235 12.6134 7.57561 11.5477 8.6513C9.62384 6.70587 7.6854 4.74563 5.74896 2.7874V0.339225C5.96726 0.293408 14.3776 0.28274 14.6813 0.324514C14.7389 0.540236 14.7638 4.56584 14.7149 5.45433Z" fill="#484848"/>
<path fill-rule="evenodd" clip-rule="evenodd" d="M26.0864 24.8859C25.4718 24.2748 24.8677 23.6743 24.2373 23.0475V22.3634C23.6852 21.816 23.1644 21.2998 22.596 20.7363H21.9696C21.6077 20.3738 21.2756 20.0412 20.9321 19.6973V18.7389C21.0111 18.6598 21.1001 18.5708 21.1973 18.4735H21.8729C22.4187 17.9201 22.9468 17.3847 23.4691 16.855H26.6473C27.0737 17.2801 27.484 17.6891 27.9307 18.1343V18.6913C28.8908 19.6504 29.8521 20.6108 30.8086 21.5664V24.856C30.5839 24.909 26.5967 24.9297 26.0864 24.8859Z" fill="#484848"/>
<path fill-rule="evenodd" clip-rule="evenodd" d="M22.1696 2.40749C22.6512 1.93818 23.1231 1.47837 23.5869 1.02627C23.6004 0.769324 23.6124 0.540982 23.6252 0.29834H26.9428C26.9534 0.35118 26.9749 0.409383 26.9749 0.467698C26.9765 2.0404 26.9761 3.6131 26.9753 5.1857C26.9753 5.22089 26.9682 5.25619 26.9598 5.33483C26.6041 5.67757 26.2259 6.0422 25.8539 6.40047V8.3416C25.4644 8.73439 25.0761 9.12606 24.6765 9.52912V9.99374C24.4162 9.79801 24.2367 9.58039 24.0363 9.38624C23.8318 9.18817 23.6322 8.98496 23.4251 8.77885H22.5177C22.2901 8.538 22.0705 8.30597 21.8167 8.03741V6.96038C21.9257 6.84431 22.0407 6.72164 22.1696 6.58446V2.40749Z" fill="#484848"/>
<path fill-rule="evenodd" clip-rule="evenodd" d="M22.5292 20.734C23.0401 21.2507 23.5123 21.7281 24.02 22.2415V22.9403C24.6696 23.5955 25.2871 24.2187 25.9334 24.8708C27.4601 24.8719 29.0237 24.8702 30.6124 24.8717V25.6652C31.2744 26.3376 31.9273 27.0009 32.5775 27.6613V28.5309C31.6012 29.4942 30.6012 30.481 29.596 31.4727H29.4124C28.7696 30.8217 28.1408 30.1847 27.4689 29.5042V28.0381C26.0212 26.5726 24.5921 25.126 23.1627 23.679V22.5971C22.7605 22.1875 22.3597 21.7792 21.964 21.3762V20.7498C22.0759 20.7439 22.1703 20.7369 22.2648 20.7345C22.3622 20.7319 22.4597 20.734 22.5292 20.734Z" fill="#484848"/>
<path fill-rule="evenodd" clip-rule="evenodd" d="M15.4781 28.3271V27.4578C15.6597 27.2718 15.8482 27.0787 16.0559 26.8658V26.1581C16.2137 25.996 16.3577 25.8477 16.5071 25.6941V23.538C16.4173 23.4369 16.316 23.3231 16.212 23.2062V21.365C16.3202 21.2494 16.4126 21.1183 16.5774 21.0316C16.6192 21.3168 16.6577 21.5789 16.7004 21.8703C16.7361 21.919 16.7889 21.9914 16.8492 22.0738C16.8602 22.1512 16.8727 22.2396 16.8873 22.3431C16.9583 22.3701 17.0321 22.3982 17.0906 22.4205C17.1553 22.5415 17.2135 22.6504 17.2762 22.768C17.2276 22.7935 17.1734 22.8218 17.1068 22.8565V23.1739C17.2071 23.2785 17.3069 23.3826 17.4145 23.495V23.725C17.3738 23.725 17.3332 23.735 17.3256 23.7236C17.2782 23.6516 17.2381 23.5748 17.1776 23.4681H16.9114C16.814 23.6369 16.9091 23.7544 17.0018 23.8807C16.891 23.9986 16.7868 24.1095 16.6769 24.2263V25.4379C16.7654 25.4653 16.8418 25.4887 16.9342 25.5172C16.9167 25.5832 16.8993 25.6494 16.8875 25.6935C16.9369 25.833 16.9805 25.9561 17.0239 26.0791C17.0462 26.1983 17.2049 26.2614 17.14 26.421C17.0164 26.6223 16.8531 26.467 16.6769 26.4546C16.6284 26.4868 16.5633 26.53 16.5005 26.5717V26.9395C16.6012 26.9584 16.6882 26.9747 16.7881 26.9936C16.8837 27.1692 16.9809 27.3476 17.0916 27.5507H17.6302C17.7182 27.6948 17.7018 27.8203 17.6554 27.9608C17.5065 27.9565 17.4077 27.7612 17.2242 27.8955C17.2181 27.9436 17.2082 28.02 17.1981 28.0999C17.2597 28.165 17.3143 28.2227 17.3816 28.2937H18.3123C18.4249 28.3941 18.5188 28.4778 18.6255 28.573H19.0658C19.3299 28.8549 19.5951 29.138 19.8603 29.4211C19.8717 29.412 19.883 29.4028 19.8944 29.3935C19.9821 29.4118 20.0699 29.4299 20.1692 29.4505C20.1887 29.5454 20.2077 29.6385 20.2307 29.7511C20.3697 29.7609 20.5017 29.7703 20.6374 29.7799C20.5401 29.9615 19.7042 30.818 19.275 31.1744H18.9783H18.3403C17.3741 30.2133 16.4391 29.2831 15.4781 28.3271Z" fill="#484848"/>
<path fill-rule="evenodd" clip-rule="evenodd" d="M21.6693 9.99368V10.8434C21.1142 11.4189 20.5667 11.9865 19.9725 12.6023H19.3646C19.1848 12.7908 19.0324 12.9506 18.8739 13.1168V15.5142C19.1144 15.7369 19.3739 15.9771 19.6152 16.2006C19.6419 17.1514 19.6268 18.0424 19.6253 18.9334C19.6059 18.9367 19.5866 18.94 19.5672 18.9433C19.551 18.9021 19.5218 18.8614 19.5207 18.8198C19.5156 18.63 19.5185 18.44 19.5185 18.2472C19.4504 18.1599 19.3853 18.0763 19.3081 17.9774V16.4626C19.2455 16.4126 19.1701 16.3524 19.0861 16.2855H18.9416C18.8119 16.1569 18.6803 16.0266 18.5534 15.9008C18.4382 15.8923 18.3353 15.8846 18.2274 15.8766C18.1947 15.7959 18.1651 15.7227 18.1252 15.6239C18.0221 15.6169 17.9142 15.6095 17.8029 15.6019C17.7659 15.6824 17.7368 15.746 17.7124 15.7991C17.6197 15.8491 17.5368 15.8937 17.4314 15.9503C17.142 15.7087 16.9039 15.3944 16.6067 15.1297C16.492 15.1244 16.3711 15.1189 16.2156 15.1116C16.1558 15.037 16.0821 14.9449 15.9705 14.8057C16.0525 14.7537 16.1107 14.7169 16.1649 14.6823C16.2104 14.464 16.055 14.3924 15.927 14.2948V14.0095C15.9046 13.8388 15.7376 13.8022 15.7797 13.647C15.8993 13.6889 16.0091 13.7273 16.1357 13.7717C16.1471 13.8378 16.1606 13.9158 16.1763 14.0069C16.2264 14.0561 16.2826 14.1111 16.3368 14.1643H16.6581C16.6705 14.0556 16.6822 13.9536 16.6885 13.8993C16.6314 13.7139 16.461 13.6625 16.4494 13.4836C16.6001 13.4034 16.7635 13.4667 16.9093 13.4257C17.0552 13.3846 17.195 13.3196 17.3668 13.3087C17.4581 13.2133 17.5493 13.1181 17.6296 13.0344V12.5044C17.5689 12.4269 17.5036 12.3437 17.4419 12.2649C17.4642 12.1163 17.4853 11.9759 17.5085 11.821C17.6053 11.8578 17.7007 11.8885 17.7913 11.93C17.8769 11.9695 17.9578 12.0205 18.0725 12.0839H18.7522C18.8497 11.991 18.9517 11.894 19.0667 11.7846H19.8144C19.9232 11.6509 20.0406 11.5067 20.158 11.3626C20.1682 11.371 20.1784 11.3795 20.1887 11.3878C20.2002 11.3083 20.2117 11.2287 20.2249 11.1381C20.265 11.1038 20.3105 11.065 20.353 11.0289C20.3649 10.9419 20.376 10.8619 20.384 10.8045C20.6497 10.5261 20.9004 10.2636 21.158 9.99368H21.6693Z" fill="#484848"/>
<path fill-rule="evenodd" clip-rule="evenodd" d="M16.3624 23.5503V25.5977C16.2278 25.7512 16.0824 25.9167 15.9292 26.0913V26.8101C15.7631 26.9742 15.6003 27.135 15.437 27.2963C15.2784 27.1948 14.4954 26.382 14.2987 26.1118V24.3651C14.693 23.95 15.0768 23.5462 15.4819 23.1198H16.0152C16.1385 23.2725 16.249 23.4096 16.3624 23.5503Z" fill="#484848"/>
<path fill-rule="evenodd" clip-rule="evenodd" d="M19.4569 19.2588C19.3592 19.2829 19.2617 19.3253 19.1636 19.3278C18.8219 19.3365 18.48 19.3286 18.1383 19.3328C18.0376 19.3341 17.9371 19.3547 17.8365 19.3665L17.8441 19.3739C17.9407 19.3499 18.037 19.3076 18.1339 19.305C18.4656 19.2961 18.7977 19.3047 19.1295 19.2991C19.2392 19.2973 19.3485 19.2727 19.4581 19.2585L19.4569 19.2588Z" fill="#484848"/>
<path fill-rule="evenodd" clip-rule="evenodd" d="M25.3546 10.7207C25.2513 10.6227 25.148 10.5248 25.0598 10.4412C25.1388 10.53 25.232 10.6348 25.3251 10.7395C25.3349 10.7333 25.3448 10.727 25.3546 10.7207Z" fill="#484848"/>
<path fill-rule="evenodd" clip-rule="evenodd" d="M22.0517 9.39801V9.69542C22.0397 9.69496 22.0278 9.6945 22.0159 9.69404C22.0308 9.595 22.0456 9.49605 22.0606 9.39709L22.0517 9.39801Z" fill="#484848"/>
<path fill-rule="evenodd" clip-rule="evenodd" d="M19.6853 19.3364C19.6763 19.3066 19.6671 19.2769 19.6785 19.314C19.6849 19.2761 19.6799 19.3054 19.6751 19.3343L19.6853 19.3364Z" fill="#484848"/>
<path fill-rule="evenodd" clip-rule="evenodd" d="M19.7458 19.3098C19.65 19.3132 19.554 19.317 19.4582 19.3206L19.4603 19.3203C19.5578 19.3211 19.6553 19.3219 19.753 19.3226L19.7458 19.3098Z" fill="#484848"/>
<path fill-rule="evenodd" clip-rule="evenodd" d="M13.4392 19.1892C13.469 19.1745 13.4988 19.1597 13.5285 19.1448C13.5313 19.1519 13.5341 19.1589 13.5371 19.1661L13.441 19.1892H13.4392Z" fill="#484848"/>
<path fill-rule="evenodd" clip-rule="evenodd" d="M19.7206 19.2681C19.6898 19.296 19.6588 19.3236 19.6279 19.3515L19.6329 19.3643C19.6655 19.333 19.698 19.3015 19.7306 19.2702L19.7206 19.2681Z" fill="#484848"/>
<path fill-rule="evenodd" clip-rule="evenodd" d="M17.9485 19.2845C17.9199 19.3026 17.8913 19.3208 17.8625 19.3388L17.871 19.3479C17.9 19.3294 17.929 19.3108 17.9581 19.2922L17.9485 19.2845Z" fill="#484848"/>
<path fill-rule="evenodd" clip-rule="evenodd" d="M17.89 19.6649C17.9062 19.6343 17.9225 19.6038 17.9389 19.5732L17.9305 19.5641C17.9143 19.596 17.8978 19.6278 17.8814 19.6597L17.89 19.6649Z" fill="#484848"/>
<path fill-rule="evenodd" clip-rule="evenodd" d="M17.8695 19.6442C17.8995 19.6262 17.9294 19.6081 17.9593 19.5901L17.9508 19.5849C17.921 19.6019 17.8911 19.6189 17.8611 19.6359L17.8695 19.6442Z" fill="#484848"/>
<path fill-rule="evenodd" clip-rule="evenodd" d="M17.9368 19.5696L17.8754 19.6514L17.8847 19.6594C17.9048 19.6321 17.925 19.605 17.9452 19.578L17.9368 19.5696Z" fill="#484848"/>
<path fill-rule="evenodd" clip-rule="evenodd" d="M17.6504 19.5795C17.624 19.5999 17.5976 19.6203 17.5711 19.6409L17.5795 19.6496C17.6063 19.6288 17.633 19.6081 17.6597 19.5875L17.6504 19.5795Z" fill="#484848"/>
<path fill-rule="evenodd" clip-rule="evenodd" d="M17.5921 19.6619C17.6106 19.6332 17.629 19.6044 17.6474 19.5757L17.639 19.5671C17.6204 19.5966 17.602 19.6261 17.5834 19.6555L17.5921 19.6619Z" fill="#484848"/>
<path fill-rule="evenodd" clip-rule="evenodd" d="M17.5775 19.9456C17.6057 19.9258 17.6339 19.9061 17.662 19.8865L17.6533 19.8801C17.6252 19.8991 17.597 19.9182 17.5688 19.9373L17.5775 19.9456Z" fill="#484848"/>
<path fill-rule="evenodd" clip-rule="evenodd" d="M17.6442 19.8705C17.6222 19.896 17.6001 19.9216 17.578 19.9472L17.5871 19.9552L17.6529 19.8788L17.6442 19.8705Z" fill="#484848"/>
<path fill-rule="evenodd" clip-rule="evenodd" d="M17.6483 19.8755C17.6234 19.8976 17.5985 19.9197 17.5736 19.9416L17.5819 19.9501L17.6575 19.8837L17.6483 19.8755Z" fill="#484848"/>
<path fill-rule="evenodd" clip-rule="evenodd" d="M17.2957 19.9585C17.3156 19.9308 17.3355 19.9033 17.3552 19.8756L17.347 19.8672C17.3266 19.8951 17.3063 19.9232 17.2861 19.9509L17.2957 19.9585Z" fill="#484848"/>
<path fill-rule="evenodd" clip-rule="evenodd" d="M17.3595 19.8818C17.3305 19.8996 17.3013 19.9175 17.2723 19.9352L17.2802 19.9439C17.3099 19.9257 17.3395 19.9076 17.3691 19.8894L17.3595 19.8818Z" fill="#484848"/>
<path fill-rule="evenodd" clip-rule="evenodd" d="M17.3442 20.163C17.3258 20.1925 17.3075 20.222 17.2891 20.2517L17.2986 20.2593C17.3165 20.2301 17.3345 20.2009 17.3523 20.1716L17.3442 20.163Z" fill="#484848"/>
<path fill-rule="evenodd" clip-rule="evenodd" d="M18.6355 20.2769C18.646 20.2366 18.6565 20.1965 18.6671 20.1562L18.6591 20.1454C18.6489 20.1871 18.6386 20.2288 18.6284 20.2704L18.6355 20.2769Z" fill="#484848"/>
<path fill-rule="evenodd" clip-rule="evenodd" d="M17.3589 20.1793C17.3303 20.1976 17.3017 20.216 17.2731 20.2343L17.2812 20.243L17.3684 20.187L17.3589 20.1793Z" fill="#484848"/>
<path fill-rule="evenodd" clip-rule="evenodd" d="M18.349 20.2079C18.3513 20.2101 18.3534 20.212 18.3556 20.2141L18.349 20.2079Z" fill="#484848"/>
<path fill-rule="evenodd" clip-rule="evenodd" d="M17.3441 20.1641C17.3258 20.1932 17.3075 20.2223 17.2892 20.2514L17.2979 20.2582C17.3161 20.2298 17.3342 20.2013 17.3522 20.1728L17.3441 20.1641Z" fill="#484848"/>
<path fill-rule="evenodd" clip-rule="evenodd" d="M21.7113 9.44945C21.7303 9.46675 21.7495 9.4839 21.7685 9.50121L21.7747 9.49211C21.7569 9.4754 21.7389 9.45884 21.7209 9.44214L21.7113 9.44945Z" fill="#484848"/>
<path fill-rule="evenodd" clip-rule="evenodd" d="M17.0021 20.2414C17.021 20.2244 17.0397 20.2074 17.0586 20.1904L17.0512 20.181C17.0319 20.1984 17.0124 20.2157 16.9931 20.2332L17.0021 20.2414Z" fill="#484848"/>
<path fill-rule="evenodd" clip-rule="evenodd" d="M17.058 20.3222C17.0335 20.3447 17.0092 20.3674 16.9847 20.3901L16.9933 20.3984C17.0179 20.3756 17.0425 20.3531 17.067 20.3304L17.058 20.3222Z" fill="#484848"/>
<path fill-rule="evenodd" clip-rule="evenodd" d="M17.0001 20.4052C17.0205 20.3781 17.0408 20.3509 17.0613 20.3238L17.0527 20.3154C17.0321 20.3429 17.0113 20.3702 16.9905 20.3975L17.0001 20.4052Z" fill="#484848"/>
<path fill-rule="evenodd" clip-rule="evenodd" d="M17.0642 20.3285C17.0356 20.3468 17.007 20.3652 16.9783 20.3835L16.9865 20.3922C17.0156 20.3735 17.0446 20.3549 17.0738 20.3362L17.0642 20.3285Z" fill="#484848"/>
<path fill-rule="evenodd" clip-rule="evenodd" d="M16.9017 20.3133C16.8835 20.3424 16.8653 20.3715 16.847 20.4005L16.8557 20.4074C16.8739 20.3789 16.8919 20.3504 16.9098 20.3219L16.9017 20.3133Z" fill="#484848"/>
<path fill-rule="evenodd" clip-rule="evenodd" d="M16.9837 20.2585C17.0142 20.2294 17.0449 20.2 17.0754 20.1707L17.0667 20.1639C17.0365 20.1924 17.0064 20.2207 16.9762 20.2491L16.9837 20.2585Z" fill="#484848"/>
<path fill-rule="evenodd" clip-rule="evenodd" d="M16.8625 20.6946C16.8767 20.6734 16.8908 20.6522 16.905 20.631L16.8975 20.6215C16.8824 20.6463 16.8672 20.671 16.8521 20.6958L16.8625 20.6946Z" fill="#484848"/>
<path fill-rule="evenodd" clip-rule="evenodd" d="M16.88 20.6627L16.8658 20.6544L16.8902 20.6615L16.88 20.6627Z" fill="#484848"/>
<path fill-rule="evenodd" clip-rule="evenodd" d="M21.8006 9.50984C21.7643 9.48388 21.7279 9.45778 21.6916 9.43198L21.6854 9.44093L21.7919 9.51133L21.8006 9.50984Z" fill="#484848"/>
<path fill-rule="evenodd" clip-rule="evenodd" d="M21.7909 9.21534L21.7022 9.12405L21.6954 9.13285C21.724 9.16269 21.7526 9.19267 21.7813 9.22265L21.7909 9.21534Z" fill="#484848"/>
<path fill-rule="evenodd" clip-rule="evenodd" d="M13.7719 18.1274C13.7811 18.1243 13.7901 18.1214 13.7993 18.1184L13.7653 18.1182L13.7719 18.1274Z" fill="#484848"/>
<path fill-rule="evenodd" clip-rule="evenodd" d="M16.8364 20.7062L16.928 20.6179L16.9193 20.6111C16.8892 20.6397 16.8591 20.6682 16.829 20.6967L16.8364 20.7062Z" fill="#484848"/>
</svg>
