<svg width="394" height="38" viewBox="0 0 394 38" fill="none" xmlns="http://www.w3.org/2000/svg">
<path fill-rule="evenodd" clip-rule="evenodd" d="M37.5378 37.9544C37.1998 38.021 31.7519 38.0109 31.5289 37.9472C31.6741 37.7174 31.8845 37.5564 32.0665 37.3717C32.246 37.1895 32.4402 37.0217 32.6082 36.8659V34.2152C31.845 33.452 31.0703 32.6775 30.2754 31.8827C31.3005 30.8853 32.3082 29.9049 33.3088 28.9315V27.9406C32.6489 27.2796 31.9717 26.6014 31.2935 25.922V21.6243C30.319 20.6504 29.3488 19.6811 28.3798 18.7127V18.1C27.9612 17.6803 27.5358 17.2538 27.108 16.8249V14.9905C27.2808 14.811 27.4635 14.621 27.643 14.4344V12.957C27.0187 12.3297 26.3766 11.6846 25.7344 11.0393C25.8445 10.8924 25.9734 10.95 26.0841 10.9415C26.2018 10.9326 26.3206 10.9396 26.443 10.9396C26.6337 10.7557 26.8173 10.5786 27.0014 10.4011H27.2535C27.4706 10.5194 27.4706 10.5194 27.8241 10.498C27.9435 10.3867 28.0763 10.263 28.2049 10.1433H28.6267C28.7142 10.2183 28.7971 10.2893 28.9031 10.3804C29.2194 10.3804 29.5572 10.3882 29.8942 10.376C30.0074 10.3719 30.1171 10.3041 30.2314 10.2885C30.3481 10.2726 30.4686 10.2849 30.6383 10.2849C30.7857 10.4588 30.9516 10.6543 31.0993 10.8285C31.2742 10.8393 31.4008 10.8472 31.5399 10.8559C31.6557 10.9621 31.7763 11.0728 31.9056 11.1914C31.9823 11.1951 32.063 11.1989 32.1537 11.2033C32.2626 11.1046 32.3702 11.007 32.4882 10.9002H32.7631C32.7846 10.9637 32.807 11.03 32.8276 11.0908C32.9572 11.1944 33.1561 11.0801 33.2742 11.2766C33.2828 11.3204 33.2981 11.3992 33.3184 11.5032C33.5192 11.519 33.7156 11.5346 33.919 11.5508C33.9444 11.6227 33.9677 11.6887 33.995 11.7661H34.4418C34.6986 11.6159 34.7 11.4619 35.1147 11.8331C35.2711 11.9172 35.4276 12.0012 35.5893 12.0882C35.6745 12.0546 35.7723 12.0161 35.8663 11.979C35.9566 12.0478 36.0285 12.1026 36.1059 12.1616H36.3643C36.5484 11.9855 36.7388 11.8034 36.9139 11.6359H37.5328C37.5406 11.7796 37.5532 11.9044 37.5533 12.0292C37.5544 14.4891 37.5542 16.949 37.5542 19.409C37.5542 25.4444 37.5542 31.4798 37.5535 37.5151C37.5535 37.6588 37.5434 37.8025 37.5378 37.9544Z" fill="#484848"/>
<mask id="mask0" mask-type="alpha" maskUnits="userSpaceOnUse" x="0" y="0" width="14" height="21">
<path d="M0 0.330566H13.7V20.0777H0V0.330566Z" fill="white"/>
</mask>
<g mask="url(#mask0)">
<path fill-rule="evenodd" clip-rule="evenodd" d="M13.6983 19.5859C13.5204 19.5986 13.4764 19.776 13.3561 19.8709C13.1829 19.895 13.1342 19.7088 12.9698 19.6302H12.511C12.46 19.6766 12.4005 19.7308 12.3395 19.7864C12.325 19.8712 12.3114 19.9509 12.2956 20.0436C12.2463 20.0551 12.198 20.0667 12.1508 20.0777C12.0227 19.8599 12.2288 19.7785 12.3061 19.6344V19.3414C12.1366 19.2036 11.9522 19.2973 11.7502 19.2336C11.484 18.9663 11.1897 18.6708 10.9047 18.3846C10.7713 18.3692 10.657 18.3561 10.5284 18.3413C10.5146 18.2098 10.5025 18.094 10.4871 17.9483C10.3674 17.831 10.2317 17.6978 10.1044 17.5732C9.95194 17.5477 9.8101 17.5291 9.67063 17.4993C9.54134 17.4715 9.41455 17.4316 9.2606 17.39C9.24499 17.2963 9.22746 17.1913 9.20993 17.0862C9.21943 17.0764 9.22904 17.0664 9.23866 17.0566C9.14851 16.9691 9.05847 16.8817 8.98552 16.8109C8.82987 16.8017 8.71292 16.7948 8.57458 16.7866C8.44292 16.6583 8.30063 16.5198 8.15494 16.3778H7.44256C7.29201 16.5241 7.1435 16.6683 6.98243 16.8248C6.83233 16.6803 6.69603 16.5493 6.531 16.3905H5.94474C5.9254 16.159 5.90832 15.955 5.88943 15.7279C5.75143 15.7122 5.62871 15.6982 5.45418 15.6783C5.40554 15.6198 5.33043 15.5293 5.24175 15.4225C5.23282 15.3182 5.22218 15.1929 5.20929 15.0419C5.02922 15.0307 4.86113 15.0202 4.70323 15.0103C4.47192 14.9083 4.55946 14.6922 4.51524 14.5117C4.49318 14.4856 4.46626 14.4489 4.4347 14.4171C4.00578 13.9839 3.57619 13.5513 3.13618 13.1079C3.07137 13.0882 2.99412 13.0646 2.86687 13.0259C2.7015 12.8422 2.50672 12.6257 2.32857 12.4278C2.21478 12.4054 2.13605 12.3898 2.05687 12.3742C1.95711 12.2789 1.85882 12.1848 1.75803 12.0884C1.67682 12.076 1.5973 12.0637 1.52299 12.0523C1.45467 11.9965 1.39178 11.9453 1.3316 11.8962C1.21612 11.8895 1.10832 11.8832 0.991704 11.8765C0.887189 11.7822 0.77996 11.6855 0.651465 11.5696H0.05763C-3.59037e-05 11.3229 -0.0214349 7.3513 0.026185 6.59739C0.137826 6.61078 0.179564 6.70807 0.24958 6.77216C0.255349 6.88181 0.261231 6.991 0.268696 7.13166C0.592421 7.45957 0.929832 7.80282 1.26883 8.14435C1.60194 8.47982 1.93664 8.81357 2.23208 9.10955C2.30572 9.29038 2.20799 9.4655 2.40333 9.57389C2.57131 9.40312 2.81416 9.29508 2.83044 8.98262C2.76393 8.90959 2.69935 8.83428 2.63001 8.76355C2.36872 8.49722 2.1054 8.23283 1.84389 7.96661C1.72331 7.8438 1.60952 7.71229 1.40501 7.69066C1.39042 7.57643 1.37685 7.47056 1.35943 7.3339C1.05165 7.02121 0.726797 6.69124 0.398887 6.35818V5.86454C0.350023 5.7874 0.306475 5.71884 0.256367 5.63964C0.248675 5.55094 0.240192 5.45125 0.230691 5.34011C0.165425 5.2632 0.0954092 5.18056 0.0227917 5.09472V0.38436C0.0384011 0.368565 0.0442829 0.361469 0.0512958 0.355746C0.0580825 0.350253 0.0654347 0.343156 0.0732394 0.342012C0.108983 0.336976 0.144952 0.330566 0.180921 0.330566C1.93607 0.330795 3.69133 0.331482 5.4466 0.333084C5.47261 0.333084 5.49852 0.34453 5.54795 0.35609C5.59353 0.630436 5.56423 0.913253 5.56932 1.19378C5.57453 1.47751 5.57057 1.76136 5.57057 2.0452V2.90224C7.57038 4.92682 9.56499 6.94613 11.5534 8.95904C11.5617 9.12259 11.5691 9.26818 11.5775 9.4307C11.7274 9.58934 11.8829 9.75358 12.0535 9.93407V13.1099C12.2859 13.3526 12.5114 13.588 12.7349 13.8214V14.3742C12.6386 14.4834 12.5311 14.6053 12.4213 14.7298V17.6514C12.7625 18.0006 13.1051 18.3514 13.4552 18.7098V19.2015C13.507 19.3533 13.7283 19.3936 13.6969 19.5859H13.6983Z" fill="#484848"/>
</g>
<path fill-rule="evenodd" clip-rule="evenodd" d="M18.7654 20.2866C18.8643 20.2734 18.963 20.2604 19.0782 20.245C19.1632 20.1704 19.2587 20.0864 19.3472 20.0088C19.4742 19.9896 19.5903 19.9721 19.7309 19.9508C19.8248 20.345 20.1596 20.5731 20.4248 20.8565C20.5688 21.0102 20.7077 21.1687 20.8338 21.3084H21.3703C21.5842 21.4711 21.8122 21.4813 22.0707 21.4036C22.0773 21.3265 22.0841 21.2478 22.0918 21.1574C21.9848 21.053 21.8811 20.9519 21.7729 20.8462H21.1288C20.8632 20.5748 20.6138 20.3202 20.3265 20.0266C20.314 19.9837 20.2841 19.8814 20.2531 19.7751C20.3219 19.6919 20.4202 19.7292 20.5072 19.7233C20.589 19.7177 20.6715 19.7221 20.7437 19.7221C20.9101 19.6114 21.0321 19.498 20.9303 19.2557C20.6713 19.2481 20.4023 19.2403 20.1022 19.2318C20.0802 18.3008 20.1064 17.3882 20.0872 16.4513C19.814 16.2035 19.5362 15.9514 19.2883 15.7264V13.3408C19.4159 13.2192 19.5482 13.0931 19.7063 12.9424H20.3286C20.978 12.2942 21.5864 11.687 22.2476 11.0271V10.1864C22.4266 10.091 22.5483 10.1696 22.6746 10.2706H23.3077C23.502 10.4812 23.6936 10.6889 23.9206 10.9347C23.9235 10.9987 23.9294 11.126 23.9374 11.3019C23.9809 11.3405 24.0482 11.4004 24.124 11.4676C24.3376 11.4676 24.5559 11.5038 24.7552 11.4578C24.9676 11.4088 25.167 11.5392 25.3862 11.4483C25.4082 11.3948 25.4352 11.3291 25.4638 11.2595C25.5608 11.22 25.6608 11.1791 25.7307 11.1505C26.3609 11.7794 26.9814 12.3987 27.6423 13.0583V14.3582C27.4776 14.5292 27.3007 14.713 27.0984 14.923C27.0931 15.4921 27.0875 16.0844 27.0816 16.7065C26.9521 16.7149 26.8461 16.7275 26.7401 16.7276C25.9062 16.7293 25.0724 16.7286 24.2384 16.7286H23.8858C23.3396 17.2729 22.7892 17.8211 22.2216 18.3868H21.5543C21.4179 18.5264 21.2973 18.6498 21.1797 18.7702V19.8926C21.5225 20.2144 21.8827 20.5525 22.2314 20.8799V21.6522C22.6487 22.0706 23.0676 22.4909 23.4848 22.9091V23.9921C24.9464 25.4538 26.416 26.9233 27.9067 28.4139V29.903C28.6283 30.6238 29.3077 31.3024 30.0137 32.0075C30.0897 32.0117 30.208 32.018 30.2897 32.0224C31.0672 32.799 31.8245 33.5551 32.6167 34.3461V36.7592C32.2048 37.1618 31.7927 37.5644 31.3471 37.9999H27.2361C26.4125 37.1766 25.584 36.3487 24.7545 35.5194H22.424C21.1817 34.2788 19.9421 33.0382 18.7021 31.7981C18.7105 31.7782 18.719 31.7584 18.7274 31.7383H19.5338C20.0481 31.2248 20.5459 30.7279 21.0272 30.2474C21.5111 30.7331 21.9815 31.2053 22.4987 31.7241C22.4863 31.8249 22.4647 32.0022 22.4434 32.1759C22.5331 32.2748 22.6127 32.3628 22.7024 32.4617C22.7142 32.5471 22.7275 32.6447 22.7431 32.7573C22.8452 32.7752 22.9416 32.7923 23.042 32.8099C23.2358 32.9976 23.4321 33.1874 23.6414 33.39C23.7534 33.2958 23.8498 33.2149 23.964 33.1189H24.3978C24.424 33.0081 24.4464 32.9133 24.4679 32.8222C24.5814 32.7814 24.6898 32.7426 24.8292 32.6927C24.901 32.7805 24.9817 32.8796 25.1034 33.0286V33.8207C25.2168 33.9453 25.3087 34.0463 25.3975 34.1439C25.4096 34.2676 25.421 34.3834 25.4344 34.5202C25.5555 34.5333 25.662 34.5448 25.8012 34.5598C25.9199 34.6717 26.0589 34.8026 26.2219 34.9561H27.08C27.1726 35.0251 27.2381 35.0737 27.32 35.1347H27.5851C27.6208 35.0776 27.6578 35.0187 27.6988 34.9533C27.7394 34.9592 27.7805 34.9542 27.8078 34.9713C27.9141 35.0379 28.0225 35.0689 28.1623 35.0168C28.1815 34.9473 28.2028 34.8706 28.2323 34.7648C28.3091 34.6857 28.4042 34.5878 28.5018 34.4873C28.8292 34.5141 29.1536 34.4012 29.4345 34.5833H29.8724C29.8841 34.49 29.8939 34.4122 29.9001 34.3626C29.7993 34.1239 29.604 34.1688 29.4254 34.1439C29.367 34.1031 29.3001 34.0563 29.2196 34.0001H28.9258C28.8613 34.0409 28.7924 34.0845 28.7523 34.1099C28.4017 34.1835 28.0625 34.0304 27.75 34.246C27.6611 34.0306 27.733 33.8254 27.6847 33.6043C27.6467 33.5542 27.592 33.4824 27.5289 33.3993V33.0022C27.4634 32.9412 27.3778 32.8616 27.3216 32.8091C27.0216 32.7642 26.7712 32.7268 26.5271 32.69C26.288 32.8827 26.0328 32.8183 25.7756 32.8033C25.7529 32.7044 25.7326 32.6163 25.7107 32.5204C25.6273 32.4313 25.54 32.338 25.478 32.2717C25.4299 32.1183 25.3854 32.0001 25.3571 31.8782C25.3367 31.7907 25.331 31.698 25.3306 31.6077C25.3284 31.0584 25.3294 30.5091 25.3294 29.95C25.2252 29.8358 25.1212 29.7217 25.0024 29.5917V28.3759C24.8868 28.2521 24.7808 28.1388 24.6496 27.9985V26.2232C24.4563 26.023 24.279 25.8392 24.1005 25.6543C24.0879 25.5512 24.0756 25.4521 24.0598 25.3239C23.7773 25.0544 23.4793 24.7701 23.1813 24.486C23.1355 24.3321 23.2602 24.1455 23.0786 24.0342C22.8772 24.1025 22.776 24.2873 22.6423 24.4028C22.5736 24.5061 22.6434 24.652 22.5018 24.6995C22.289 24.569 21.6106 23.8795 21.5052 23.6748C21.6027 23.6694 21.6885 23.6647 21.768 23.6604C21.874 23.757 21.9684 23.843 22.0691 23.935C22.2122 23.9387 22.3732 24.0102 22.4903 23.8017C22.3534 23.657 22.2172 23.5129 22.0883 23.3764C22.0604 23.2314 22.0349 23.0992 22.0093 22.9656C22.0408 22.9509 22.0647 22.9396 22.0987 22.9235C22.1449 22.9616 22.1921 23.0007 22.2596 23.0564C22.3837 23.0483 22.5249 23.0389 22.6763 23.029V22.2713C22.5529 22.2654 22.447 22.2604 22.34 22.2552C22.232 22.3522 22.1307 22.4431 22.0254 22.5375H20.5847C20.3835 22.3216 20.1784 22.1016 19.9448 21.8509C19.941 21.799 19.9339 21.6995 19.9276 21.6117C19.8583 21.4788 19.7609 21.43 19.6054 21.4621C19.5702 21.5005 19.5237 21.5512 19.4929 21.585C19.3336 21.5255 19.1914 21.4722 19.0492 21.4192C18.8905 21.3342 18.9089 21.1975 18.9568 21.0374C19.043 21.0291 19.1224 21.0214 19.1993 21.0141C19.2737 21.0674 19.3399 21.115 19.4132 21.1675C19.6063 21.1904 19.8042 21.1975 20.026 21.1523C20.0321 21.0543 20.0373 20.9679 20.042 20.8916C19.8911 20.804 19.7593 20.7273 19.5876 20.6277H18.9975C19.051 20.5894 19.0771 20.5705 19.1029 20.552C19.1401 20.428 19.0796 20.3539 18.974 20.3161C18.9065 20.2921 18.8312 20.2902 18.7593 20.2784L18.7654 20.2866Z" fill="#484848"/>
<path fill-rule="evenodd" clip-rule="evenodd" d="M25.1357 10.1781V9.57832C25.5284 9.17618 25.9239 8.77128 26.3248 8.36073V6.37399C26.7087 6.0018 27.0956 5.62673 27.4798 5.25419V4.89433C27.4798 3.3739 27.4793 1.85346 27.4807 0.333024C27.4808 0.225433 27.4942 0.117958 27.5022 0H37.523C37.5336 0.120147 37.5523 0.234994 37.5525 0.349842C37.5548 1.31747 37.5539 2.28497 37.5539 3.25248C37.5539 5.02173 37.5543 6.79099 37.5531 8.56024C37.553 8.68661 37.5412 8.81297 37.5336 8.96284H36.9165C36.8268 9.03115 36.7621 9.08057 36.6897 9.13575C36.6186 9.14922 36.5391 9.16443 36.445 9.1824C36.4164 9.26534 36.3872 9.34978 36.375 9.38479C36.2587 9.52775 36.172 9.63396 36.1108 9.70906C35.8305 9.74742 35.6 9.77899 35.3742 9.80974C35.2923 9.74593 35.221 9.6904 35.142 9.62889H34.7813C34.6489 9.50678 34.5157 9.38376 34.379 9.25762H34.1141C33.9152 9.4197 33.6858 9.60631 33.4564 9.79304C33.4697 9.80548 33.4832 9.81804 33.4966 9.83048C33.4235 9.95143 33.3505 10.0723 33.2804 10.188H32.9381C32.7376 10.1193 32.5703 10.0619 32.4025 10.0043C32.2868 9.73544 32.3775 9.47891 32.441 9.17998C32.3698 9.11812 32.2885 9.04739 32.2189 8.98703C32.0326 8.95466 31.8722 8.95374 31.7521 9.0808H31.101C31.0513 9.13402 31.003 9.18574 30.9611 9.23078C30.7179 9.29137 30.4568 9.16455 30.2305 9.36832C30.2076 9.31637 30.1894 9.27939 30.1752 9.2408C30.1627 9.20682 30.1548 9.171 30.1424 9.12699C30.0951 9.1066 30.0467 9.08575 29.9975 9.06433C29.9647 9.00166 29.9316 8.93842 29.8935 8.8655H29.3232C29.2507 8.80756 29.1872 8.75688 29.1265 8.70838C29.0312 8.65804 28.8972 8.70919 28.8251 8.56059C29.0308 8.38065 29.2836 8.3082 29.5527 8.25544C29.5661 8.2218 29.5821 8.18989 29.5912 8.15603C29.6004 8.12124 29.6029 8.08461 29.6075 8.05316C29.7443 7.97034 29.8747 7.89108 30.0152 7.80596V7.4575C29.7363 7.17677 29.4599 6.89869 29.1594 6.59608C28.7335 6.60253 28.2743 6.55392 27.797 6.6326C27.7706 6.55461 27.7424 6.47156 27.7069 6.36719H27.3917C27.3787 6.56878 27.3673 6.74837 27.3551 6.93705C27.2203 6.95952 27.1076 6.97841 27.0001 6.99626C26.9491 7.24992 26.9749 7.29265 27.2628 7.43757C27.266 7.47535 27.2723 7.52016 27.2727 7.56497C27.2731 7.61059 27.2676 7.6562 27.2629 7.73004C26.8727 8.11583 26.4699 8.51416 26.0877 8.89211C26.0741 9.01514 26.0651 9.09704 26.0543 9.19427C25.8404 9.41739 25.6197 9.64778 25.3989 9.87805C25.3452 10.012 25.4532 10.193 25.2701 10.2948C25.225 10.2555 25.1791 10.2159 25.1357 10.1781Z" fill="#484848"/>
<path fill-rule="evenodd" clip-rule="evenodd" d="M13.2023 24.0502C13.0861 23.9202 12.9894 23.812 12.8836 23.6937V22.5185C12.8122 22.4293 12.7497 22.3514 12.6779 22.2619V21.2567C12.7256 21.2039 12.7859 21.1373 12.8583 21.057H13.6012C13.8167 20.8382 14.0202 20.6317 14.2348 20.4137C14.1632 20.3186 14.0988 20.2333 14.0217 20.1312V19.3796C14.0273 19.3792 14.0327 19.3788 14.0381 19.3784V20.1119C14.1101 20.19 14.1712 20.2561 14.2321 20.3223H14.8587C14.9255 20.3733 14.99 20.4227 15.0805 20.4916H16.4951C16.5879 20.5974 16.6754 20.6968 16.7804 20.8164C16.5839 21.0263 16.405 21.2173 16.2107 21.4249V23.1588H15.5351C15.0795 23.6259 14.66 24.0562 14.2246 24.5028V26.4454C14.6237 26.8546 15.0368 27.2783 15.4683 27.7208V28.618C17.7654 30.9625 20.0253 33.2687 22.3255 35.6159H24.4862C25.2685 36.4146 26.0201 37.1819 26.7817 37.9595C26.7472 37.9698 26.7017 37.9911 26.6546 37.9958C26.5831 38.0029 26.5104 37.9987 26.4382 37.9987C22.9626 37.9987 19.4872 37.9989 16.0117 37.9981C15.8789 37.998 15.7459 37.9866 15.5894 37.9795C15.5772 37.8509 15.5589 37.7442 15.5583 37.6376C15.555 37.1676 15.5569 36.6976 15.5569 36.2241C15.4003 36.0579 15.251 35.8994 15.0859 35.7242V34.9191C14.9542 34.7756 14.8376 34.6485 14.7183 34.5184V34.096C14.7726 34.026 14.828 33.9544 14.886 33.8796C14.901 33.643 14.9386 33.4028 14.8143 33.1806C14.7074 32.9896 14.7012 32.7788 14.6994 32.5264C14.5849 32.4166 14.4544 32.2917 14.3245 32.1673H13.2337C13.0612 32.3126 12.89 32.4569 12.7008 32.6163C12.7058 32.6587 12.7139 32.728 12.7232 32.8068C12.6872 32.8037 12.6443 32.8071 12.6418 32.7985C12.6174 32.7132 12.5998 32.6261 12.5776 32.5278C12.4867 32.51 12.4002 32.493 12.2774 32.469C12.2494 32.3877 12.1992 32.2905 12.1833 32.188C12.0858 31.5575 12.1304 30.9215 12.1232 30.2875C12.1226 30.2335 12.1311 30.1797 12.1364 30.1128C12.2364 30.0934 12.33 30.0752 12.4456 30.0527C12.4507 29.9481 12.4594 29.8492 12.4597 29.7504C12.4613 29.3262 12.4614 28.9019 12.4599 28.4777C12.4595 28.3542 12.4643 28.2357 12.6058 28.1504C12.6812 28.1446 12.7792 28.1372 12.91 28.1273C13.0587 27.9617 13.2226 27.7792 13.4097 27.5707V26.1131C13.3467 26.0373 13.2828 25.9607 13.2023 25.8643V24.0502Z" fill="#484848"/>
<path fill-rule="evenodd" clip-rule="evenodd" d="M13.9974 18.108C13.9256 18.2521 13.9256 18.2521 13.7234 18.3187C13.3743 17.9681 13.0342 17.6261 12.6568 17.2467V14.5056C12.7631 14.3883 12.867 14.2735 12.9733 14.1563V13.4479C12.7582 13.2637 12.5219 13.061 12.2855 12.8584C12.2949 12.8433 12.3044 12.8281 12.314 12.813C12.308 12.6951 12.2969 12.5771 12.2967 12.4592C12.2951 11.6236 12.2957 10.7882 12.2957 9.95274V9.54684C12.1299 9.4086 11.9679 9.27357 11.8198 9.15002V8.67867C12.9143 7.58383 14.0147 6.48303 15.1314 5.36592V0.0449173C15.3659 -0.00319342 23.4568 -0.0181204 23.8709 0.0273494C23.8775 0.126556 23.8876 0.232078 23.891 0.337945C23.8945 0.447601 23.8918 0.557486 23.8918 0.669209C23.4024 1.15032 22.9197 1.62499 22.4328 2.10369V6.42045C22.2934 6.56846 22.1808 6.68799 22.0584 6.81774V8.06241C22.3293 8.32903 22.5892 8.58509 22.8776 8.86893H23.7731C24.2102 9.24348 25.173 10.237 25.2855 10.4317C25.1857 10.4522 25.0912 10.4717 24.9871 10.4932C24.9315 10.4518 24.8736 10.4085 24.8053 10.3576C24.7173 10.3484 24.6184 10.3382 24.5034 10.3261C24.474 10.2419 24.4449 10.1584 24.4291 10.1133C24.1532 9.8331 23.903 9.57888 23.6504 9.32213C23.3873 9.2994 23.3873 9.2994 23.2244 9.63147C23.1952 9.55924 23.1703 9.49781 23.1366 9.41445H22.5929C22.5513 9.3304 22.5197 9.26668 22.4827 9.19204C22.3639 9.17746 22.2402 9.12039 22.1338 9.23958L22.1392 9.2328C22.0563 9.19698 21.9636 9.17436 21.893 9.12188C21.817 9.06528 21.7616 8.98065 21.6981 8.90935C21.7635 8.76915 21.9311 8.69704 21.843 8.5178C21.5612 8.19756 21.267 7.86354 20.9864 7.54479V6.87882C21.0716 6.72737 21.2903 6.62851 21.1601 6.38807C21.0732 6.37096 20.9775 6.35213 20.8694 6.33089C20.8494 6.26326 20.8293 6.19551 20.8054 6.11479C20.6809 6.08092 20.5288 6.07701 20.4681 5.86172V5.26832C20.5062 5.24822 20.5714 5.21412 20.6075 5.19506V4.80398C20.4188 4.66159 20.2547 4.5377 20.072 4.39991C20.0143 4.39509 19.9327 4.38809 19.8378 4.38005C19.7756 4.32987 19.7051 4.27304 19.6379 4.21907H19.3053C19.2826 4.29347 19.2645 4.35353 19.2421 4.42713C19.188 4.45675 19.1252 4.49097 19.0435 4.53575C19.0477 4.60705 19.0523 4.68422 19.0574 4.77148C19.166 4.78744 19.2542 4.80042 19.3581 4.81569C19.3736 4.90376 19.3893 4.99125 19.4026 5.06635C19.5146 5.29335 19.7395 5.18013 19.9146 5.26189C20.021 5.56732 19.888 5.90949 20 6.22238C20.1081 6.28071 20.2092 6.33514 20.3128 6.39083V7.42676C20.3958 7.60657 20.4555 7.73586 20.5151 7.86515C20.4971 7.87916 20.479 7.89305 20.4611 7.90694C20.6853 8.10903 20.9096 8.31124 21.1183 8.49909C21.1137 8.60208 21.1108 8.66386 21.1083 8.72207C21.2084 8.83621 21.3037 8.94494 21.3926 9.04633C21.3153 9.21409 21.3153 9.21409 21.1846 9.23257C21.0507 9.07067 20.9351 8.91095 20.7994 8.77087C20.4296 8.38909 20.0516 8.01534 19.676 7.63895C19.6118 7.57465 19.5443 7.51356 19.4654 7.43858H18.6034C18.2432 7.05932 17.8843 6.68121 17.5354 6.31378H17.0619C16.9406 6.2024 16.8267 6.09768 16.7009 5.98229C16.6106 5.98688 16.5146 5.9917 16.4015 5.99733C16.4109 6.12053 16.4184 6.21698 16.4232 6.2791C16.0477 6.65607 15.6929 7.01225 15.3018 7.40483H15.1446C15.1268 7.31722 15.1108 7.23868 15.096 7.16622C14.8565 7.09228 14.5502 7.0909 14.2902 7.16427C14.2832 7.23753 14.2869 7.32112 14.2649 7.39736C14.246 7.4627 14.198 7.51953 14.1611 7.58326H13.5219C13.4101 7.65766 13.3118 7.72254 13.3399 7.88662C13.3884 7.91177 13.4425 7.93955 13.5087 7.97389C13.5568 8.06437 13.6116 8.16771 13.6701 8.27759V10.2837C13.6 10.3697 13.5311 10.4542 13.4463 10.5583V11.2238C13.28 11.2439 13.1298 11.262 12.9834 11.2796C12.8758 11.536 12.9388 11.6584 13.1901 11.6721C13.363 11.6815 13.5368 11.6738 13.7188 11.6738C13.7626 11.7363 13.8024 11.793 13.8427 11.8508C13.9437 11.8645 14.0421 11.8781 14.1498 11.8929C14.1817 11.9604 14.2121 12.0248 14.2491 12.103C14.2951 12.1213 14.3533 12.1445 14.4091 12.1666C14.4219 12.1836 14.4412 12.1974 14.4424 12.2126C14.4565 12.3866 14.5876 12.4814 14.6937 12.5933C14.7673 12.6709 14.8716 12.7377 14.8058 12.8692C14.6864 12.9719 14.6031 12.8483 14.4796 12.8171C14.356 12.9306 14.2231 13.0524 14.0627 13.1995H13.3548C13.3465 13.3593 13.3395 13.492 13.3346 13.5861C13.4093 13.7894 13.565 13.8052 13.7374 13.854C13.6662 13.9136 13.6172 13.9547 13.5537 14.0078V14.2457C13.6064 14.3123 13.6628 14.3834 13.7274 14.4648C13.7234 14.5467 13.719 14.6357 13.7141 14.7361C13.5686 14.7541 13.4367 14.7701 13.2925 14.7878V15.3481C13.3575 15.4172 13.4322 15.4965 13.5091 15.5781C13.5908 15.5929 13.6704 15.6074 13.7531 15.6223C13.894 15.7848 14.1122 15.8868 14.1238 16.152C14.4078 16.1715 14.5261 16.4209 14.737 16.5765C14.7996 16.5859 14.8795 16.598 14.9811 16.6134C15.0004 16.7037 15.0209 16.7994 15.0423 16.8996C15.1033 16.9823 15.1672 17.069 15.2358 17.1619C15.1932 17.2249 15.1589 17.2756 15.1212 17.3314C14.9551 17.3392 14.7948 17.3466 14.5987 17.3558C14.6715 17.4949 14.7263 17.5994 14.7879 17.7171C14.5135 17.8372 14.451 17.6138 14.3134 17.5049C14.3634 17.4283 14.4071 17.3616 14.4528 17.2919V17.0265C14.246 16.8357 14.032 16.6381 13.7987 16.4227H13.2608C13.2491 16.5764 13.2383 16.7172 13.2278 16.8569C13.341 16.987 13.4451 17.1067 13.5493 17.2263L13.5234 17.2556C13.3853 17.1776 13.2472 17.0995 13.095 17.0137C13.0368 17.0582 12.9828 17.0993 12.9039 17.1597C13.052 17.3148 13.1829 17.4517 13.3101 17.5849C13.4475 17.6042 13.5724 17.6218 13.7127 17.6415C13.7276 17.8031 13.7415 17.955 13.754 18.0907C13.8463 18.1705 13.9245 18.1442 14.0027 18.1153L13.9974 18.108Z" fill="#484848"/>
<path fill-rule="evenodd" clip-rule="evenodd" d="M14.9353 5.53596C13.8602 6.62115 12.8023 7.68902 11.7206 8.78082C9.76788 6.80626 7.80041 4.81664 5.83496 2.82908V0.344232C6.05653 0.297729 14.5928 0.286901 14.9011 0.329301C14.9596 0.548254 14.9849 4.63416 14.9353 5.53596Z" fill="#484848"/>
<path fill-rule="evenodd" clip-rule="evenodd" d="M26.4771 25.2588C25.8533 24.6386 25.2402 24.029 24.6003 23.3929V22.6985C24.0399 22.1429 23.5114 21.619 22.9344 21.0471H22.2986C21.9313 20.6791 21.5943 20.3416 21.2456 19.9925V19.0198C21.3258 18.9395 21.4161 18.8492 21.5148 18.7503H22.2005C22.7545 18.1887 23.2905 17.6453 23.8206 17.1077H27.0464C27.4792 17.5391 27.8956 17.9542 28.349 18.4061V18.9715C29.3235 19.9449 30.2992 20.9197 31.27 21.8896V25.2284C31.042 25.2823 26.995 25.3033 26.4771 25.2588Z" fill="#484848"/>
<path fill-rule="evenodd" clip-rule="evenodd" d="M22.5018 2.44348C22.9906 1.96714 23.4695 1.50044 23.9403 1.04156C23.954 0.780774 23.9662 0.549011 23.9792 0.302734H27.3465C27.3572 0.356366 27.379 0.415441 27.379 0.474629C27.3807 2.07089 27.3803 3.66716 27.3795 5.26331C27.3795 5.29902 27.3723 5.33485 27.3638 5.41468C27.0028 5.76255 26.6188 6.13264 26.2413 6.49628V8.46649C25.846 8.86516 25.4518 9.26269 25.0462 9.67179V10.1434C24.7821 9.94472 24.5998 9.72384 24.3964 9.52677C24.1889 9.32574 23.9863 9.11949 23.7761 8.91029H22.8551C22.6241 8.66582 22.4013 8.43032 22.1436 8.15774V7.06457C22.2542 6.94676 22.371 6.82226 22.5018 6.68302V2.44348Z" fill="#484848"/>
<path fill-rule="evenodd" clip-rule="evenodd" d="M22.8666 21.0447C23.3852 21.5691 23.8645 22.0537 24.3798 22.5748V23.2841C25.0391 23.9491 25.6658 24.5817 26.3218 25.2435C27.8714 25.2446 29.4584 25.2429 31.0709 25.2444V26.0498C31.7429 26.7323 32.4055 27.4055 33.0655 28.0758V28.9584C32.0746 29.9362 31.0595 30.9377 30.0393 31.9443H29.853C29.2006 31.2835 28.5623 30.637 27.8803 29.9463V28.4582C26.411 26.9708 24.9604 25.5025 23.5096 24.0339V22.9358C23.1014 22.52 22.6946 22.1056 22.293 21.6966V21.0607C22.4065 21.0548 22.5023 21.0477 22.5983 21.0453C22.6971 21.0427 22.7961 21.0447 22.8666 21.0447Z" fill="#484848"/>
<path fill-rule="evenodd" clip-rule="evenodd" d="M15.71 28.7515V27.8692C15.8943 27.6804 16.0856 27.4845 16.2965 27.2683V26.55C16.4566 26.3854 16.6028 26.2349 16.7544 26.0791V23.8907C16.6632 23.7881 16.5604 23.6726 16.4548 23.5539V21.6851C16.5647 21.5677 16.6585 21.4347 16.8257 21.3467C16.8682 21.6362 16.9072 21.9022 16.9506 22.198C16.9868 22.2474 17.0404 22.3209 17.1017 22.4045C17.1128 22.4831 17.1255 22.5729 17.1403 22.6778C17.2124 22.7053 17.2872 22.7338 17.3466 22.7564C17.4123 22.8792 17.4714 22.9898 17.535 23.1091C17.4857 23.1351 17.4306 23.1638 17.3631 23.199V23.5211C17.4648 23.6273 17.5661 23.7329 17.6754 23.8471V24.0805C17.634 24.0805 17.5928 24.0907 17.5851 24.079C17.537 24.0059 17.4964 23.928 17.4349 23.8197H17.1647C17.0659 23.9911 17.1624 24.1103 17.2565 24.2385C17.144 24.3582 17.0382 24.4707 16.9267 24.5893V25.819C17.0166 25.8468 17.0941 25.8706 17.1879 25.8995C17.1701 25.9665 17.1524 26.0337 17.1404 26.0785C17.1906 26.2201 17.2348 26.345 17.2789 26.4698C17.3016 26.5908 17.4626 26.6549 17.3968 26.8168C17.2713 27.0212 17.1056 26.8636 16.9267 26.851C16.8775 26.8836 16.8115 26.9275 16.7477 26.9698V27.3431C16.8499 27.3623 16.9382 27.3789 17.0396 27.398C17.1366 27.5763 17.2353 27.7573 17.3476 27.9635H17.8943C17.9836 28.1098 17.9669 28.2371 17.9199 28.3797C17.7687 28.3753 17.6685 28.1771 17.4822 28.3135C17.476 28.3623 17.466 28.4398 17.4557 28.5209C17.5182 28.587 17.5737 28.6456 17.642 28.7176H18.5866C18.7009 28.8195 18.7962 28.9045 18.9045 29.0011H19.3514C19.6195 29.2873 19.8886 29.5745 20.1579 29.8619C20.1694 29.8527 20.1809 29.8433 20.1924 29.8339C20.2815 29.8524 20.3706 29.8708 20.4713 29.8918C20.4911 29.9881 20.5104 30.0825 20.5338 30.1969C20.6748 30.2068 20.8088 30.2163 20.9466 30.226C20.8478 30.4104 19.9993 31.2798 19.5638 31.6415H19.2626H18.615C17.6344 30.666 16.6854 29.7218 15.71 28.7515Z" fill="#484848"/>
<path fill-rule="evenodd" clip-rule="evenodd" d="M21.994 10.1433V11.0058C21.4306 11.5898 20.8749 12.166 20.2718 12.7911H19.6548C19.4723 12.9824 19.3176 13.1445 19.1567 13.3132V15.7465C19.4009 15.9725 19.6642 16.2164 19.9091 16.4432C19.9363 17.4083 19.9209 18.3126 19.9194 19.217C19.8997 19.2203 19.8801 19.2236 19.8604 19.227C19.844 19.1851 19.8143 19.1439 19.8132 19.1016C19.808 18.909 19.811 18.7161 19.811 18.5204C19.7419 18.4318 19.6758 18.347 19.5974 18.2466V16.7092C19.5339 16.6584 19.4574 16.5973 19.3722 16.5294H19.2255C19.0938 16.3988 18.9603 16.2666 18.8315 16.1389C18.7145 16.1303 18.6101 16.1225 18.5006 16.1143C18.4674 16.0324 18.4373 15.9582 18.3968 15.8579C18.2922 15.8507 18.1827 15.8433 18.0697 15.8356C18.0322 15.9173 18.0026 15.9818 17.9779 16.0357C17.8837 16.0864 17.7996 16.1317 17.6927 16.1891C17.3989 15.9439 17.1573 15.6249 16.8556 15.3563C16.7392 15.3509 16.6164 15.3453 16.4586 15.3379C16.3979 15.2622 16.3231 15.1687 16.2098 15.0274C16.2931 14.9746 16.3521 14.9372 16.4072 14.9022C16.4533 14.6805 16.2956 14.6079 16.1657 14.5089V14.2193C16.143 14.046 15.9734 14.0089 16.0161 13.8514C16.1376 13.8939 16.249 13.9329 16.3775 13.9779C16.3891 14.045 16.4028 14.1242 16.4188 14.2167C16.4695 14.2665 16.5266 14.3224 16.5817 14.3764H16.9077C16.9203 14.2661 16.9322 14.1626 16.9386 14.1074C16.8807 13.9193 16.7077 13.8671 16.6959 13.6855C16.8489 13.6041 17.0148 13.6684 17.1627 13.6268C17.3108 13.585 17.4527 13.5191 17.6271 13.5079C17.7197 13.4112 17.8123 13.3146 17.8938 13.2295V12.6917C17.8322 12.613 17.766 12.5285 17.7033 12.4485C17.7259 12.2978 17.7473 12.1552 17.7709 11.998C17.8691 12.0353 17.9659 12.0665 18.0579 12.1086C18.1449 12.1487 18.227 12.2004 18.3433 12.2648H19.0332C19.1322 12.1706 19.2358 12.0721 19.3524 11.9611H20.1113C20.2218 11.8254 20.3409 11.679 20.4601 11.5327C20.4705 11.5412 20.4808 11.5499 20.4912 11.5584C20.5029 11.4776 20.5146 11.3968 20.528 11.3049C20.5687 11.2701 20.6148 11.2307 20.658 11.194C20.6701 11.1058 20.6814 11.0245 20.6894 10.9663C20.9592 10.6837 21.2136 10.4172 21.4751 10.1433H21.994Z" fill="#484848"/>
<path fill-rule="evenodd" clip-rule="evenodd" d="M16.6073 23.903V25.981C16.4707 26.1368 16.3232 26.3049 16.1677 26.4821V27.2117C15.9991 27.3782 15.8338 27.5414 15.6681 27.7051C15.5071 27.6021 14.7124 26.7772 14.5127 26.5028V24.73C14.9129 24.3087 15.3024 23.8988 15.7137 23.4661H16.2549C16.38 23.6211 16.4922 23.7602 16.6073 23.903Z" fill="#484848"/>
<path fill-rule="evenodd" clip-rule="evenodd" d="M19.7481 19.5472C19.6489 19.5717 19.55 19.6147 19.4505 19.6173C19.1036 19.6261 18.7566 19.618 18.4098 19.6223C18.3075 19.6236 18.2055 19.6445 18.1035 19.6565L18.1112 19.6641C18.2092 19.6397 18.307 19.5967 18.4053 19.5941C18.742 19.585 19.079 19.5938 19.4158 19.5881C19.5271 19.5862 19.6381 19.5613 19.7493 19.5469L19.7481 19.5472Z" fill="#484848"/>
<path fill-rule="evenodd" clip-rule="evenodd" d="M25.7343 10.8813C25.6294 10.7819 25.5246 10.6825 25.4351 10.5977C25.5152 10.6878 25.6098 10.7941 25.7043 10.9004C25.7143 10.8941 25.7243 10.8877 25.7343 10.8813Z" fill="#484848"/>
<path fill-rule="evenodd" clip-rule="evenodd" d="M22.382 9.53877V9.84063C22.3698 9.84017 22.3578 9.8397 22.3457 9.83923C22.3608 9.73871 22.3758 9.63828 22.391 9.53784L22.382 9.53877Z" fill="#484848"/>
<path fill-rule="evenodd" clip-rule="evenodd" d="M19.9801 19.6262C19.9709 19.5959 19.9616 19.5658 19.9732 19.6035C19.9796 19.565 19.9746 19.5947 19.9697 19.6241L19.9801 19.6262Z" fill="#484848"/>
<path fill-rule="evenodd" clip-rule="evenodd" d="M20.0414 19.5991C19.9442 19.6026 19.8467 19.6064 19.7495 19.61L19.7517 19.6097C19.8506 19.6106 19.9496 19.6114 20.0487 19.6121L20.0414 19.5991Z" fill="#484848"/>
<path fill-rule="evenodd" clip-rule="evenodd" d="M13.6406 19.4768C13.6708 19.4618 13.7011 19.4468 13.7313 19.4316C13.7341 19.4389 13.737 19.446 13.74 19.4533L13.6424 19.4768H13.6406Z" fill="#484848"/>
<path fill-rule="evenodd" clip-rule="evenodd" d="M20.016 19.5569C19.9847 19.5852 19.9533 19.6132 19.9219 19.6415L19.927 19.6545C19.96 19.6227 19.9931 19.5908 20.0262 19.559L20.016 19.5569Z" fill="#484848"/>
<path fill-rule="evenodd" clip-rule="evenodd" d="M18.2176 19.5735C18.1886 19.5918 18.1595 19.6103 18.1304 19.6286L18.1389 19.6378C18.1684 19.6191 18.1978 19.6001 18.2273 19.5812L18.2176 19.5735Z" fill="#484848"/>
<path fill-rule="evenodd" clip-rule="evenodd" d="M18.1581 19.9595C18.1745 19.9285 18.1912 19.8974 18.2078 19.8664L18.1992 19.8572C18.1828 19.8896 18.166 19.9218 18.1494 19.9542L18.1581 19.9595Z" fill="#484848"/>
<path fill-rule="evenodd" clip-rule="evenodd" d="M18.1374 19.9384C18.1678 19.9201 18.1982 19.9018 18.2285 19.8835L18.2199 19.8782C18.1896 19.8954 18.1593 19.9127 18.1289 19.93L18.1374 19.9384Z" fill="#484848"/>
<path fill-rule="evenodd" clip-rule="evenodd" d="M18.2055 19.8628L18.1431 19.9458L18.1525 19.9539C18.173 19.9262 18.1935 19.8987 18.214 19.8713L18.2055 19.8628Z" fill="#484848"/>
<path fill-rule="evenodd" clip-rule="evenodd" d="M17.915 19.8728C17.8882 19.8935 17.8614 19.9143 17.8345 19.9352L17.843 19.944C17.8702 19.9229 17.8973 19.9019 17.9244 19.881L17.915 19.8728Z" fill="#484848"/>
<path fill-rule="evenodd" clip-rule="evenodd" d="M17.8555 19.9564C17.8742 19.9272 17.8929 19.898 17.9116 19.8689L17.9031 19.8601C17.8842 19.8901 17.8655 19.9201 17.8467 19.9499L17.8555 19.9564Z" fill="#484848"/>
<path fill-rule="evenodd" clip-rule="evenodd" d="M17.8409 20.2444C17.8694 20.2243 17.898 20.2043 17.9266 20.1845L17.9178 20.178C17.8892 20.1972 17.8606 20.2166 17.832 20.236L17.8409 20.2444Z" fill="#484848"/>
<path fill-rule="evenodd" clip-rule="evenodd" d="M17.9085 20.1682C17.8862 20.1941 17.8638 20.2201 17.8413 20.246L17.8506 20.2542L17.9173 20.1767L17.9085 20.1682Z" fill="#484848"/>
<path fill-rule="evenodd" clip-rule="evenodd" d="M17.9128 20.1733C17.8875 20.1957 17.8622 20.2182 17.8369 20.2404L17.8453 20.249L17.9221 20.1817L17.9128 20.1733Z" fill="#484848"/>
<path fill-rule="evenodd" clip-rule="evenodd" d="M17.5546 20.2574C17.5748 20.2293 17.595 20.2014 17.6151 20.1733L17.6067 20.1648C17.5861 20.1931 17.5654 20.2216 17.5449 20.2497L17.5546 20.2574Z" fill="#484848"/>
<path fill-rule="evenodd" clip-rule="evenodd" d="M17.6198 20.1797C17.5904 20.1977 17.5607 20.2159 17.5312 20.2339L17.5393 20.2427C17.5694 20.2242 17.5995 20.2059 17.6296 20.1874L17.6198 20.1797Z" fill="#484848"/>
<path fill-rule="evenodd" clip-rule="evenodd" d="M17.6038 20.4651C17.5851 20.4951 17.5666 20.525 17.5479 20.5552L17.5576 20.5629C17.5757 20.5332 17.5939 20.5035 17.612 20.4739L17.6038 20.4651Z" fill="#484848"/>
<path fill-rule="evenodd" clip-rule="evenodd" d="M18.9144 20.5806C18.9251 20.5398 18.9358 20.499 18.9465 20.4582L18.9384 20.4473C18.928 20.4895 18.9176 20.5319 18.9072 20.5741L18.9144 20.5806Z" fill="#484848"/>
<path fill-rule="evenodd" clip-rule="evenodd" d="M17.6188 20.4817C17.5898 20.5003 17.5608 20.5189 17.5317 20.5376L17.54 20.5463L17.6285 20.4896L17.6188 20.4817Z" fill="#484848"/>
<path fill-rule="evenodd" clip-rule="evenodd" d="M18.624 20.5107C18.6265 20.5131 18.6289 20.5152 18.6313 20.5176L18.624 20.5107Z" fill="#484848"/>
<path fill-rule="evenodd" clip-rule="evenodd" d="M17.604 20.4663C17.5854 20.4958 17.5669 20.5254 17.5483 20.5549L17.5572 20.5618C17.5756 20.5329 17.594 20.504 17.6122 20.4751L17.604 20.4663Z" fill="#484848"/>
<path fill-rule="evenodd" clip-rule="evenodd" d="M22.0366 9.59091C22.0559 9.60848 22.0754 9.62589 22.0947 9.64345L22.101 9.63421C22.0829 9.61726 22.0646 9.60045 22.0463 9.5835L22.0366 9.59091Z" fill="#484848"/>
<path fill-rule="evenodd" clip-rule="evenodd" d="M17.2567 20.5445C17.2758 20.5272 17.2948 20.5099 17.314 20.4927L17.3065 20.4832C17.2869 20.5009 17.2672 20.5184 17.2476 20.5361L17.2567 20.5445Z" fill="#484848"/>
<path fill-rule="evenodd" clip-rule="evenodd" d="M17.3136 20.6267C17.2888 20.6496 17.2641 20.6726 17.2393 20.6956L17.2479 20.7041C17.2729 20.6809 17.2979 20.658 17.3227 20.635L17.3136 20.6267Z" fill="#484848"/>
<path fill-rule="evenodd" clip-rule="evenodd" d="M17.2548 20.711C17.2755 20.6835 17.2961 20.6559 17.3169 20.6284L17.3083 20.6199C17.2873 20.6477 17.2662 20.6754 17.2451 20.7031L17.2548 20.711Z" fill="#484848"/>
<path fill-rule="evenodd" clip-rule="evenodd" d="M17.3196 20.6331C17.2906 20.6517 17.2616 20.6703 17.2324 20.6889L17.2408 20.6977C17.2703 20.6788 17.2997 20.6599 17.3294 20.6409L17.3196 20.6331Z" fill="#484848"/>
<path fill-rule="evenodd" clip-rule="evenodd" d="M17.1551 20.6177C17.1366 20.6472 17.1182 20.6767 17.0996 20.7062L17.1084 20.7132C17.1268 20.6843 17.1451 20.6554 17.1633 20.6265L17.1551 20.6177Z" fill="#484848"/>
<path fill-rule="evenodd" clip-rule="evenodd" d="M17.2381 20.5621C17.2691 20.5325 17.3002 20.5027 17.3312 20.473L17.3223 20.4661C17.2917 20.495 17.2611 20.5237 17.2305 20.5525L17.2381 20.5621Z" fill="#484848"/>
<path fill-rule="evenodd" clip-rule="evenodd" d="M17.1151 21.0046C17.1295 20.9831 17.1438 20.9616 17.1582 20.9401L17.1506 20.9304C17.1353 20.9556 17.1199 20.9807 17.1045 21.0058L17.1151 21.0046Z" fill="#484848"/>
<path fill-rule="evenodd" clip-rule="evenodd" d="M17.1335 20.9725L17.1187 20.9639L17.1441 20.9713L17.1335 20.9725Z" fill="#484848"/>
<path fill-rule="evenodd" clip-rule="evenodd" d="M22.1271 9.65227C22.0903 9.62593 22.0533 9.59943 22.0165 9.57324L22.0103 9.58233L22.1183 9.65378L22.1271 9.65227Z" fill="#484848"/>
<path fill-rule="evenodd" clip-rule="evenodd" d="M22.1175 9.35339L22.0274 9.26074L22.0205 9.26967C22.0495 9.29995 22.0786 9.33038 22.1077 9.36081L22.1175 9.35339Z" fill="#484848"/>
<path fill-rule="evenodd" clip-rule="evenodd" d="M13.9786 18.3992C13.9881 18.396 13.9976 18.393 14.0071 18.3898L13.9717 18.3896L13.9786 18.3992Z" fill="#484848"/>
<path fill-rule="evenodd" clip-rule="evenodd" d="M17.0885 21.0165L17.1814 20.9269L17.1726 20.9199C17.1421 20.949 17.1116 20.9779 17.0811 21.0068L17.0885 21.0165Z" fill="#484848"/>
<path fill-rule="evenodd" clip-rule="evenodd" d="M56.9914 14.052C56.9914 11.6241 55.9707 10.4101 53.9292 10.4101C53.249 10.4101 52.8032 10.5235 52.5929 10.7501C52.4954 10.8471 52.4468 11.0978 52.4468 11.5023V17.9609C52.5764 17.977 52.7222 17.985 52.8845 17.985C53.9537 17.985 54.8607 17.7505 55.6062 17.2807C56.5297 16.6979 56.9914 15.622 56.9914 14.052ZM59.543 14.0287C59.543 15.5887 58.8707 16.8027 57.526 17.6714C56.6833 18.2182 55.614 18.4916 54.3183 18.4916C53.7672 18.4916 53.1434 18.4354 52.4468 18.3225V25.1737C52.4468 25.5439 52.463 25.7771 52.4954 25.8733C52.5764 26.0987 52.7546 26.2354 53.03 26.2834C53.4999 26.348 53.9538 26.3799 54.3909 26.3799C54.5691 26.3799 54.6582 26.4368 54.6582 26.5488C54.6582 26.7099 54.5448 26.79 54.3183 26.79H54.0753H49.0449H48.729C48.243 26.79 48 26.7099 48 26.5485C48 26.4359 48.1701 26.3794 48.5103 26.3794C49.2715 26.3794 49.7089 26.307 49.8226 26.1622C49.9519 26.0976 50.0251 25.9368 50.041 25.6789V11.4247C50.041 10.9256 49.9033 10.6197 49.6282 10.5063C49.4662 10.4423 49.1824 10.4101 48.7776 10.4101H48.5346H48.3642C48.1212 10.4101 48 10.3455 48 10.216C48 10.0718 48.2265 10 48.6801 10H54.0267C55.8735 10 57.226 10.3217 58.0849 10.965C59.057 11.6887 59.543 12.7102 59.543 14.0287Z" fill="#484848"/>
<path fill-rule="evenodd" clip-rule="evenodd" d="M72.1675 22.951C72.1675 23.0063 72.153 23.3439 72.1244 23.9643C72.0953 24.5847 72.0811 25.1777 72.0811 25.7428V26.4252C70.674 26.3425 67.889 26.3011 63.7253 26.3011H62.2397H61.249H61.0334C60.7607 26.3011 60.6245 26.2458 60.6245 26.1346C60.6245 26.0608 60.6676 26.0173 60.7534 26.0052C60.7968 26.0052 61.0692 25.9866 61.5718 25.9496C61.9452 25.9222 62.1714 25.8462 62.2503 25.7213C62.3289 25.5972 62.3689 25.272 62.3689 24.7466V13.0894C62.3689 12.6884 62.3076 12.4496 62.186 12.3736C62.0635 12.2976 61.6722 12.2595 61.0119 12.2595C60.7823 12.2595 60.6676 12.2009 60.6676 12.0838C60.6676 11.9667 60.8253 11.9079 61.1411 11.9079H64.8236H67.2572H70.2724C70.7031 11.9079 71.0977 11.8805 71.4568 11.8252C71.4854 12.4182 71.55 13.2384 71.6504 14.2861L71.7368 15.1753C71.7508 15.2446 71.7581 15.3341 71.7581 15.4442C71.7581 15.5822 71.6937 15.651 71.5645 15.651C71.4062 15.651 71.2915 15.4777 71.2197 15.1308C70.947 13.8822 70.5017 13.0912 69.8848 12.7579C69.425 12.5087 68.219 12.3836 66.2665 12.3836H64.5009V18.4634H65.0177C66.6256 18.4634 67.6054 18.3463 67.9572 18.1119C68.3088 17.8777 68.5493 17.1953 68.6785 16.0646C68.7073 15.7751 68.7862 15.6303 68.9157 15.6303C69.0734 15.6303 69.1525 15.7544 69.1525 16.0025C69.1525 16.2507 69.138 16.6162 69.1092 17.0986C69.0804 17.5812 69.0661 17.9464 69.0661 18.1946C69.0661 19.6699 69.0891 20.6834 69.1352 21.2346C69.1467 21.3726 69.1525 21.49 69.1525 21.5861C69.1525 21.7655 69.0737 21.8549 68.9165 21.8549C68.8164 21.8549 68.7484 21.7964 68.7129 21.6793C68.6774 21.5622 68.6164 21.1795 68.5308 20.5314C68.4164 19.7182 68.0663 19.2149 67.4803 19.0218C67.223 18.9391 66.5512 18.8977 65.4655 18.8977H64.5009V25.8255C67.6591 25.8255 69.5111 25.7645 70.0568 25.6418C71.0046 25.4374 71.543 24.5659 71.6722 23.0273C71.7007 22.687 71.7939 22.5167 71.9519 22.5167C72.0954 22.5167 72.1675 22.6615 72.1675 22.951Z" fill="#484848"/>
<path fill-rule="evenodd" clip-rule="evenodd" d="M86.9581 12.0326C86.9581 12.171 86.7774 12.2332 86.417 12.2192H85.9409H85.5513C85.3205 12.2192 85.1837 12.2575 85.1401 12.3334C85.0968 12.4091 85.0752 12.6405 85.0752 13.0267V24.9549C85.0752 25.6867 85.0676 26.1149 85.0538 26.2388C85.0392 26.363 84.9962 26.4252 84.9245 26.4252C84.8379 26.4252 84.7376 26.3487 84.6223 26.196L81.8571 22.3146C80.2533 20.0509 78.3034 17.2248 76.0067 13.8358V25.4489C76.0214 25.6293 76.1307 25.7438 76.3347 25.7923C76.5391 25.841 77.0273 25.8725 77.8 25.886C77.9895 25.886 78.0847 25.9415 78.0847 26.0519C78.0847 26.1903 77.897 26.2593 77.522 26.2593C77.3919 26.2593 76.9807 26.2386 76.2881 26.1971C76.0573 26.1836 75.8336 26.1763 75.6172 26.1763C75.6315 26.1763 75.5053 26.1903 75.2385 26.2178C74.9712 26.2456 74.5637 26.2593 74.0156 26.2593H73.7994C73.4672 26.2593 73.3014 26.1971 73.3014 26.0724C73.3014 25.9479 73.4455 25.8855 73.7342 25.8855C74.5853 25.8717 75.0795 25.82 75.2169 25.7298C75.3538 25.6398 75.4224 25.3455 75.4224 24.8472V14.6079C75.4224 13.4587 75.177 12.7388 74.6865 12.4479C74.4557 12.3092 74.0445 12.24 73.4529 12.24C73.0776 12.24 72.8901 12.1672 72.8901 12.0215C72.8901 11.8906 72.9983 11.8252 73.2148 11.8252C73.5034 11.8252 73.8711 11.8392 74.3186 11.8667C74.7658 11.8947 75.0038 11.9081 75.0328 11.9081C75.0764 11.9081 75.2779 11.9014 75.6388 11.8874C76.1149 11.8874 76.5765 11.8667 77.024 11.8252L84.4911 22.5051V13.2769C84.4911 12.8487 84.4832 12.5893 84.4694 12.4991C84.4548 12.4094 84.3969 12.3404 84.296 12.2917C84.1951 12.2435 83.8485 12.2192 83.2571 12.2192C82.7377 12.2192 82.4783 12.157 82.4783 12.0326C82.4783 11.8947 82.6514 11.8252 82.9974 11.8252H83.7549H84.3612H84.7724H85.1617H85.811H86.4822C86.7993 11.8252 86.9581 11.8947 86.9581 12.0326Z" fill="#484848"/>
<path fill-rule="evenodd" clip-rule="evenodd" d="M93.8105 26.2468C93.8105 26.366 93.7221 26.4252 93.5452 26.4252H93.3243C93.2356 26.3832 92.233 26.3622 90.3167 26.3622C89.9482 26.3622 89.5795 26.3764 89.2111 26.4042C89.0192 26.4184 88.7246 26.4252 88.3265 26.4252C88.1347 26.4252 88.0391 26.3622 88.0391 26.2361C88.0391 26.1243 88.2303 26.0613 88.614 26.0471C89.2036 26.0334 89.5499 25.9669 89.6533 25.8474C89.7564 25.7279 89.8081 25.3241 89.8081 24.6355V13.5522C89.8081 12.8638 89.771 12.4775 89.6964 12.3932C89.6062 12.2527 89.1961 12.1687 88.4644 12.1403C88.1806 12.1283 88.0391 12.0786 88.0391 11.9919C88.0391 11.8811 88.1284 11.8252 88.3064 11.8252H91.3149C91.5375 11.8252 91.9683 11.8326 92.6072 11.8462L93.4541 11.8252C93.6916 11.8252 93.8105 11.8849 93.8105 12.0044C93.8105 12.1108 93.482 12.1771 92.8255 12.2033C92.4525 12.2175 92.2247 12.2805 92.1423 12.3924C92.0602 12.5048 92.0197 12.7989 92.0197 13.2747V24.4925C92.0197 25.2908 92.0561 25.7251 92.13 25.795C92.2922 25.9494 92.7712 26.0403 93.5673 26.0681C93.7295 26.0681 93.8105 26.1278 93.8105 26.2468Z" fill="#484848"/>
<path fill-rule="evenodd" clip-rule="evenodd" d="M108.239 12.0326C108.239 12.171 108.058 12.2332 107.698 12.2192H107.222H106.832C106.601 12.2192 106.464 12.2575 106.421 12.3334C106.378 12.4091 106.356 12.6405 106.356 13.0267V24.9549C106.356 25.6867 106.348 26.1149 106.335 26.2388C106.32 26.363 106.277 26.4252 106.205 26.4252C106.119 26.4252 106.018 26.3487 105.903 26.196L103.138 22.3146C101.534 20.0509 99.5842 17.2248 97.2875 13.8358V25.4489C97.3021 25.6293 97.4115 25.7438 97.6155 25.7923C97.8199 25.841 98.3081 25.8725 99.0808 25.886C99.2702 25.886 99.3655 25.9415 99.3655 26.0519C99.3655 26.1903 99.1778 26.2593 98.8028 26.2593C98.6727 26.2593 98.2614 26.2386 97.5689 26.1971C97.3381 26.1836 97.1144 26.1763 96.8979 26.1763C96.9123 26.1763 96.7861 26.1903 96.5193 26.2178C96.252 26.2456 95.8444 26.2593 95.2963 26.2593H95.0802C94.748 26.2593 94.5821 26.1971 94.5821 26.0724C94.5821 25.9479 94.7263 25.8855 95.015 25.8855C95.8661 25.8717 96.3602 25.82 96.4977 25.7298C96.6345 25.6398 96.7031 25.3455 96.7031 24.8472V14.6079C96.7031 13.4587 96.4578 12.7388 95.9673 12.4479C95.7365 12.3092 95.3253 12.24 94.7336 12.24C94.3584 12.24 94.1709 12.1672 94.1709 12.0215C94.1709 11.8906 94.2791 11.8252 94.4955 11.8252C94.7842 11.8252 95.1519 11.8392 95.5993 11.8667C96.0465 11.8947 96.2846 11.9081 96.3136 11.9081C96.3571 11.9081 96.5587 11.9014 96.9196 11.8874C97.3957 11.8874 97.8572 11.8667 98.3047 11.8252L105.772 22.5051V13.2769C105.772 12.8487 105.764 12.5893 105.75 12.4991C105.736 12.4094 105.678 12.3404 105.577 12.2917C105.476 12.2435 105.129 12.2192 104.538 12.2192C104.018 12.2192 103.759 12.157 103.759 12.0326C103.759 11.8947 103.932 11.8252 104.278 11.8252H105.036H105.642H106.053H106.443H107.092H107.763C108.08 11.8252 108.239 11.8947 108.239 12.0326Z" fill="#484848"/>
<path fill-rule="evenodd" clip-rule="evenodd" d="M118.701 22.7539C118.701 23.9733 118.231 25.0113 117.294 25.869C116.357 26.7267 115.229 27.1552 113.912 27.1552C113.14 27.1552 112.216 26.9213 111.143 26.4536C110.856 26.326 110.642 26.2622 110.499 26.2622C110.327 26.2622 110.219 26.4585 110.176 26.8509C110.162 27.0536 110.069 27.1552 109.897 27.1552C109.754 27.1552 109.683 27.0702 109.683 26.9001C109.683 26.7869 109.69 26.7018 109.704 26.6449C109.818 25.7803 109.876 24.9796 109.876 24.2423C109.876 24.1006 109.861 23.7038 109.833 23.0516C109.818 22.9666 109.811 22.8534 109.811 22.7114C109.811 22.4988 109.897 22.3925 110.069 22.3925C110.212 22.3925 110.312 22.5642 110.37 22.9078C110.742 25.4559 111.951 26.73 113.998 26.73C114.871 26.73 115.547 26.4856 116.027 25.9966C116.507 25.5075 116.747 24.8164 116.747 23.9234C116.747 23.1298 116.514 22.453 116.049 21.893C115.583 21.333 114.785 20.7766 113.655 20.2237C112.295 19.5577 111.35 18.9129 110.82 18.2889C110.291 17.6654 110.026 16.8928 110.026 15.9713C110.026 14.795 110.409 13.8238 111.175 13.0584C111.94 12.293 112.91 11.9102 114.084 11.9102C114.571 11.9102 115.244 12.0734 116.103 12.3993C116.403 12.513 116.625 12.5694 116.768 12.5694C116.925 12.5694 117.029 12.5412 117.08 12.4843C117.129 12.4277 117.176 12.2789 117.219 12.0378C117.248 11.8964 117.326 11.8252 117.455 11.8252C117.598 11.8252 117.67 11.9102 117.67 12.0803C117.67 12.1941 117.662 12.2789 117.648 12.3355C117.605 12.6757 117.584 13.0871 117.584 13.5687C117.584 14.2491 117.619 14.7878 117.691 15.1846L117.713 15.5248C117.727 15.6811 117.662 15.7587 117.52 15.7587C117.362 15.7587 117.254 15.5961 117.197 15.2697C117.04 14.4335 116.668 13.7355 116.081 13.1755C115.494 12.6155 114.836 12.3355 114.105 12.3355C113.39 12.3355 112.821 12.5625 112.399 13.0159C111.976 13.4696 111.765 14.0864 111.765 14.8657C111.765 15.7731 112.073 16.5029 112.688 17.0557C113.032 17.3677 113.776 17.807 114.921 18.3739C116.267 19.0405 117.233 19.717 117.82 20.4046C118.407 21.0922 118.701 21.8753 118.701 22.7539Z" fill="#484848"/>
<path fill-rule="evenodd" clip-rule="evenodd" d="M133.85 12.74C133.85 12.8512 133.724 12.9065 133.472 12.9065H133.053H132.759C132.409 12.9065 132.199 12.9959 132.129 13.1748C132.101 13.2712 132.087 13.4294 132.087 13.6499V21.3937C132.087 23.4035 131.706 24.8664 130.944 25.7817C130.181 26.6976 128.953 27.1549 127.261 27.1549C125.232 27.1549 123.805 26.5899 122.98 25.4592C122.434 24.7012 122.161 23.4534 122.161 21.716V13.4232C122.119 13.1753 121.949 13.0236 121.651 12.9685C121.566 12.9548 121.304 12.9476 120.865 12.9476C120.624 12.9202 120.503 12.8514 120.503 12.7408C120.503 12.617 120.601 12.5549 120.797 12.5549H121.175H121.658H122.266H125.267H125.519C125.757 12.5549 125.876 12.6307 125.876 12.7819C125.876 12.8783 125.834 12.9336 125.75 12.9471C125.666 12.961 125.386 12.975 124.91 12.9884C124.714 12.9884 124.581 13.0024 124.512 13.0298C124.372 13.0848 124.294 13.1815 124.281 13.319C124.267 13.3738 124.26 13.7662 124.26 14.4959V21.8885C124.26 23.7056 124.554 24.9448 125.141 25.6055C125.729 26.2665 126.603 26.5968 127.764 26.5968C129.891 26.5968 131.094 25.4079 131.374 23.0296C131.416 22.6722 131.437 21.1601 131.437 18.4931V17.3181V15.6685V14.2456V13.792V13.5653C131.437 13.2629 131.291 13.0773 131.001 13.0086C130.904 12.9809 130.621 12.9672 130.151 12.9672C129.875 12.9672 129.737 12.8915 129.737 12.7402C129.737 12.617 129.835 12.5549 130.031 12.5549H130.303H132.129H132.654H133.053H133.367C133.689 12.5549 133.85 12.6167 133.85 12.74Z" fill="#484848"/>
<path fill-rule="evenodd" clip-rule="evenodd" d="M145.753 24.6366C145.753 24.9972 145.731 25.5933 145.687 26.4252H145.447C145.359 26.4252 145.148 26.4112 144.813 26.3836C144.477 26.3558 144.099 26.342 143.676 26.342L134.583 26.2796C134.335 26.2796 134.211 26.2172 134.211 26.0924C134.211 25.9955 134.409 25.9331 134.803 25.9053C135.357 25.8777 135.69 25.8188 135.799 25.7283C135.909 25.6384 135.963 25.3786 135.963 24.9486V13.2602C135.963 12.7473 135.909 12.4491 135.799 12.3659C135.69 12.2827 135.299 12.2411 134.628 12.2411C134.35 12.2411 134.211 12.1653 134.211 12.0124C134.211 11.8876 134.299 11.8252 134.474 11.8252H134.671C135.153 11.8668 136.109 11.8876 137.54 11.8876C137.672 11.8876 137.927 11.8773 138.306 11.8565C138.686 11.8355 139 11.8252 139.248 11.8252H139.489C139.752 11.8252 139.884 11.8949 139.884 12.0332C139.884 12.1164 139.843 12.1682 139.763 12.1893C139.682 12.2101 139.431 12.2276 139.008 12.2411C138.584 12.2552 138.332 12.3211 138.252 12.4386C138.172 12.5566 138.132 12.9207 138.132 13.5306V25.8013C138.526 25.8153 139.073 25.8221 139.774 25.8221C141.482 25.8221 142.687 25.7389 143.388 25.5725C144.088 25.4061 144.563 25.0942 144.811 24.6366C145.059 24.1791 145.205 23.5621 145.249 22.7856C145.263 22.6054 145.347 22.5152 145.501 22.5152C145.683 22.5152 145.767 22.6192 145.753 22.8272V23.3471V23.5343V23.8255V24.6366Z" fill="#484848"/>
<path fill-rule="evenodd" clip-rule="evenodd" d="M155.225 21.8005C154.997 21.1528 154.62 20.0799 154.094 18.5822L153.087 15.5897C152.497 17.1821 151.789 19.2527 150.961 21.8005H155.225ZM160.905 26.971C160.905 27.0938 160.8 27.1552 160.59 27.1552C160.451 27.1552 160.325 27.1476 160.213 27.1336L157.55 27.0473L154.888 27.1336C154.79 27.1476 154.685 27.1552 154.573 27.1552C154.293 27.1552 154.154 27.0801 154.154 26.9292C154.154 26.7632 154.343 26.6802 154.72 26.6802C155.95 26.6662 156.565 26.5391 156.565 26.2991C156.565 26.2854 156.551 26.229 156.522 26.1303L156.351 25.5591L156.243 25.258C156.117 24.8113 155.811 23.8242 155.322 22.2971H150.84C150.002 24.6004 149.583 25.9245 149.583 26.27C149.583 26.4716 149.667 26.5938 149.835 26.637C149.877 26.6516 150.226 26.6802 150.883 26.7234C151.288 26.7377 151.491 26.8097 151.491 26.9393C151.491 27.0834 151.309 27.1552 150.946 27.1552C150.303 27.1552 149.555 27.126 148.703 27.0688C148.493 27.0545 148.276 27.0473 148.053 27.0473C147.829 27.0473 147.613 27.0711 147.403 27.119C147.291 27.1432 147.2 27.1552 147.13 27.1552C146.935 27.1552 146.837 27.0904 146.837 26.96C146.837 26.8302 147.057 26.7582 147.497 26.7436C147.937 26.7295 148.255 26.6606 148.451 26.5377C148.647 26.4149 148.8 26.1805 148.913 25.8336C150.71 20.5187 152.174 16.2506 153.303 13.0298C153.335 12.8602 153.401 12.6692 153.498 12.4567L153.588 12.0627C153.63 11.9043 153.686 11.8252 153.756 11.8252C153.798 11.8252 153.832 11.8684 153.86 11.9547C154.042 12.5161 154.454 13.6894 155.097 15.4742C155.6 16.8703 156.851 20.3755 158.85 25.9893C158.962 26.3151 159.105 26.5223 159.28 26.6109C159.454 26.7001 159.814 26.7517 160.36 26.7666C160.723 26.7803 160.905 26.8484 160.905 26.971Z" fill="#484848"/>
<path fill-rule="evenodd" clip-rule="evenodd" d="M307.789 21.5326C307.789 21.5007 307.773 21.7161 307.741 22.1787C307.678 23.1038 307.647 23.997 307.647 24.8581C307.647 24.9538 307.663 25.1493 307.694 25.4447C307.726 25.7398 307.741 26.0946 307.741 26.5093V26.7246C307.741 26.9314 307.678 27.0357 307.553 27.0357C307.427 27.0357 307.317 26.9157 307.222 26.6768C307.001 26.1504 306.781 25.8074 306.561 25.6477C305.427 26.6526 304.064 27.155 302.474 27.155C300.159 27.155 298.242 26.3379 296.722 24.7027C295.202 23.0678 294.442 21.0063 294.442 18.5177C294.442 16.0137 295.139 13.9682 296.533 12.3808C297.927 10.7937 299.726 10 301.931 10C302.734 10 303.375 10.0679 303.856 10.2035C304.336 10.3394 304.931 10.6144 305.639 11.0291C305.985 11.2365 306.245 11.3399 306.419 11.3399C306.561 11.3399 306.694 11.2125 306.82 10.957C307.025 10.5107 307.19 10.2871 307.317 10.2871C307.443 10.2871 307.506 10.3512 307.506 10.4785C307.506 10.5426 307.489 10.646 307.458 10.7898C307.285 11.5555 307.198 12.9908 307.198 15.0963C307.198 15.3996 307.175 15.5748 307.127 15.6226C307.08 15.6708 307.017 15.6944 306.938 15.6944C306.781 15.6944 306.678 15.5432 306.631 15.2398C306.426 13.964 306.135 13.0147 305.757 12.3929C304.986 11.1168 303.773 10.4785 302.119 10.4785C300.844 10.4785 299.836 10.9092 299.096 11.7708C297.757 13.318 297.088 15.583 297.088 18.5655C297.088 21.2296 297.639 23.2949 298.742 24.7624C299.702 26.0387 300.978 26.6768 302.568 26.6768C303.387 26.6768 304.135 26.4732 304.813 26.0665C305.489 25.6598 306.009 25.1056 306.371 24.4035C306.781 23.59 307.072 22.7048 307.246 21.7477C307.308 21.3652 307.411 21.1735 307.553 21.1735C307.71 21.1735 307.789 21.2931 307.789 21.5326Z" fill="#484848"/>
<path fill-rule="evenodd" clip-rule="evenodd" d="M321.308 19.6728C321.308 17.0565 320.783 15.0195 319.732 13.5612C319.073 12.6463 318.155 12.1887 316.978 12.1887C315.857 12.1887 314.989 12.5394 314.372 13.2394C313.237 14.5264 312.669 16.6206 312.669 19.5225C312.669 21.8242 313.065 23.6115 313.857 24.8836C314.648 26.1559 315.759 26.792 317.188 26.792C318.519 26.792 319.521 26.1917 320.194 24.9905C320.937 23.661 321.308 21.8886 321.308 19.6728ZM323.662 19.565C323.662 21.6892 323.035 23.4852 321.781 24.9533C320.527 26.4216 318.989 27.1552 317.167 27.1552C315.234 27.1552 313.608 26.4108 312.291 24.9208C310.974 23.4316 310.315 21.5965 310.315 19.4154C310.315 17.1918 310.949 15.3711 312.217 13.9527C313.486 12.5346 315.108 11.8252 317.083 11.8252C318.947 11.8252 320.509 12.5666 321.77 14.0488C323.031 15.5316 323.662 17.3703 323.662 19.565Z" fill="#484848"/>
<path fill-rule="evenodd" clip-rule="evenodd" d="M341.335 26.9772C341.335 27.0957 341.19 27.1549 340.901 27.1549H340.673H339.616H338.436H336.986H335.868H335.722C335.433 27.1549 335.288 27.0922 335.288 26.9664C335.288 26.8267 335.488 26.7566 335.89 26.7566C336.597 26.7566 337.026 26.6799 337.179 26.5261C337.248 26.4563 337.283 25.9883 337.283 25.122V14.2656C337.283 14.2792 337.199 14.5235 337.033 14.9977C336.477 16.6847 335.669 19.2226 334.612 22.6108L333.647 25.941C333.452 26.5973 333.314 26.9248 333.231 26.9248C333.133 26.9248 333.029 26.7574 332.918 26.4226C332.518 25.1527 331.387 21.9844 329.524 16.9176L328.7 14.6838C328.7 14.949 328.7 15.3116 328.7 15.7719V22.5724C328.7 25.1255 328.721 26.4158 328.762 26.4435C328.859 26.6248 329.191 26.7155 329.76 26.7155C330.217 26.7155 330.445 26.7851 330.445 26.9237C330.445 27.078 330.3 27.1549 330.009 27.1549C329.829 27.1549 329.663 27.1408 329.51 27.1131C329.316 27.0854 329.143 27.0713 328.991 27.0713L326.601 27.1549C326.351 27.1549 326.227 27.0922 326.227 26.9664C326.227 26.8267 326.621 26.7498 327.411 26.7356C327.744 26.7356 327.938 26.6802 327.993 26.5685C328.048 26.4566 328.076 26.0935 328.076 25.4783V15.4406C328.076 14.2814 328.062 13.6525 328.035 13.5547C327.979 13.3596 327.861 13.2267 327.681 13.1569C327.501 13.0867 327.113 13.031 326.518 12.9889C326.296 12.9753 326.185 12.9126 326.185 12.8006C326.185 12.6473 326.388 12.5701 326.795 12.5701H327.152H328.245C329.072 12.5701 329.653 12.5653 329.99 12.5549C330.058 12.7365 330.459 13.8341 331.195 15.8474C331.511 16.6853 332.396 19.1283 333.851 23.1765C334.113 22.2683 334.382 21.374 334.657 20.4938L336.879 13.5792C337.016 13.1813 337.138 12.852 337.245 12.5911L340.327 12.5701C340.779 12.5701 341.039 12.5913 341.108 12.6335C341.176 12.6753 341.211 12.7386 341.211 12.8223C341.211 12.962 341.093 13.0321 340.857 13.0321C340.469 13.0321 340.206 13.046 340.068 13.0742C339.735 13.1302 339.507 13.2419 339.382 13.4099C339.312 13.5082 339.278 14.3265 339.278 15.8651V25.6239C339.278 26.1837 339.333 26.5125 339.444 26.6101C339.624 26.7362 340.075 26.7995 340.795 26.7995H340.92C341.196 26.7995 341.335 26.8587 341.335 26.9772Z" fill="#484848"/>
<path fill-rule="evenodd" clip-rule="evenodd" d="M350.646 16.0785C350.646 13.9677 349.753 12.9118 347.967 12.9118C347.372 12.9118 346.981 13.0104 346.797 13.2074C346.712 13.2918 346.67 13.5101 346.67 13.8618V19.4775C346.783 19.4917 346.911 19.4987 347.053 19.4987C347.988 19.4987 348.782 19.2947 349.434 18.8863C350.242 18.3796 350.646 17.4439 350.646 16.0785ZM352.879 16.0583C352.879 17.415 352.29 18.4706 351.114 19.2258C350.377 19.7014 349.441 19.939 348.307 19.939C347.825 19.939 347.279 19.8902 346.67 19.7921V25.7495C346.67 26.0715 346.684 26.2739 346.712 26.3576C346.783 26.554 346.939 26.6728 347.18 26.7144C347.591 26.7706 347.988 26.7983 348.371 26.7983C348.527 26.7983 348.605 26.8474 348.605 26.9452C348.605 27.0849 348.505 27.1549 348.307 27.1549H348.095H343.693H343.416C342.991 27.1549 342.779 27.0849 342.779 26.9449C342.779 26.8468 342.927 26.7978 343.225 26.7978C343.891 26.7978 344.274 26.7349 344.373 26.6087C344.487 26.5529 344.551 26.4131 344.565 26.1887V13.7942C344.565 13.3599 344.444 13.0941 344.203 12.9957C344.061 12.9399 343.813 12.9118 343.459 12.9118H343.246H343.097C342.885 12.9118 342.779 12.8557 342.779 12.7429C342.779 12.6179 342.977 12.5549 343.374 12.5549H348.052C349.668 12.5549 350.852 12.8353 351.603 13.394C352.454 14.0236 352.879 14.9117 352.879 16.0583Z" fill="#484848"/>
<path fill-rule="evenodd" clip-rule="evenodd" d="M360.545 21.8005C360.318 21.1525 359.941 20.0796 359.414 18.5822L358.407 15.5894C357.817 17.1819 357.109 19.2527 356.282 21.8005H360.545ZM366.225 26.9707C366.225 27.0938 366.12 27.1552 365.911 27.1552C365.771 27.1552 365.645 27.1474 365.533 27.1336L362.871 27.0472L360.208 27.1336C360.11 27.1474 360.005 27.1552 359.894 27.1552C359.614 27.1552 359.474 27.0798 359.474 26.9289C359.474 26.7629 359.663 26.6799 360.04 26.6799C361.27 26.6662 361.885 26.5389 361.885 26.2991C361.885 26.2854 361.871 26.229 361.843 26.13L361.671 25.5588L361.563 25.2577C361.438 24.811 361.131 23.8242 360.642 22.2971H356.161C355.322 24.6001 354.904 25.9245 354.904 26.2697C354.904 26.4716 354.988 26.5938 355.155 26.637C355.197 26.6513 355.547 26.6799 356.204 26.7231C356.609 26.7377 356.812 26.8095 356.812 26.939C356.812 27.0834 356.63 27.1552 356.267 27.1552C355.623 27.1552 354.876 27.126 354.023 27.0686C353.814 27.0543 353.597 27.0472 353.373 27.0472C353.149 27.0472 352.933 27.0711 352.723 27.119C352.611 27.1431 352.521 27.1552 352.451 27.1552C352.255 27.1552 352.157 27.0901 352.157 26.96C352.157 26.8302 352.378 26.7581 352.818 26.7433C353.258 26.7293 353.576 26.6606 353.772 26.5377C353.967 26.4146 354.121 26.1802 354.233 25.8336C356.031 20.5187 357.494 16.2506 358.623 13.0298C358.656 12.8602 358.721 12.6692 358.818 12.4567L358.908 12.0624C358.95 11.9043 359.006 11.8252 359.076 11.8252C359.118 11.8252 359.153 11.8684 359.181 11.9545C359.362 12.5161 359.775 13.6894 360.417 15.4739C360.921 16.8703 362.171 20.3755 364.17 25.9893C364.282 26.3151 364.425 26.522 364.6 26.6106C364.774 26.7001 365.134 26.7514 365.68 26.7663C366.043 26.7803 366.225 26.8484 366.225 26.9707Z" fill="#484848"/>
<path fill-rule="evenodd" clip-rule="evenodd" d="M379.932 12.7626C379.932 12.901 379.752 12.9632 379.391 12.9492H378.915H378.525C378.295 12.9492 378.158 12.9875 378.114 13.0632C378.071 13.1388 378.049 13.3705 378.049 13.7567V25.6847C378.049 26.4165 378.042 26.8447 378.028 26.9686C378.013 27.0927 377.97 27.1549 377.899 27.1549C377.812 27.1549 377.712 27.0785 377.596 26.9257L374.831 23.0447C373.227 20.7808 371.278 17.9547 368.981 14.5657V26.1786C368.995 26.3591 369.105 26.4733 369.309 26.5223C369.513 26.5708 370.001 26.6023 370.774 26.616C370.964 26.616 371.059 26.6712 371.059 26.7817C371.059 26.9198 370.871 26.989 370.496 26.989C370.366 26.989 369.955 26.9683 369.262 26.9268C369.031 26.9131 368.808 26.9064 368.591 26.9064C368.606 26.9064 368.479 26.9198 368.213 26.9476C367.945 26.9753 367.538 26.989 366.99 26.989H366.774C366.441 26.989 366.275 26.9268 366.275 26.8021C366.275 26.6777 366.42 26.6152 366.708 26.6152C367.559 26.6018 368.054 26.5495 368.191 26.4595C368.328 26.3696 368.397 26.0752 368.397 25.577V15.3379C368.397 14.1887 368.151 13.4688 367.661 13.1779C367.43 13.0392 367.019 12.9702 366.427 12.9702C366.052 12.9702 365.864 12.8975 365.864 12.7515C365.864 12.6209 365.972 12.5549 366.189 12.5549C366.478 12.5549 366.845 12.5692 367.293 12.5967C367.74 12.6244 367.978 12.6382 368.007 12.6382C368.05 12.6382 368.252 12.6314 368.613 12.6174C369.089 12.6174 369.551 12.5967 369.998 12.5549L377.465 23.2349V14.0069C377.465 13.5786 377.457 13.3193 377.444 13.2291C377.429 13.1394 377.371 13.0707 377.27 13.0217C377.169 12.9735 376.823 12.9492 376.231 12.9492C375.712 12.9492 375.452 12.887 375.452 12.7626C375.452 12.6244 375.626 12.5549 375.972 12.5549H376.729H377.335H377.747H378.136H378.785H379.456C379.773 12.5549 379.932 12.6244 379.932 12.7626Z" fill="#484848"/>
<path fill-rule="evenodd" clip-rule="evenodd" d="M394 12.7647C394 12.8705 393.881 12.9232 393.643 12.9232C392.872 12.9376 392.396 13.0713 392.214 13.3252C392.046 13.4801 391.443 14.6783 390.406 16.9207C389.944 17.9115 389.509 18.7834 389.103 19.5369C388.823 20.0547 388.662 20.4081 388.62 20.597C388.578 20.7861 388.557 21.1952 388.557 21.8245V25.7918C388.557 26.2536 388.616 26.5265 388.735 26.6102C388.854 26.6942 389.271 26.7573 389.986 26.7994C390.364 26.8258 390.553 26.8916 390.553 26.9968C390.553 27.1025 390.455 27.1549 390.259 27.1549H390.007L387.065 27.0924C386.237 27.0924 385.558 27.1063 385.026 27.134C384.941 27.1482 384.843 27.1549 384.732 27.1549C384.535 27.1549 384.437 27.0889 384.437 26.9571C384.437 26.825 384.598 26.751 384.921 26.7364C385.691 26.7086 386.147 26.6391 386.287 26.5279C386.427 26.4167 386.497 26.0832 386.497 25.5271V21.1275C386.357 20.8207 385.951 20.0044 385.278 18.6785L383.176 14.5345C382.966 14.1298 382.714 13.6764 382.42 13.1743C382.265 13.0346 381.933 12.9648 381.421 12.9648C380.91 12.9648 380.654 12.8884 380.654 12.7348C380.654 12.6231 380.767 12.5671 380.99 12.5671C381.285 12.5671 381.873 12.5812 382.756 12.609C383.26 12.6231 383.624 12.6302 383.849 12.6302L386.287 12.5986C386.385 12.5777 386.497 12.5671 386.623 12.5671C386.875 12.5671 387.001 12.6375 387.001 12.7778C387.001 12.9042 386.763 12.9672 386.287 12.9672C385.418 12.9672 384.984 13.1213 384.984 13.4301C384.984 13.669 385.424 14.6304 386.306 16.3146L388.215 19.9134C388.564 19.2898 388.962 18.5209 389.408 17.6062L390.649 15.1156C391.117 14.217 391.352 13.6275 391.352 13.3467C391.352 13.1643 391.233 13.0586 390.995 13.0306C390.504 12.9607 390.175 12.9324 390.007 12.9463C389.699 12.9607 389.545 12.8903 389.545 12.7359C389.545 12.6234 389.678 12.5671 389.944 12.5671H391.163H391.857C393.286 12.5253 394 12.5913 394 12.7647Z" fill="#484848"/>
<path fill-rule="evenodd" clip-rule="evenodd" d="M233.215 14.3179C233.215 14.5273 233.119 14.6315 232.926 14.6315C232.733 14.6315 232.597 14.423 232.517 14.0043C232.484 13.7151 232.452 13.4253 232.42 13.1361C232.308 12.5569 232.123 12.0666 231.866 11.6646C231.529 11.1338 230.975 10.7961 230.204 10.6511C229.706 10.5549 229.304 10.5149 228.999 10.5307C228.244 10.5521 227.787 10.5684 227.626 10.579V25.1479C227.626 25.7277 227.779 26.0901 228.084 26.2349C228.244 26.3156 228.694 26.3641 229.433 26.3799C229.626 26.3952 229.722 26.4639 229.722 26.5851C229.722 26.7218 229.593 26.79 229.337 26.79C229.208 26.79 229.096 26.7817 228.999 26.7662C228.036 26.734 227.353 26.7179 226.951 26.7179C226.421 26.7179 225.924 26.7298 225.458 26.7542C224.992 26.7781 224.398 26.79 223.675 26.79C223.305 26.79 223.121 26.7257 223.121 26.5967C223.121 26.452 223.466 26.3713 224.157 26.355C224.655 26.355 224.976 26.2507 225.121 26.0411C225.201 25.9121 225.241 25.5822 225.241 25.0506V10.579C223.651 10.5951 222.664 10.6752 222.278 10.8202C221.266 11.1904 220.672 12.1792 220.495 13.7872C220.447 14.2697 220.334 14.5112 220.158 14.5112C219.965 14.5112 219.869 14.3423 219.869 14.0043C219.869 13.8277 219.877 13.651 219.893 13.4736L219.941 12.919C219.989 12.1792 220.061 11.2059 220.158 10H221.242L226.156 10.0721C226.735 10.0885 227.634 10.0885 228.855 10.0721L232.854 10C232.886 10.9006 232.99 12.2355 233.167 14.0043C233.167 14.0526 233.175 14.1133 233.191 14.1851C233.207 14.2577 233.215 14.3021 233.215 14.3179Z" fill="#484848"/>
<path fill-rule="evenodd" clip-rule="evenodd" d="M242.253 15.381C242.253 13.3141 241.392 12.28 239.672 12.28C239.215 12.28 238.903 12.3454 238.736 12.4755C238.569 12.6056 238.486 12.8368 238.486 13.1693V18.6765C239.818 18.6914 240.779 18.4382 241.369 17.9178C241.958 17.3972 242.253 16.5518 242.253 15.381ZM246.561 26.2438C246.561 26.8509 246.075 27.1547 245.104 27.1547C244.022 27.1547 243.175 26.685 242.565 25.7453C242.302 25.3407 242.131 24.9504 242.055 24.5745C241.979 24.1985 241.865 23.2448 241.712 21.7123C241.629 20.7873 241.344 20.1332 240.859 19.7502C240.373 19.3672 239.582 19.1611 238.486 19.1318V25.9622C238.486 26.2516 238.708 26.4319 239.152 26.504C239.277 26.5189 239.596 26.5332 240.109 26.5473C240.289 26.5473 240.38 26.6053 240.38 26.7211C240.38 26.8509 240.262 26.9162 240.026 26.9162H239.777H237.966H236.905H235.947H235.136C234.83 26.9162 234.678 26.8509 234.678 26.7211C234.678 26.62 234.879 26.5622 235.281 26.5473C235.933 26.5332 236.287 26.4468 236.343 26.2871C236.398 26.2153 236.426 25.9334 236.426 25.4418V13.4729C236.426 12.895 236.367 12.5478 236.249 12.4318C236.131 12.3164 235.773 12.2516 235.177 12.237C234.83 12.237 234.657 12.1719 234.657 12.0418C234.657 11.8974 234.768 11.8247 234.99 11.8247C235.032 11.8247 235.094 11.8323 235.177 11.8467L237.945 11.9117C238.223 11.9117 238.611 11.9021 239.111 11.883C239.665 11.8441 240.054 11.8247 240.276 11.8247C241.566 11.8247 242.589 12.1249 243.346 12.7247C244.102 13.3245 244.48 14.138 244.48 15.1639C244.48 16.1759 244.091 17.0108 243.314 17.6684C242.537 18.3262 241.483 18.7128 240.151 18.8282C240.026 18.8432 239.957 18.8646 239.943 18.8939C239.943 18.9519 240.012 18.9806 240.151 18.9806C241.608 19.2413 242.61 19.7744 243.158 20.5786C243.706 21.3832 244.071 22.8365 244.251 24.938C244.362 26.1266 244.75 26.7211 245.416 26.7211C245.625 26.7211 245.728 26.6777 245.728 26.591C245.728 26.5766 245.721 26.5622 245.708 26.5473C245.638 26.3885 245.604 26.2587 245.604 26.1573C245.604 25.8538 245.756 25.702 246.061 25.702C246.394 25.702 246.561 25.8828 246.561 26.2438Z" fill="#484848"/>
<path fill-rule="evenodd" clip-rule="evenodd" d="M260.629 12.3745C260.629 12.4854 260.503 12.5407 260.252 12.5407H259.832H259.538C259.188 12.5407 258.978 12.6302 258.909 12.8093C258.88 12.9057 258.867 13.0637 258.867 13.2842V21.0283C258.867 23.0377 258.485 24.5007 257.723 25.4162C256.96 26.3321 255.732 26.7895 254.04 26.7895C252.011 26.7895 250.584 26.2244 249.759 25.0934C249.213 24.3355 248.941 23.0877 248.941 21.3505V13.0578C248.898 12.8096 248.728 12.6581 248.43 12.6028C248.345 12.5891 248.083 12.5821 247.644 12.5821C247.403 12.5547 247.283 12.4857 247.283 12.3753C247.283 12.2512 247.381 12.1895 247.577 12.1895H247.954H248.437H249.045H252.046H252.298C252.536 12.1895 252.655 12.2652 252.655 12.4164C252.655 12.5125 252.613 12.5681 252.529 12.5816C252.445 12.5953 252.165 12.6092 251.69 12.6229C251.494 12.6229 251.361 12.6369 251.291 12.664C251.151 12.7191 251.074 12.8158 251.06 12.9533C251.046 13.0081 251.039 13.4005 251.039 14.1302V21.523C251.039 23.3399 251.333 24.5794 251.92 25.2398C252.508 25.9007 253.382 26.2314 254.544 26.2314C256.67 26.2314 257.873 25.0424 258.153 22.6642C258.195 22.3064 258.216 20.7946 258.216 18.1276V16.9524V15.3028V13.8799V13.4265V13.1996C258.216 12.8971 258.071 12.7118 257.781 12.6428C257.684 12.6151 257.401 12.6017 256.931 12.6017C256.654 12.6017 256.516 12.5257 256.516 12.3745C256.516 12.2512 256.614 12.1895 256.81 12.1895H257.083H258.909H259.433H259.832H260.147C260.468 12.1895 260.629 12.251 260.629 12.3745Z" fill="#484848"/>
<path fill-rule="evenodd" clip-rule="evenodd" d="M271.451 22.7534C271.451 23.9728 270.981 25.0111 270.044 25.8685C269.107 26.7264 267.979 27.1547 266.662 27.1547C265.89 27.1547 264.966 26.9211 263.893 26.4531C263.606 26.3258 263.392 26.2617 263.249 26.2617C263.077 26.2617 262.969 26.458 262.926 26.8507C262.912 27.0531 262.819 27.1547 262.647 27.1547C262.504 27.1547 262.433 27.0699 262.433 26.8998C262.433 26.7864 262.44 26.7013 262.454 26.6447C262.568 25.7801 262.626 24.9793 262.626 24.242C262.626 24.1004 262.611 23.7033 262.583 23.0511C262.568 22.9663 262.561 22.8528 262.561 22.7111C262.561 22.4982 262.647 22.3919 262.819 22.3919C262.962 22.3919 263.062 22.5637 263.12 22.9075C263.492 25.4554 264.701 26.7295 266.748 26.7295C267.621 26.7295 268.297 26.4851 268.777 25.996C269.257 25.5073 269.497 24.8161 269.497 23.9231C269.497 23.1292 269.264 22.4524 268.799 21.8927C268.333 21.3327 267.535 20.7762 266.405 20.2234C265.045 19.5574 264.1 18.9123 263.57 18.2882C263.041 17.6647 262.776 16.8924 262.776 15.9709C262.776 14.7946 263.159 13.8231 263.925 13.0579C264.69 12.2925 265.66 11.9095 266.834 11.9095C267.321 11.9095 267.994 12.0727 268.853 12.3988C269.153 12.5123 269.375 12.5686 269.518 12.5686C269.675 12.5686 269.779 12.5407 269.83 12.4838C269.879 12.4272 269.926 12.2784 269.969 12.0371C269.997 11.8957 270.076 11.8247 270.205 11.8247C270.348 11.8247 270.42 11.9095 270.42 12.0799C270.42 12.1933 270.412 12.2784 270.398 12.335C270.355 12.6749 270.334 13.0864 270.334 13.568C270.334 14.2486 270.369 14.7874 270.441 15.1842L270.463 15.5241C270.477 15.6807 270.412 15.7583 270.27 15.7583C270.112 15.7583 270.004 15.5954 269.947 15.269C269.79 14.4328 269.418 13.735 268.831 13.1747C268.244 12.615 267.586 12.335 266.855 12.335C266.14 12.335 265.571 12.5617 265.149 13.0151C264.726 13.4691 264.515 14.0857 264.515 14.8652C264.515 15.7724 264.823 16.5025 265.438 17.0553C265.782 17.367 266.526 17.8067 267.671 18.3736C269.017 19.0402 269.983 19.7167 270.57 20.404C271.157 21.0916 271.451 21.8747 271.451 22.7534Z" fill="#484848"/>
<path fill-rule="evenodd" clip-rule="evenodd" d="M284.798 15.9443C284.798 16.1263 284.715 16.2172 284.548 16.2172C284.382 16.2172 284.263 16.0355 284.194 15.6718C284.166 15.4199 284.139 15.1681 284.111 14.9167C284.014 14.413 283.854 13.9866 283.632 13.6368C283.34 13.1754 282.861 12.8817 282.194 12.7561C281.763 12.6719 281.416 12.6373 281.152 12.6512C280.499 12.6697 280.103 12.6836 279.964 12.6929V25.3611C279.964 25.8657 280.096 26.1806 280.361 26.3065C280.499 26.3767 280.888 26.4187 281.527 26.4326C281.694 26.4459 281.777 26.5056 281.777 26.6108C281.777 26.7301 281.666 26.7895 281.444 26.7895C281.332 26.7895 281.235 26.7821 281.152 26.7682C280.319 26.7407 279.728 26.7263 279.381 26.7263C278.923 26.7263 278.492 26.7369 278.089 26.7576C277.686 26.7788 277.172 26.7895 276.547 26.7895C276.228 26.7895 276.068 26.7333 276.068 26.6211C276.068 26.4952 276.367 26.4252 276.964 26.4111C277.395 26.4111 277.673 26.3203 277.798 26.1381C277.867 26.0261 277.902 25.7387 277.902 25.2767V12.6929C276.527 12.7071 275.672 12.7768 275.339 12.9029C274.464 13.2249 273.95 14.0847 273.797 15.4831C273.755 15.9023 273.658 16.1121 273.506 16.1121C273.339 16.1121 273.255 15.9655 273.255 15.6718C273.255 15.5182 273.262 15.3643 273.276 15.2104L273.318 14.7276C273.36 14.0847 273.422 13.2383 273.506 12.1895H274.443L278.693 12.2524C279.194 12.2665 279.971 12.2665 281.027 12.2524L284.486 12.1895C284.513 12.9729 284.604 14.1337 284.757 15.6718C284.757 15.7135 284.763 15.7661 284.778 15.829C284.791 15.8922 284.798 15.9304 284.798 15.9443Z" fill="#484848"/>
<path fill-rule="evenodd" clip-rule="evenodd" d="M179.946 23.1275C179.946 21.0982 179.135 19.8419 177.513 19.3588C177.035 19.2138 176.153 19.1413 174.865 19.1413V26.3405C174.865 26.8079 174.912 27.0736 175.008 27.1377C175.167 27.2508 175.612 27.3069 176.344 27.3069C177.441 27.3069 178.315 26.9528 178.968 26.2439C179.62 25.5352 179.946 24.4967 179.946 23.1275ZM179.254 15.0586C179.254 13.5125 178.904 12.482 178.204 11.9663C177.838 11.6925 177.147 11.5556 176.129 11.5556C175.858 11.5556 175.437 11.5798 174.865 11.6281V18.634H175.079L176.391 18.5857C177.298 18.5535 178.001 18.2275 178.502 17.6074C179.003 16.9874 179.254 16.1379 179.254 15.0586ZM182.451 23.3932C182.451 25.036 181.711 26.2522 180.232 27.0411C179.516 27.4276 178.491 27.6692 177.155 27.7659C176.789 27.7822 175.708 27.79 173.91 27.79H171C170.729 27.79 170.595 27.7217 170.595 27.5848C170.595 27.4482 170.841 27.3793 171.334 27.3793C171.907 27.3793 172.244 27.3191 172.348 27.1983C172.451 27.0775 172.503 26.7112 172.503 26.0989V13.0293C172.503 12.3209 172.471 11.9102 172.408 11.7972C172.296 11.604 171.89 11.4995 171.191 11.4832C170.762 11.4832 170.547 11.3988 170.547 11.2288C170.547 11.0764 170.745 11 171.143 11H171.43C171.604 11.0483 171.763 11.0725 171.907 11.0725H176.558C178.276 11.0889 179.556 11.3785 180.399 11.9422C181.385 12.6028 181.878 13.5608 181.878 14.817C181.878 15.9125 181.473 16.8102 180.661 17.5105C179.85 18.2111 178.713 18.6501 177.25 18.8273V18.9722C178.697 19.0689 179.827 19.3749 180.638 19.8903C181.846 20.6633 182.451 21.8312 182.451 23.3932Z" fill="#484848"/>
<path fill-rule="evenodd" clip-rule="evenodd" d="M192.643 22.4355C192.415 21.7878 192.038 20.7149 191.512 19.2172L190.504 16.2247C189.915 17.8172 189.206 19.8877 188.379 22.4355H192.643ZM198.322 27.606C198.322 27.7288 198.218 27.7902 198.008 27.7902C197.868 27.7902 197.742 27.7826 197.631 27.7686L194.968 27.6823L192.305 27.7686C192.207 27.7826 192.103 27.7902 191.991 27.7902C191.711 27.7902 191.571 27.7151 191.571 27.5642C191.571 27.3982 191.76 27.3152 192.138 27.3152C193.367 27.3012 193.983 27.1742 193.983 26.9341C193.983 26.9204 193.968 26.864 193.94 26.7653L193.768 26.1941L193.661 25.893C193.535 25.4463 193.228 24.4592 192.739 22.9321H188.258C187.419 25.2354 187.001 26.5595 187.001 26.905C187.001 27.1066 187.085 27.2288 187.252 27.272C187.294 27.2866 187.644 27.3152 188.301 27.3584C188.706 27.3727 188.909 27.4448 188.909 27.5743C188.909 27.7184 188.727 27.7902 188.364 27.7902C187.721 27.7902 186.973 27.7611 186.12 27.7039C185.911 27.6896 185.694 27.6823 185.47 27.6823C185.247 27.6823 185.03 27.7061 184.82 27.754C184.709 27.7782 184.618 27.7902 184.548 27.7902C184.352 27.7902 184.254 27.7254 184.254 27.5951C184.254 27.4652 184.475 27.3932 184.915 27.3786C185.355 27.3646 185.673 27.2956 185.869 27.1728C186.064 27.0499 186.218 26.8155 186.33 26.4686C188.128 21.1538 189.591 16.8856 190.72 13.6648C190.753 13.4952 190.818 13.3042 190.916 13.0917L191.005 12.6977C191.047 12.5393 191.103 12.4602 191.173 12.4602C191.215 12.4602 191.25 12.5034 191.278 12.5898C191.459 13.1511 191.872 14.3244 192.515 16.1092C193.018 17.5053 194.269 21.0105 196.268 26.6243C196.379 26.9501 196.522 27.1573 196.697 27.2459C196.872 27.3351 197.232 27.3867 197.777 27.4016C198.141 27.4153 198.322 27.4835 198.322 27.606Z" fill="#484848"/>
<path fill-rule="evenodd" clip-rule="evenodd" d="M210.225 12.67C210.225 12.7757 210.106 12.8285 209.868 12.8285C209.097 12.8426 208.621 12.9763 208.439 13.2302C208.271 13.3851 207.668 14.5838 206.631 16.826C206.169 17.8167 205.734 18.6887 205.328 19.4422C205.048 19.96 204.887 20.3133 204.845 20.5022C204.803 20.6911 204.782 21.1005 204.782 21.73V25.6971C204.782 26.1586 204.841 26.4318 204.96 26.5155C205.079 26.5995 205.496 26.6626 206.211 26.7044C206.589 26.7311 206.779 26.7968 206.779 26.902C206.779 27.0078 206.68 27.0602 206.484 27.0602H206.232L203.29 26.9974C202.463 26.9974 201.783 27.0116 201.251 27.0393C201.167 27.0534 201.069 27.0602 200.957 27.0602C200.76 27.0602 200.662 26.9942 200.662 26.8621C200.662 26.73 200.823 26.6566 201.146 26.6416C201.916 26.6139 202.372 26.5443 202.512 26.4332C202.652 26.322 202.722 25.9885 202.722 25.4323V21.0328C202.582 20.7259 202.176 19.9097 201.503 18.5838L199.401 14.4398C199.191 14.0353 198.939 13.5816 198.645 13.0793C198.49 12.9402 198.158 12.87 197.646 12.87C197.135 12.87 196.879 12.7937 196.879 12.6398C196.879 12.5284 196.992 12.4724 197.215 12.4724C197.51 12.4724 198.098 12.4865 198.981 12.5142C199.485 12.5284 199.85 12.5352 200.074 12.5352L202.512 12.5039C202.61 12.483 202.722 12.4724 202.848 12.4724C203.1 12.4724 203.227 12.5428 203.227 12.683C203.227 12.8094 202.988 12.8725 202.512 12.8725C201.643 12.8725 201.209 13.0266 201.209 13.3354C201.209 13.5743 201.649 14.5357 202.531 16.2198L204.44 19.8186C204.789 19.1951 205.187 18.4259 205.634 17.5112L206.874 15.0209C207.342 14.1223 207.577 13.5327 207.577 13.2519C207.577 13.0693 207.458 12.9641 207.22 12.9358C206.729 12.866 206.4 12.8377 206.232 12.8516C205.924 12.866 205.77 12.7956 205.77 12.6409C205.77 12.5287 205.903 12.4724 206.169 12.4724H207.388H208.082C209.511 12.4305 210.225 12.4966 210.225 12.67Z" fill="#484848"/>
</svg>
