<svg width="634" height="779" viewBox="0 0 634 779" fill="none" xmlns="http://www.w3.org/2000/svg">
<path fill-rule="evenodd" clip-rule="evenodd" d="M474.271 190.246L432.408 215.152L505.536 260.197L546.339 235.29L622.647 188.126L550.579 144.142L475.331 98.0374L406.443 55.6429L331.195 9.53878L316.358 0L302.58 9.53878L227.332 55.6429L158.444 98.0374L84.2562 143.082L12.1881 188.126L88.4955 234.23L227.332 318.489L244.29 329.088L302.58 365.653L317.417 374.132L331.195 365.653L389.485 329.088L406.443 319.549V284.044L363.52 257.017L331.195 277.154L317.417 285.103L302.58 277.154L227.332 231.05L160.563 190.246L196.068 167.988L227.332 148.381L302.58 102.277L316.358 93.798L331.195 102.277L406.443 148.381L437.707 167.988L474.271 190.246Z" fill="url(#paint0_linear)"/>
<path fill-rule="evenodd" clip-rule="evenodd" d="M128.239 520.393L201.367 565.437L227.332 581.335L244.289 591.934L302.58 627.439L316.358 635.918L331.195 627.439L389.485 591.934L331.195 555.369L389.485 591.934L406.443 581.335L432.408 565.437L505.536 521.453L432.408 476.409L505.536 521.453L531.502 504.495L557.467 488.597V519.863V537.881L544.75 545.3L472.682 590.344L437.177 612.071L430.818 616.311L405.913 631.149L357.691 660.295L330.665 678.313L315.828 686.792L302.05 678.313L273.965 660.295L226.802 631.149L201.897 616.311L195.538 612.071L158.974 590.344L105.453 556.958L86.9056 545.3L75.2476 537.881L60.41 528.342L0 491.777V564.907V584.515L10.5982 590.874L82.6663 635.918L125.589 661.885L157.914 681.492L197.657 706.399L226.802 723.357L302.05 770.521L315.828 779L330.665 770.521L405.913 723.357L433.998 706.399L474.801 681.492L506.066 661.885L548.989 635.918L621.057 591.934L632.715 584.515V566.497V478.528V443.023V390.03V355.054L557.467 401.158L531.502 415.996L459.434 461.041L432.408 476.939L406.443 492.837L359.28 521.983L331.195 538.941L316.358 547.42L302.58 538.941L274.494 520.923L227.332 492.837L201.367 476.939L174.341 459.981L102.273 415.996L76.3074 400.098V389.5V347.635L145.196 389.5L217.264 434.544L227.862 439.843L244.819 450.442L303.11 487.007L316.887 495.486L331.725 485.947L390.015 450.442L331.725 414.937L390.015 450.442L406.972 440.903L417.571 434.544L489.639 390.56L558.527 348.695L633.775 302.591V214.092L558.527 260.196L416.511 346.045L405.913 352.405L343.383 390.03L330.665 398.509L315.828 406.988L302.05 398.509L289.332 390.03L226.802 352.405L216.204 346.045L75.2476 259.137L0 213.032V302.061V353.464V390.03V442.493L28.0854 460.511L75.2476 488.597L101.213 505.555L128.239 520.393ZM406.443 284.043V319.549L435.588 301.531L406.443 284.043Z" fill="url(#paint1_linear)"/>
<defs>
<linearGradient id="paint0_linear" x1="317.429" y1="374.1" x2="317.429" y2="0" gradientUnits="userSpaceOnUse">
<stop stop-color="#936D2E"/>
<stop offset="0.49" stop-color="#F2CD74"/>
<stop offset="1" stop-color="#936D2E"/>
</linearGradient>
<linearGradient id="paint1_linear" x1="316.906" y1="779.548" x2="316.906" y2="213.174" gradientUnits="userSpaceOnUse">
<stop stop-color="#936D2E"/>
<stop offset="0.49" stop-color="#F2CD74"/>
<stop offset="1" stop-color="#936D2E"/>
</linearGradient>
</defs>
</svg>
