<svg width="1822" height="898" viewBox="0 0 1822 898" fill="none" xmlns="http://www.w3.org/2000/svg">
<path opacity="0.5" fill-rule="evenodd" clip-rule="evenodd" d="M1806.91 892.382C1772.88 854.825 1740.93 819.339 1710.15 785.627C1706.6 781.782 1706.6 778.825 1710.15 774.389C1740.93 736.833 1770.52 700.459 1799.51 664.677C1800.7 663.494 1801.88 662.016 1803.66 660.242C1805.73 661.424 1807.5 662.312 1808.98 663.495C1813.42 667.635 1817.56 671.479 1822 675.619V670.887C1816.97 666.452 1811.94 662.016 1806.91 657.876C1811.94 657.284 1816.97 656.989 1822 656.397V654.031C1819.93 654.327 1817.56 654.623 1815.49 654.919C1813.72 655.214 1811.94 655.214 1808.69 655.214C1810.16 653.144 1810.76 651.37 1812.24 649.891C1815.49 646.047 1818.75 642.203 1822 638.358V632.74C1817.86 638.063 1813.42 643.386 1809.28 648.708C1807.8 650.483 1806.32 651.961 1803.95 654.327C1801.29 652.257 1799.22 650.779 1797.15 649.004C1768.15 622.389 1740.63 596.957 1713.71 572.708C1710.15 569.456 1709.86 566.498 1713.71 562.358C1740.04 532.491 1765.49 503.51 1790.34 474.825C1791.82 473.051 1793.59 471.277 1795.67 468.911C1798.33 470.389 1800.1 471.572 1801.58 472.755C1808.39 478.078 1815.19 483.105 1822 488.428V483.992C1815.19 478.965 1808.69 474.234 1801.88 469.207C1801.29 468.911 1800.99 468.319 1800.1 467.136C1804.25 466.545 1807.21 465.954 1809.87 465.362C1813.72 464.771 1817.86 464.179 1822 463.588V461.518C1817.56 462.109 1813.12 462.996 1808.98 463.588C1806.32 463.884 1803.65 464.179 1800.1 464.771C1801.58 462.701 1802.47 461.518 1803.66 460.039C1809.87 453.238 1815.79 446.732 1822 439.93V436.382C1815.19 444.366 1808.09 452.055 1801.29 460.039C1800.1 461.222 1798.62 462.405 1796.85 464.179C1794.78 462.996 1793 462.109 1791.82 461.222C1765.19 440.817 1740.04 421.3 1715.48 402.374C1713.11 400.6 1712.23 398.825 1715.18 395.868C1739.45 369.845 1763.12 344.413 1786.49 319.572C1787.38 318.389 1788.56 317.502 1790.64 315.728C1793 317.207 1794.48 317.798 1795.96 318.685C1804.54 324.304 1813.42 329.922 1822 335.837V331.992C1813.12 326.67 1804.54 321.347 1795.96 316.024C1795.37 315.728 1794.78 315.136 1793.59 313.954C1803.06 312.179 1812.53 310.701 1822 308.926V307.152C1814.9 308.335 1807.8 309.814 1800.7 310.996C1798.62 311.292 1796.55 311.588 1793.89 311.884C1795.37 310.109 1796.55 308.631 1797.74 307.448C1806.02 298.872 1814.01 290.592 1822 282.312V278.467C1817.27 283.494 1812.53 288.522 1807.8 293.549C1802.47 299.168 1796.85 305.082 1790.34 311.884C1787.97 310.701 1786.49 309.814 1785.01 308.631C1761.93 293.549 1739.74 279.059 1718.14 264.864C1715.18 262.794 1715.18 261.02 1718.14 258.063C1739.45 236.475 1760.16 215.479 1780.58 194.483C1781.76 193.3 1782.94 192.117 1784.72 190.343C1786.49 190.934 1787.97 190.934 1788.86 191.526C1799.81 197.736 1811.05 203.946 1822.3 210.156V206.607C1810.76 200.693 1799.22 194.483 1787.68 188.568C1799.22 186.203 1810.76 183.837 1822.3 181.767V180.288C1813.42 182.063 1804.84 183.837 1795.96 185.611C1793.89 185.907 1791.52 186.498 1787.68 187.09C1789.75 185.02 1790.64 184.133 1791.82 182.95C1801.88 173.191 1811.94 163.432 1822 153.673V150.716C1811.35 161.658 1800.4 172.6 1789.45 183.837C1788.56 184.724 1787.38 185.611 1785.9 186.794C1784.42 186.203 1782.94 185.907 1781.76 185.315C1760.16 173.487 1739.45 161.658 1719.33 150.716C1717.26 149.533 1716.96 148.35 1719.03 146.28C1739.45 126.763 1758.98 107.541 1778.5 88.6151C1779.1 88.0236 1780.28 87.1365 1781.46 85.9536C1783.24 86.8407 1784.72 87.1365 1785.61 87.7279C1797.44 93.3466 1809.28 98.9653 1821.7 104.88V101.627C1808.69 96.0081 1795.96 90.3894 1783.53 84.7707C1787.09 83.8836 1788.56 83.5878 1790.34 82.9964C1800.7 80.6306 1811.35 78.2649 1821.7 76.1948V75.0119C1811.64 77.3777 1801.58 79.7435 1791.82 81.8135C1789.75 82.405 1787.38 82.7007 1784.42 83.2921C1785.61 82.1092 1786.2 81.2221 1787.09 80.3349C1798.92 69.3933 1810.46 58.4516 1822 47.8057V44.2571C1809.28 56.6773 1796.55 69.0975 1783.24 81.5178C1782.94 81.8135 1782.35 82.1092 1781.17 82.9964C1779.69 82.4049 1778.5 82.1092 1777.32 81.5178C1757.79 72.3505 1738.86 63.1832 1720.51 54.6073C1718.74 53.7201 1717.85 52.833 1719.92 50.7629C1738.56 33.6112 1756.61 16.7551 1774.36 0.194824L1771.4 1.67342C1753.65 17.6423 1735.6 33.9069 1717.26 50.1715C1714.89 52.2415 1712.52 53.4244 1707.79 54.6073C1672.28 62.8874 1637.37 71.4633 1602.75 79.7435L1597.13 82.4049C1615.77 77.6734 1692.99 59.6345 1713.41 55.4944C1734.12 64.6618 1755.72 74.1248 1777.91 84.1793C1771.99 86.545 1677.02 107.837 1649.79 113.16C1630.56 103.401 1611.92 93.6423 1593.87 84.1793L1591.8 85.0664C1592.39 85.3621 1592.98 85.3622 1593.57 85.6579C1609.55 94.5295 1626.12 103.992 1643.28 113.456C1645.06 114.343 1645.65 115.526 1643.58 117.596C1623.16 136.226 1602.75 155.152 1582.03 174.67C1581.44 175.261 1580.56 175.852 1579.08 177.035C1577.6 176.148 1576.71 175.852 1575.82 175.261C1559.55 164.615 1543.57 153.969 1528.18 143.915C1526.7 143.028 1526.11 141.845 1528.48 139.775C1548.6 122.031 1568.13 104.584 1587.36 87.1365L1583.51 88.9108C1564.28 105.471 1544.75 122.327 1525.22 139.479C1523.15 141.253 1521.38 142.436 1517.53 143.323C1483.21 151.308 1449.18 158.996 1415.75 166.685L1410.42 169.051C1430.24 164.024 1509.84 146.28 1521.97 144.21C1539.43 154.856 1557.48 166.094 1576.41 177.627C1570.5 179.697 1466.34 201.876 1453.03 203.946C1437.05 192.413 1421.66 181.471 1406.87 170.529L1404.8 171.417C1405.39 171.712 1405.98 172.304 1406.57 172.6C1419.59 182.654 1432.61 193.3 1446.52 203.65C1448.59 205.424 1448 206.903 1445.04 209.564C1424.03 228.195 1403.02 247.121 1381.42 266.343C1380.24 267.526 1378.76 268.413 1376.98 270.187C1375.8 269.3 1374.62 268.708 1373.73 267.821C1360.71 255.697 1348.28 244.164 1336.15 232.926C1334.38 231.448 1334.67 229.969 1337.63 227.308C1358.64 209.269 1379.06 191.821 1399.18 174.374C1399.47 174.078 1399.47 174.078 1399.77 173.782L1397.11 174.965C1376.69 192.117 1355.68 209.564 1334.67 227.308C1332.31 229.378 1329.94 230.561 1325.8 231.448C1292.95 238.545 1260.7 245.642 1228.74 252.74L1224.9 254.514C1260.11 247.121 1294.73 239.728 1330.23 232.335C1344.44 244.755 1359.23 257.471 1374.62 270.483C1369 272.257 1266.91 292.957 1256.85 294.14C1244.43 281.424 1232.3 269.004 1220.16 256.288L1218.09 257.175C1218.39 257.471 1218.98 257.767 1219.28 258.063C1229.63 269.891 1240.28 282.016 1251.53 294.436C1252.42 295.619 1252.71 296.506 1250.34 298.576C1226.38 318.981 1202.11 339.977 1177.56 361.269C1177.26 361.564 1176.67 361.86 1175.78 362.452C1174.89 361.86 1174.3 361.269 1173.71 360.677C1163.65 346.778 1153.89 333.471 1144.42 320.459C1143.53 318.981 1143.53 317.798 1146.19 315.728C1154.77 308.631 1163.06 301.533 1171.64 294.732C1185.84 282.903 1200.04 271.074 1213.95 259.245L1209.81 261.315C1187.91 279.059 1166.02 297.098 1143.53 315.432C1141.75 316.911 1140.27 317.798 1137.91 318.685C1137.32 318.981 1136.43 319.277 1135.54 319.277C1104.18 325.782 1073.11 332.288 1042.63 338.794H1042.34L1038.49 340.568H1038.19C1069.56 334.358 1101.51 328.148 1134.06 321.642C1137.02 321.051 1138.8 321.051 1139.98 322.234C1150.33 335.245 1160.99 348.849 1171.93 362.747C1172.23 363.043 1172.23 363.635 1172.53 364.226C1170.16 364.817 1168.09 365.113 1166.31 365.409C1132.29 371.619 1098.85 377.829 1066.01 384.039C1062.75 384.631 1060.38 384.926 1059.2 383.152C1050.62 369.253 1041.74 355.946 1033.46 343.23C1033.46 342.934 1033.16 342.934 1033.16 342.638L1032.87 342.934L1031.09 343.821L1030.8 344.117C1031.09 344.413 1031.39 344.708 1031.68 345.004C1039.08 358.016 1046.77 371.323 1054.76 385.222C1055.65 386.405 1055.65 387.588 1052.99 389.954C1027.54 411.245 1001.8 432.833 975.465 454.716C974.873 455.308 974.281 455.603 973.098 456.491C972.506 455.603 971.914 455.012 971.618 454.125C964.813 439.043 958.303 424.257 951.794 410.063C951.202 408.584 951.202 407.401 954.161 405.035C978.72 385.222 1002.69 365.705 1026.36 346.187L1025.77 346.483L1023.4 347.666L1022.81 347.961C1000.02 366 976.648 384.631 953.273 403.261C950.61 405.331 948.243 406.81 944.988 407.992C944.397 408.288 943.805 408.288 943.213 408.584C913.329 414.498 883.74 420.413 854.743 426.031H854.447L849.121 428.397H848.825C865.691 424.553 931.674 412.133 946.172 410.063C953.569 425.144 961.262 440.522 969.843 457.673C966.884 458.561 955.345 460.926 940.55 463.588C917.471 467.432 895.279 471.277 873.088 475.121C869.241 475.712 865.987 476.304 863.323 476.599C857.406 460.631 851.488 444.958 845.57 429.876L845.274 430.171L843.499 431.059L843.203 431.354C843.499 431.65 843.795 431.65 843.795 431.946C848.529 446.436 853.263 461.518 858.293 477.191C858.885 478.965 857.11 480.74 854.743 482.81C832.551 500.849 810.36 518.887 787.576 537.222C783.73 540.475 779.883 543.728 775.741 546.981C774.261 548.164 772.782 549.347 770.711 550.825C770.415 549.642 770.119 548.755 769.823 548.164C766.272 531.603 762.722 515.339 759.467 499.666C759.171 498.187 759.467 496.708 762.426 494.343C788.464 473.938 813.91 453.533 839.061 433.424L838.469 433.72L835.214 435.199L834.622 435.494C810.064 454.716 784.913 473.938 759.763 493.751C757.987 494.934 756.508 496.117 754.733 496.708C754.141 497.004 753.253 497.004 752.661 497.3C723.96 502.623 695.555 507.946 667.446 512.973L662.12 515.339C668.925 513.86 684.016 511.199 700.289 508.242V508.537C715.675 505.876 731.062 503.214 746.744 500.553C747.927 500.257 749.111 500.257 749.998 499.961C753.253 499.666 754.733 500.257 755.029 502.031C758.579 517.113 762.722 532.786 766.864 548.755C767.16 549.642 767.16 550.529 767.456 551.712C763.017 552.895 744.672 555.852 724.848 559.105C719.818 559.992 714.788 560.584 709.758 561.471C689.637 564.724 670.996 567.385 666.262 567.977C663.599 550.529 660.936 533.378 658.273 516.817L656.202 517.705C656.498 518.296 656.498 518.887 656.498 519.479C658.273 534.856 659.753 550.529 661.824 566.794C662.12 569.16 660.64 571.526 656.498 574.483C629.276 596.07 601.759 617.954 573.649 640.133C572.17 641.315 570.395 642.498 568.027 644.273C567.732 642.794 567.436 641.907 567.436 640.724C567.14 622.981 566.844 605.533 566.252 588.973C566.252 586.607 567.436 584.833 571.282 581.876C597.912 561.175 623.95 541.066 649.988 520.957C650.284 520.662 650.58 520.662 650.58 520.366L647.917 521.549C621.879 541.362 595.841 561.175 569.211 581.58C566.252 583.946 563.589 585.424 560.334 586.016C533.113 590.452 506.187 595.183 479.853 599.619L476.006 601.393C505.003 596.958 533.409 592.522 562.701 587.79C563.885 606.125 564.773 625.347 565.956 645.16C560.926 646.638 477.486 658.763 469.793 659.059C470.384 640.133 470.976 622.094 471.272 603.759L469.201 604.646C469.201 604.942 469.497 605.533 469.497 605.829C468.313 622.981 467.13 640.428 465.946 658.763C465.946 660.242 465.354 661.72 462.395 664.086C431.919 687.744 400.851 711.697 369.191 736.242C368.599 736.537 368.007 737.129 366.528 738.016C366.528 736.833 366.528 735.946 366.528 734.763C369.487 715.245 372.15 696.024 374.813 677.689C375.109 675.619 376.292 673.845 379.843 671.183C408.84 649.3 437.245 627.712 465.059 606.421L460.916 608.491C433.694 628.6 406.177 649.3 378.363 670C375.405 672.366 373.037 673.549 369.783 674.14C344.04 677.985 318.594 682.125 293.444 685.969L289.597 687.744C315.339 684.195 341.377 680.646 367.711 676.802C370.079 676.506 371.558 676.506 371.262 678.28C368.895 697.207 366.824 716.724 364.457 736.833C364.457 737.424 364.161 738.016 363.865 739.199C361.202 739.494 359.427 739.79 357.651 740.086C330.725 743.339 304.096 746.592 277.762 749.845C274.211 750.14 273.027 749.549 273.619 746.887C277.17 727.961 280.72 709.922 283.975 692.179C283.975 691.588 284.271 690.701 284.567 690.109L282.2 691.292C282.2 691.588 282.2 692.179 282.2 692.771C278.057 711.105 273.915 730.031 269.773 749.549C269.477 751.323 268.589 753.098 265.334 755.463C233.378 779.712 200.831 804.257 167.691 829.393C166.804 829.985 165.916 830.576 164.436 831.759C164.732 830.281 164.732 829.393 165.028 828.506C171.242 807.214 177.16 786.514 182.782 766.701C183.373 764.631 184.557 762.856 188.108 760.491C218.584 738.016 248.469 715.541 277.762 693.658L274.803 695.136C246.693 715.837 217.992 736.537 189.291 757.829C184.853 761.082 181.598 762.856 177.456 763.448C153.489 766.701 129.818 769.954 106.442 773.207L101.117 775.572C115.023 773.207 168.579 766.405 179.823 766.109C174.201 787.401 168.579 809.58 162.365 833.533C132.481 836.491 104.667 839.152 76.8537 841.814C83.955 819.635 91.0563 798.047 97.5659 777.051L95.4946 777.938C95.4946 778.234 95.4946 778.53 95.4946 778.825C88.3933 798.934 80.9961 819.635 73.8948 840.926C73.0072 843.292 70.6401 845.362 67.3853 847.728C45.4896 863.993 23.0021 880.553 0.514648 897.409H2.28998C24.7774 880.849 46.969 864.584 68.8647 848.615C72.1195 846.249 74.7825 844.771 77.7414 844.475C103.779 841.518 130.114 838.561 157.039 835.308C157.927 835.308 158.815 835.308 160.59 835.308C157.927 837.378 156.152 838.561 154.672 839.744C129.226 858.67 103.188 878.187 77.1496 897.705H80.1085C105.555 878.483 130.409 859.557 154.968 840.926C156.743 839.448 158.519 838.265 161.182 836.491C160.886 837.969 160.886 839.152 160.59 840.335C155.264 858.965 149.642 878.187 144.02 897.705H147.571C152.897 877.891 157.631 858.67 162.661 839.744C162.957 838.265 163.549 837.082 164.141 834.716C194.025 831.759 223.614 828.802 254.386 825.845C249.948 848.615 245.51 872.568 240.776 897.705H242.847C242.847 897.409 242.847 897.113 243.143 896.818C248.173 873.16 253.499 850.094 257.937 827.915C258.529 824.958 260.304 822.592 264.742 819.043C296.107 794.794 326.879 770.841 357.355 747.183C359.131 745.705 361.202 744.226 363.865 742.156C363.865 743.93 363.865 745.113 363.569 746.296C360.61 766.701 357.355 787.697 354.396 808.989C353.805 812.242 351.733 814.903 346.999 818.747C314.747 844.179 281.904 870.203 248.469 896.522C248.173 896.817 247.581 897.113 246.989 897.705H248.765C252.611 894.747 255.866 892.086 259.121 889.424C289.301 866.063 318.89 842.996 347.887 820.226C353.213 816.086 356.764 814.312 361.498 814.016C390.495 810.763 420.084 807.214 450.264 803.961C452.335 803.666 454.702 803.37 457.365 803.074C455.294 805.144 453.815 806.327 452.335 807.51C419.196 833.829 385.465 860.74 351.438 887.946C346.703 891.79 343.153 893.565 338.714 893.86C325.399 895.043 312.085 896.226 298.77 897.409H335.756C336.347 897.409 336.939 897.409 337.531 897.409H345.816C346.112 895.635 347.295 893.86 350.254 891.495C386.352 862.218 421.563 833.829 455.886 805.736C456.182 805.44 456.774 805.144 458.253 804.257C458.253 805.44 458.549 806.327 458.549 807.51C457.069 831.463 455.294 856.304 453.815 882.031C453.519 884.693 452.335 886.763 448.785 889.72C445.53 892.382 442.571 895.043 439.316 897.705H443.459C445.234 896.226 447.305 894.452 449.376 892.973C454.111 889.129 457.661 887.354 462.395 887.059C496.127 884.102 530.45 880.849 565.66 877.596C567.732 877.3 569.507 877.596 572.466 877.3C569.507 879.961 567.436 881.736 565.069 883.51C559.447 888.242 553.825 892.973 548.203 897.705H550.274C555.6 893.269 560.926 888.537 565.956 884.102C568.027 882.327 570.099 880.553 573.353 877.596C573.649 879.961 573.945 881.44 573.945 883.214C573.945 887.946 574.241 892.677 574.241 897.409H577.496C577.2 891.79 576.904 886.172 576.608 880.553C576.608 879.37 576.608 878.187 576.904 876.413C579.271 876.117 581.342 875.821 583.118 875.526C619.512 872.864 656.794 870.203 694.667 867.245C698.81 866.95 700.585 867.837 701.177 870.794C702.36 879.666 703.544 888.537 705.023 897.409H709.758C708.574 887.65 707.391 878.187 706.207 868.724C705.911 865.767 706.799 863.401 710.645 859.852C745.264 829.098 778.995 798.934 812.135 769.658C813.318 768.475 814.798 767.292 816.869 765.814C817.461 767.588 818.053 768.771 818.349 770.249C823.674 795.386 829.296 821.409 835.214 848.319C836.102 852.164 834.622 855.417 829.888 859.557C816.277 871.977 802.666 884.693 788.76 897.409H792.902C806.809 884.693 821.012 872.273 834.622 859.852C837.285 857.487 839.652 856.008 842.315 855.121C843.203 854.825 844.091 854.825 845.274 854.53C887.882 850.685 931.674 846.545 976.057 842.701C977.536 842.405 979.312 842.701 981.679 842.701C979.312 845.067 977.832 846.841 976.057 848.615C958.895 864.88 941.438 881.144 923.685 897.705H928.715C946.172 880.849 963.334 864.288 980.199 848.024C981.383 846.841 982.566 845.954 984.638 844.179C985.525 846.249 986.117 847.432 986.709 848.911C992.035 864.88 997.361 881.144 1002.69 897.705H1008.6C1001.8 879.074 994.994 860.74 988.484 842.996C990.555 842.405 1002.09 840.926 1018.07 839.448C1056.83 836.491 1095.3 833.533 1134.95 830.576C1137.32 830.576 1139.39 830.281 1141.16 830.281C1151.81 851.868 1162.76 874.343 1174.01 897.705H1179.63C1169.57 875.23 1159.51 853.347 1149.74 832.351C1147.97 828.802 1148.26 825.845 1152.7 821.409C1185.84 787.993 1217.8 755.463 1249.46 723.526C1250.94 722.047 1252.71 720.568 1255.08 718.498C1256.56 720.568 1257.45 721.751 1258.33 723.23C1274.02 750.14 1290.29 778.234 1307.75 807.51C1310.11 811.354 1309.82 814.607 1305.38 819.339C1281.12 844.771 1256.85 871.09 1232 897.409H1236.73C1262.18 871.09 1287.33 845.066 1311.89 819.635C1312.48 819.043 1313.07 818.747 1313.37 818.156C1316.92 815.79 1320.77 814.312 1326.39 813.72C1377.58 809.284 1430.24 804.553 1484.1 799.526C1487.35 799.23 1490.61 798.934 1495.04 798.638C1495.34 798.638 1495.34 798.638 1495.64 798.638C1494.16 801.004 1493.27 802.483 1492.09 803.961C1464.57 834.421 1436.16 865.175 1407.46 896.818H1413.97C1442.38 864.584 1469.89 833.238 1497.12 802.187C1497.71 801.596 1498.59 801.004 1499.78 799.821C1501.55 801.891 1503.03 803.37 1503.92 804.849C1525.52 834.125 1547.71 864.88 1571.38 896.818H1580.85C1555.41 863.993 1530.85 832.646 1507.47 802.483C1506.29 801.004 1505.7 799.526 1504.22 797.16C1509.25 796.568 1512.8 796.273 1516.05 795.977C1571.68 791.541 1628.79 787.401 1687.37 782.67C1695.66 782.078 1700.69 783.261 1704.83 787.697C1735.3 820.522 1768.15 854.825 1802.47 891.199C1803.95 892.677 1805.43 894.452 1806.91 896.522H1813.12C1810.46 895.93 1808.69 894.156 1806.91 892.382ZM355.876 746.887C324.808 770.545 293.444 794.498 261.192 818.747C257.937 821.409 255.274 822.888 252.019 823.183C223.614 826.436 195.801 829.689 168.283 832.942C167.395 832.942 166.508 832.942 165.028 832.942C167.099 831.463 168.283 829.985 170.058 829.098C202.014 805.144 233.97 781.487 265.334 758.125C268.589 755.759 270.956 754.281 274.211 753.985C301.728 750.436 329.838 746.592 358.243 742.452C359.427 742.452 360.314 742.452 362.09 742.156C359.427 744.226 357.651 745.409 355.876 746.887ZM1800.4 655.806C1794.78 656.693 1791.52 657.284 1788.27 657.58C1729.98 663.495 1672.87 669.113 1617.25 675.028C1611.33 675.619 1607.78 675.028 1604.82 672.07C1579.67 645.456 1555.11 620.024 1532.03 595.775C1531.14 594.887 1530.55 594 1529.96 593.113C1530.25 592.817 1530.55 592.522 1530.55 592.226C1530.85 591.93 1531.14 591.93 1531.14 591.635C1533.21 591.339 1534.99 590.747 1536.76 590.747C1590.62 584.242 1645.95 577.44 1702.76 570.638C1733.53 597.253 1765.49 625.347 1800.4 655.806ZM1789.45 472.459C1763.12 501.44 1735.9 530.716 1708.68 561.175C1705.12 565.315 1700.69 567.09 1693.88 567.977C1640.92 575.074 1589.14 581.876 1538.54 588.677C1535.88 588.973 1533.51 589.269 1529.07 589.565C1531.73 586.607 1533.51 584.833 1535.28 583.059C1563.1 554.374 1590.62 526.28 1617.25 498.483C1620.2 495.526 1622.87 493.456 1629.08 492.568C1680.27 484.88 1732.35 476.895 1785.61 468.911C1787.68 468.615 1789.45 468.615 1792.71 468.024C1791.52 469.798 1790.93 471.277 1789.45 472.459ZM1424.33 603.168L1424.03 602.872C1405.69 605.238 1387.34 607.308 1369 609.673C1366.33 609.969 1364.26 609.969 1362.49 610.265C1343.25 586.016 1324.91 562.654 1307.16 540.179C1308.93 539.588 1320.77 537.518 1337.04 535.152C1376.1 529.829 1414.86 524.21 1454.51 518.592C1476.11 541.362 1498.59 565.02 1522.56 589.86C1518.42 591.043 1467.82 597.845 1424.33 603.168ZM1522.27 592.817C1520.79 594.887 1519.9 596.366 1518.42 597.845C1489.13 628.008 1458.95 659.059 1428.77 690.701C1426.99 692.475 1425.21 693.954 1423.14 694.841C1420.78 696.024 1417.82 696.615 1414.27 697.207C1364.85 702.825 1316.33 708.444 1268.69 713.767C1266.03 714.063 1263.36 714.063 1259.81 714.358C1261.59 712.288 1262.77 710.514 1264.25 709.035C1295.62 678.28 1326.68 648.117 1356.86 618.545C1357.46 617.954 1358.05 617.362 1358.94 616.771C1361.89 614.996 1364.85 613.518 1369.59 612.926C1416.34 606.716 1464.27 600.21 1513.09 593.705C1515.46 593.409 1518.42 593.113 1522.27 592.817ZM1008.01 656.989C991.147 659.059 974.281 661.129 957.416 663.199C945.58 664.677 936.112 665.565 931.082 665.86C929.898 665.86 929.011 665.269 928.123 664.677C919.838 642.203 911.553 620.319 903.564 598.436C906.523 597.845 908.89 597.549 910.961 597.253C946.172 592.226 981.974 587.495 1018.37 582.172C1023.69 581.284 1026.06 582.172 1027.25 584.833C1036.71 604.35 1046.77 624.755 1057.13 645.751C1057.72 646.934 1058.02 648.117 1058.61 649.891C1053.28 650.779 1031.98 653.736 1008.01 656.989ZM1057.72 652.849C1056.24 654.623 1055.06 656.101 1053.58 657.284C1022.81 685.082 991.147 713.175 959.191 742.156C956.232 744.817 953.865 746.592 950.61 747.479C950.019 747.775 949.131 747.775 948.539 748.07C907.411 752.802 866.874 757.533 827.225 761.969C825.746 762.265 824.266 761.969 821.899 761.969C824.266 759.899 825.746 758.125 827.521 756.646C859.477 728.849 891.137 701.347 921.909 674.436C924.276 672.366 926.348 670.887 929.011 670C929.306 670 929.898 669.705 930.194 669.705H930.49C931.082 669.705 931.378 669.409 931.969 669.409C971.323 664.382 1011.56 658.763 1052.4 653.144C1053.88 652.849 1055.35 652.849 1057.72 652.849ZM904.452 596.366C907.115 594 908.594 592.817 910.37 591.339C938.775 567.681 966.588 544.319 993.81 521.253C995.585 519.775 997.065 518.887 998.544 518C1000.32 517.113 1002.09 516.522 1004.46 516.226C1039.97 510.312 1076.07 504.101 1113.05 497.891C1114.83 497.596 1116.9 497.3 1119.27 497.004C1118.08 498.187 1117.49 499.37 1116.31 500.257C1088.49 524.506 1059.79 549.347 1030.8 574.483C1029.91 575.074 1029.32 575.666 1028.43 576.257C1026.36 577.44 1023.99 578.327 1021.03 578.919C983.75 584.537 947.06 590.156 910.961 595.775C909.186 596.07 907.707 596.07 904.748 596.366H904.452ZM1031.98 581.58C1031.09 579.51 1031.68 578.031 1034.64 575.37C1063.34 549.938 1091.45 524.802 1118.97 500.257C1119.56 499.666 1120.45 499.074 1121.93 497.891C1122.82 498.779 1123.7 499.666 1124.3 500.553C1134.65 518.592 1145.6 537.518 1157.14 557.035C1158.62 559.401 1157.73 561.767 1154.18 565.02C1125.48 591.339 1096.78 618.249 1067.19 645.456C1066.3 646.343 1065.12 647.23 1063.34 648.708C1062.46 647.821 1061.57 647.23 1061.27 646.343C1050.92 623.572 1041.15 602.28 1031.98 581.58ZM1069.26 644.864C1099.44 617.658 1129.03 591.043 1158.03 565.02C1159.21 564.133 1160.39 563.245 1161.28 562.654C1163.65 561.471 1166.02 560.584 1168.98 560.288C1209.22 554.374 1250.34 547.868 1292.06 541.658C1294.43 541.362 1296.8 541.066 1300.05 540.771C1298.28 542.545 1297.09 544.024 1295.62 545.502C1267.21 572.117 1237.92 599.323 1208.33 627.121C1206.85 628.6 1205.37 629.487 1203.89 630.374C1202.11 631.261 1199.75 631.852 1197.08 632.148C1154.18 637.767 1112.17 643.681 1071.04 649.004C1068.97 649.3 1067.19 649.3 1064.23 649.596C1066.6 647.526 1067.78 646.047 1069.26 644.864ZM1293.84 539.292C1251.82 545.207 1210.7 550.825 1170.45 556.74C1166.31 557.331 1163.65 557.035 1162.47 554.965C1150.33 535.448 1138.5 516.817 1126.96 499.074C1126.37 498.483 1126.37 497.596 1125.78 496.117C1129.33 495.526 1131.4 495.23 1133.47 494.638C1170.16 489.02 1207.44 483.105 1245.61 476.895C1251.23 476.008 1254.19 476.304 1256.26 478.965C1269.58 496.413 1283.78 514.452 1298.57 533.082C1299.46 534.265 1300.35 535.744 1301.83 537.814C1298.28 538.405 1295.91 538.996 1293.84 539.292ZM1125.78 494.047C1130.81 489.611 1134.65 486.063 1138.79 482.514C1162.17 462.109 1185.55 442.296 1208.03 422.483C1210.1 420.708 1211.88 419.23 1214.25 418.343C1216.32 417.456 1218.68 416.864 1221.35 416.273C1257.45 409.767 1294.43 402.965 1331.71 396.164C1334.38 395.572 1337.04 395.277 1340.89 394.685C1339.41 396.459 1338.52 397.347 1337.34 398.529C1311.89 421.3 1286.15 444.366 1260.11 468.024C1257.45 470.389 1254.78 471.868 1251.53 473.051C1250.64 473.347 1249.75 473.642 1248.87 473.642C1209.22 480.148 1170.45 486.95 1131.99 493.456C1130.21 493.751 1128.73 493.751 1125.78 494.047ZM1260.7 476.304C1259.22 474.234 1259.52 472.459 1262.48 469.502C1272.24 460.335 1282 451.463 1291.77 442.296V442C1308.34 426.623 1324.91 411.541 1341.18 396.459C1341.48 396.164 1342.07 395.868 1343.25 394.981C1344.14 395.868 1345.03 396.459 1345.62 397.051C1360.42 413.611 1375.51 430.467 1391.48 448.21C1392.96 449.985 1392.96 451.759 1390.3 454.125C1363.67 479.852 1336.45 505.876 1308.93 532.786C1308.04 533.673 1307.16 534.265 1305.68 535.743C1304.2 534.265 1303.31 533.378 1302.72 532.195C1287.63 513.269 1274.02 494.343 1260.7 476.304ZM1342.37 503.806C1359.53 487.837 1376.1 472.164 1392.67 456.491C1396.22 452.942 1399.77 451.463 1405.69 450.576C1448.29 443.479 1491.49 436.086 1535.58 428.693C1537.95 428.397 1540.61 428.101 1544.16 427.51C1542.09 429.58 1540.31 431.354 1538.84 432.833C1513.09 457.969 1486.46 483.697 1459.83 510.016C1456.58 513.269 1453.03 515.043 1447.41 515.93C1418.7 520.07 1390.6 524.506 1362.49 528.942C1345.92 531.603 1329.64 533.969 1313.37 536.335C1311.89 536.631 1310.11 536.631 1307.16 536.926L1307.45 536.631C1309.82 534.561 1311.3 533.082 1312.78 531.603C1323.13 522.436 1332.9 513.269 1342.37 503.806ZM1346.8 395.277C1346.51 394.981 1346.51 394.685 1345.92 393.798C1348.88 393.206 1351.24 392.615 1353.31 392.319C1392.96 385.518 1433.2 378.716 1474.33 371.323C1479.07 370.436 1481.73 370.732 1484.1 372.506C1502.44 388.771 1521.67 405.331 1541.5 422.483C1542.39 423.37 1542.98 424.257 1544.16 425.144C1542.09 425.736 1540.61 426.327 1539.13 426.623C1492.97 434.016 1448 441.113 1403.61 447.915C1400.06 448.506 1397.7 448.21 1396.22 446.732C1379.35 428.989 1362.78 411.837 1346.8 395.277ZM1543.87 421.3C1524.93 403.852 1506.58 386.996 1488.83 370.732C1487.05 368.957 1486.46 367.479 1489.42 364.817C1513.98 341.456 1537.65 318.094 1561.03 295.619C1561.62 295.027 1562.51 294.14 1564.28 292.957C1565.76 293.845 1566.94 294.436 1567.83 295.323C1586.47 309.814 1605.41 324.6 1625.53 340.273C1627.6 342.047 1628.19 343.526 1625.53 346.187C1601.27 370.732 1576.71 395.572 1551.56 421.004C1550.67 421.891 1549.49 422.779 1547.71 424.553C1546.53 423.074 1545.05 422.187 1543.87 421.3ZM1557.77 296.506C1534.1 318.389 1510.13 340.864 1485.87 363.635C1483.21 366 1480.84 367.479 1476.11 368.366C1434.09 376.055 1392.67 383.743 1351.83 391.136C1350.35 391.432 1348.88 391.432 1346.21 392.024C1348.28 390.249 1349.47 389.066 1350.65 387.884C1375.51 365.705 1400.06 343.526 1424.03 321.938C1426.4 319.572 1428.77 318.389 1433.5 317.502C1473.74 309.814 1514.57 301.533 1556.29 293.549C1557.77 293.253 1559.25 292.957 1561.62 292.662C1559.84 294.14 1558.96 295.323 1557.77 296.506ZM1521.67 584.242C1501.55 561.767 1482.32 540.179 1463.38 519.479C1460.72 516.817 1461.02 514.156 1464.86 510.607C1490.9 484.288 1516.35 458.561 1541.2 433.424C1542.68 431.946 1544.46 430.467 1546.53 428.101C1548.6 429.58 1550.08 430.763 1551.26 431.946C1571.09 450.28 1591.21 469.207 1612.81 489.02C1615.77 491.681 1616.06 494.343 1612.51 498.187C1586.18 525.985 1559.55 554.67 1532.33 583.65C1530.85 585.424 1529.07 586.903 1526.41 589.269C1524.34 586.903 1522.86 585.72 1521.67 584.242ZM1789.16 462.405C1790.34 463.292 1791.23 464.179 1792.71 465.658C1789.45 466.249 1787.38 466.841 1785.01 467.136C1732.05 474.529 1680.27 481.922 1629.67 489.02C1624.35 489.907 1621.39 489.315 1618.73 487.245C1595.94 467.136 1573.75 447.915 1552.45 429.58C1551.56 428.693 1550.97 427.806 1549.78 426.623C1552.74 426.031 1555.11 425.44 1557.18 425.144C1603.34 417.751 1650.68 410.358 1698.91 402.67C1704.24 401.782 1707.2 402.078 1709.86 404.148C1735.3 422.778 1761.93 442 1789.16 462.405ZM1783.83 318.981C1760.16 343.526 1735.6 368.366 1711.04 393.798C1708.08 397.051 1704.83 398.529 1698.61 399.712C1650.68 407.697 1603.93 415.681 1558.07 423.37C1555.7 423.666 1553.63 423.961 1549.49 424.553C1552.15 422.187 1553.63 420.413 1555.11 418.934C1579.96 394.685 1604.23 371.028 1628.19 347.666C1631.45 344.413 1634.7 342.638 1641.21 341.456C1685.89 333.471 1731.46 324.895 1777.91 316.615C1780.58 316.024 1783.24 315.728 1786.79 315.136C1785.61 316.615 1785.01 317.798 1783.83 318.981ZM1787.97 313.362C1734.12 322.825 1683.82 331.401 1633.52 339.977C1610.44 323.417 1588.54 307.448 1567.24 291.775C1573.16 289.705 1688.85 267.526 1709.56 264.568C1734.12 280.242 1759.86 296.21 1787.97 313.362ZM1780.28 193.3C1758.38 214.887 1735.9 236.771 1713.11 258.95C1711.04 261.02 1708.97 262.203 1704.53 263.09C1659.56 271.961 1615.17 280.537 1571.97 289.113C1571.09 289.409 1569.9 289.409 1567.54 289.705C1569.61 287.635 1571.09 286.452 1572.57 284.973C1595.05 263.977 1616.95 243.572 1638.55 223.168C1641.8 220.21 1645.06 218.732 1651.27 217.253C1691.81 208.973 1732.94 200.397 1774.95 191.526C1777.32 190.934 1779.69 190.638 1783.24 190.047C1781.46 191.526 1780.87 192.413 1780.28 193.3ZM1781.17 187.681C1781.46 187.977 1781.76 188.273 1782.65 188.864C1779.39 189.751 1777.03 190.343 1774.66 190.638C1732.35 199.214 1690.63 207.494 1649.5 215.479C1645.36 216.366 1642.4 216.662 1640.03 215.183C1620.5 203.059 1601.56 191.526 1583.22 180.288C1582.63 179.992 1582.33 179.401 1581.44 178.81C1583.22 178.218 1584.99 177.627 1586.47 177.331C1625.83 169.051 1666.07 160.475 1706.9 151.899C1710.15 151.308 1712.52 151.012 1714.3 151.899C1735.6 163.728 1757.79 175.557 1781.17 187.681ZM1585.59 173.487C1606 155.152 1626.42 136.817 1646.24 119.074C1648.91 116.708 1652.16 115.23 1657.19 114.047C1694.77 105.471 1732.64 96.8952 1771.4 88.0236C1773.47 87.4322 1775.84 87.1365 1778.5 86.545C1777.03 88.0236 1776.14 88.9108 1775.25 90.0937C1755.43 108.428 1735.3 127.059 1715.18 145.985C1712.52 148.35 1709.86 149.533 1704.83 150.716C1665.48 159.292 1626.71 167.868 1588.25 176.148C1586.18 176.74 1584.11 177.035 1580.85 177.627C1582.92 175.852 1584.4 174.67 1585.59 173.487ZM1578.19 180.288C1579.96 181.175 1581.15 181.767 1582.03 182.358C1599.2 193.596 1616.65 205.129 1635 217.253C1637.07 218.732 1637.37 219.915 1635 222.576C1613.4 243.572 1591.5 264.568 1569.02 286.452C1567.83 287.635 1566.65 288.522 1564.87 290C1563.39 289.113 1562.21 288.522 1561.03 287.635C1543.57 274.031 1527 261.02 1510.43 248.6C1508.06 246.825 1508.36 245.051 1511.61 242.389C1532.62 222.872 1553.33 203.946 1573.45 185.02C1574.93 183.245 1576.41 182.063 1578.19 180.288ZM1382.61 268.117C1405.39 248.304 1427.58 229.082 1449.77 209.86C1451.84 208.086 1453.92 206.903 1457.76 206.016C1495.34 197.736 1533.51 189.456 1572.27 180.88C1573.45 180.584 1574.64 180.584 1576.71 180.288C1575.23 181.767 1574.64 182.654 1573.75 183.245C1552.45 202.171 1530.85 221.689 1509.25 241.207C1505.99 244.164 1502.44 245.938 1496.52 247.121C1459.54 254.81 1423.14 262.498 1387.04 269.891C1384.68 270.483 1382.61 270.779 1379.35 271.37C1380.54 269.891 1381.42 269.004 1382.61 268.117ZM1503.33 247.712C1521.97 261.315 1541.5 275.51 1561.91 290.296C1555.11 292.662 1450.96 312.475 1428.47 315.728C1411.6 301.238 1395.03 286.747 1378.17 272.553C1420.18 264.273 1461.02 256.288 1503.33 247.712ZM1375.8 274.031C1376.98 274.623 1377.87 275.214 1378.46 275.806C1392.37 288.817 1406.57 302.125 1421.66 316.024C1423.14 317.502 1423.73 318.685 1421.07 321.347C1397.11 343.526 1372.55 366 1347.69 389.066C1346.8 389.658 1345.92 390.545 1344.14 391.728C1342.96 390.545 1342.07 389.954 1341.18 389.066C1327.28 373.689 1313.96 358.607 1301.24 344.413C1300.05 342.934 1299.76 341.751 1302.42 339.09C1326.39 317.798 1349.47 297.098 1372.55 276.693C1373.43 276.101 1374.32 275.214 1375.8 274.031ZM1181.7 360.382C1189.98 353.284 1198.27 346.483 1206.55 339.385C1221.64 326.67 1236.44 314.249 1251.23 301.829C1254.19 299.168 1256.85 297.985 1261.59 297.098C1296.21 290 1331.42 282.607 1367.22 275.214C1369 274.919 1370.77 274.623 1373.43 274.031C1372.55 275.214 1371.95 275.806 1371.07 276.693C1347.69 297.098 1323.72 317.798 1299.46 338.794C1297.39 340.568 1295.32 342.047 1291.47 342.638C1267.51 347.37 1244.13 351.806 1220.76 356.537C1208.33 358.903 1195.9 361.564 1183.47 363.93C1181.7 364.226 1179.63 364.522 1176.67 365.113C1178.74 362.747 1180.22 361.564 1181.7 360.382ZM1180.52 365.409C1216.61 358.607 1253.01 351.806 1290.29 345.004C1293.25 344.413 1295.32 344.413 1296.5 345.596C1310.41 360.382 1325.2 375.759 1340.29 391.432C1340.59 391.728 1340.59 392.024 1340.89 392.319C1337.63 393.502 1297.39 400.895 1262.48 407.105L1262.18 406.81C1247.98 409.175 1234.07 411.541 1220.16 414.203C1216.32 414.794 1213.95 414.498 1212.77 413.02C1200.93 397.642 1189.1 382.856 1177.56 368.662C1177.26 368.07 1176.96 367.479 1176.37 366.592C1178.15 366 1179.33 365.705 1180.52 365.409ZM1173.12 367.775C1173.12 368.07 1173.12 368.07 1173.12 367.775C1174.3 368.957 1175.19 369.549 1175.49 370.436C1185.84 384.631 1196.2 399.417 1207.44 414.203C1209.22 416.568 1208.33 418.638 1204.48 421.891C1179.63 443.775 1154.48 466.249 1129.03 489.02C1128.73 489.315 1128.73 489.315 1128.44 489.611C1127.26 490.794 1125.78 491.681 1124 493.456C1123.11 492.568 1122.52 491.977 1121.93 491.09C1111.87 473.642 1102.1 456.786 1092.64 440.522C1091.75 438.747 1092.34 437.269 1095 434.903C1120.45 413.02 1145.3 391.432 1169.86 370.436C1170.45 369.845 1171.64 368.957 1173.12 367.775ZM978.72 455.012C1004.46 433.72 1030.2 413.02 1055.06 392.615C1056.83 391.136 1058.61 389.954 1060.68 389.362C1061.57 389.066 1062.16 388.771 1063.05 388.771C1097.07 382.265 1131.4 375.463 1166.61 368.366C1167.79 368.07 1168.98 368.07 1171.64 367.479C1169.57 369.253 1168.09 370.436 1166.9 371.619C1142.35 392.319 1117.2 413.315 1092.04 434.607C1091.16 435.494 1089.97 436.086 1089.09 436.677C1087.01 437.86 1084.94 438.452 1081.98 439.043C1047.96 445.253 1014.23 451.463 981.087 457.673C979.311 457.969 977.536 458.265 974.873 458.561C976.353 457.082 977.536 455.899 978.72 455.012ZM975.761 459.743C1011.86 453.533 1047.37 447.323 1084.06 441.113C1085.24 441.113 1086.13 441.113 1087.01 441.409C1097.67 458.265 1108.91 476.008 1120.75 494.934C1119.27 495.23 1117.79 495.526 1116.6 495.821C1077.55 502.031 1040.26 507.946 1002.98 513.564C1001.5 513.564 1000.32 513.269 999.432 512.973C990.259 494.934 981.679 477.487 973.098 460.039C974.281 460.039 975.169 459.743 975.761 459.743ZM970.731 461.814C971.323 462.701 971.914 463.588 972.506 464.475C979.607 480.444 986.709 496.708 994.402 513.564C995.289 515.635 994.994 517.113 991.739 520.07C964.221 543.432 936.704 567.385 908.298 591.93C907.115 593.113 905.635 594 903.86 595.479C903.268 594.592 902.677 593.705 902.381 592.817C896.167 573.891 890.249 555.261 884.331 537.518C883.74 535.743 884.331 533.969 887.29 531.603C914.512 508.833 941.438 486.358 967.772 464.475C968.068 463.588 969.251 462.996 970.731 461.814ZM772.782 551.121C774.557 549.642 776.037 548.459 777.516 547.277C804.442 525.985 830.776 504.989 856.518 484.288C859.773 481.627 862.436 480.444 865.986 479.557C898.238 473.642 930.786 467.728 963.925 461.518C965.109 461.222 966.292 461.222 968.659 460.926C966.588 462.701 965.109 463.884 963.925 464.771C937.591 486.358 910.666 508.242 883.74 530.421C882.26 531.603 881.077 532.491 879.893 533.082C878.118 533.969 876.343 534.265 874.271 534.856C841.724 540.179 809.472 545.798 777.516 551.121C775.741 551.417 774.261 551.417 771.894 551.712C772.19 551.712 772.486 551.417 772.782 551.121ZM773.078 553.487C773.965 553.191 774.853 553.191 775.741 552.895C807.697 547.868 839.948 542.841 873.088 537.814C876.343 537.222 878.414 537.222 879.005 539.292C885.515 557.331 892.32 575.666 899.422 594.592C899.718 595.183 899.718 596.07 899.718 597.253C897.351 597.845 895.279 598.14 893.504 598.436C858.885 603.168 824.858 607.899 791.423 612.631C789.943 612.926 788.76 612.926 787.576 612.926C787.576 612.926 787.28 612.926 786.984 612.926C786.097 612.631 785.209 612.335 784.913 611.152C780.179 592.226 775.445 573.891 770.711 556.444C770.415 555.852 770.711 555.261 770.415 554.374C771.598 554.078 772.486 553.782 773.078 553.487ZM898.83 599.323C897.351 600.802 896.167 601.985 894.983 602.872C865.099 628.008 834.622 653.736 803.554 679.759C801.187 681.533 799.412 682.716 797.045 683.603C796.453 683.603 795.861 683.899 795.269 683.899C758.579 688.926 722.777 693.658 687.27 698.389C686.383 698.389 685.791 698.389 684.016 698.389C686.678 696.024 688.75 694.545 690.525 692.771C720.114 668.522 749.703 644.568 778.108 620.911C781.067 618.249 783.73 616.771 786.688 615.884C787.872 615.588 788.76 615.292 789.943 615.292C823.083 610.265 857.11 604.942 891.433 599.915C894.096 599.915 895.871 599.619 898.83 599.323ZM767.752 555.557C768.048 556.74 768.639 557.331 768.639 558.218C772.486 575.666 776.037 594 780.179 612.631C780.475 614.701 780.179 616.179 776.924 619.136C760.354 632.74 743.785 646.638 727.215 660.537V660.833C714.196 671.775 701.177 682.716 687.862 693.658C686.383 694.841 684.903 696.024 682.536 697.798C682.24 696.319 681.648 695.432 681.648 694.249C679.281 673.845 677.21 654.031 674.843 635.105C674.547 632.444 676.026 630.374 679.873 627.121C707.686 604.646 734.908 582.467 761.834 560.584C763.313 559.401 765.089 557.922 766.864 556.444C767.16 555.852 767.456 555.557 767.752 555.557ZM574.241 641.907C603.238 619.136 631.939 596.957 660.344 575.074C663.007 573.004 665.375 571.526 668.333 571.23C682.24 568.864 696.147 566.498 710.054 564.133C727.511 561.175 745.264 558.218 763.313 555.261C764.201 555.261 764.793 554.965 766.272 554.965C764.793 556.148 763.905 557.331 762.722 558.218C747.336 570.638 731.653 583.059 715.971 595.479V595.775C703.544 605.533 691.117 615.588 678.69 625.347C674.251 628.895 670.701 630.67 665.966 631.261C635.49 635.697 605.605 640.428 576.016 645.16C574.241 645.456 572.466 645.751 569.803 646.047C571.578 644.273 572.762 643.09 574.241 641.907ZM670.109 633.331C673.363 654.327 676.618 675.915 679.873 698.389C673.659 700.459 589.331 711.105 571.874 711.992C570.69 690.109 569.211 668.817 568.027 647.23C602.055 642.794 635.49 638.063 670.109 633.331ZM565.956 651.666C566.252 670.887 566.548 690.701 567.14 711.401C567.14 713.471 566.548 715.245 562.997 718.203C531.041 743.93 498.79 770.249 465.946 796.864C465.058 797.751 463.875 798.343 461.804 799.821C461.804 798.047 461.508 797.16 461.804 795.977C463.283 773.502 464.763 751.915 465.946 730.919C465.946 728.849 466.834 727.074 470.384 724.117C501.453 699.572 531.633 675.619 561.518 651.961C562.701 651.074 563.885 650.187 565.364 649.004C565.66 650.187 565.956 650.779 565.956 651.666ZM373.333 734.467C403.218 711.697 432.807 689.222 461.804 667.043C465.65 664.086 468.313 662.607 472.16 662.312C500.565 658.172 529.562 653.44 558.855 649.004C560.334 648.708 561.814 648.708 563.885 648.413C562.701 649.596 561.518 650.779 560.334 651.666C530.154 675.028 499.677 698.981 468.313 723.23C465.65 725.3 463.283 726.779 460.324 727.074C429.552 731.214 399.076 735.354 369.191 739.495C368.599 739.495 368.303 739.495 366.824 739.495C369.487 737.129 371.558 735.946 373.333 734.467ZM357.355 811.354C360.018 787.401 362.681 764.335 365.048 741.86C366.824 741.269 368.303 740.973 369.487 740.677C398.484 737.129 428.073 733.58 457.957 730.031C460.324 729.736 461.804 730.031 461.804 731.806C460.916 753.393 460.324 775.868 459.437 798.934C459.437 799.23 459.141 799.821 459.141 800.413C454.111 802.483 374.517 811.059 357.355 811.354ZM573.649 874.343C571.874 874.934 570.395 875.526 569.211 875.526C532.817 878.187 497.31 880.849 462.691 883.51C459.733 883.806 458.549 883.214 458.549 880.849C459.437 854.53 460.324 829.393 461.212 805.144C461.212 804.849 461.508 804.257 461.804 803.074C464.171 802.779 466.242 802.483 468.017 802.187C499.677 798.934 531.633 795.977 564.477 792.724C568.323 792.428 570.099 793.02 570.099 795.681C571.282 819.635 572.466 844.475 573.945 870.498C573.945 871.681 573.945 872.864 573.649 874.343ZM567.14 788.88C533.409 792.724 499.973 796.568 467.13 800.413C465.946 800.413 465.059 800.413 462.691 800.709C465.354 798.638 467.13 797.16 468.609 795.977C501.157 770.249 532.817 744.817 564.181 719.681C567.436 717.02 570.099 715.541 573.649 715.245C606.197 710.81 639.632 706.374 673.364 701.642C674.547 701.347 675.731 701.347 677.506 701.347C675.435 703.121 673.955 704.6 672.18 706.078C640.816 731.806 608.86 757.829 576.608 784.148C573.649 786.81 570.986 788.584 567.14 788.88ZM576.312 869.02C575.721 842.996 575.129 817.86 574.537 793.907C574.537 791.541 575.129 789.471 578.975 786.218C611.819 758.716 644.071 731.806 676.026 705.191C676.914 704.304 678.098 703.712 680.169 702.234C680.465 703.712 680.761 704.895 681.057 705.782C683.424 727.666 686.087 750.14 688.75 773.798C689.046 776.164 688.454 778.53 684.607 781.487C651.172 810.172 617.145 839.448 582.23 869.316C581.047 870.498 579.567 871.386 577.2 873.16C576.904 871.681 576.312 870.498 576.312 869.02ZM813.023 766.701C810.951 768.475 809.768 769.658 808.288 770.841C790.831 785.922 773.078 801.3 755.324 816.973V817.269C739.938 830.576 724.256 844.179 708.574 857.782C704.432 861.627 700.881 863.401 696.147 863.697C658.273 866.95 620.991 870.498 584.301 874.047C582.526 874.343 580.751 874.047 577.792 874.343C581.342 871.386 583.414 869.611 585.485 867.837C619.216 839.448 652.355 811.65 684.607 784.444C689.046 780.6 692.596 778.825 697.626 778.234C713.9 776.459 730.47 774.685 747.04 772.615C767.456 770.249 787.872 767.884 808.584 765.518C810.064 765.222 811.543 765.222 814.502 765.222C813.91 765.814 813.614 766.405 813.023 766.701ZM693.78 774.981C689.933 749.549 686.087 725.004 682.536 701.347C685.199 700.459 708.278 697.206 733.133 693.954V694.249C752.957 691.884 772.486 689.518 792.606 687.152C794.382 686.856 795.861 686.856 797.045 686.856C802.962 710.81 809.472 735.65 816.277 762.561C773.669 766.996 733.429 771.136 693.78 774.981ZM819.236 760.491C818.644 758.716 818.349 757.533 818.053 756.351C813.023 732.989 808.288 710.218 803.258 688.631C802.666 685.673 803.85 683.308 807.992 679.463C837.581 654.031 866.282 629.191 894.688 604.646C896.167 603.463 897.646 602.28 899.422 600.802C899.718 600.506 900.014 600.506 900.309 600.21C900.605 600.506 900.605 600.506 900.901 600.506C901.493 601.689 902.085 602.872 902.381 603.759C908.89 623.277 915.104 643.681 922.205 664.677C923.093 667.635 921.909 670.296 917.767 673.845C887.882 700.164 857.702 727.074 826.929 754.576C824.562 756.646 822.491 758.716 820.124 760.786C819.532 760.786 819.532 760.491 819.236 760.491ZM981.679 840.039C979.903 840.335 978.128 840.631 976.648 840.926C932.561 844.179 889.657 847.432 847.345 850.981C843.499 851.277 841.428 850.685 840.836 848.024C833.735 819.93 826.929 793.315 820.42 767.588C820.42 766.996 820.42 766.405 820.124 764.926C841.724 762.265 862.732 760.491 884.331 758.421C906.227 756.055 928.419 753.985 950.906 751.915C961.262 780.008 971.618 808.989 983.158 840.335C982.862 839.744 982.27 839.744 981.679 840.039ZM987.005 837.969C986.117 836.195 985.525 835.012 984.933 833.533C975.465 805.144 966.588 778.234 958.008 752.21C957.12 749.549 957.712 747.479 961.262 744.522C993.81 714.358 1025.47 685.082 1056.83 656.102C1057.43 655.51 1058.31 654.919 1059.5 653.736C1060.38 654.919 1061.27 655.51 1061.57 656.693C1071.92 680.055 1082.87 704.304 1094.12 729.736C1095.3 732.102 1095.3 734.172 1092.04 737.129C1058.61 769.362 1024.58 802.187 989.668 835.899C989.372 836.195 988.484 836.786 987.005 837.969ZM1248.27 722.638C1215.43 754.872 1181.99 787.697 1147.67 821.113C1146.49 822.296 1145.3 823.183 1144.12 824.07C1141.75 825.253 1139.39 826.14 1136.13 826.436C1088.79 830.576 1042.34 835.012 997.065 839.152C994.994 839.448 993.218 839.448 990.555 839.448C992.331 837.674 993.218 836.195 994.698 834.716C1029.32 802.187 1063.34 770.249 1096.48 738.903C1097.07 738.312 1097.67 737.72 1098.26 737.424C1101.51 735.354 1104.77 734.172 1109.21 733.876C1153 729.144 1197.68 723.821 1243.24 718.794C1245.91 718.498 1248.57 718.498 1252.12 718.203C1250.64 719.977 1249.46 721.16 1248.27 722.638ZM1245.91 716.133C1199.16 720.864 1153.59 725.3 1108.91 730.031C1104.18 730.623 1101.81 730.031 1100.33 727.074C1088.2 701.938 1076.36 678.28 1064.82 655.214C1064.23 654.327 1064.23 653.144 1063.64 651.666C1067.19 651.074 1069.85 650.779 1072.22 650.483C1112.17 645.751 1153 640.724 1194.72 635.401C1200.64 634.514 1203.59 635.401 1205.67 638.654C1219.57 661.424 1234.66 685.082 1250.05 709.627C1250.94 711.105 1251.82 712.88 1253.01 714.95C1250.34 715.541 1247.98 716.133 1245.91 716.133ZM1257.45 713.175C1256.26 711.697 1255.08 710.81 1254.49 709.627C1239.4 683.899 1225.19 659.354 1210.99 635.697C1209.51 633.331 1209.81 631.261 1213.06 628.008C1242.65 599.619 1271.65 571.526 1299.76 544.319C1300.65 543.432 1301.83 542.545 1303.6 541.066C1304.79 542.545 1305.97 543.432 1306.56 544.615C1321.65 565.315 1337.34 586.903 1353.91 609.378C1355.68 611.743 1356.27 613.814 1352.72 617.066C1322.54 647.526 1291.77 678.576 1260.4 710.514C1259.81 711.105 1258.93 711.992 1257.45 713.175ZM1317.51 810.763C1297.09 778.234 1277.57 747.479 1258.63 717.611C1261 717.02 1263.07 716.428 1264.55 716.133C1313.66 711.105 1363.97 706.078 1415.45 701.051C1419.59 700.755 1422.55 701.051 1424.33 703.417C1446.52 732.102 1469.89 762.265 1494.45 793.611C1494.75 794.203 1495.04 794.794 1495.93 796.864C1434.39 801.596 1375.51 806.031 1317.51 810.763ZM1501.26 794.203C1499.48 792.428 1497.71 790.95 1496.52 789.175C1474.04 758.716 1452.44 729.44 1432.02 701.642C1429.95 698.981 1429.36 696.615 1432.91 692.771C1444.74 680.351 1456.28 667.635 1467.82 655.51L1467.53 655.214C1485.58 635.993 1503.33 617.066 1520.79 598.436C1521.97 597.253 1523.45 595.775 1525.22 594C1526.7 594.887 1528.18 595.775 1529.07 596.662C1551.56 621.502 1574.64 647.526 1599.2 674.732C1602.16 677.985 1600.97 680.942 1597.72 684.491C1570.79 714.95 1543.27 746 1515.46 777.938C1511.32 782.965 1506.58 787.993 1501.26 794.203ZM1703.35 772.911C1700.09 776.755 1696.84 778.53 1690.33 779.121C1652.46 782.374 1614.88 785.923 1578.19 789.175L1577.89 788.88C1556 790.95 1534.1 792.724 1512.5 794.794C1510.13 795.09 1507.77 795.09 1503.33 795.09C1506.29 791.837 1508.06 789.767 1509.84 787.697C1521.67 774.685 1533.21 761.969 1544.75 749.253L1544.46 748.958C1563.99 727.37 1583.51 706.374 1602.45 685.378C1606 681.533 1609.55 679.463 1616.06 678.872C1672.87 672.662 1730.87 665.86 1790.64 659.059C1792.71 658.763 1795.07 658.763 1798.62 658.467C1797.15 660.537 1796.55 662.312 1795.07 663.79C1765.78 699.572 1734.71 735.65 1703.35 772.911Z" fill="url(#paint0_linear)"/>
<defs>
<linearGradient id="paint0_linear" x1="882.107" y1="386.704" x2="1039.66" y2="854.387" gradientUnits="userSpaceOnUse">
<stop/>
<stop offset="0.3819" stop-color="#68421D"/>
<stop offset="0.4557" stop-color="#6F4720"/>
<stop offset="0.5638" stop-color="#835727"/>
<stop offset="0.6931" stop-color="#A37034"/>
<stop offset="0.8335" stop-color="#D09245"/>
<stop offset="1" stop-color="#E0B580"/>
</linearGradient>
</defs>
</svg>
