<svg width="1658" height="902" viewBox="0 0 1658 902" fill="none" xmlns="http://www.w3.org/2000/svg">
<path fill-rule="evenodd" clip-rule="evenodd" d="M1658 856.755C1652.67 856.755 1647.35 857.051 1642.02 857.051C1633.74 857.346 1628.71 855.572 1623.97 850.545C1591.72 815.946 1560.65 783.416 1531.36 752.957C1529.58 751.183 1528.11 749.113 1525.74 746.451C1530.18 746.156 1533.43 745.564 1536.69 745.564C1576.04 743.494 1616.58 741.72 1657.7 739.65V735.214C1616.58 737.876 1576.04 740.537 1536.39 742.903C1533.43 743.198 1530.47 743.198 1526.33 743.198C1526.92 741.424 1526.92 740.241 1527.81 739.058C1553.85 705.642 1579.59 672.817 1604.15 641.175C1606.22 638.514 1608.88 637.331 1613.32 636.739C1627.82 635.556 1642.61 634.078 1657.41 632.895V629.346C1640.54 630.529 1623.68 632.008 1607.11 633.191C1575.45 605.689 1546.15 579.961 1516.86 554.529C1563.32 549.798 1609.47 545.066 1657.41 540.335V537.082C1611.84 542.109 1567.16 547.432 1523.67 552.164C1522.19 552.459 1520.71 552.459 1518.34 552.459C1519.52 550.685 1520.12 549.502 1521 548.319C1543.49 522 1565.39 496.272 1586.69 471.136C1588.76 468.475 1591.13 466.996 1596.46 466.109C1616.58 463.448 1636.99 460.786 1657.41 458.125V455.759C1636.7 458.42 1615.98 460.786 1595.57 463.448C1591.72 464.039 1589.06 463.743 1586.69 461.969C1560.95 443.043 1536.39 425.004 1513.02 407.852C1512.72 407.556 1512.42 407.261 1511.54 406.374C1514.79 405.782 1516.86 405.486 1519.23 404.895C1560.95 398.981 1603.56 393.066 1647.05 386.856C1651.49 386.265 1654.45 386.265 1657.11 387.448V379.167C1654.75 381.829 1652.08 383.307 1646.46 384.195C1602.67 390.7 1560.06 397.206 1518.05 403.712C1515.97 404.008 1513.9 404.304 1511.24 404.599C1512.42 403.121 1513.02 401.938 1513.9 401.051C1534.02 379.167 1553.55 357.58 1572.78 336.584C1574.86 334.514 1576.93 333.035 1581.66 332.444C1606.52 328.304 1631.67 324.164 1657.11 319.728V317.953C1631.37 322.093 1606.22 325.938 1581.37 330.078C1577.52 330.669 1575.15 330.669 1573.08 329.191C1550.59 315.292 1528.99 301.984 1508.28 289.269C1507.69 288.973 1507.39 288.677 1506.21 287.79C1548.82 280.397 1590.83 273.004 1634.33 265.611C1641.73 269.455 1649.42 273.595 1657.11 277.736V274.187C1651.79 271.23 1646.76 268.568 1641.43 265.611C1639.06 264.428 1638.77 263.245 1640.54 261.175C1646.16 254.965 1651.49 248.459 1657.11 242.249V238.7C1650.6 245.798 1643.8 253.191 1637.29 260.288C1635.51 262.358 1633.44 263.541 1629 264.428C1589.06 271.525 1550 278.918 1511.83 285.72C1510.35 286.016 1508.58 286.016 1506.51 286.311C1507.69 284.833 1508.58 283.946 1509.46 282.763C1527.22 264.428 1544.97 246.389 1562.13 228.646C1563.91 226.872 1565.68 225.689 1569.83 224.802C1598.53 219.183 1627.52 213.564 1657.11 207.65V206.467C1623.09 212.973 1573.38 222.436 1564.5 223.619C1543.2 212.381 1522.48 201.735 1501.77 190.794C1540.83 183.105 1579.29 175.416 1618.35 167.432C1631.07 173.051 1644.09 178.965 1657.41 184.879V182.218C1646.46 176.895 1635.51 171.868 1625.16 167.136C1623.09 166.249 1622.79 165.362 1624.27 163.588C1635.51 151.463 1646.46 139.634 1657.41 128.101V125.735C1645.28 138.156 1633.44 150.576 1621.01 162.996C1618.94 165.066 1616.87 166.249 1612.14 167.136C1576.93 174.529 1542.31 181.627 1507.98 188.724C1506.21 189.02 1504.73 189.315 1501.77 189.907C1503.25 188.428 1504.14 187.541 1505.03 186.654C1521.3 170.981 1537.28 155.307 1552.66 139.93C1554.44 138.156 1556.51 136.973 1560.95 136.086C1592.61 129.284 1624.56 122.187 1657.11 115.09V114.202C1622.49 121.595 1588.76 128.693 1555.62 135.494C1536.09 126.918 1517.16 118.638 1498.52 110.358C1501.18 109.767 1502.36 109.471 1503.84 109.175C1535.21 102.374 1567.16 95.2763 1599.71 87.8833C1603.26 86.9962 1605.33 86.9962 1607.4 87.8833C1623.38 94.0935 1639.95 100.304 1657.11 106.809V105.035C1641.13 98.5293 1625.75 92.3191 1610.66 86.4047C1608.59 85.5176 1608.59 84.6304 1610.07 83.1518C1624.27 68.6616 1638.18 54.467 1651.79 40.5682C1652.38 39.9767 1652.97 39.681 1653.86 38.7939C1655.04 39.0896 1656.22 39.0896 1656.82 39.3853C1656.82 39.3853 1656.82 39.3853 1657.11 39.3853V37.9067C1656.82 37.9067 1656.52 37.611 1656.22 37.611C1656.52 37.611 1656.82 37.611 1657.11 37.3153V36.4281C1656.52 36.4281 1656.22 36.7238 1655.63 36.7238C1656.22 36.1324 1656.52 35.8367 1657.11 35.2452V34.0623C1656.82 34.3581 1656.52 34.6538 1656.52 34.6538C1655.93 35.2452 1655.34 35.5409 1654.45 36.4281C1653.27 36.1324 1652.08 36.1324 1651.19 35.8367C1633.44 29.6265 1615.98 23.7121 1599.41 18.0935C1597.64 17.502 1597.05 16.9106 1598.53 15.432C1603.56 10.7005 1608.29 5.96895 1613.03 1.23744L1610.95 0.645996C1605.63 5.37751 1600.6 10.4048 1595.27 15.1363C1593.79 16.3191 1592.31 17.502 1588.76 18.0935C1560.06 25.1907 1531.66 32.288 1503.55 39.0896L1500.59 40.5682C1529.88 33.4709 1559.47 26.3736 1589.35 19.2763C1591.72 18.6849 1593.5 18.3892 1594.98 18.9806C1612.73 24.5993 1631.07 30.5137 1650.31 36.7238C1650.6 36.7238 1650.9 37.0195 1651.49 37.3153C1649.12 37.9067 1647.35 38.4981 1645.57 38.7939C1614.21 46.1869 1583.14 53.2841 1552.66 60.3814C1549.71 60.9728 1547.34 61.5643 1545.27 60.6771C1528.7 54.467 1512.72 48.5526 1497.04 42.6382C1496.74 42.6382 1496.45 42.3425 1496.45 42.3425L1494.67 43.2297C1495.26 43.2297 1495.56 43.5254 1495.85 43.5254C1510.65 49.4398 1526.03 55.6499 1541.72 62.1557C1543.2 62.7472 1543.79 63.3386 1542.31 64.8172C1527.51 79.0117 1512.72 93.502 1497.63 107.992C1497.33 108.288 1497.04 108.584 1496.15 109.175C1494.97 108.584 1494.08 108.584 1493.19 107.992C1478.1 100.895 1463.31 93.7977 1448.81 86.9962C1447.33 86.4047 1446.74 85.5176 1448.51 84.039C1463.01 70.7316 1476.92 57.7199 1490.82 44.7083L1488.46 45.8911C1474.55 58.3114 1460.64 70.7316 1446.44 83.7433C1444.67 85.2219 1442.59 86.4048 1439.04 87.2919C1411.53 93.7978 1384.3 100.304 1357.38 106.809L1353.24 108.879C1367.73 105.035 1427.8 91.1363 1443.78 87.8833C1460.05 94.9806 1476.62 102.374 1493.78 110.062C1489.05 111.837 1415.37 128.397 1394.07 132.537C1379.27 124.848 1364.78 117.455 1350.57 110.062L1348.8 110.95C1349.39 111.245 1349.68 111.245 1349.98 111.541C1362.41 118.638 1375.43 125.735 1388.74 133.128C1390.22 134.016 1390.52 134.607 1388.74 136.381C1373.06 150.872 1357.08 165.658 1340.81 180.739C1340.22 181.331 1339.62 181.627 1338.44 182.514C1337.26 181.922 1336.67 181.627 1335.78 181.035C1323.06 172.755 1310.63 164.475 1298.79 156.786C1297.61 155.899 1297.31 155.307 1299.09 153.533C1314.77 139.634 1329.86 126.031 1344.95 112.724L1341.99 114.202C1327.2 127.214 1312.11 140.226 1296.72 153.533C1295.24 154.716 1293.76 155.899 1290.8 156.49C1264.17 162.7 1237.54 168.615 1211.8 174.529L1207.66 176.599C1223.05 172.755 1284.89 159.152 1294.35 157.378C1307.96 165.658 1321.87 174.234 1336.67 183.401C1332.23 184.879 1251.15 202.327 1240.8 203.806C1228.37 194.934 1216.54 186.358 1204.7 177.782L1203.22 178.669C1203.81 178.965 1204.11 179.261 1204.7 179.557C1214.76 187.541 1224.82 195.525 1235.77 203.806C1237.54 204.988 1236.95 206.467 1234.58 208.537C1218.31 223.027 1201.74 237.813 1185.17 252.599C1184.28 253.486 1183.1 254.374 1181.62 255.557C1180.73 254.965 1179.85 254.374 1179.25 253.782C1169.19 244.319 1159.43 235.448 1149.96 226.576C1148.78 225.393 1148.78 224.21 1151.14 222.14C1167.42 208.241 1183.1 194.342 1198.78 181.035C1198.78 181.035 1199.08 180.739 1199.37 180.739L1197.3 181.627C1181.32 194.934 1165.05 208.537 1148.78 222.14C1147 223.619 1145.23 224.802 1141.97 225.393C1116.53 231.012 1091.37 236.63 1066.52 241.953L1063.56 243.432C1090.78 237.813 1117.71 231.899 1145.23 226.28C1156.47 235.743 1167.71 245.798 1179.55 256.148C1175.11 257.627 1095.81 273.595 1088.12 274.483C1078.36 264.428 1069.18 254.965 1059.71 245.206L1057.94 246.093C1058.24 246.389 1058.53 246.389 1058.83 246.685C1066.82 255.852 1075.1 265.315 1083.98 274.778C1084.87 275.665 1084.87 276.553 1083.09 278.031C1064.45 294 1045.81 310.265 1026.58 326.825C1026.28 327.121 1025.98 327.416 1025.1 327.712C1024.5 327.121 1023.91 326.825 1023.62 326.234C1015.92 315.588 1008.23 304.942 1000.83 295.183C999.946 294 1000.24 293.113 1002.31 291.634C1008.82 286.016 1015.33 280.693 1021.84 275.074C1032.79 265.907 1043.74 256.739 1054.68 247.572L1051.43 249.051C1034.56 262.949 1017.4 276.848 999.946 291.043C998.466 292.226 997.283 292.817 995.507 293.704C994.915 294 994.324 294 993.732 294.296C969.173 299.323 945.206 304.35 921.535 309.378H921.24L918.281 310.856H917.985C942.543 306.125 967.398 301.097 992.548 296.07C994.915 295.479 996.395 295.479 996.987 296.366C1004.98 306.716 1013.26 317.066 1021.84 328.008C1022.14 328.304 1022.14 328.599 1022.43 329.191C1020.66 329.486 1019.18 330.078 1017.7 330.078C991.365 335.105 965.327 339.837 939.88 344.568C937.217 345.16 935.442 345.16 934.85 343.977C928.045 333.331 921.239 322.981 915.026 312.926C915.026 312.63 914.73 312.63 914.73 312.335H914.434L912.955 312.926H912.659C912.955 313.222 913.25 313.518 913.25 313.518C919.168 323.572 925.086 333.922 931.3 344.864C931.891 345.751 932.187 346.934 930.116 348.413C910.292 364.973 890.467 381.533 870.051 398.685C869.755 398.981 869.163 399.276 868.275 400.163C867.684 399.572 867.388 398.981 867.092 398.389C861.766 386.56 856.736 375.027 851.706 364.086C851.114 362.903 851.41 362.016 853.481 360.241C872.418 344.864 891.059 329.486 909.7 314.7L909.404 314.996L907.629 315.883L907.333 316.179C889.579 330.374 871.53 344.568 853.481 359.058C851.41 360.833 849.339 362.016 846.972 362.607C846.38 362.607 846.084 362.903 845.492 362.903C822.117 367.339 799.334 372.07 776.55 376.506H776.254L772.112 378.28C785.131 375.323 836.615 365.564 847.859 364.086C853.777 375.619 859.695 387.743 866.204 401.051C863.837 401.642 854.961 403.416 843.421 405.486C825.668 408.444 808.21 411.401 791.049 414.358C788.09 414.949 785.427 415.245 783.652 415.541C778.917 403.121 774.479 390.996 770.041 379.167H769.745L768.265 379.759L767.97 380.055C768.265 380.055 768.265 380.35 768.265 380.646C771.816 391.883 775.663 403.712 779.509 415.837C780.101 417.315 778.621 418.498 776.55 420.272C759.389 434.171 741.931 448.366 724.474 462.56C721.515 464.926 718.26 467.588 715.302 469.953C714.118 470.841 712.934 471.728 711.455 472.911C711.159 472.023 710.863 471.432 710.863 470.841C708.2 457.829 705.537 445.409 702.874 432.988C702.578 431.806 702.874 430.623 705.241 428.848C725.362 412.879 745.186 397.206 764.715 381.533L764.419 381.829L762.052 383.012L761.756 383.307C742.523 398.093 723.291 413.175 703.466 428.553C702.282 429.44 701.099 430.327 699.619 430.918C699.028 431.214 698.436 431.214 697.844 431.214C675.357 435.354 653.461 439.494 631.565 443.339L627.423 445.409C632.749 444.226 644.584 442.156 657.012 439.79C668.847 437.72 680.979 435.65 693.11 433.58C693.998 433.58 694.885 433.284 695.773 433.284C698.436 432.988 699.324 433.284 699.915 434.763C702.874 446.591 705.833 458.716 709.088 471.136C709.384 471.728 709.384 472.615 709.384 473.502C705.833 474.389 691.63 476.755 676.244 479.121C672.398 479.712 668.255 480.304 664.409 480.895C648.727 483.261 634.228 485.626 630.678 485.922C628.606 472.319 626.535 459.012 624.464 446.296L622.984 447.183C622.984 447.774 623.28 448.07 623.28 448.662C624.464 460.49 625.943 472.911 627.423 485.331C627.719 487.401 626.535 488.879 623.28 491.245C601.976 507.806 580.672 524.957 559.073 542.109C557.889 542.996 556.41 543.883 554.634 545.362C554.339 544.179 554.339 543.588 554.339 542.7C554.043 528.802 553.747 515.494 553.451 502.483C553.451 500.708 554.339 499.23 557.297 496.864C578.01 480.895 598.426 464.926 618.25 449.549C618.546 449.549 618.546 449.253 618.842 449.253L616.771 450.14C596.65 465.518 576.234 480.895 555.522 496.568C553.155 498.342 551.084 499.525 548.421 499.821C527.413 503.37 506.405 506.918 485.693 510.467L482.734 511.946C505.221 508.397 527.413 504.848 550.196 501.595C551.084 515.79 551.971 530.872 552.859 546.249C549.013 547.432 484.213 556.895 477.999 556.895C478.295 542.405 478.887 527.914 479.183 513.72L477.408 514.607C477.408 514.903 477.704 515.198 477.408 515.494C476.52 528.802 475.632 542.405 474.745 556.599C474.745 557.782 474.153 558.965 472.082 560.739C448.411 579.074 424.148 597.704 399.885 616.926C399.589 617.222 398.997 617.518 397.814 618.405C397.814 617.518 397.814 616.63 397.814 616.039C399.885 600.661 402.252 585.876 404.323 571.681C404.619 570.202 405.507 568.724 408.17 566.654C430.657 549.502 452.553 532.942 474.449 516.381L471.194 517.86C450.186 533.533 428.586 549.502 406.986 565.767C404.619 567.541 402.844 568.724 400.477 569.02C380.357 571.977 360.532 575.23 341.299 578.187L338.34 579.665C358.165 577.004 378.581 574.047 398.997 571.385C400.773 571.09 401.956 571.09 401.66 572.568C399.885 587.354 398.11 602.436 396.334 618.109C396.334 618.405 396.039 618.996 395.743 619.883C393.671 620.179 392.488 620.475 391.008 620.475C370 623.136 349.288 625.502 328.872 627.868C326.209 628.163 325.321 627.572 325.617 625.798C328.576 611.012 330.943 597.113 333.606 583.214C333.606 582.623 333.902 582.031 333.902 581.44L332.127 582.327C332.127 582.623 332.127 582.918 332.127 583.51C328.872 597.704 325.617 612.49 322.363 627.572C322.067 629.051 321.475 630.234 318.812 632.304C293.957 651.23 268.807 670.451 243.065 689.673C242.473 690.265 241.881 690.56 240.402 691.448C240.697 690.265 240.697 689.673 240.993 689.082C245.728 672.521 250.462 656.553 254.604 640.879C255.196 639.401 256.084 637.922 258.747 635.852C282.418 618.405 305.497 600.957 328.28 584.101L325.913 585.284C304.017 601.253 281.826 617.518 259.338 634.078C255.788 636.739 253.125 637.922 250.166 638.218C231.525 640.584 213.18 643.245 195.131 645.611L190.988 647.681C201.936 645.907 243.36 640.584 252.237 640.288C248.095 656.848 243.36 674 238.626 692.63C215.547 694.996 193.947 697.066 172.347 699.136C177.969 681.984 183.295 665.128 188.621 648.864L186.846 649.751C186.846 650.047 186.846 650.342 186.846 650.342C181.52 666.016 175.602 681.984 169.98 698.545C169.389 700.319 167.613 702.093 164.95 703.868C143.646 719.837 122.046 735.806 100.151 752.07C96.3042 755.027 92.4577 757.689 88.6111 760.646C87.1317 761.829 85.6522 762.716 83.581 764.195C83.8769 763.012 84.1728 762.125 84.4687 760.942C91.57 743.494 98.6713 726.638 105.181 710.078C105.773 708.599 106.66 707.121 109.619 705.051C134.474 687.012 159.032 668.973 182.999 651.23L180.04 652.708C156.665 669.564 132.994 686.42 109.027 703.868C106.66 705.346 105.181 706.529 103.11 706.825C92.1618 708.008 81.2139 709.486 70.2661 710.669L69.6743 712.148C79.7345 711.261 89.7947 710.078 99.8548 709.191C102.518 708.895 102.814 709.782 102.222 711.852C96.0083 727.821 89.4988 744.381 82.9893 761.533C82.6934 762.716 82.1016 763.899 81.2139 765.378C79.7345 765.673 78.5509 765.673 77.3674 765.969C66.7154 766.856 56.0635 767.448 45.7074 768.335L44.8197 770.405C55.7676 769.518 66.7154 768.335 77.6633 767.448C78.255 767.448 78.5509 767.448 79.4386 767.448C77.9591 768.63 76.7756 769.518 75.592 770.405C60.7977 781.346 45.7074 792.288 30.6171 803.23L29.7294 805.004C45.7074 793.175 61.6853 781.346 77.3674 769.518C77.9592 769.222 78.255 768.926 79.7345 768.039C79.4386 769.222 79.1427 770.109 78.8468 770.996C71.1537 789.331 63.4606 808.553 55.4717 828.366C54.584 830.436 53.4005 832.21 50.1457 834.576C34.1678 846.7 17.8939 859.121 1.62009 871.541L0.732422 873.907C17.3021 861.486 33.576 849.362 49.5539 837.237C53.6963 833.984 56.3593 832.802 59.3182 832.802C79.4386 831.619 100.151 830.14 121.159 828.662C122.342 828.662 123.526 828.662 125.005 828.662C123.526 830.14 122.342 831.027 121.159 831.914C91.8659 854.389 61.6853 877.16 31.5048 900.226C28.5459 902.591 26.4747 903.479 24.1076 903.479H23.8117H29.7294C30.3212 902.887 30.6171 902.591 31.5048 902C62.573 877.751 93.3453 854.093 123.23 831.027C123.822 830.732 124.414 830.14 125.893 829.253C125.301 831.027 125.005 832.21 124.709 833.393C117.312 854.389 109.619 875.977 101.926 898.451C101.334 900.226 100.447 902 98.9672 903.479H128.556C144.238 902.887 160.512 902.296 176.786 901.704C177.673 901.704 178.561 901.704 179.745 902C179.153 902.591 178.561 903.183 177.969 903.479H179.745C180.04 903.183 180.04 903.183 180.336 902.887C180.336 903.183 180.336 903.183 180.336 903.479H182.703C182.999 902.887 183.295 902.296 183.591 901.409C185.958 901.409 187.438 901.113 189.213 901.113C212.884 900.817 237.147 900.521 261.706 899.93C264.664 899.93 266.144 900.817 265.848 903.183H269.399C269.399 902.591 269.694 902 269.694 901.113C270.286 898.747 271.766 896.677 274.429 894.311C305.497 868.288 336.269 842.856 366.154 817.72C367.337 816.833 368.225 815.946 370 814.763C370 816.241 370 817.424 369.705 818.903C366.45 841.969 362.899 865.922 359.348 891.058C359.053 893.72 358.165 895.79 354.614 899.043C353.135 900.226 351.36 901.704 349.88 903.183H353.135C353.431 902.887 353.727 902.591 354.022 902.296C358.165 898.747 361.42 896.973 365.266 896.973C393.08 896.086 421.781 894.903 451.074 894.016C452.849 894.016 454.328 894.016 456.696 894.016C454.92 895.79 453.441 897.268 451.961 898.747C450.186 900.226 448.411 901.704 446.635 903.183H448.707C450.186 902 451.37 900.817 452.849 899.634C454.328 898.451 455.512 897.268 457.583 895.79C457.879 896.973 458.175 897.86 458.175 899.043C458.175 900.521 457.879 902 457.879 903.479H460.246C460.246 901.704 460.246 899.93 460.542 898.451C460.542 897.564 460.838 896.381 460.838 895.494C461.134 895.199 461.43 894.903 461.726 894.607C462.022 894.607 462.317 894.311 462.317 894.311C463.501 894.311 464.685 894.016 465.868 894.016C497.824 893.424 530.372 893.128 564.103 892.537C564.399 896.086 564.399 899.93 564.695 903.774H569.133C569.133 901.113 568.837 898.451 568.837 895.79C568.837 891.946 570.316 888.988 574.459 885.144C604.344 857.642 633.636 830.436 662.338 804.117C664.113 802.342 665.888 800.864 668.551 798.498C669.143 800.568 669.439 801.751 669.735 802.934C672.694 828.366 675.653 854.685 678.907 882.482C679.203 885.735 678.611 888.101 674.765 891.946C670.622 895.79 666.48 899.93 662.338 904.07H667.072C670.622 900.817 673.877 897.564 677.428 894.311C680.683 891.354 683.346 889.284 687.488 889.284C704.058 888.693 720.923 888.101 738.085 887.51V887.805C757.318 887.214 776.55 886.327 796.375 885.735C798.446 885.735 800.517 885.735 803.476 885.735C801.701 887.51 800.813 888.988 799.63 890.171C794.895 894.607 790.457 899.339 785.723 903.774H788.386C792.528 899.634 796.671 895.494 800.517 891.354C801.701 889.875 803.18 888.693 805.251 887.214C806.139 888.988 806.731 890.171 807.027 891.354C807.914 895.494 808.802 899.634 809.69 903.774H813.536C812.057 897.86 810.577 891.946 809.098 886.031C810.873 885.44 820.638 884.848 833.953 884.257C866.796 883.665 900.231 883.074 934.554 882.482C935.146 882.482 935.738 882.482 936.034 882.482C938.993 882.482 940.768 883.37 941.656 886.031C943.727 891.946 945.798 897.564 947.869 903.479H954.083C952.012 897.268 949.941 891.058 947.869 884.848C946.686 881.3 947.278 878.342 950.828 874.794C980.713 842.856 1010.01 811.806 1038.41 781.346C1039.59 780.164 1040.78 778.981 1042.55 777.206C1043.44 778.685 1044.62 779.572 1045.22 780.755C1057.94 809.144 1071.55 839.307 1085.75 870.654C1087.53 874.794 1086.64 877.751 1083.09 881.891C1076.88 888.988 1070.66 896.086 1064.15 903.183H1069.48C1075.69 896.381 1081.91 889.284 1088.12 882.482C1089.6 880.708 1091.08 879.525 1092.56 878.934C1092.85 878.638 1093.15 878.638 1093.74 878.638C1094.04 878.638 1094.63 878.342 1094.93 878.342C1095.81 878.047 1097 878.047 1098.18 878.047C1144.93 876.568 1193.16 874.794 1242.87 873.315C1244.64 873.315 1246.42 873.315 1249.97 873.611C1247.6 876.568 1246.12 878.342 1244.64 880.117C1237.84 888.101 1231.33 895.79 1224.52 903.774H1229.55C1236.06 895.79 1242.57 887.805 1249.08 879.821C1249.97 878.638 1251.15 877.455 1252.93 875.681C1254.11 877.16 1255.59 878.047 1256.48 879.525C1261.21 887.51 1265.95 895.494 1270.68 903.774H1276.01C1269.5 893.424 1262.99 883.074 1256.78 873.02C1313.88 872.132 1370.69 870.949 1430.17 869.767C1438.75 880.708 1447.33 892.241 1456.5 903.774H1464.49C1456.8 893.424 1449.4 883.37 1441.71 873.315C1438.16 868.584 1437.86 864.739 1441.71 859.712C1452.36 845.518 1462.71 831.619 1472.77 818.016L1472.48 817.72C1488.46 796.428 1503.84 775.432 1519.23 754.732C1520.41 753.253 1521.6 752.07 1523.67 749.704C1526.03 751.774 1527.51 753.253 1528.7 754.436C1557.4 786.374 1587.87 820.086 1620.42 856.163C1624.27 860.304 1624.56 863.852 1621.61 868.288C1613.62 880.117 1605.63 891.946 1597.64 904.07H1604.74C1612.14 893.72 1619.24 883.074 1626.64 872.724C1630.78 866.809 1635.22 864.148 1644.69 863.852C1649.42 863.852 1654.45 863.556 1659.48 863.556V856.755H1658ZM1502.07 106.514C1517.16 92.3192 1532.25 78.4203 1546.75 64.8172C1548.23 63.3386 1550 62.4514 1553.26 61.5643C1584.62 54.1713 1616.28 46.4826 1648.53 38.7939C1649.72 38.4981 1650.9 38.2024 1653.27 37.9067C1651.79 39.3853 1650.9 40.2724 1650.01 41.1596C1636.1 54.467 1622.2 68.3658 1608 82.2647C1606.22 84.039 1603.85 85.2219 1599.41 86.109C1567.75 93.2063 1536.39 100.599 1505.62 107.697C1503.84 107.992 1502.07 108.288 1499.7 108.879C1500.88 107.697 1501.48 107.105 1502.07 106.514ZM1513.31 410.514C1534.91 427.074 1557.4 444.817 1581.07 462.856C1583.73 464.926 1584.62 466.7 1582.25 469.658C1561.54 494.794 1540.53 520.817 1518.93 547.136C1517.75 548.319 1516.57 549.798 1514.79 551.572C1512.72 549.798 1510.94 548.615 1509.46 547.432C1486.98 526.732 1465.38 506.918 1444.66 487.992C1441.71 485.331 1441.71 483.261 1444.66 480.008C1465.08 456.942 1484.91 434.171 1504.14 411.992C1505.32 410.514 1506.51 409.331 1508.28 407.261C1510.94 408.739 1512.13 409.626 1513.31 410.514ZM1137.24 673.704C1121.26 648.568 1106.17 624.615 1091.38 601.253C1093.15 600.661 1094.63 600.366 1096.11 600.07C1134.28 596.226 1173.34 592.381 1213.28 588.241C1216.54 587.946 1218.61 588.241 1220.09 590.016C1237.25 612.195 1255.59 635.556 1274.53 660.101C1274.83 660.397 1275.12 660.988 1275.71 662.467C1228.08 666.607 1182.21 670.156 1137.24 673.704ZM1275.42 665.128C1274.23 666.903 1273.64 668.086 1272.46 669.268C1246.42 697.953 1219.49 727.23 1192.27 757.393C1191.09 758.576 1189.91 759.759 1188.72 760.646C1186.06 762.125 1183.1 763.012 1179.25 763.307C1136.65 765.969 1094.63 768.63 1054.09 771.292C1051.73 771.588 1049.36 771.588 1046.4 771.588C1047.58 769.813 1048.47 768.63 1049.36 767.448C1077.76 738.171 1105.58 709.486 1132.5 681.393C1132.8 681.097 1133.39 680.506 1133.69 680.21C1136.35 678.14 1139.6 677.253 1143.75 676.957C1183.69 673.704 1224.52 669.86 1266.24 666.016C1268.91 665.72 1271.27 665.72 1274.83 665.424C1275.12 665.128 1275.42 665.128 1275.42 665.128ZM872.418 697.066C838.095 699.728 804.66 702.093 772.112 704.755C769.153 705.051 767.674 704.459 767.082 702.389C761.756 680.506 756.134 659.805 751.104 639.697C751.104 639.401 751.104 638.809 750.808 637.627C767.674 635.556 783.947 634.078 800.517 632.599C817.679 630.825 834.84 629.346 852.298 627.572C860.286 649.455 868.571 671.93 877.448 696.179C876.856 696.179 876.56 696.475 876.264 696.475C874.785 696.77 873.306 696.771 872.418 697.066ZM876.264 698.841C874.489 700.615 873.306 702.093 871.826 703.572C844.604 729.004 816.495 755.323 788.09 781.938C786.611 783.416 785.427 784.304 783.947 785.191C782.172 786.078 780.397 786.374 778.326 786.669C744.299 788.739 710.567 791.105 678.02 793.175C676.54 793.175 675.061 793.175 672.694 793.175C674.469 791.401 675.653 789.922 677.132 788.739C705.833 762.716 734.238 737.284 761.756 712.444C763.827 710.669 765.602 709.486 767.674 708.599C768.265 708.304 769.153 708.304 770.041 708.304C803.18 705.346 837.207 702.093 871.826 699.136C873.01 698.545 874.193 698.841 876.264 698.841ZM700.211 678.732C688.08 689.082 676.244 699.728 663.817 710.374C660.562 713.331 657.899 714.514 654.053 715.105C624.464 717.767 595.467 720.428 567.358 723.09C565.878 723.09 564.695 723.09 562.327 723.385C564.99 721.02 566.766 719.541 568.245 718.358C594.283 696.475 620.322 674.887 645.472 653.595C649.023 650.638 651.686 649.16 655.532 648.864C668.255 647.385 680.979 645.907 693.998 644.428C709.68 642.654 725.658 640.879 741.635 638.809C742.819 638.809 744.003 638.809 746.074 638.514C745.482 639.105 745.186 639.401 744.89 639.697C743.411 640.879 742.227 642.062 741.044 642.949C727.729 654.483 714.118 666.607 700.211 678.732ZM561.736 722.202C561.44 721.02 561.144 719.837 561.144 718.949C560.552 698.841 560.256 679.323 559.664 660.397C559.664 658.623 560.256 656.848 563.215 654.483C588.957 633.191 613.812 612.195 638.667 591.494C639.554 590.903 640.146 590.311 641.921 589.128C642.217 590.311 642.513 591.198 642.513 591.79C644.288 608.646 646.36 626.389 648.431 644.724C648.727 646.794 648.135 648.272 645.176 650.638C619.138 672.817 592.804 695.588 565.582 718.949C564.695 720.132 563.511 721.02 561.736 722.202ZM652.573 645.907C649.614 626.093 646.656 607.167 643.697 588.833C645.768 588.241 663.521 585.58 683.05 583.214V583.51C698.436 581.735 713.822 579.665 729.208 577.891C730.688 577.891 731.575 577.595 732.463 577.595C737.197 596.226 741.931 615.448 747.257 636.444C714.414 639.697 683.346 642.949 652.573 645.907ZM644.88 586.467C646.951 584.693 648.431 583.51 649.91 582.327C672.99 563.401 695.773 544.77 717.964 526.436C720.332 524.366 722.403 523.183 724.77 522.591C725.658 522.296 726.545 522.296 727.433 522C753.175 518.156 779.509 514.016 806.435 509.876C807.914 509.58 809.394 509.58 811.465 509.284C810.281 510.467 809.394 511.354 808.506 511.946C785.131 531.463 761.46 551.276 737.493 571.681C735.718 573.16 734.238 574.047 732.463 574.638C732.167 574.638 731.575 574.934 731.279 574.934C702.874 578.778 674.765 582.623 647.247 586.171C646.951 586.467 646.36 586.467 644.88 586.467ZM737.493 578.483C736.901 576.117 738.085 574.342 741.34 571.385C764.419 551.868 786.611 532.35 808.802 513.424C809.986 512.537 811.169 511.65 812.353 510.467C812.649 510.467 812.945 510.171 813.24 509.876L813.536 510.171C813.832 511.058 814.424 511.946 814.72 512.833C819.75 528.21 824.78 543.883 830.106 560.148C830.994 562.514 830.106 564.584 826.851 567.245C803.772 587.65 780.101 608.646 756.134 629.938C754.359 631.416 752.583 632.895 750.808 634.669C750.808 634.374 750.512 634.374 750.512 634.374C750.216 633.191 749.625 632.008 749.625 631.121C744.89 613.082 741.34 595.339 737.493 578.483ZM1396.14 212.677C1427.5 206.171 1459.76 199.37 1492.3 192.864C1494.08 192.568 1496.15 192.272 1498.81 191.681C1497.92 192.568 1497.63 193.455 1497.04 194.047C1479.88 210.607 1462.42 227.759 1444.66 245.206C1443.19 246.685 1441.41 247.868 1438.16 248.459C1403.24 255.261 1368.92 262.062 1335.19 268.568C1334.3 268.864 1333.71 268.864 1331.93 268.864C1333.41 267.385 1334.59 266.202 1335.78 265.315C1353.24 249.051 1370.4 233.082 1386.97 217.409C1388.74 214.747 1391.41 213.564 1396.14 212.677ZM1343.77 183.697C1343.47 183.401 1342.88 183.105 1342.58 182.514C1344.06 182.218 1345.25 181.627 1346.43 181.331C1377.2 174.825 1408.27 168.319 1439.93 161.518C1442.59 160.926 1444.37 160.926 1445.85 161.518C1462.42 170.389 1479.88 179.261 1497.92 188.724C1498.22 189.02 1498.52 189.02 1499.11 189.611C1496.45 190.202 1494.67 190.794 1492.89 191.09C1460.05 197.595 1427.5 204.101 1395.55 210.607C1392.29 211.199 1389.93 211.494 1388.15 210.311C1372.76 201.44 1357.97 192.568 1343.77 183.697ZM1220.09 512.241L1219.79 511.946C1205.29 513.72 1191.09 515.494 1176.89 517.269C1174.82 517.564 1173.04 517.564 1171.86 517.564C1157.06 498.638 1142.56 480.599 1128.95 463.152C1130.43 462.56 1139.6 461.082 1152.03 459.012C1182.21 454.872 1212.39 450.436 1243.46 446.296C1260.33 464.039 1277.78 482.374 1296.43 501.595C1293.17 502.778 1254.11 508.101 1220.09 512.241ZM1296.13 504.257C1294.95 505.735 1294.06 506.918 1293.17 508.101C1270.39 531.463 1247.01 555.712 1223.34 580.257C1221.86 581.735 1220.68 582.623 1218.9 583.51C1217.13 584.397 1214.76 584.988 1212.1 585.284C1173.63 589.424 1136.05 593.86 1099.07 598.296C1097 598.591 1094.93 598.591 1092.26 598.887C1093.74 597.113 1094.63 595.93 1095.81 594.747C1120.37 570.794 1144.34 547.432 1167.71 524.366C1168.31 523.774 1168.6 523.479 1169.19 522.887C1171.26 521.409 1173.93 520.521 1177.48 519.93C1213.87 515.198 1250.86 510.171 1289.03 505.144C1291.1 504.848 1293.17 504.553 1296.13 504.257ZM1156.47 435.058C1169.79 422.638 1182.8 410.514 1195.53 398.389C1198.49 395.728 1201.15 394.545 1205.59 393.658C1238.73 388.335 1272.16 382.42 1306.49 376.802C1308.56 376.506 1310.33 376.21 1313.29 375.914C1311.52 377.689 1310.33 378.872 1309.15 380.055C1289.03 399.572 1268.61 419.681 1247.9 440.086C1245.24 442.747 1242.57 443.93 1238.14 444.521C1215.94 447.774 1194.05 451.323 1172.15 454.576C1159.43 456.646 1146.71 458.42 1133.98 460.49C1132.8 460.786 1131.62 460.786 1129.25 461.082L1129.54 460.786C1131.32 459.012 1132.5 458.125 1133.69 456.942C1141.68 449.549 1149.07 442.451 1156.47 435.058ZM1160.02 350.778C1159.72 350.483 1159.73 350.187 1159.43 349.595C1161.8 349.004 1163.57 348.708 1165.35 348.413C1196.12 343.09 1227.48 337.767 1259.44 332.148C1262.99 331.556 1265.36 331.556 1266.84 333.035C1281.04 345.455 1295.83 358.467 1311.52 372.07C1312.11 372.662 1312.7 373.253 1313.59 374.14C1312.11 374.732 1310.92 375.027 1309.74 375.323C1273.94 380.942 1238.73 386.56 1204.4 391.883C1201.74 392.179 1199.97 392.179 1198.78 390.996C1185.17 377.097 1172.45 363.79 1160.02 350.778ZM1295.83 497.455C1280.15 480.008 1265.06 463.152 1250.56 447.183C1248.49 445.113 1248.79 443.043 1251.75 440.086C1272.16 419.681 1291.69 399.572 1310.92 380.055C1312.11 378.872 1313.29 377.689 1315.07 375.914C1316.55 377.097 1317.73 377.985 1318.91 378.872C1334.3 393.066 1349.98 407.852 1366.85 423.23C1369.21 425.3 1369.51 427.37 1366.55 430.327C1346.13 451.914 1325.42 474.093 1304.41 496.864C1303.23 498.047 1301.75 499.23 1299.98 501.3C1297.9 499.525 1296.72 498.638 1295.83 497.455ZM1306.49 496.568C1328.09 474.093 1349.39 452.21 1370.1 430.918C1372.47 428.553 1374.54 427.074 1379.27 426.187C1418.92 420.272 1459.46 414.062 1500.88 407.852C1502.36 407.556 1503.84 407.556 1506.21 407.261C1505.32 408.739 1504.73 409.627 1503.84 410.809C1483.43 433.284 1462.12 456.055 1441.11 479.712C1438.16 482.965 1434.9 484.148 1429.57 485.035C1388.45 490.358 1348.21 495.977 1308.85 501.3C1306.78 501.595 1305.01 501.595 1301.46 501.891C1303.82 499.525 1305.01 498.047 1306.49 496.568ZM1500.59 406.374C1459.46 412.288 1419.22 417.907 1379.87 423.525C1375.72 424.117 1373.36 423.821 1371.28 422.047C1353.53 406.374 1336.37 391.588 1319.8 377.393C1319.21 376.802 1318.62 376.21 1317.73 375.323C1320.1 374.732 1321.87 374.436 1323.65 374.14C1359.75 368.521 1396.44 362.607 1433.72 356.693C1437.86 356.101 1440.23 356.397 1442.3 357.876C1461.83 372.366 1482.24 387.448 1503.84 403.121C1504.73 403.712 1505.32 404.599 1506.51 405.486C1504.14 405.782 1502.36 406.374 1500.59 406.374ZM1433.42 354.327C1396.14 360.537 1359.75 366.747 1323.94 372.662C1322.17 372.957 1320.39 373.253 1317.43 373.549C1319.5 371.479 1320.69 370.296 1321.87 369.113C1341.1 350.187 1360.04 331.852 1378.68 313.518C1381.34 311.152 1383.71 309.673 1388.74 308.786C1423.36 302.576 1458.87 296.07 1494.97 289.269C1497.04 288.973 1499.11 288.677 1502.07 288.086C1501.18 289.269 1500.59 290.156 1499.7 291.043C1481.36 309.969 1462.42 329.486 1443.19 349.3C1440.82 352.257 1438.16 353.44 1433.42 354.327ZM1382.82 307.899C1365.07 294.887 1347.91 282.467 1331.34 270.638C1335.78 268.864 1426.02 252.008 1442 249.642C1460.94 261.471 1481.06 273.891 1502.95 287.199C1460.94 294.296 1421.88 301.097 1382.82 307.899ZM1331.93 273.004C1346.43 284.241 1361.22 295.774 1376.61 307.899C1378.39 309.082 1378.68 310.265 1376.61 312.335C1357.67 331.261 1338.74 350.778 1319.21 370.592C1318.62 371.479 1317.73 372.07 1316.25 373.253C1315.07 372.366 1313.88 371.774 1312.99 371.183C1298.2 357.58 1284 344.272 1270.39 331.852C1268.91 330.669 1268.61 329.486 1270.68 327.416C1289.62 309.082 1308.26 291.339 1326.31 273.595C1326.9 273.004 1327.49 272.413 1328.68 271.525C1330.16 271.821 1331.04 272.413 1331.93 273.004ZM1323.94 273.891C1305.6 291.043 1286.96 308.49 1268.02 326.234C1265.95 328.008 1264.17 329.191 1260.33 330.078C1227.48 335.992 1195.53 341.907 1163.87 347.821C1162.68 348.117 1161.5 348.117 1159.43 348.413C1160.91 346.934 1162.09 346.047 1162.98 345.16C1182.21 327.712 1201.45 310.856 1220.09 294C1222.16 292.226 1223.93 291.043 1227.48 290.451C1258.85 284.241 1290.51 278.031 1322.76 271.821C1323.94 271.525 1325.13 271.525 1326.9 271.23C1325.42 272.117 1324.83 273.004 1323.94 273.891ZM1194.34 392.179C1195.53 393.658 1195.53 394.841 1193.46 396.911C1172.74 416.724 1151.74 437.128 1130.14 457.829C1129.54 458.42 1128.66 459.012 1127.47 460.195C1126.29 459.012 1125.7 458.42 1125.11 457.533C1113.86 442.451 1103.21 427.665 1092.85 413.767C1091.67 412.288 1091.97 410.809 1094.33 408.444C1102.03 401.346 1109.42 394.249 1117.12 387.448C1130.14 375.619 1142.86 363.79 1155.58 351.961C1155.88 351.665 1156.17 351.665 1157.36 350.778C1158.25 351.37 1158.84 351.961 1159.13 352.553C1170.38 365.269 1181.92 378.576 1194.34 392.179ZM1152.62 353.144C1132.8 370.887 1112.68 388.926 1092.56 407.261C1090.49 409.035 1088.42 410.218 1085.75 411.105C1085.16 411.401 1084.27 411.401 1083.68 411.697C1052.91 416.724 1022.73 422.047 992.844 427.074C991.661 427.37 990.477 427.37 988.11 427.665C991.957 424.413 994.916 421.455 998.17 418.794C1016.52 403.121 1034.27 387.448 1052.02 372.07C1053.5 370.592 1054.98 369.704 1056.76 368.817C1058.24 368.226 1060.01 367.634 1062.38 367.339C1090.49 362.311 1119.19 356.988 1148.19 351.665C1150.26 351.37 1152.33 350.778 1155.29 350.483C1154.1 351.665 1153.51 352.553 1152.62 353.144ZM994.028 427.961C1022.43 423.525 1051.43 419.09 1081.02 414.358C1085.46 413.767 1087.82 414.062 1089.3 416.132C1099.66 429.735 1110.61 443.634 1122.15 458.125C1123.03 459.012 1123.63 460.195 1124.51 461.673C1121.85 462.265 1120.08 462.56 1118.6 462.856C1086.05 467.588 1054.09 472.023 1022.73 476.459C1019.47 477.051 1017.4 476.755 1016.52 474.981C1007.05 459.899 997.874 445.409 988.998 431.51C988.702 430.918 988.406 430.327 988.11 429.44C990.477 428.553 992.253 428.257 994.028 427.961ZM1123.92 463.448C1122.44 464.926 1121.56 466.109 1120.37 467.292C1098.18 487.992 1075.69 508.988 1052.61 530.576C1051.43 531.759 1050.25 532.646 1049.06 533.237C1047.58 533.829 1045.81 534.42 1043.74 534.716C1010.6 539.152 977.754 543.588 945.798 548.023C944.319 548.319 942.839 548.319 940.472 548.615C941.952 547.136 942.839 545.953 944.023 545.066C967.398 524.07 990.477 503.37 1012.96 482.965C1013.85 482.078 1014.74 481.486 1015.63 480.895C1017.4 480.008 1019.18 479.416 1021.84 478.825C1053.21 474.093 1085.16 469.362 1117.71 464.335C1119.48 463.743 1121.56 463.743 1123.92 463.448ZM1012.37 476.459C1013.56 478.529 1012.67 480.008 1010.01 482.669C987.814 503.074 965.327 524.07 942.247 545.066C941.656 545.658 940.768 546.545 939.289 547.432C938.697 546.841 938.105 546.249 937.809 545.658C930.116 528.506 922.423 511.65 915.322 495.681C914.73 494.202 915.026 492.724 917.393 490.654C939.584 470.841 961.48 451.323 982.784 432.397C983.376 431.806 983.968 431.51 985.151 430.623C985.743 431.51 986.631 432.101 986.927 432.693C994.915 446.591 1003.2 461.377 1012.37 476.459ZM980.713 432.397C959.113 451.323 936.921 470.545 914.434 490.062C913.842 490.654 913.25 490.949 912.659 491.541C910.883 492.428 909.108 493.315 906.741 493.611C877.744 498.047 849.339 502.483 821.229 506.623C820.046 506.918 818.566 506.918 816.495 507.214H816.199C818.271 505.44 819.454 504.553 820.638 503.37C842.533 485.035 864.429 466.7 885.437 448.957C886.621 447.774 887.804 447.183 889.284 446.296C890.467 445.704 891.947 445.113 893.722 445.113C921.239 440.677 949.349 435.65 978.05 430.918C979.529 430.623 981.009 430.623 983.08 430.327C982.192 430.918 981.601 431.51 980.713 432.397ZM821.229 507.806C848.451 503.961 876.265 500.117 904.67 495.977C908.812 495.385 910.587 495.977 911.475 498.047C918.872 513.424 926.565 529.097 934.554 545.362C935.146 546.249 935.442 547.136 935.738 548.615C931.596 549.502 915.026 551.868 896.385 554.234C883.07 555.712 870.051 557.486 857.032 558.965C847.859 560.148 840.462 560.739 836.616 561.035C835.728 561.035 834.84 560.739 834.248 560.148C827.739 542.7 821.525 525.549 815.016 508.693C817.679 508.101 819.454 507.806 821.229 507.806ZM935.146 550.685C933.963 552.164 933.075 553.051 931.891 554.234C907.924 575.821 883.366 597.704 858.511 620.179C856.144 622.249 854.369 623.432 851.706 624.319C851.114 624.319 850.522 624.615 849.93 624.615C817.975 628.164 786.611 632.008 755.542 635.556C754.359 635.556 753.175 635.556 751.4 635.556C753.175 633.782 754.359 632.599 755.838 631.416C780.693 609.829 805.251 588.537 829.218 567.541C830.994 566.062 832.473 564.879 834.544 564.288C834.84 564.288 835.136 563.992 835.432 563.992H835.728C836.024 563.992 836.616 563.697 836.911 563.697C867.388 559.556 898.752 555.416 930.412 551.276C932.187 550.981 933.371 550.981 935.146 550.685ZM857.919 628.164C857.328 626.093 857.919 624.615 860.287 622.249C885.733 598.887 910.292 576.117 934.554 553.642C935.146 553.051 935.738 552.755 936.626 551.868C937.217 552.755 937.809 553.346 938.401 553.938C946.39 571.977 954.971 590.903 963.847 610.716C964.735 612.49 964.735 613.969 962.072 616.335C936.034 641.175 909.7 666.903 882.478 692.926C882.182 693.222 881.59 693.813 880.407 694.7C879.815 693.222 879.223 692.335 878.927 691.448C871.53 669.268 864.725 648.272 857.919 628.164ZM886.029 692.335C912.955 666.903 939.584 642.358 965.327 618.109C965.919 617.518 966.214 617.222 966.806 616.926C969.173 615.448 971.836 614.56 975.387 613.969C1009.41 610.125 1044.33 606.28 1079.54 602.14C1081.61 601.844 1083.68 601.844 1086.34 601.549C1085.16 603.027 1084.27 604.21 1083.39 605.097C1057.94 629.938 1031.9 655.665 1005.27 681.689C1004.38 682.576 1003.5 683.167 1002.61 684.055C1000.83 684.942 998.762 685.829 996.395 685.829C959.705 689.082 923.607 692.335 888.396 695.588C886.916 695.588 885.437 695.588 883.366 695.883C884.253 694.405 884.845 693.222 886.029 692.335ZM1081.61 600.07C1045.22 603.619 1010.01 607.167 975.091 610.716C971.54 611.012 969.469 610.716 968.286 608.35C958.817 588.833 949.645 570.202 940.768 552.459C940.472 551.868 940.176 550.981 939.88 549.502C942.839 549.206 944.615 548.911 946.686 548.615C977.754 544.77 1009.41 540.926 1041.96 537.082C1046.7 536.49 1049.06 537.082 1050.54 539.448C1061.49 557.191 1073.03 575.525 1085.16 594.747C1086.05 595.93 1086.34 597.113 1087.23 598.887C1084.87 599.774 1083.09 600.07 1081.61 600.07ZM1054.39 537.378C1053.21 535.603 1053.5 533.829 1056.16 531.463C1079.24 509.284 1101.73 487.697 1123.63 466.405C1124.22 465.813 1125.11 464.926 1126.59 464.039C1127.47 465.222 1128.36 465.813 1128.95 466.7C1140.79 482.669 1152.92 499.525 1165.64 516.973C1167.12 518.747 1167.42 520.226 1164.76 522.887C1141.38 546.545 1117.41 570.794 1092.85 595.339C1092.26 595.93 1091.67 596.521 1090.49 597.409C1089.6 596.226 1088.71 595.634 1088.12 594.747C1076.58 574.934 1065.34 555.712 1054.39 537.378ZM1226 588.833C1224.52 586.763 1223.93 584.693 1226.6 582.031C1235.77 572.272 1244.94 562.514 1253.82 553.051L1253.52 552.755C1267.43 537.673 1281.33 523.183 1294.95 508.397C1295.83 507.51 1297.02 506.327 1298.5 504.848C1299.68 505.735 1300.86 506.031 1301.46 506.918C1318.91 526.14 1336.96 546.545 1355.9 567.541C1358.27 570.202 1357.38 572.272 1354.72 575.23C1333.71 598.887 1312.4 623.136 1290.8 647.681C1287.55 651.525 1284 655.37 1279.56 660.101C1278.08 658.623 1276.9 657.44 1276.01 656.257C1258.85 633.191 1241.98 610.42 1226 588.833ZM1281.93 661.876C1284.29 659.214 1285.77 657.735 1286.96 655.961C1296.13 645.907 1305.3 635.852 1314.18 626.093L1313.88 625.798C1329.27 608.942 1344.06 592.677 1358.86 576.413C1361.52 573.455 1364.18 571.977 1369.51 571.385C1413.6 566.358 1458.87 561.331 1505.03 556.008C1506.8 555.712 1508.58 555.712 1511.24 555.712C1510.06 557.486 1509.76 558.669 1508.58 559.852C1485.2 587.354 1461.23 615.448 1436.68 644.132C1434.31 647.09 1431.65 648.568 1426.62 648.864C1397.03 651.525 1368.03 654.187 1339.33 656.848V656.553C1322.17 658.031 1305.3 659.51 1288.44 661.284C1286.96 661.58 1285.18 661.58 1281.93 661.876ZM1502.95 554.529C1457.68 559.261 1413.3 563.697 1370.1 568.132C1365.66 568.724 1362.7 568.132 1360.63 565.767C1341.1 545.066 1322.17 525.253 1304.12 506.327C1303.53 505.735 1302.93 504.848 1302.34 504.257C1302.64 503.961 1302.64 503.665 1302.93 503.665C1303.23 503.665 1303.23 503.37 1303.53 503.37C1305.01 503.074 1306.49 502.778 1307.96 502.483C1349.98 497.455 1392.59 492.132 1436.97 486.809C1460.64 507.51 1485.5 529.393 1512.72 553.051C1507.98 553.938 1505.62 554.234 1502.95 554.529ZM1508.87 291.043C1527.81 303.463 1547.63 316.475 1568.35 330.078C1571.6 332.148 1571.6 333.922 1568.94 337.175C1550.59 357.876 1531.95 379.167 1513.02 401.051C1512.13 401.938 1510.94 402.825 1509.46 404.304C1507.98 403.416 1506.51 402.825 1505.62 401.938C1484.91 385.969 1465.38 370.887 1446.44 356.397C1444.37 354.918 1444.07 353.44 1446.14 351.37C1465.08 331.261 1483.43 311.448 1501.48 292.226C1502.36 291.339 1503.25 290.747 1504.73 289.269C1506.51 289.564 1507.69 290.451 1508.87 291.043ZM1503.25 192.568C1521.3 202.623 1539.65 212.973 1559.17 223.619C1561.54 224.802 1560.65 226.28 1558.88 228.055C1545.56 242.249 1531.95 256.739 1518.05 271.525C1513.9 275.961 1509.46 280.397 1504.43 285.72C1502.66 284.833 1501.48 283.946 1500.29 283.354C1482.24 271.525 1465.08 260.288 1448.22 249.346C1445.85 247.868 1445.85 246.389 1448.22 244.023C1464.79 227.167 1481.06 210.903 1496.74 194.638C1497.63 193.751 1498.52 192.864 1500 191.385C1501.48 192.272 1502.66 192.272 1503.25 192.568ZM1497.92 110.654C1499.4 111.245 1500.29 111.541 1501.18 112.132C1516.86 119.525 1533.14 127.51 1550 135.199C1551.78 136.086 1552.66 136.973 1550.89 138.747C1535.21 154.42 1519.82 170.389 1503.84 186.654C1503.25 187.245 1502.36 188.132 1501.18 189.02C1500 188.428 1498.81 188.132 1497.92 187.837C1481.06 178.669 1465.08 169.502 1449.4 160.926C1447.92 160.039 1447.33 159.152 1449.1 157.378C1464.79 142.296 1480.17 127.214 1495.26 112.724C1496.15 112.132 1496.74 111.541 1497.92 110.654ZM1345.54 178.374C1361.52 164.179 1377.2 149.985 1392.59 136.086C1394.66 134.016 1397.03 133.128 1401.17 132.241C1430.17 125.735 1459.76 118.934 1489.94 111.837C1491.71 111.541 1493.19 111.245 1495.56 110.654C1494.37 111.837 1493.78 112.428 1492.89 113.315C1477.51 127.51 1461.83 142 1446.14 156.786C1444.07 158.56 1442 159.743 1438.16 160.63C1407.38 167.432 1377.2 173.938 1347.61 180.444C1346.13 180.739 1344.36 181.035 1341.99 181.627C1343.47 180.148 1344.65 179.261 1345.54 178.374ZM1339.92 183.697C1341.1 184.288 1341.99 184.584 1342.88 185.175C1356.19 193.751 1369.81 202.918 1384.01 212.086C1385.78 213.269 1386.08 214.156 1384.01 216.226C1367.14 232.49 1349.98 249.051 1332.82 265.907C1331.93 266.794 1331.04 267.385 1329.56 268.568C1328.38 267.977 1327.49 267.385 1326.61 266.794C1312.99 256.444 1300.27 246.093 1287.25 236.335C1285.48 234.856 1285.77 233.673 1288.14 231.603C1304.41 216.521 1320.39 201.735 1336.37 186.949C1337.26 186.062 1338.44 184.879 1339.92 183.697ZM1187.83 251.712C1205.59 236.335 1222.75 221.253 1239.91 206.467C1241.39 204.988 1243.17 204.101 1246.12 203.51C1275.42 197.004 1305.01 190.498 1335.19 183.992C1336.07 183.697 1336.96 183.697 1338.44 183.401C1337.26 184.584 1336.67 185.175 1336.07 185.767C1319.5 200.553 1302.93 215.634 1286.07 230.716C1283.41 233.082 1280.74 234.265 1276.3 235.448C1247.6 241.362 1219.2 247.276 1191.39 253.191C1189.61 253.486 1187.83 253.782 1185.47 254.374C1186.06 253.191 1186.95 252.599 1187.83 251.712ZM1281.63 236.039C1296.13 246.685 1311.22 257.627 1327.2 269.16C1321.87 270.934 1240.8 286.311 1223.64 288.973C1210.32 277.735 1197.6 266.498 1184.58 255.557C1216.83 249.051 1248.79 242.545 1281.63 236.039ZM1182.51 256.739C1183.4 257.331 1184.28 257.627 1184.58 257.922C1195.53 267.977 1206.48 278.327 1218.01 289.269C1219.2 290.451 1219.49 291.339 1217.42 293.409C1198.78 310.56 1179.85 328.304 1160.32 346.047C1159.72 346.638 1158.84 347.23 1157.65 348.117C1156.77 347.23 1155.88 346.638 1155.58 346.047C1144.93 333.922 1134.57 322.389 1124.51 311.448C1123.63 310.265 1123.33 309.378 1125.4 307.307C1144.04 290.747 1162.09 274.778 1179.85 258.809C1180.73 257.922 1181.32 257.627 1182.51 256.739ZM1031.61 323.572C1038.12 318.249 1044.62 312.63 1051.13 307.307C1062.97 297.549 1074.51 287.79 1085.75 278.031C1088.12 275.961 1090.19 275.074 1093.74 274.187C1120.67 268.568 1147.89 262.949 1175.7 257.035C1177.18 256.739 1178.66 256.444 1180.44 256.148C1179.85 257.035 1179.25 257.627 1178.66 258.218C1160.32 274.187 1141.68 290.156 1123.03 306.42C1121.26 307.899 1119.78 308.786 1116.82 309.378C1098.18 312.926 1079.84 316.475 1061.79 320.319C1052.02 322.093 1042.26 324.164 1032.79 325.938C1031.31 326.234 1029.83 326.529 1027.46 326.825C1029.24 325.642 1030.42 324.755 1031.61 323.572ZM1030.72 327.416C1058.53 322.093 1087.23 317.066 1115.93 311.448C1118.3 311.152 1119.78 310.856 1120.67 312.039C1131.62 323.572 1142.86 335.401 1154.69 347.525C1154.99 347.821 1154.99 348.117 1154.99 348.413C1152.33 349.3 1121.26 355.214 1094.04 359.65L1093.74 359.354C1082.79 361.128 1071.85 363.199 1060.9 364.973C1057.94 365.564 1056.16 365.269 1054.98 364.086C1045.81 352.257 1036.64 340.724 1027.76 329.782C1027.46 329.486 1027.17 328.895 1026.87 328.304C1028.94 328.008 1029.83 327.712 1030.72 327.416ZM1024.8 329.486C1025.1 329.486 1025.1 329.486 1024.8 329.486C1025.69 330.374 1026.28 330.965 1026.87 331.556C1034.86 342.498 1042.85 354.031 1051.73 365.564C1053.21 367.339 1052.32 369.113 1049.36 371.479C1030.13 388.63 1010.6 406.078 990.773 423.525C990.477 423.525 990.477 423.821 990.181 423.821C989.294 424.708 988.11 425.595 986.631 426.778C986.039 426.187 985.447 425.595 985.151 425.004C977.162 411.401 969.765 398.389 962.368 385.673C961.48 384.195 962.072 383.012 964.143 381.237C983.968 364.381 1003.2 347.525 1022.14 331.261C1023.02 330.965 1023.91 330.374 1024.8 329.486ZM873.897 397.206C894.018 380.646 913.842 364.677 933.371 348.708C934.85 347.525 936.034 346.638 937.809 346.047C938.401 345.751 938.993 345.751 939.584 345.455C965.918 340.428 992.844 335.105 1020.07 329.782C1020.95 329.486 1022.14 329.486 1023.91 329.191C1022.14 330.669 1021.25 331.557 1020.07 332.444C1000.83 348.413 981.601 364.677 961.776 381.237C960.888 381.829 960.297 382.42 959.409 383.012C957.93 383.899 956.154 384.49 954.083 384.786C927.453 389.518 901.415 394.545 875.673 399.276C874.193 399.572 872.714 399.572 870.939 400.163C872.122 398.685 873.01 397.798 873.897 397.206ZM871.53 400.755C899.64 396.023 927.157 391.292 955.562 386.265C956.45 386.265 957.042 386.265 957.634 386.56C965.919 399.572 974.795 413.471 983.968 427.961C982.784 428.257 981.896 428.257 980.713 428.553C950.532 433.284 921.239 438.016 892.538 442.451C891.355 442.451 890.467 442.451 889.875 441.86C882.774 427.665 875.969 414.358 869.459 400.755C870.347 401.051 870.938 401.051 871.53 400.755ZM867.684 402.529C868.276 403.416 868.571 404.008 868.867 404.599C874.193 417.02 879.815 429.735 885.733 442.747C886.325 444.226 886.029 445.704 883.662 447.774C862.358 466.109 840.758 484.739 818.862 503.665C817.975 504.553 816.791 505.44 815.312 506.327C814.72 505.44 814.424 505.144 814.128 504.257C809.394 489.471 804.66 474.981 799.925 461.377C799.334 459.899 799.925 458.716 802.293 456.646C823.596 438.903 844.309 421.455 864.725 404.304C865.613 404.008 866.5 403.416 867.684 402.529ZM713.822 472.023C715.302 470.841 716.485 469.953 717.669 469.066C738.381 452.506 759.093 436.241 779.213 419.977C781.58 417.907 783.948 417.02 786.611 416.428C811.465 411.992 836.911 407.261 862.654 402.529C863.541 402.234 864.429 402.234 866.204 401.938C864.429 403.416 863.541 404.008 862.654 404.895C842.237 421.455 821.229 438.607 800.221 455.759C799.038 456.646 798.15 457.237 797.262 457.829C796.079 458.42 794.599 458.716 792.824 459.012C767.378 463.152 742.227 467.588 717.669 471.728C716.485 472.023 715.006 472.023 713.23 472.319C713.526 472.319 713.822 472.023 713.822 472.023ZM714.118 473.798C715.006 473.502 715.597 473.502 716.189 473.502C741.044 469.658 766.194 465.813 791.641 461.673C794.008 461.377 795.783 461.377 796.079 462.856C801.109 476.755 806.435 490.949 811.761 506.031C812.057 506.623 812.057 507.214 812.057 508.101C809.986 508.397 808.506 508.693 807.323 508.988C780.397 512.833 754.063 516.381 728.025 520.226C726.841 520.521 725.953 520.521 725.066 520.521H724.77C723.882 520.226 723.586 519.93 723.29 519.043C719.74 504.257 715.893 490.062 712.343 476.459C712.343 476.163 712.343 475.572 712.047 474.981C712.934 474.093 713.526 473.798 714.118 473.798ZM709.975 475.276C710.271 476.163 710.567 476.755 710.567 477.346C713.526 490.949 716.485 505.144 719.444 519.634C719.74 521.113 719.444 522.591 716.781 524.662C704.058 535.307 691.039 545.953 678.02 556.895V557.191C667.959 565.767 657.603 574.342 647.247 582.918C646.064 583.805 644.88 584.693 643.105 586.171C642.809 584.988 642.513 584.101 642.513 583.214C640.738 567.245 638.962 551.868 637.187 537.082C636.891 535.012 638.075 533.237 641.034 530.872C662.633 513.424 683.937 495.977 704.65 479.121C705.833 478.233 707.017 477.051 708.496 475.868C709.384 475.572 709.68 475.276 709.975 475.276ZM559.664 542.405C582.152 524.662 604.639 507.51 626.535 490.358C628.606 488.584 630.382 487.697 632.749 487.401C643.401 485.626 654.349 483.852 665.001 482.078C678.611 479.712 692.518 477.346 706.425 474.981C707.017 474.981 707.608 474.981 708.792 474.685C707.608 475.572 707.017 476.459 706.129 477.346C693.998 486.809 681.866 496.568 669.735 506.327C660.266 514.016 650.502 521.704 640.738 529.393C637.187 532.055 634.524 533.533 630.974 534.125C607.302 537.673 583.927 541.222 561.144 544.771C559.664 545.066 558.185 545.066 556.41 545.362C557.593 544.179 558.481 543.292 559.664 542.405ZM633.932 535.899C636.299 552.164 638.962 569.019 641.625 586.467C636.891 587.946 571.204 596.226 557.593 597.113C556.706 579.961 555.522 563.401 554.634 546.841C581.264 542.996 607.302 539.448 633.932 535.899ZM559.369 599.183C584.815 595.93 610.557 592.381 636.891 588.833C637.779 588.833 638.667 588.833 640.146 588.537C638.667 590.016 637.483 591.198 636.004 592.086C611.741 611.899 586.886 632.304 561.736 652.708C559.073 654.778 557.002 656.257 554.043 656.553C527.709 659.51 501.67 662.467 476.52 665.424C475.632 665.424 474.745 665.424 472.969 665.424C475.041 663.65 476.224 662.763 477.704 661.58C502.854 641.471 527.709 621.658 551.971 602.436C554.339 600.957 556.41 599.774 559.369 599.183ZM385.682 736.693C413.496 713.922 441.013 691.743 467.939 669.86C468.235 669.564 468.531 669.269 469.715 668.677C469.715 669.564 470.011 670.451 469.715 671.043C468.531 689.673 467.052 708.895 465.868 729.004C465.868 731.074 464.685 732.848 462.022 734.918C433.912 758.28 405.507 781.938 376.51 806.187C375.622 807.074 374.735 807.665 372.959 808.848C372.959 807.665 372.663 806.778 372.959 805.891C376.214 783.712 379.173 762.42 382.132 741.72C382.132 740.537 383.02 739.058 385.682 736.693ZM376.51 738.763C352.543 740.833 328.872 743.198 305.793 745.268C304.609 745.268 303.426 745.269 301.059 745.564C306.089 741.72 310.231 738.467 314.078 735.214C337.453 717.175 360.532 699.136 383.02 681.393C387.162 678.14 390.121 676.957 393.671 676.366C416.159 674 439.238 671.043 462.613 668.381C464.389 668.086 465.868 668.086 468.235 667.79C466.46 669.268 465.572 670.451 464.389 671.339C438.646 691.743 412.608 712.739 385.978 733.735C382.724 736.988 380.061 738.467 376.51 738.763ZM379.173 805.891C407.282 782.825 435.096 760.055 462.317 737.875C466.164 734.918 468.827 733.44 472.378 733.144C498.416 730.778 525.342 728.413 552.563 725.751C554.043 725.751 555.522 725.751 557.889 725.751C555.522 727.821 553.747 729.3 552.267 730.483C525.046 753.549 497.232 776.911 468.827 800.568C465.276 803.525 462.613 804.708 459.063 805.004C431.841 806.778 404.915 808.553 378.285 810.327C376.806 810.327 375.622 810.327 373.847 810.327C376.214 808.553 377.694 807.37 379.173 805.891ZM555.818 723.977C527.709 726.047 499.895 728.117 472.969 730.187C470.898 730.483 469.715 729.891 469.715 728.117C470.602 707.712 471.194 688.195 471.786 669.268C471.786 668.973 472.082 668.381 472.378 667.494C474.449 667.198 475.632 666.903 477.112 666.903C501.671 664.537 526.525 662.171 552.267 659.51C555.226 659.214 556.706 659.805 556.706 661.876C557.593 680.506 558.777 700.023 559.664 720.132C559.664 721.019 559.664 721.907 559.664 723.385C557.889 723.385 556.706 723.977 555.818 723.977ZM553.155 550.093C553.451 564.879 553.747 580.553 554.043 596.521C554.043 598.296 553.451 599.479 550.788 601.844C525.933 621.953 501.079 642.358 475.336 663.058C474.449 663.65 473.561 664.241 472.082 665.424C472.082 664.241 472.082 663.354 472.082 662.467C473.265 645.019 474.449 628.164 475.336 611.899C475.336 610.125 475.928 608.942 478.887 606.576C502.854 587.65 526.525 569.02 549.604 550.389C550.492 549.798 551.38 549.206 552.563 548.023C552.859 548.911 553.155 549.502 553.155 550.093ZM403.436 614.265C426.811 596.521 449.594 579.074 472.082 561.922C475.041 559.556 477.112 558.669 480.071 558.078C502.262 554.825 524.75 551.276 547.533 547.728C548.717 547.432 549.9 547.432 551.38 547.136C550.492 548.023 549.604 548.911 548.717 549.502C525.341 567.837 501.375 586.171 477.112 605.097C475.041 606.872 473.265 607.759 470.898 608.055C446.931 611.307 423.26 614.56 400.181 617.518C399.885 617.518 399.589 617.518 398.406 617.518C400.477 616.63 401.956 615.448 403.436 614.265ZM396.926 620.179C398.406 619.883 399.293 619.292 400.181 619.292C422.668 616.63 445.748 613.969 469.123 611.012C470.898 610.716 472.082 611.012 472.082 612.49C471.49 629.346 470.898 646.794 470.306 664.833C470.306 665.128 470.011 665.424 470.011 666.016C466.164 667.494 404.323 674 391.008 674.296C393.08 655.665 395.151 637.627 396.926 620.179ZM395.151 623.728C392.784 639.401 390.417 655.665 388.05 672.521C387.754 675.183 385.978 677.253 382.428 679.914C357.277 699.728 331.831 719.837 305.793 740.537C304.313 741.72 302.834 742.903 300.467 744.677C300.763 742.903 300.763 742.016 301.059 740.833C305.201 722.498 309.048 704.459 312.598 687.307C313.19 684.942 314.374 683.167 317.924 680.21C342.483 661.284 366.45 642.654 389.825 624.319C391.304 623.136 392.784 621.953 394.855 620.475C395.151 621.953 395.151 622.841 395.151 623.728ZM245.136 687.899C270.286 669.269 294.845 650.638 319.108 632.599C321.475 630.825 323.546 629.642 325.913 629.346C347.217 626.389 369.113 623.432 391.304 620.475C392.192 620.475 392.784 620.475 394.263 620.179C392.192 621.658 390.713 622.841 389.529 624.023C365.562 642.358 341.003 660.988 316.149 679.914C313.486 681.984 311.415 683.167 309.048 683.463C287.152 685.829 265.256 688.49 243.952 691.152C243.065 691.152 242.473 691.152 241.289 691.152C243.065 689.969 243.952 688.786 245.136 687.899ZM238.626 696.475C238.922 695.292 239.218 694.405 239.81 692.63C263.185 690.265 285.968 688.195 309.935 685.829C306.385 704.755 302.538 724.568 298.396 745.86C296.028 746.156 294.549 746.451 293.365 746.451C271.174 748.226 249.574 749.704 228.27 751.479C225.311 751.774 224.424 750.887 225.311 748.226C230.045 730.187 234.484 713.035 238.626 696.475ZM296.62 747.339C295.437 748.521 294.549 749.409 293.365 750.296C265.552 771.883 237.147 794.062 208.15 816.537C205.487 818.607 203.416 819.79 201.344 819.79C177.673 821.269 154.298 823.043 131.515 824.521C131.219 824.521 130.923 824.521 129.74 824.226C132.107 822.451 133.882 820.973 135.657 819.79C163.175 798.794 190.397 778.093 217.026 757.689C220.577 755.027 222.944 753.844 225.903 753.549C247.799 751.774 270.286 749.409 292.774 747.339C293.957 747.634 295.141 747.634 296.62 747.339ZM237.147 696.77C232.117 713.922 227.087 731.665 222.057 750C221.465 752.07 220.281 753.844 217.026 756.21C189.805 777.206 162.287 798.498 134.178 820.381C132.698 821.564 131.515 822.451 129.444 823.93C129.74 822.451 130.035 821.564 130.331 820.381C137.137 800.568 143.942 781.051 150.452 762.716C151.339 760.055 153.115 758.28 156.665 755.323C182.703 735.805 208.15 716.288 233.004 697.362C234.484 696.179 235.963 695.292 237.739 693.813C237.443 694.996 237.443 695.883 237.147 696.77ZM88.0193 760.646C114.353 741.424 140.391 722.202 165.838 703.572C168.501 701.798 170.276 700.615 172.643 700.319C192.764 697.953 213.476 695.588 234.188 693.222C235.076 693.222 235.667 693.222 237.147 693.222C235.076 694.7 233.892 695.883 232.413 696.77C206.966 715.697 180.928 735.214 154.594 754.732C151.931 756.802 149.86 757.984 147.493 758.28C126.781 760.055 106.364 762.125 86.244 763.899C85.6522 763.899 85.0604 763.899 83.8769 763.899C85.6522 762.42 86.8358 761.533 88.0193 760.646ZM121.751 825.704C101.334 826.591 81.2139 827.479 61.3894 828.662C58.7264 828.957 57.8388 828.07 59.0223 825.113C66.4195 805.891 73.5208 787.557 80.3263 769.813C80.6221 768.63 81.2139 767.448 82.1016 765.969C83.581 765.673 84.7646 765.378 85.6522 765.378C105.181 763.899 125.005 762.42 145.126 760.942C146.901 760.942 148.085 760.942 147.493 763.012C141.279 782.234 134.77 801.751 127.964 822.451C127.668 823.043 127.372 823.93 126.781 825.409C124.709 825.409 123.23 825.409 121.751 825.704ZM183.295 893.128C182.999 894.607 182.408 896.086 181.816 898.156C179.745 898.451 178.265 898.451 176.786 898.451C153.706 898.747 130.923 899.043 108.731 899.634C105.477 899.634 104.885 898.451 105.773 895.494C113.17 873.315 119.975 852.023 126.781 831.323C127.077 830.14 127.668 828.661 128.556 826.887C130.331 826.591 131.811 826.591 133.29 826.296C154.594 825.409 175.898 824.521 198.09 823.339C201.344 823.043 202.232 824.226 201.344 827.183C194.835 848.179 189.213 870.358 183.295 893.128ZM185.071 892.833C191.876 869.175 198.385 846.7 204.303 824.817C204.895 822.451 206.374 820.381 209.629 817.72C238.034 795.245 265.848 773.066 293.07 751.479C294.253 750.591 295.437 749.704 297.508 748.226C297.508 749.409 297.508 750.296 297.212 751.479C292.774 771.292 288.335 791.992 283.897 813.284C283.305 815.946 281.53 818.016 277.979 820.973C248.686 844.63 218.802 868.879 188.621 893.424C187.438 894.311 186.254 895.198 184.183 896.677C184.479 895.198 184.775 894.016 185.071 892.833ZM363.787 817.424C334.198 841.377 304.313 865.922 273.837 891.058C270.582 893.72 268.215 895.198 265.256 895.198C239.218 896.086 213.476 896.973 188.325 898.156C187.438 898.156 186.55 898.156 185.071 897.86C187.734 895.79 189.509 894.311 191.284 892.833C221.169 868.879 250.758 845.518 279.755 822.451C283.601 819.494 286.264 818.311 289.519 818.016C314.078 816.537 338.932 814.763 364.379 812.988C365.858 812.988 367.042 812.988 369.113 812.988C366.746 814.763 365.266 815.946 363.787 817.424ZM286.856 815.058C291.294 791.697 295.437 769.518 299.579 747.339C302.242 747.043 303.722 747.043 305.201 746.747C327.688 744.973 350.472 743.494 373.847 741.72C377.398 741.424 378.877 742.311 378.285 745.268C375.918 764.786 373.551 784.895 371.184 805.891C370.888 807.37 370.592 808.848 370.296 811.51C341.299 812.397 314.078 813.58 286.856 815.058ZM458.767 889.58C453.737 891.058 373.847 893.128 363.195 891.946C366.45 864.739 369.409 838.716 372.368 812.397C402.252 810.918 431.545 809.735 461.726 808.257C460.542 833.984 459.654 861.191 458.767 889.58ZM461.134 888.988C461.134 886.918 460.838 885.44 461.134 883.665C462.613 858.234 464.389 833.689 465.572 810.327C465.868 807.074 467.052 804.708 471.194 801.16C499.303 777.206 526.525 753.549 553.155 730.483C554.93 729.004 556.41 727.525 559.073 725.455C559.369 727.23 559.664 728.412 559.664 729.891C560.256 750.887 560.552 773.066 561.144 795.541C561.144 798.794 559.96 801.16 555.818 805.004C526.821 830.436 497.528 856.755 467.348 883.665C465.276 885.44 463.501 886.918 461.134 888.988ZM662.633 800.272C633.045 826.887 602.864 854.093 572.092 881.891C567.949 885.735 564.695 886.918 560.552 887.214C528.892 888.101 497.824 889.58 467.643 890.467C466.164 890.467 464.685 890.467 462.022 890.171C464.98 887.51 467.052 885.735 468.827 883.961C499.008 857.642 528.892 831.914 557.889 806.483C561.144 803.821 563.807 801.751 567.358 801.751C598.426 799.977 630.086 797.611 662.633 795.541C663.817 795.541 665.001 795.541 666.776 795.541C665.001 797.611 663.817 798.794 662.633 800.272ZM663.225 794.062C631.269 795.541 600.201 797.019 569.429 798.498C566.174 798.794 564.695 797.907 564.695 795.245C563.511 771.883 562.328 749.704 561.144 728.412C561.144 727.525 561.144 726.638 561.44 725.16C563.511 724.864 564.695 724.568 566.174 724.568C594.579 722.498 623.28 720.428 652.869 718.062C656.124 717.767 657.603 718.654 657.899 720.724C660.858 742.903 664.409 765.673 667.959 789.626C668.255 790.514 667.959 791.697 667.959 793.471C666.184 793.767 664.705 794.062 663.225 794.062ZM661.746 718.949C661.45 716.584 662.042 714.809 665.001 712.148C691.926 688.195 718.26 664.833 744.003 642.062C744.89 641.175 746.074 640.288 747.849 639.105C748.441 640.584 748.737 641.471 749.033 642.358C753.175 661.876 757.613 681.984 762.052 703.276C762.644 706.234 761.756 708.599 757.909 712.148C743.115 725.455 728.321 739.354 713.526 752.957V753.253C701.099 764.786 688.376 776.615 675.653 788.148C674.469 789.331 672.99 790.218 671.214 791.992C670.918 790.514 670.327 789.627 670.327 788.444C667.368 764.195 664.705 741.128 661.746 718.949ZM799.334 881.3C761.46 881.891 724.178 882.483 688.08 883.37C685.121 883.37 683.346 882.778 683.05 880.117C678.907 851.136 674.765 823.93 670.918 797.611C670.918 797.02 670.918 796.724 671.214 795.245C673.581 794.949 675.653 794.654 677.428 794.654C691.63 794.062 706.129 793.175 720.627 792.584C738.973 791.697 757.613 790.809 776.55 789.922C780.397 789.627 781.876 790.809 782.764 793.471C788.978 819.79 796.079 846.996 803.18 875.681C803.476 876.864 803.476 878.342 803.772 880.413C801.997 881.004 800.517 881.3 799.334 881.3ZM807.618 879.23C807.027 877.16 806.139 875.681 805.843 874.202C799.334 845.518 793.416 818.311 787.794 791.992C787.202 789.035 787.498 786.965 791.049 783.416C819.75 755.914 847.563 729.004 875.081 702.685C875.969 701.798 876.856 700.911 878.632 699.728C879.223 701.206 879.815 702.389 880.111 703.276C887.804 726.638 895.793 750.887 904.078 776.615C904.966 779.276 904.67 781.642 901.415 784.895C872.122 814.171 842.237 844.335 811.761 875.385C810.577 876.568 809.394 877.455 807.618 879.23ZM1034.86 779.276C1006.16 809.144 976.57 839.603 946.39 870.949C944.615 872.724 943.135 873.907 941.36 874.794C938.993 875.977 936.626 876.568 933.667 876.568C894.018 877.751 854.961 879.23 817.087 880.708C814.72 880.708 812.353 880.708 809.394 880.708C811.761 878.047 813.24 876.272 814.72 874.794C845.196 844.926 874.785 815.65 903.782 787.261C904.966 786.078 906.149 785.191 907.333 784.304C909.404 783.121 912.067 782.234 915.026 782.234C952.899 779.868 991.365 777.206 1031.01 774.841C1033.38 774.841 1035.45 774.84 1038.71 774.545C1037.23 776.319 1036.34 777.798 1034.86 779.276ZM1010.89 773.362C978.346 774.841 946.982 776.615 915.913 778.093C913.546 778.093 911.771 778.093 910.587 778.093C900.527 750.296 890.763 723.977 881.59 698.841C883.07 698.249 892.242 697.362 904.67 696.179C934.85 693.813 964.735 691.743 995.507 689.378C997.283 689.378 999.058 689.378 1000.24 689.378C1012.96 715.105 1025.98 742.311 1039.89 770.996C1038.12 771.292 1026.58 772.475 1010.89 773.362ZM1043.44 770.109C1043.44 769.813 1043.15 769.813 1043.15 769.518C1042.26 767.743 1041.37 766.265 1040.78 765.082C1028.94 739.058 1017.99 714.218 1007.05 690.856C1005.86 688.195 1005.86 685.829 1009.12 682.576C1034.86 656.848 1059.71 631.416 1084.27 606.576C1085.46 605.393 1086.64 604.21 1088.42 602.732C1089.6 604.21 1090.49 605.393 1091.08 606.576C1103.21 627.572 1115.93 649.455 1129.25 672.226C1131.02 675.183 1131.02 677.549 1127.47 681.393C1101.44 708.895 1074.81 737.284 1047.58 766.265C1046.7 766.856 1045.22 768.039 1043.44 770.109ZM1243.17 868.879C1191.39 869.767 1142.86 870.654 1095.22 871.541C1094.04 871.245 1092.85 870.949 1091.97 870.062C1075.4 836.35 1060.01 804.708 1044.62 773.658C1068 771.883 1090.78 771.292 1113.86 769.813C1137.53 768.63 1161.5 767.448 1186.06 766.265C1205.88 797.907 1226.6 831.323 1249.08 867.697C1246.72 868.584 1244.94 868.879 1243.17 868.879ZM1253.52 866.218C1252.34 864.739 1250.86 863.852 1250.27 862.374C1230.74 829.253 1212.1 797.907 1194.64 768.039C1193.16 765.378 1192.86 763.307 1195.53 760.35C1223.34 728.708 1250.27 697.953 1276.6 668.086C1276.9 667.494 1277.49 667.198 1278.67 666.311C1280.15 667.79 1281.04 668.973 1281.93 670.156C1300.57 695.588 1320.1 722.498 1341.1 750.592C1343.47 753.549 1344.06 756.21 1340.81 759.759C1313.29 793.175 1285.48 827.479 1256.78 862.669C1255.89 863.852 1254.71 864.739 1253.52 866.218ZM1516.86 750.887C1489.64 785.782 1461.83 821.269 1433.13 858.234C1432.53 858.825 1431.94 859.416 1431.35 860.008C1428.98 861.782 1426.02 862.965 1421.59 862.965C1367.73 864.739 1315.36 866.514 1264.77 868.288C1262.69 868.288 1260.62 868.288 1257.66 868.288C1257.66 868.288 1257.37 868.288 1257.07 868.288C1258.26 866.218 1259.14 864.739 1260.33 863.261C1289.62 828.366 1318.62 794.654 1346.43 761.533C1347.02 760.942 1347.61 760.35 1348.21 759.759C1350.87 757.689 1354.42 756.802 1359.15 756.506C1407.97 753.549 1458.28 750.296 1509.76 747.043C1512.42 746.747 1515.09 746.747 1518.64 746.747C1518.05 748.521 1517.75 749.704 1516.86 750.887ZM1510.35 744.677C1478.4 746.451 1447.03 747.93 1416.26 749.409C1396.73 750.296 1377.2 751.479 1358.27 752.366C1353.24 752.661 1349.98 752.07 1347.32 748.817C1325.42 720.428 1304.41 693.813 1284.59 668.381C1283.7 667.198 1283.11 666.311 1281.93 664.241C1285.77 663.946 1288.44 663.65 1291.1 663.354C1334.3 660.101 1378.68 656.553 1424.25 653.004C1430.76 652.412 1434.6 653.3 1437.86 656.848C1461.53 682.28 1486.98 709.191 1513.61 737.284C1515.38 739.058 1516.86 741.128 1518.93 743.494C1515.38 744.086 1513.02 744.677 1510.35 744.677ZM1522.78 742.016C1520.71 739.946 1518.93 738.763 1517.75 737.284C1491.42 708.008 1466.26 680.506 1442.59 654.187C1439.93 651.23 1439.93 648.864 1442.59 645.315C1466.56 616.335 1489.34 587.65 1512.13 560.148C1513.02 559.261 1513.9 558.078 1515.38 556.599C1516.86 557.486 1518.34 558.078 1519.52 558.965C1544.68 582.031 1571.01 606.576 1599.12 632.304C1601.78 634.669 1602.67 636.739 1600.3 639.697C1576.04 671.93 1551.48 705.051 1526.03 739.354C1524.85 740.241 1524.26 740.537 1522.78 742.016Z" fill="url(#paint0_linear)"/>
<defs>
<linearGradient id="paint0_linear" x1="793.352" y1="345.921" x2="915.801" y2="709.39" gradientUnits="userSpaceOnUse">
<stop/>
<stop offset="0.3819" stop-color="#68421D"/>
<stop offset="0.4557" stop-color="#6F4720"/>
<stop offset="0.5638" stop-color="#835727"/>
<stop offset="0.6931" stop-color="#A37034"/>
<stop offset="0.8335" stop-color="#D09245"/>
<stop offset="1" stop-color="#E0B580"/>
</linearGradient>
</defs>
</svg>
