<svg width="48" height="48" viewBox="0 0 48 48" fill="none" xmlns="http://www.w3.org/2000/svg">
<path d="M18.2302 12.3429C14.2457 12.3429 10.9714 15.6126 10.9714 19.6016V29.7699C10.9714 33.7544 14.2412 37.0286 18.2302 37.0286H28.3984C32.3829 37.0286 35.6572 33.7589 35.6572 29.7699V19.6027C35.6572 15.6171 32.3874 12.3429 28.3984 12.3429H18.2302ZM18.2302 14.5871H28.3984C29.0572 14.5862 29.7097 14.7153 30.3185 14.967C30.9273 15.2186 31.4804 15.588 31.9462 16.0538C32.4121 16.5196 32.7814 17.0728 33.0331 17.6816C33.2848 18.2904 33.4139 18.9428 33.413 19.6016V29.7699C33.4139 30.4287 33.2848 31.0811 33.0331 31.6899C32.7814 32.2987 32.4121 32.8519 31.9462 33.3177C31.4804 33.7835 30.9273 34.1529 30.3185 34.4045C29.7097 34.6562 29.0572 34.7853 28.3984 34.7845H18.2313C17.5724 34.7855 16.9198 34.6565 16.3109 34.4049C15.702 34.1532 15.1487 33.7839 14.6827 33.3181C14.2168 32.8523 13.8474 32.2991 13.5956 31.6902C13.3438 31.0813 13.2147 30.4288 13.2156 29.7699V19.6027C13.2146 18.9439 13.3435 18.2913 13.5952 17.6824C13.8468 17.0734 14.2161 16.5201 14.6819 16.0542C15.1478 15.5883 15.701 15.2188 16.3099 14.9671C16.9187 14.7153 17.5713 14.5862 18.2302 14.5871ZM29.9413 17.0422C29.8076 17.0416 29.6752 17.0675 29.5515 17.1183C29.4279 17.1692 29.3156 17.2441 29.2211 17.3386C29.1266 17.4331 29.0517 17.5454 29.0009 17.669C28.95 17.7926 28.9241 17.9251 28.9247 18.0588C28.9247 18.6243 29.3758 19.0754 29.9413 19.0754C30.075 19.0761 30.2076 19.0503 30.3314 18.9995C30.4551 18.9487 30.5675 18.8739 30.6622 18.7793C30.7568 18.6848 30.8318 18.5724 30.8827 18.4488C30.9337 18.3251 30.9596 18.1925 30.959 18.0588C30.9596 17.925 30.9337 17.7924 30.8827 17.6688C30.8318 17.5451 30.7568 17.4327 30.6622 17.3382C30.5675 17.2437 30.4551 17.1688 30.3314 17.118C30.2076 17.0672 30.075 17.0414 29.9413 17.0422ZM23.3143 17.9533C19.6114 17.9533 16.5818 20.9829 16.5818 24.6858C16.5818 28.3886 19.6114 31.4182 23.3143 31.4182C27.0172 31.4182 30.0468 28.3886 30.0468 24.6858C30.0468 20.9829 27.0172 17.9533 23.3143 17.9533ZM23.3143 20.1974C25.8087 20.1974 27.8026 22.1914 27.8026 24.6858C27.8026 27.1801 25.8087 29.1741 23.3143 29.1741C20.8199 29.1741 18.826 27.1801 18.826 24.6858C18.826 22.1914 20.8199 20.1974 23.3143 20.1974Z" fill="white"/>
<circle cx="24" cy="24" r="23.25" stroke="white" stroke-width="1.5"/>
</svg>
