<svg width="980" height="914" viewBox="0 0 980 914" fill="none" xmlns="http://www.w3.org/2000/svg">
<g opacity="0.2">
<path fill-rule="evenodd" clip-rule="evenodd" d="M738.132 509.425L697.225 482.977L689.341 568.502L729.778 594L805.923 641.425L813.328 557.321L821.22 469.426L828.612 388.876L836.504 300.981L838.461 283.451L823.796 275.343L749.071 228.396L680.494 185.5L607.189 139.033L534.826 94.4648L527.405 183.309L513.565 345.123L511.6 365.023L504.724 433.489L503.716 450.548L517.431 459.127L576.079 495.116L592.156 506.074L623.969 490.306L629.123 439.846L596.725 419.826L583.484 411.012L584.017 394.187L591.909 306.293L598.818 228.348L634.527 250.275L665.98 269.58L740.705 316.527L754.42 325.106L753.412 342.165L745.52 430.06L741.837 466.78L738.132 509.425Z" fill="url(#paint0_linear)"/>
<path fill-rule="evenodd" clip-rule="evenodd" d="M288.657 346L280.773 431.525L278.06 461.85L276.094 481.75L270.168 549.744L268.689 565.855L282.875 575.383L340.574 611.843L347.449 543.378L340.574 611.843L357.6 622.33L383.376 638.534L455.26 684.523L463.144 598.998L455.26 684.523L481.985 700.257L507.76 716.462L479.747 730.346L463.603 738.348L451.308 730.247L378.944 685.679L343.71 663.517L337.088 659.702L312.733 643.976L265.203 613.714L237.058 597.501L222.872 587.972L224.351 571.862L228.022 538.697L233.192 483.497L235.426 454.592L236.401 447.012L239.631 404.602L245.776 341.822L247.985 320.027L249.455 306.287L251.413 288.757L257.347 218.392L191.823 250.868L174.255 259.576L173.264 271.896L164.91 356.471L160.706 406.461L157.493 444.13L152.826 490.801L150.575 524.445L141.734 612.81L140.255 628.92L154.441 638.449L230.116 684.925L257.782 702.558L298.218 728.056L329.671 747.362L371.998 774.288L443.412 819.327L455.236 826.478L471.38 818.476L550.198 779.411L582.011 763.643L629.492 740.11L660.829 724.577L586.104 677.631L561.278 660.956L488.915 616.387L462.669 599.233L436.894 583.028L389.835 553.715L362.169 536.082L347.983 526.553L349.461 510.443L353.132 477.278L357.353 422.549L360.066 392.224L363.258 360.479L370.663 276.374L373.376 246.049L382.873 241.342L420.383 222.751L413.465 303.065L405.111 387.641L405.069 399.49L403.104 419.39L396.228 487.855L394.749 503.965L409.885 513.023L467.583 549.483L473.51 481.488L467.583 549.483L483.66 560.44L494.065 567.112L565.478 612.151L633.581 655.282L708.306 702.229L787.599 662.927L712.874 615.981L572.887 526.861L562.483 520.189L501.003 480.873L487.758 473.243L473.572 463.714L475.05 447.604L476.999 432.444L482.942 359.71L483.934 347.39L499.205 182.5L507.097 94.6051L427.329 134.142L381.273 156.969L348.511 173.207L301.505 196.506L297.833 229.671L293.613 284.4L289.95 315.196L288.657 346ZM623.969 490.306L592.157 506.073L621.243 524.186L623.969 490.306Z" fill="url(#paint1_linear)"/>
</g>
<defs>
<linearGradient id="paint0_linear" x1="503.75" y1="450.544" x2="838.937" y2="284.411" gradientUnits="userSpaceOnUse">
<stop stop-color="#936D2E"/>
<stop offset="0.49" stop-color="#F2CD74"/>
<stop offset="1" stop-color="#936D2E"/>
</linearGradient>
<linearGradient id="paint1_linear" x1="140.243" y1="630.13" x2="647.705" y2="378.61" gradientUnits="userSpaceOnUse">
<stop stop-color="#936D2E"/>
<stop offset="0.49" stop-color="#F2CD74"/>
<stop offset="1" stop-color="#936D2E"/>
</linearGradient>
</defs>
</svg>
