<svg width="75" height="93" viewBox="0 0 75 93" fill="none" xmlns="http://www.w3.org/2000/svg">
<path fill-rule="evenodd" clip-rule="evenodd" d="M56.1017 22.5151L51.1537 25.4627L59.797 30.7936L64.6196 27.8459L73.6387 22.2642L65.1207 17.0588L56.2269 11.6025L48.0848 6.58519L39.191 1.12889L37.4373 0L35.8089 1.12889L26.9151 6.58519L18.7729 11.6025L10.0044 16.9333L1.48645 22.2642L10.5055 27.7205L26.9151 37.6923L28.9193 38.9467L35.8089 43.2741L37.5626 44.2775L39.191 43.2741L46.0805 38.9467L48.0848 37.8178V33.6158L43.0116 30.4173L39.191 32.8005L37.5626 33.7412L35.8089 32.8005L26.9151 27.3442L19.0234 22.5151L23.2198 19.881L26.9151 17.5605L35.8089 12.1042L37.4373 11.1007L39.191 12.1042L48.0848 17.5605L51.7801 19.881L56.1017 22.5151Z" fill="url(#paint0_linear)"/>
<path fill-rule="evenodd" clip-rule="evenodd" d="M15.2029 61.5872L23.8461 66.918L26.9151 68.7995L28.9193 70.0538L35.8089 74.2558L37.4373 75.2593L39.191 74.2558L46.0805 70.0538L39.191 65.7264L46.0805 70.0538L48.0848 68.7995L51.1537 66.918L59.797 61.7126L51.1537 56.3817L59.797 61.7126L62.8659 59.7057L65.9349 57.8242V61.5244V63.6568L64.4317 64.5348L55.9138 69.8657L51.7174 72.437L50.9658 72.9388L48.0221 74.6948L42.3226 78.1442L39.1284 80.2765L37.3747 81.28L35.7462 80.2765L32.4267 78.1442L26.8525 74.6948L23.9087 72.9388L23.1572 72.437L18.8355 69.8657L12.5097 65.9146L10.3176 64.5348L8.93967 63.6568L7.18597 62.5279L0.0458984 58.2005V66.8553V69.1758L1.29854 69.9284L9.81652 75.2593L14.8897 78.3323L18.7103 80.6528L23.4077 83.6005L26.8525 85.6074L35.7462 91.1891L37.3747 92.1926L39.1284 91.1891L48.0221 85.6074L51.3416 83.6005L56.1643 80.6528L59.8596 78.3323L64.9328 75.2593L73.4508 70.0538L74.8287 69.1758V67.0435V56.6326V52.4306V46.159V42.0198L65.9349 47.476L62.8659 49.2321L54.348 54.563L51.1537 56.4444L48.0848 58.3259L42.5105 61.7753L39.191 63.7822L37.4373 64.7857L35.8089 63.7822L32.4893 61.6499L26.9151 58.3259L23.8461 56.4444L20.6519 54.4375L12.1339 49.2321L9.06493 47.3506V46.0963V41.1417L17.2071 46.0963L25.7251 51.4272L26.9777 52.0543L28.982 53.3086L35.8715 57.636L37.4999 58.6395L39.2536 57.5106L46.1432 53.3086L39.2536 49.1067L46.1432 53.3086L48.1474 52.1797L49.4 51.4272L57.918 46.2217L66.0602 41.2672L74.9539 35.8109V25.3373L66.0602 30.7936L49.2748 40.9536L48.0221 41.7062L40.6315 46.159L39.1284 47.1625L37.3747 48.1659L35.7462 47.1625L34.243 46.159L26.8525 41.7062L25.5998 40.9536L8.93967 30.6681L0.0458984 25.2119V35.7481V41.8316V46.159V52.3679L3.3654 54.5002L8.93967 57.8242L12.0086 59.8311L15.2029 61.5872ZM48.0848 33.6158V37.8178L51.5295 35.6854L48.0848 33.6158Z" fill="url(#paint1_linear)"/>
<defs>
<linearGradient id="paint0_linear" x1="37.5639" y1="44.2737" x2="37.5639" y2="0" gradientUnits="userSpaceOnUse">
<stop stop-color="#936D2E"/>
<stop offset="0.49" stop-color="#F2CD74"/>
<stop offset="1" stop-color="#936D2E"/>
</linearGradient>
<linearGradient id="paint1_linear" x1="37.5021" y1="92.2575" x2="37.5021" y2="25.2286" gradientUnits="userSpaceOnUse">
<stop stop-color="#936D2E"/>
<stop offset="0.49" stop-color="#F2CD74"/>
<stop offset="1" stop-color="#936D2E"/>
</linearGradient>
</defs>
</svg>
