<svg width="333" height="161" viewBox="0 0 333 161" fill="none" xmlns="http://www.w3.org/2000/svg">
<g clip-path="url(#clip0)">
<path d="M7.72157 154.708L4.95706 160.552H0L11.3726 135.804H15.8149L27.1923 160.552H22.2257L19.5423 154.708H7.72157ZM13.6128 141.353L9.58524 150.739H17.7549L13.6128 141.353Z" fill="url(#paint0_linear)"/>
<path d="M52.5925 160.552H34.3896V135.804H38.8653V156.55H52.5925V160.552Z" fill="url(#paint1_linear)"/>
<path d="M59.8281 160.552V135.804H64.3038V160.552H59.8281Z" fill="url(#paint2_linear)"/>
<path d="M96.2291 160.552H92.416L78.7269 143.457V160.552H74.2607V135.804H78.1025L91.7582 152.861V135.785H96.2291V160.552Z" fill="url(#paint3_linear)"/>
<path d="M143.264 152.433L142.182 154.632C140.912 156.608 139.161 158.23 137.091 159.344C134.919 160.403 132.539 160.969 130.123 161H129.503C127.044 161.019 124.617 160.437 122.434 159.306C120.925 158.474 119.599 157.348 118.534 155.995C117.469 154.642 116.687 153.089 116.234 151.429C115.782 149.768 115.668 148.034 115.899 146.328C116.131 144.623 116.703 142.981 117.582 141.501C118.796 139.547 120.535 137.974 122.601 136.96C124.85 135.854 127.33 135.298 129.837 135.337C132.686 135.3 135.483 136.103 137.878 137.646C140.228 139.163 142.075 141.34 143.187 143.904L138.264 143.942C137.454 142.527 136.257 141.371 134.813 140.611C133.278 139.813 131.567 139.414 129.837 139.45C128.131 139.419 126.443 139.796 124.913 140.549C123.527 141.238 122.369 142.31 121.576 143.638C120.769 145.008 120.355 146.574 120.38 148.164C120.365 149.668 120.724 151.153 121.424 152.485C122.232 153.815 123.385 154.902 124.76 155.631C126.202 156.415 127.806 156.855 129.446 156.916H130.042C131.725 156.875 133.377 156.455 134.875 155.688C136.309 154.967 137.481 153.816 138.226 152.395L143.264 152.433Z" fill="url(#paint4_linear)"/>
<path d="M156.209 159.377C154.138 158.362 152.397 156.781 151.19 154.818C150.002 152.798 149.376 150.497 149.376 148.155C149.376 145.812 150.002 143.512 151.19 141.491C152.402 139.537 154.142 137.963 156.209 136.951C158.468 135.882 160.936 135.328 163.435 135.328C165.934 135.328 168.402 135.882 170.661 136.951C172.718 137.969 174.448 139.542 175.656 141.491C176.581 142.971 177.187 144.627 177.435 146.354C177.684 148.08 177.569 149.839 177.099 151.519C176.63 153.199 175.814 154.763 174.706 156.111C173.597 157.459 172.22 158.562 170.661 159.349C168.422 160.47 165.944 161.033 163.44 160.991C160.936 161.034 158.457 160.48 156.209 159.377ZM168.345 155.803C169.729 155.113 170.887 154.041 171.681 152.714C172.488 151.33 172.9 149.751 172.873 148.15C172.902 146.554 172.49 144.981 171.681 143.605C170.881 142.288 169.724 141.223 168.345 140.535C166.821 139.785 165.138 139.413 163.44 139.45C161.734 139.419 160.046 139.796 158.516 140.549C157.131 141.239 155.974 142.311 155.18 143.638C154.398 145.026 153.988 146.591 153.988 148.183C153.988 149.775 154.398 151.34 155.18 152.728C155.972 154.056 157.13 155.128 158.516 155.817C160.046 156.57 161.734 156.947 163.44 156.917C165.141 156.944 166.823 156.562 168.345 155.803Z" fill="url(#paint5_linear)"/>
<path d="M201.485 135.785V149.306C201.485 152.952 200.691 155.807 199.102 157.873C197.513 159.938 194.797 160.976 190.952 160.986C187.456 160.986 184.87 160.034 183.192 158.13C181.514 156.226 180.582 153.543 180.394 150.082H184.793C184.968 152.519 185.534 154.264 186.49 155.317C187.447 156.371 188.934 156.899 190.952 156.902C193.141 156.902 194.708 156.325 195.651 155.17C196.595 154.015 197.072 152.06 197.081 149.306V135.785H201.485Z" fill="url(#paint6_linear)"/>
<path d="M215.995 159.377C213.925 158.361 212.187 156.78 210.98 154.818C209.792 152.797 209.166 150.497 209.166 148.155C209.166 145.812 209.792 143.512 210.98 141.491C212.192 139.538 213.929 137.965 215.995 136.951C218.253 135.882 220.721 135.328 223.22 135.328C225.72 135.328 228.188 135.882 230.446 136.951C232.523 137.996 234.268 139.597 235.488 141.574C236.707 143.551 237.353 145.828 237.353 148.15C237.353 150.472 236.707 152.748 235.488 154.726C234.268 156.703 232.523 158.303 230.446 159.349C228.209 160.47 225.733 161.033 223.23 160.991C220.724 161.033 218.244 160.48 215.995 159.377ZM228.135 155.803C229.519 155.113 230.677 154.041 231.471 152.714C232.278 151.33 232.69 149.751 232.663 148.15C232.692 146.554 232.28 144.981 231.471 143.605C230.671 142.288 229.515 141.223 228.135 140.535C226.611 139.785 224.928 139.413 223.23 139.45C221.524 139.414 219.834 139.786 218.301 140.535C216.916 141.224 215.758 142.296 214.965 143.624C214.184 145.011 213.773 146.577 213.773 148.169C213.773 149.761 214.184 151.326 214.965 152.714C215.756 154.043 216.915 155.115 218.301 155.803C219.832 156.556 221.52 156.933 223.225 156.902C224.926 156.935 226.61 156.558 228.135 155.803Z" fill="url(#paint7_linear)"/>
<path d="M271.161 152.433L270.079 154.632C268.816 156.605 267.073 158.226 265.012 159.344C262.843 160.401 260.467 160.967 258.053 161H257.386C254.928 161.018 252.503 160.436 250.322 159.306C248.813 158.474 247.487 157.348 246.422 155.995C245.357 154.642 244.575 153.089 244.122 151.429C243.669 149.768 243.556 148.034 243.787 146.328C244.019 144.623 244.591 142.981 245.47 141.501C246.683 139.547 248.423 137.974 250.489 136.96C252.738 135.854 255.218 135.298 257.724 135.337C260.572 135.299 263.368 136.102 265.76 137.646C268.113 139.161 269.962 141.339 271.075 143.904L266.151 143.942C265.34 142.528 264.144 141.372 262.7 140.611C261.168 139.803 259.457 139.394 257.724 139.421C256.019 139.39 254.331 139.767 252.801 140.52C251.416 141.211 250.258 142.283 249.464 143.609C248.658 144.98 248.246 146.546 248.273 148.135C248.258 149.64 248.616 151.125 249.316 152.457C250.124 153.787 251.277 154.874 252.653 155.603C254.094 156.386 255.698 156.826 257.338 156.888H257.934C259.616 156.847 261.266 156.427 262.762 155.66C264.206 154.948 265.388 153.801 266.142 152.381L271.161 152.433Z" fill="url(#paint8_linear)"/>
<path d="M284.587 154.708L281.828 160.552H276.866L288.238 135.804H292.681L304.058 160.552H299.096L296.408 154.708H284.587ZM290.479 141.353L286.461 150.72H294.63L290.479 141.353Z" fill="url(#paint9_linear)"/>
<path d="M333 160.552H327.28L319.263 149.715H315.717L315.679 160.591H311.246V135.842H323.439C324.995 135.807 326.54 136.106 327.971 136.718C329.167 137.231 330.19 138.077 330.917 139.154C331.609 140.231 331.968 141.488 331.947 142.767C331.97 143.652 331.807 144.533 331.47 145.353C331.133 146.172 330.628 146.913 329.988 147.526C328.678 148.795 326.869 149.516 324.559 149.687L333 160.552ZM315.731 145.694H323.453C324.486 145.756 325.511 145.473 326.365 144.889C326.701 144.637 326.971 144.308 327.152 143.929C327.333 143.55 327.419 143.134 327.404 142.714C327.423 142.301 327.34 141.89 327.163 141.516C326.985 141.143 326.717 140.819 326.384 140.573C325.514 140.011 324.487 139.742 323.453 139.806H315.731V145.694Z" fill="url(#paint10_linear)"/>
<path d="M171.81 57.9834H171.671V51.5678H171.81C172.205 43.1355 174.612 34.9196 178.83 27.6044C176.1 22.9509 172.713 18.7144 168.773 15.0253C158.208 5.00844 145.683 0 131.2 0C115.989 0 103.056 5.3654 92.4012 16.0962C81.6419 26.7381 76.2622 39.617 76.2622 54.7328C76.2622 69.9215 81.6371 82.8353 92.3869 93.4741C103.038 104.211 115.971 109.578 131.185 109.575C141.444 109.632 151.501 106.733 160.151 101.227V109.551H185.975V91.5941C177.281 82.1705 172.559 70.967 171.81 57.9834ZM151.695 75.3075C145.957 80.9458 139.125 83.7649 131.2 83.7649C127.376 83.7858 123.586 83.049 120.049 81.5974C116.512 80.1458 113.298 78.0081 110.594 75.308C107.89 72.608 105.749 69.3992 104.295 65.8675C102.842 62.3357 102.104 58.5512 102.125 54.7328C102.109 46.8005 104.927 39.9787 110.58 34.2675C113.268 31.5394 116.482 29.3836 120.028 27.93C123.573 26.4764 127.377 25.7552 131.209 25.8101C139.134 25.8101 145.966 28.6292 151.705 34.2675C157.336 39.9787 160.151 46.8005 160.151 54.7328C160.205 58.5545 159.484 62.3477 158.031 65.8837C156.577 69.4197 154.422 72.6253 151.695 75.3075Z" fill="url(#paint11_linear)"/>
<path d="M174.798 51.5678C175.618 37.2008 181.31 25.0137 191.876 15.0063C202.441 4.99893 215.012 -0.00317141 229.588 1.50852e-06H258.553V25.7863H229.588C225.753 25.7339 221.947 26.4585 218.401 27.9162C214.854 29.3739 211.641 31.5345 208.954 34.2675C203.307 39.9787 200.484 46.8005 200.484 54.7328C200.463 58.5536 201.202 62.3405 202.657 65.8741C204.113 69.4078 206.256 72.6178 208.963 75.3182C211.671 78.0187 214.887 80.1558 218.428 81.6057C221.968 83.0556 225.761 83.7895 229.588 83.7649H258.553V109.551H229.588C215.012 109.551 202.441 104.549 191.876 94.5449C181.31 84.5407 175.618 72.3535 174.798 57.9834H174.66V51.5678H174.798Z" fill="url(#paint12_linear)"/>
</g>
<defs>
<linearGradient id="paint0_linear" x1="-6.84455" y1="135.813" x2="129.004" y2="249.955" gradientUnits="userSpaceOnUse">
<stop stop-color="#B47F2B"/>
<stop offset="0.21" stop-color="#E2C062"/>
<stop offset="0.33" stop-color="#F8DF7C"/>
<stop offset="0.52" stop-color="#FFF4A7"/>
<stop offset="0.73" stop-color="#F8DF7C"/>
<stop offset="1" stop-color="#B47F2B"/>
</linearGradient>
<linearGradient id="paint1_linear" x1="226.066" y1="6463.8" x2="6635.92" y2="10419.2" gradientUnits="userSpaceOnUse">
<stop stop-color="#B47F2B"/>
<stop offset="0.21" stop-color="#E2C062"/>
<stop offset="0.33" stop-color="#F8DF7C"/>
<stop offset="0.52" stop-color="#FFF4A7"/>
<stop offset="0.73" stop-color="#F8DF7C"/>
<stop offset="1" stop-color="#B47F2B"/>
</linearGradient>
<linearGradient id="paint2_linear" x1="205.645" y1="5813.41" x2="2332.83" y2="6136.15" gradientUnits="userSpaceOnUse">
<stop stop-color="#B47F2B"/>
<stop offset="0.21" stop-color="#E2C062"/>
<stop offset="0.33" stop-color="#F8DF7C"/>
<stop offset="0.52" stop-color="#FFF4A7"/>
<stop offset="0.73" stop-color="#F8DF7C"/>
<stop offset="1" stop-color="#B47F2B"/>
</linearGradient>
<linearGradient id="paint3_linear" x1="1231.33" y1="5224.57" x2="8105.95" y2="10340.5" gradientUnits="userSpaceOnUse">
<stop stop-color="#B47F2B"/>
<stop offset="0.21" stop-color="#E2C062"/>
<stop offset="0.33" stop-color="#F8DF7C"/>
<stop offset="0.52" stop-color="#FFF4A7"/>
<stop offset="0.73" stop-color="#F8DF7C"/>
<stop offset="1" stop-color="#B47F2B"/>
</linearGradient>
<linearGradient id="paint4_linear" x1="2620.67" y1="4231.19" x2="10015.3" y2="10874.1" gradientUnits="userSpaceOnUse">
<stop stop-color="#B47F2B"/>
<stop offset="0.21" stop-color="#E2C062"/>
<stop offset="0.33" stop-color="#F8DF7C"/>
<stop offset="0.52" stop-color="#FFF4A7"/>
<stop offset="0.73" stop-color="#F8DF7C"/>
<stop offset="1" stop-color="#B47F2B"/>
</linearGradient>
<linearGradient id="paint5_linear" x1="3543.96" y1="3335.76" x2="10956.4" y2="10165.5" gradientUnits="userSpaceOnUse">
<stop stop-color="#B47F2B"/>
<stop offset="0.21" stop-color="#E2C062"/>
<stop offset="0.33" stop-color="#F8DF7C"/>
<stop offset="0.52" stop-color="#FFF4A7"/>
<stop offset="0.73" stop-color="#F8DF7C"/>
<stop offset="1" stop-color="#B47F2B"/>
</linearGradient>
<linearGradient id="paint6_linear" x1="3273.86" y1="2490.05" x2="10142.6" y2="7312.88" gradientUnits="userSpaceOnUse">
<stop stop-color="#B47F2B"/>
<stop offset="0.21" stop-color="#E2C062"/>
<stop offset="0.33" stop-color="#F8DF7C"/>
<stop offset="0.52" stop-color="#FFF4A7"/>
<stop offset="0.73" stop-color="#F8DF7C"/>
<stop offset="1" stop-color="#B47F2B"/>
</linearGradient>
<linearGradient id="paint7_linear" x1="5064.33" y1="1750.43" x2="12476.4" y2="8580.26" gradientUnits="userSpaceOnUse">
<stop stop-color="#B47F2B"/>
<stop offset="0.21" stop-color="#E2C062"/>
<stop offset="0.33" stop-color="#F8DF7C"/>
<stop offset="0.52" stop-color="#FFF4A7"/>
<stop offset="0.73" stop-color="#F8DF7C"/>
<stop offset="1" stop-color="#B47F2B"/>
</linearGradient>
<linearGradient id="paint8_linear" x1="5796.73" y1="840.351" x2="13191.4" y2="7485.8" gradientUnits="userSpaceOnUse">
<stop stop-color="#B47F2B"/>
<stop offset="0.21" stop-color="#E2C062"/>
<stop offset="0.33" stop-color="#F8DF7C"/>
<stop offset="0.52" stop-color="#FFF4A7"/>
<stop offset="0.73" stop-color="#F8DF7C"/>
<stop offset="1" stop-color="#B47F2B"/>
</linearGradient>
<linearGradient id="paint9_linear" x1="6411.46" y1="119.47" x2="13559.5" y2="6708.36" gradientUnits="userSpaceOnUse">
<stop stop-color="#B47F2B"/>
<stop offset="0.21" stop-color="#E2C062"/>
<stop offset="0.33" stop-color="#F8DF7C"/>
<stop offset="0.52" stop-color="#FFF4A7"/>
<stop offset="0.73" stop-color="#F8DF7C"/>
<stop offset="1" stop-color="#B47F2B"/>
</linearGradient>
<linearGradient id="paint10_linear" x1="5869.57" y1="-762.886" x2="12721.4" y2="4289.62" gradientUnits="userSpaceOnUse">
<stop stop-color="#B47F2B"/>
<stop offset="0.21" stop-color="#E2C062"/>
<stop offset="0.33" stop-color="#F8DF7C"/>
<stop offset="0.52" stop-color="#FFF4A7"/>
<stop offset="0.73" stop-color="#F8DF7C"/>
<stop offset="1" stop-color="#B47F2B"/>
</linearGradient>
<linearGradient id="paint11_linear" x1="20818.6" y1="4700.8" x2="52093.9" y2="30972.9" gradientUnits="userSpaceOnUse">
<stop stop-color="#B47F2B"/>
<stop offset="0.21" stop-color="#E2C062"/>
<stop offset="0.33" stop-color="#F8DF7C"/>
<stop offset="0.52" stop-color="#FFF4A7"/>
<stop offset="0.73" stop-color="#F8DF7C"/>
<stop offset="1" stop-color="#B47F2B"/>
</linearGradient>
<linearGradient id="paint12_linear" x1="23521.4" y1="-6952.12" x2="52394.2" y2="11598.9" gradientUnits="userSpaceOnUse">
<stop stop-color="#B47F2B"/>
<stop offset="0.21" stop-color="#E2C062"/>
<stop offset="0.33" stop-color="#F8DF7C"/>
<stop offset="0.52" stop-color="#FFF4A7"/>
<stop offset="0.73" stop-color="#F8DF7C"/>
<stop offset="1" stop-color="#B47F2B"/>
</linearGradient>
<clipPath id="clip0">
<rect width="333" height="161" fill="white"/>
</clipPath>
</defs>
</svg>
