<svg width="48" height="48" viewBox="0 0 48 48" fill="none" xmlns="http://www.w3.org/2000/svg">
<path d="M34.4229 15.0857H13.5771C12.144 15.0857 10.9714 16.1657 10.9714 17.4857V31.8857C10.9714 33.2057 12.144 34.2857 13.5771 34.2857H34.4229C35.856 34.2857 37.0286 33.2057 37.0286 31.8857V17.4857C37.0286 16.1657 35.856 15.0857 34.4229 15.0857ZM33.9017 20.1857L25.381 25.0937C24.5342 25.5857 23.4658 25.5857 22.619 25.0937L14.0983 20.1857C13.9677 20.1181 13.8533 20.0269 13.762 19.9174C13.6708 19.808 13.6046 19.6826 13.5675 19.5489C13.5304 19.4152 13.5231 19.276 13.5461 19.1397C13.5691 19.0033 13.6219 18.8727 13.7013 18.7557C13.7807 18.6386 13.885 18.5377 14.008 18.4589C14.131 18.3801 14.2701 18.3251 14.4168 18.2973C14.5636 18.2694 14.7149 18.2693 14.8617 18.2968C15.0085 18.3244 15.1477 18.3791 15.2709 18.4577L24 23.4857L32.7292 18.4577C32.8523 18.3791 32.9915 18.3244 33.1383 18.2968C33.2851 18.2693 33.4364 18.2694 33.5832 18.2973C33.7299 18.3251 33.869 18.3801 33.992 18.4589C34.115 18.5377 34.2193 18.6386 34.2987 18.7557C34.3781 18.8727 34.4309 19.0033 34.4539 19.1397C34.4769 19.276 34.4697 19.4152 34.4325 19.5489C34.3954 19.6826 34.3292 19.808 34.238 19.9174C34.1468 20.0269 34.0324 20.1181 33.9017 20.1857Z" fill="white"/>
<circle cx="24" cy="24" r="23.25" stroke="white" stroke-width="1.5"/>
</svg>
