<svg width="1004" height="990" viewBox="0 0 1004 990" fill="none" xmlns="http://www.w3.org/2000/svg">
<g opacity="0.2">
<path fill-rule="evenodd" clip-rule="evenodd" d="M454.749 245.194L446.078 293.128L528.052 267.496L536.027 220.362L550.502 131.831L470.023 157.359L385.859 183.895L308.667 208.066L224.502 234.602L207.569 239.541L205.727 256.197L191.149 343.233L177.943 423.036L163.26 508.576L149.967 592.517L234.827 565.181L389.507 515.691L408.632 509.849L474.471 489.851L490.605 484.217L493.246 468.256L503.897 400.276L507.825 381.22L481.031 357.924L432.472 372.584L426.46 410.19L423.419 425.803L407.685 431.785L323.521 458.321L248.919 481.936L255.417 440.539L261.134 404.08L275.713 317.044L278.354 301.083L294.488 295.449L378.652 268.913L413.962 258.184L454.749 245.194Z" fill="url(#paint0_linear)"/>
<path fill-rule="evenodd" clip-rule="evenodd" d="M476.858 722.946L558.831 697.314L587.866 688.15L606.99 682.307L672.03 661.614L687.468 656.78L690.805 640.019L702.256 572.734L636.416 592.732L702.256 572.734L705.383 552.984L710.423 522.957L725.21 438.912L643.237 464.544L725.21 438.912L729.449 408.191L734.489 378.164L758.084 398.679L771.681 410.5L768.935 424.966L755.643 508.907L748.744 549.956L747.772 557.536L742.628 586.067L732.984 641.582L728.849 673.798L725.513 690.559L710.074 695.393L678.049 704.766L625.11 721.234L597.571 730.294L590.2 732.311L549.813 745.648L489.502 764.133L468.534 770.481L455.287 774.411L438.353 779.349L371.122 800.947L426.311 848.929L441.108 861.794L452.86 857.969L534.139 833.136L581.897 817.782L617.903 806.253L662.775 792.602L694.695 781.734L779.659 755.893L795.098 751.059L798.435 734.298L812.213 646.567L817.843 614.246L825.819 567.112L831.536 530.652L840.102 481.223L854.195 397.978L856.245 384.312L842.648 372.49L776.262 314.772L749.467 291.476L709.476 256.706L683.081 233.758L668.502 320.794L662.663 350.125L649.371 434.066L643.637 464.892L638.597 494.918L629.649 549.633L624.019 581.954L620.682 598.714L605.244 603.548L573.219 612.921L521.08 630.084L492.045 639.249L461.516 648.517L381.038 674.045L352.004 683.209L344.005 676.255L312.412 648.787L389.204 624.268L470.483 599.436L481.436 594.915L500.56 589.072L566.4 569.074L581.838 564.24L584.375 546.784L595.826 479.499L530.786 500.192L595.826 479.499L599.753 460.443L601.908 448.273L616 365.027L629.606 285.572L644.185 198.536L577.399 140.47L562.82 227.506L534.427 391.007L532.272 403.177L519.639 475.052L517.693 490.213L514.357 506.974L498.918 511.808L484.175 515.842L414.754 538.344L403.001 542.17L244.93 591.521L160.766 618.057L227.952 676.47L266.744 710.197L294.338 734.189L333.93 768.611L365.955 759.238L418.094 742.075L447.928 733.606L476.858 722.946ZM481.03 357.924L507.825 381.22L513.35 347.404L481.03 357.924Z" fill="url(#paint1_linear)"/>
</g>
<defs>
<linearGradient id="paint0_linear" x1="490.588" y1="484.187" x2="208.271" y2="238.733" gradientUnits="userSpaceOnUse">
<stop stop-color="#936D2E"/>
<stop offset="0.49" stop-color="#F2CD74"/>
<stop offset="1" stop-color="#936D2E"/>
</linearGradient>
<linearGradient id="paint1_linear" x1="796.219" y1="750.605" x2="368.802" y2="378.995" gradientUnits="userSpaceOnUse">
<stop stop-color="#936D2E"/>
<stop offset="0.49" stop-color="#F2CD74"/>
<stop offset="1" stop-color="#936D2E"/>
</linearGradient>
</defs>
</svg>
