<svg width="1139" height="619" viewBox="0 0 1139 619" fill="none" xmlns="http://www.w3.org/2000/svg">
<path fill-rule="evenodd" clip-rule="evenodd" d="M0.000300527 31.1448C3.76427 31.1448 7.25939 30.8763 11.0234 30.8763C16.6693 30.6078 20.1644 31.9502 23.3907 35.4406C45.7057 59.3363 66.9453 81.621 87.1094 102.832C88.4537 104.174 89.2602 105.517 90.8734 107.396C87.9159 107.665 85.4963 107.933 83.3454 107.933C56.191 109.276 28.499 110.618 0.000300527 112.229V114.914C28.499 113.034 56.191 111.155 83.6143 109.544C85.7651 109.276 87.916 109.276 90.6045 109.276C90.0668 110.35 90.0668 111.424 89.5291 112.229C71.5158 135.319 54.0402 157.872 36.8335 179.62C35.4892 181.5 33.6072 182.305 30.6498 182.574C20.4333 183.379 10.2168 184.185 0.000300527 185.259V187.675C11.5611 186.869 23.1218 185.796 34.6826 184.99C56.4599 204.053 76.8929 221.773 96.7882 239.225C64.7944 242.447 32.8006 245.669 0.000300527 248.891V251.307C31.4564 247.817 62.1059 244.326 92.2176 240.836C93.2931 240.836 94.0996 240.836 95.9816 240.568C95.175 241.642 94.9062 242.716 94.0996 243.521C78.7749 261.778 63.4501 279.499 48.932 296.682C47.3188 298.562 45.9745 299.636 42.2106 300.173C28.2301 302.052 14.2496 303.931 0.269156 305.811V307.422C14.5185 305.542 28.7678 303.931 43.0171 302.052C45.7057 301.784 47.5877 301.784 48.932 302.858C66.6764 315.745 83.6143 328.096 99.7456 339.909C100.014 340.178 100.283 340.446 100.821 340.983C98.6702 341.252 97.057 341.789 95.4439 341.789C66.6764 345.816 37.3712 349.843 7.25939 354.139C4.30198 354.676 2.15114 354.408 0.269156 353.602V359.509C1.88229 357.63 3.76427 356.556 7.52825 356.019C37.64 351.454 67.2141 346.89 95.9816 342.594C97.3259 342.326 98.6702 342.326 100.821 342.057C100.014 343.131 99.4767 343.937 98.939 344.474C85.2274 359.509 71.5158 374.276 58.3419 388.775C56.9976 390.386 55.3845 391.191 52.1582 391.728C34.9515 394.681 17.7447 397.366 0.269156 400.32V401.662C18.0136 398.977 35.4892 396.024 52.4271 393.339C55.1156 392.802 56.7288 393.07 58.073 393.876C73.3978 403.542 88.4537 412.67 102.703 421.262C102.972 421.53 103.241 421.799 104.047 422.336C74.7421 427.437 45.7057 432.539 15.8628 437.64C10.7545 434.955 5.3774 432.27 0.269156 429.317V431.733C3.76427 433.613 7.52825 435.76 11.0234 437.64C12.6365 438.445 12.9054 439.251 11.5611 440.593C7.7971 444.889 4.03313 449.185 0.269156 453.481V455.897C4.83969 451.064 9.41023 445.963 13.9808 440.862C15.325 439.519 16.6693 438.445 19.6267 437.908C47.05 432.807 73.9355 427.974 100.283 423.141C101.359 422.873 102.434 422.873 104.047 422.604C103.241 423.678 102.703 424.215 101.896 425.021C89.5291 437.64 77.4306 449.99 65.601 462.341C64.2567 463.684 63.1813 464.489 60.2239 465.026C40.3286 468.785 20.4333 472.812 0.000300527 476.84V477.645C23.6596 473.081 57.5353 466.637 63.9878 465.831C78.7749 473.618 93.0242 480.867 107.274 488.385C80.388 493.754 54.0402 499.124 26.8858 504.494C18.0136 500.467 9.14138 496.708 0.000300527 492.412V494.291C7.52825 497.782 15.0562 501.272 22.3153 504.763C23.6596 505.3 23.9284 506.105 22.853 507.179C15.0562 515.502 7.52825 523.557 0.000300527 531.612V533.223C8.33481 524.631 16.6693 516.308 25.0038 507.448C26.3481 506.105 27.9612 505.3 30.9187 504.494C55.3845 499.393 79.0437 494.56 102.703 489.459C103.778 489.19 105.123 488.922 107.005 488.653C105.929 489.727 105.392 490.264 104.585 490.801C93.2931 501.541 82.5389 512.28 71.7846 522.751C70.4404 524.094 69.0961 524.899 66.1387 525.436C44.3614 530.269 22.3153 535.102 -0.268555 539.935V540.472C23.6596 535.371 46.7811 530.538 69.6338 525.705C83.0766 531.612 95.9816 537.518 108.887 543.157C107.005 543.694 106.198 543.962 105.123 543.962C83.6143 548.795 61.5681 553.628 39.2532 558.461C36.8335 558.998 35.4892 558.998 33.8761 558.461C22.853 554.165 11.2922 549.869 -0.268555 545.573V546.647C10.7545 550.943 21.5087 555.239 31.7252 559.535C33.0695 560.072 33.0695 560.609 31.9941 561.683C22.0464 571.617 12.6365 581.283 3.22656 590.948C2.95771 591.217 2.42 591.754 1.88229 592.291C1.07572 592.291 0.269156 592.022 -0.268555 592.022V593.096C0.000300527 593.096 0.000300527 593.365 0.269156 593.365C0.000300527 593.365 -0.268555 593.365 -0.268555 593.633V594.17C0.000300527 594.17 0.269156 594.17 0.806866 593.902C0.538011 594.17 0.269156 594.439 -0.268555 594.976V595.781C0.000300527 595.513 0.000300527 595.513 0.269156 595.244C0.538011 594.976 1.07572 594.439 1.61343 593.902C2.42 594.17 3.22656 594.17 3.76427 594.439C16.1316 598.734 27.9612 602.762 39.522 606.521C40.5974 607.058 41.1351 607.326 40.0597 608.4C36.5646 611.622 33.3383 614.844 30.1121 618.066L31.4564 618.603C34.9515 615.381 38.7155 611.89 42.2106 608.669C43.286 607.863 44.3614 607.058 46.5123 606.521C66.4075 601.688 85.7651 596.855 105.123 592.022L107.274 590.948C87.1094 595.781 66.6764 600.614 45.9745 605.715C44.3614 606.252 43.0171 606.252 41.9417 605.984C29.5744 601.956 16.9382 597.929 3.76427 593.633C3.49542 593.633 3.49542 593.365 2.95771 593.096C4.57084 592.559 5.91511 592.291 6.99054 592.022C28.7678 586.921 50.0074 582.088 70.9781 577.255C73.1289 576.718 74.7421 576.45 76.0863 576.987C87.3782 581.282 98.4013 585.31 109.156 589.337C109.424 589.337 109.424 589.606 109.693 589.606L110.769 589.069C110.5 589.069 110.231 588.8 109.962 588.8C99.7456 584.773 89.2602 580.477 78.2372 575.913C77.1618 575.644 76.8929 575.107 77.6995 574.302C87.916 564.636 98.1325 554.702 108.618 544.499C108.887 544.231 109.156 544.231 109.693 543.694C110.5 543.962 111.037 544.231 111.575 544.499C122.061 549.332 132.277 554.165 141.956 558.998C143.031 559.535 143.3 559.803 142.225 560.877C132.277 570.006 122.598 579.135 112.919 587.995L114.533 587.189C123.943 578.598 133.89 570.006 143.569 561.146C144.913 560.072 146.258 559.266 148.677 558.729C167.766 554.165 186.317 549.601 204.868 545.305L207.825 543.962C197.878 546.647 156.474 556.313 145.451 558.461C134.428 553.628 122.867 548.527 111.037 543.157C114.264 542.083 165.077 530.538 179.596 527.584C189.812 532.954 199.76 538.055 209.439 543.157L210.514 542.62C210.245 542.62 209.976 542.351 209.707 542.351C201.104 537.518 192.232 532.417 183.091 527.316C182.015 526.779 181.746 526.242 183.091 525.168C193.845 515.234 204.868 505.031 216.16 494.56C216.429 494.291 216.966 494.023 217.773 493.217C218.58 493.754 219.117 493.755 219.655 494.291C228.527 499.93 236.862 505.568 245.196 510.938C246.003 511.475 246.272 512.012 244.927 513.086C234.173 522.483 223.688 531.88 213.471 541.277L215.353 540.472C225.57 531.612 236.055 522.483 246.541 513.354C247.616 512.549 248.691 511.743 250.573 511.206C269.124 506.911 287.138 502.883 305.151 498.587L308.108 497.245C297.354 499.93 254.875 509.327 248.423 510.401C239.013 504.763 229.334 498.587 219.117 492.412C222.344 491.338 277.997 479.524 285.256 478.182C293.859 484.357 301.925 490.264 309.99 496.171L311.066 495.634C310.797 495.365 310.259 495.097 309.99 495.097C303 489.727 296.01 484.089 288.482 478.451C287.407 477.645 287.675 476.571 289.289 475.229C300.58 465.294 311.872 455.092 323.433 444.889C323.971 444.352 324.777 443.815 325.853 443.01C326.659 443.547 327.197 443.815 327.466 444.352C334.456 450.796 341.178 456.971 347.63 463.147C348.437 463.952 348.437 464.758 346.824 466.1C335.532 475.766 324.777 485.163 314.023 494.56L313.754 494.828L315.099 494.023C326.122 484.894 337.145 475.497 348.437 466.1C349.781 465.026 350.856 464.22 353.276 463.684C370.752 459.925 388.227 456.166 405.165 452.407L407.316 451.333C388.496 455.36 369.945 459.119 350.856 463.147C343.328 456.434 335.263 449.722 327.197 442.741C330.154 441.667 384.732 430.659 390.378 430.122C397.099 437.103 403.552 443.547 410.005 450.259L411.08 449.722C410.811 449.453 410.542 449.454 410.542 449.185C404.896 443.01 399.25 436.297 393.336 429.854C392.798 429.317 392.798 428.78 393.873 427.706C406.778 416.698 419.683 405.421 432.857 394.144C433.126 393.876 433.395 393.876 433.933 393.339C434.47 393.607 434.739 393.876 435.008 394.144C440.385 401.394 445.493 408.643 450.602 415.624C451.139 416.429 451.139 416.966 449.795 418.04C445.225 421.799 440.654 425.558 436.352 429.317C428.824 435.76 421.296 441.936 413.768 448.38L415.919 447.306C427.48 437.908 439.579 428.243 451.408 418.309C452.215 417.503 453.29 416.966 454.366 416.698C454.634 416.698 455.172 416.429 455.71 416.429C472.648 412.939 489.048 409.448 505.448 405.958L507.33 405.152C490.392 408.374 473.454 411.865 455.979 415.355C454.366 415.624 453.29 415.624 452.752 415.087C447.375 408.106 441.461 400.857 435.546 393.339C435.277 393.07 435.277 393.07 435.277 392.533C436.621 392.265 437.697 391.996 438.503 391.728C456.785 388.238 474.53 385.016 492.274 381.794C494.156 381.525 495.232 381.257 495.769 382.331C500.34 389.849 505.179 396.829 509.481 403.81C509.481 403.81 509.481 404.079 509.75 404.079H510.019L511.094 403.542H511.363C511.094 403.273 511.094 403.273 510.825 403.005C506.792 396.024 502.76 388.775 498.458 381.525C497.92 380.72 497.92 380.183 499.264 379.109C512.976 367.832 526.688 356.287 540.668 344.474C540.937 344.205 541.475 343.937 542.012 343.4C542.281 343.937 542.55 344.205 542.819 344.742C546.583 352.797 549.809 360.852 553.304 368.369C553.573 369.175 553.573 369.712 551.96 371.054C538.786 381.794 525.881 392.265 513.245 402.468L513.514 402.199L514.858 401.662H515.127C527.494 391.996 539.862 382.062 552.229 372.128C553.573 371.054 554.917 370.249 556.531 369.712C556.799 369.712 557.068 369.443 557.606 369.443C573.737 366.221 589.331 363.268 604.925 360.046H605.193L607.882 358.704C599.01 360.583 563.521 367.295 555.724 368.369C551.691 360.315 547.658 351.991 543.088 342.863C544.701 342.326 550.885 341.252 558.95 339.641C571.318 337.493 583.147 335.345 594.977 333.465C597.128 333.197 598.741 332.928 600.085 332.66C603.311 341.252 606.538 349.575 609.495 357.63H609.764L610.57 357.093H610.839L610.57 356.824C608.151 349.038 605.462 340.983 602.774 332.66C602.505 331.586 603.311 330.781 604.656 329.707C616.485 320.041 628.584 310.375 640.682 300.441C642.833 298.83 644.984 296.951 646.866 295.34C647.673 294.803 648.479 293.997 649.555 293.192C649.823 293.729 649.823 294.266 650.092 294.534C651.974 303.394 653.856 312.255 655.738 320.578C656.007 321.383 655.738 322.189 654.125 323.531C640.145 334.539 626.433 345.279 612.99 356.019H613.259L614.872 355.213L615.141 354.945C628.315 344.742 641.758 334.271 655.2 323.8C656.007 322.994 656.814 322.457 657.889 322.189C658.158 322.189 658.696 321.92 658.964 321.92C674.289 319.235 689.614 316.282 704.67 313.597L707.627 312.255C703.863 313.06 695.798 314.403 687.194 316.014C678.86 317.356 670.794 318.967 662.191 320.309C661.653 320.309 660.846 320.578 660.309 320.578C658.696 320.846 657.889 320.578 657.62 319.504C655.738 311.449 653.318 303.126 651.168 294.534C651.168 293.997 650.899 293.46 650.899 292.923C653.318 292.386 662.997 290.775 673.752 288.896C676.44 288.359 679.129 288.091 681.817 287.554C692.571 285.943 702.519 284.332 704.939 284.063C706.283 293.46 707.896 302.589 709.24 311.449L710.316 310.912C710.316 310.644 710.047 310.375 710.047 309.838C709.24 301.784 708.165 293.192 707.09 284.6C706.821 283.258 707.627 282.184 709.778 280.573C724.296 269.028 739.083 257.483 754.139 245.4C754.946 244.863 756.021 244.058 757.097 243.253C757.097 244.058 757.365 244.595 757.365 245.132C757.634 254.798 757.634 263.926 757.903 272.787C757.903 274.129 757.365 274.934 755.215 276.545C740.965 287.554 726.985 298.562 713.004 309.033L712.736 309.301L714.08 308.496C728.06 298.025 742.041 287.285 756.29 276.545C757.903 275.203 759.247 274.666 761.129 274.129C775.648 271.713 790.166 269.296 804.146 266.88L806.297 265.806C790.703 268.222 775.648 270.639 759.785 273.055C759.247 263.121 758.71 252.918 758.172 242.447C760.861 241.642 805.491 235.198 809.792 234.929C809.523 244.863 809.255 254.798 808.986 264.463L810.061 263.926C810.061 263.658 810.061 263.389 810.061 263.389C810.599 254.261 811.405 244.863 811.943 235.198C811.943 234.392 812.212 233.587 813.825 232.244C830.225 219.625 846.894 206.738 863.563 193.582C863.832 193.313 864.101 193.045 865.176 192.508C865.176 193.313 865.176 193.582 865.176 194.119C863.563 204.59 862.219 214.792 860.875 224.727C860.606 225.801 860.068 226.875 858.186 228.217C842.593 240.031 827.537 251.576 812.481 262.852L814.632 261.778C829.15 251.039 843.937 240.031 858.993 228.754C860.606 227.68 861.95 226.875 863.563 226.606C877.275 224.458 890.986 222.31 904.429 220.431L906.58 219.357C892.869 221.236 878.888 223.116 864.639 225.264C863.294 225.532 862.488 225.264 862.757 224.458C863.832 214.256 865.176 204.053 866.252 193.045C866.252 192.776 866.521 192.508 866.521 191.702C867.865 191.434 868.94 191.434 869.747 191.165C884.265 189.554 898.514 187.675 912.495 186.064C914.377 185.796 914.915 186.332 914.646 187.675C912.764 197.878 910.882 207.543 909.269 216.94C909.269 217.209 909 217.746 909 218.014L910.344 217.477C910.344 217.209 910.344 216.94 910.344 216.672C912.495 207.006 914.646 196.804 917.065 186.332C917.334 185.259 917.603 184.453 919.485 183.111C936.692 170.223 953.899 157.067 971.643 143.642C972.181 143.374 972.45 143.105 973.525 142.3C973.256 143.105 973.256 143.374 973.256 143.911C970.03 155.188 966.804 166.464 963.846 176.935C963.577 178.009 963.04 178.815 961.158 180.426C944.758 192.508 928.895 204.321 913.033 216.135L914.646 215.329C929.702 204.321 945.026 193.045 960.62 181.768C963.04 179.889 964.922 179.083 966.804 178.815C979.709 177.204 992.345 175.324 1004.71 173.713L1007.67 172.371C1000.14 173.713 971.643 177.204 965.459 177.472C968.417 166.196 971.374 154.382 974.869 141.495C990.732 139.884 1005.79 138.541 1020.57 136.93C1016.81 148.744 1013.05 160.289 1009.55 171.565L1010.63 171.028C1010.63 170.76 1010.63 170.76 1010.63 170.492C1014.39 159.752 1018.42 148.744 1022.19 137.199C1022.73 135.856 1023.8 134.782 1025.68 133.44C1040.47 122.432 1055.26 111.424 1070.31 100.147C1073 98.2675 1075.69 96.1195 1078.11 94.2401C1079.19 93.4346 1080.26 92.8977 1081.6 91.8237C1081.34 92.6292 1081.07 93.4346 1080.8 93.9716C1075.96 106.054 1071.12 117.599 1066.55 128.875C1066.01 129.949 1065.74 131.023 1063.59 132.366C1046.38 144.985 1029.45 157.335 1013.05 169.418L1014.93 168.612C1031.06 157.067 1047.19 145.253 1063.86 133.44C1065.47 132.366 1066.55 131.56 1067.89 131.56C1075.42 130.755 1082.95 129.681 1090.48 128.875L1091.01 127.801C1084.29 128.338 1077.3 129.144 1070.31 129.949C1068.43 130.218 1068.16 129.681 1068.7 128.07C1073 117.062 1077.3 105.785 1081.87 93.9716C1082.14 93.1661 1082.68 92.3607 1082.95 91.2867C1084.02 91.0182 1084.83 91.0182 1085.64 91.0182C1092.9 90.4812 1100.16 89.9443 1107.41 89.4073L1107.95 88.0648C1100.42 88.8703 1092.9 89.4073 1085.37 90.2127C1085.1 90.2127 1084.83 90.2127 1084.29 90.2127C1085.37 89.4073 1085.91 88.6018 1086.98 88.0648C1097.2 80.5471 1107.41 73.0293 1117.9 65.5116L1118.44 64.4376C1107.41 72.7608 1096.39 80.8156 1085.64 88.8703C1085.37 89.1388 1084.83 89.4073 1084.02 89.9443C1084.29 89.1388 1084.56 88.6018 1084.83 87.7963C1089.94 75.1773 1095.59 62.0212 1100.96 48.3282C1101.5 46.9857 1102.31 45.6433 1104.46 44.0323C1115.48 35.7091 1126.77 27.1174 1138.06 18.5257L1138.6 16.9148C1127.31 25.5065 1116.02 33.8297 1105 42.1529C1102.04 44.3008 1100.42 45.1063 1098.27 45.1063C1084.29 45.9118 1070.04 46.9857 1055.79 47.7912C1054.99 47.7912 1054.18 47.7912 1053.11 47.7912C1054.18 46.9857 1054.99 46.1802 1055.79 45.6433C1075.96 30.3393 1096.66 14.4983 1117.63 -1.34263C1119.78 -2.95357 1121.13 -3.75904 1122.74 -3.75904C1122.74 -3.75904 1122.74 -3.75904 1123.01 -3.75904H1118.98C1118.71 -3.49055 1118.17 -3.22206 1117.9 -2.68508C1096.39 13.9613 1075.42 30.3393 1054.72 46.1803C1054.45 46.4487 1053.91 46.7172 1052.84 47.5227C1053.11 46.4487 1053.38 45.6433 1053.64 44.5693C1058.75 30.0708 1063.86 15.3038 1069.24 -0.268664C1069.78 -1.61112 1070.31 -2.68508 1071.39 -3.75904H1050.96C1039.93 -3.49055 1028.91 -2.95357 1017.89 -2.41659C1017.35 -2.41659 1016.81 -2.41659 1015.74 -2.41659C1016.27 -2.68508 1016.54 -3.22206 1017.08 -3.49055H1016C1015.74 -3.49055 1015.74 -3.22206 1015.47 -3.22206V-3.49055H1013.85C1013.58 -3.22206 1013.58 -2.68508 1013.32 -2.1481C1011.7 -2.1481 1010.63 -1.87961 1009.55 -1.87961C993.151 -1.61112 976.482 -1.34263 959.545 -1.07414C957.394 -1.07414 956.587 -1.61112 956.587 -3.49055H957.125C957.125 -2.95357 956.856 -2.68508 956.856 -2.1481C956.587 -0.537155 955.512 0.805299 953.63 2.41624C932.121 20.4051 911.151 37.857 890.449 55.0404C889.642 55.5774 888.836 56.1144 887.76 56.9199C887.76 55.8459 887.76 55.0405 888.029 54.235C890.18 38.394 892.6 21.7476 895.019 4.56417C895.288 2.68474 895.826 1.34228 898.246 -0.805645C899.321 -1.61112 900.396 -2.68508 901.472 -3.49055H899.321C899.052 -3.22206 898.783 -3.22206 898.514 -2.95357C895.557 -0.537155 893.406 0.536808 890.718 0.8053C871.36 1.34228 851.734 2.14775 831.569 2.95323C830.494 2.95323 829.419 2.95323 827.805 2.95323C829.15 1.61077 829.956 0.536809 831.032 -0.268664C832.107 -1.34263 833.451 -2.41659 834.527 -3.49055H833.183C832.376 -2.68508 831.301 -1.87961 830.225 -1.07414C829.419 -0.268663 828.343 0.536809 826.999 1.61077C826.73 0.8053 826.461 0.268318 826.461 -0.537155C826.461 -1.61112 826.461 -2.68508 826.73 -3.49055H825.386C825.386 -2.41659 825.386 -1.07414 825.386 -0.000172615C825.386 0.8053 825.117 1.34228 825.117 2.14775C824.848 2.41624 824.579 2.41624 824.579 2.68474C824.579 2.68474 824.31 2.95323 824.042 2.95323C823.235 2.95323 822.428 3.22172 821.622 3.22172C799.576 3.49021 776.992 4.02719 753.87 4.29568C753.87 1.87926 753.601 -0.805645 753.601 -3.49055H750.644C750.644 -1.61112 750.644 0.268318 750.913 2.14775C750.913 4.83266 750.106 6.7121 746.88 9.39701C726.178 28.4599 706.014 46.9857 686.388 65.2431C685.043 66.3171 683.968 67.391 682.086 69.002C681.817 67.6595 681.548 66.854 681.279 65.7801C679.129 48.3282 677.247 30.0708 674.827 11.008C674.558 8.86002 675.096 6.98059 677.515 4.56417C680.473 1.87926 683.161 -1.07414 686.119 -3.75904H682.893C680.473 -1.61112 678.053 0.8053 675.902 2.95323C673.751 5.10115 671.87 6.44361 668.912 6.44361C657.351 6.7121 645.791 7.24908 633.961 7.51757C620.787 8.05455 607.344 8.59153 593.901 8.86002C592.557 8.86002 590.944 8.86002 589.062 8.86002C590.138 7.51757 590.944 6.7121 591.751 5.63813C594.977 2.41624 598.203 -0.537154 601.429 -3.75904H599.547C596.859 -0.805645 593.901 1.87926 591.213 4.83266C590.406 5.63813 589.331 6.7121 587.987 7.78606C587.449 6.7121 586.911 5.90663 586.911 4.83266C586.374 1.87926 585.567 -0.805645 585.029 -3.75904H582.341C583.416 0.268318 584.492 4.29568 585.298 8.32304C584.223 8.59153 577.501 9.12852 568.091 9.39701C545.508 9.6655 522.386 10.2025 498.727 10.471C498.458 10.471 497.92 10.471 497.651 10.471C495.769 10.471 494.425 9.93399 493.618 8.05455C492.274 4.02719 490.661 -0.000172615 489.317 -4.02754H485.015C486.359 0.268318 487.973 4.56417 489.317 8.86002C490.123 11.2764 489.855 13.1559 487.166 15.8408C466.464 37.857 446.569 59.3363 426.942 80.0101C426.136 80.8156 425.329 81.621 423.985 82.695C423.178 81.621 422.641 81.0841 422.103 80.2786C413.231 60.6788 404.09 40.005 394.142 18.2572C392.798 15.5723 393.604 13.4244 396.024 10.471C400.326 5.63813 404.627 0.8053 408.929 -4.29603H405.165C400.863 0.536808 396.562 5.10115 392.26 9.93399C391.185 11.008 390.378 11.8134 389.034 12.3504C388.765 12.3504 388.496 12.6189 388.227 12.6189C387.958 12.6189 387.69 12.8874 387.421 12.8874C386.614 13.1559 386.076 13.1559 385.001 13.1559C352.738 14.2298 319.4 15.3038 285.256 16.3778C283.911 16.3778 282.836 16.3778 280.147 16.1093C281.761 14.2298 282.836 12.8874 283.911 11.8134C288.482 6.44361 293.052 1.07379 297.892 -4.56452H294.397C289.826 1.07379 285.525 6.44361 280.954 11.8134C280.147 12.6189 279.341 13.4244 278.265 14.4983C277.459 13.4244 276.383 12.8874 275.846 11.8134C272.619 6.44361 269.393 0.8053 266.167 -4.83301H262.403C266.974 2.41624 271.275 9.39701 275.577 16.3778C238.206 22.0161 198.953 22.5531 157.818 23.3585C151.903 15.8408 145.989 8.05455 139.805 -0.000172615H134.428C139.805 6.98059 144.913 13.9614 150.021 20.9421C152.441 24.164 152.71 26.8489 150.021 30.3393C142.762 40.005 135.503 49.6706 128.513 59.0678L128.782 59.3363C117.759 74.1033 107.005 88.6018 96.5193 102.832C95.7128 103.906 94.9062 104.711 93.2931 106.322C91.6799 104.711 90.6045 103.906 89.7979 103.1C70.1715 81.0841 49.2008 57.7254 26.8858 33.0242C24.1973 30.0708 23.9284 27.6544 26.0793 24.701C31.4564 16.6463 37.1023 8.32304 42.7483 -0.000172615H37.64C32.5318 7.24908 27.6924 14.4983 22.5841 21.4791C19.8956 25.5065 16.6693 27.3859 9.94794 27.3859C6.72168 27.3859 3.22656 27.6544 -0.268555 27.6544V31.1448H0.000300527ZM107.542 547.721C97.057 557.387 86.8405 567.052 76.624 576.45C75.5486 577.524 74.4732 578.061 72.0535 578.598C50.5451 583.699 28.499 588.8 6.45283 594.17C5.64626 594.439 4.83969 594.439 3.22656 594.976C4.30198 593.902 4.83969 593.365 5.3774 592.828C14.7873 583.699 24.735 574.302 34.4138 564.636C35.758 563.294 37.3712 562.488 40.3286 561.951C62.1059 557.118 83.6143 552.017 104.854 547.184C105.929 546.916 107.274 546.647 108.887 546.379C108.349 546.916 107.811 547.184 107.542 547.721ZM99.4767 338.567C84.6897 327.022 69.0961 314.94 52.6959 302.589C50.8139 301.247 50.2762 299.904 51.8894 297.756C66.1387 280.304 80.6569 262.584 95.4439 244.326C96.2505 243.521 97.057 242.447 98.4013 241.373C99.7456 242.447 101.09 243.253 101.896 244.326C117.49 258.557 132.277 272.25 146.526 285.137C148.408 287.017 148.408 288.359 146.526 290.775C132.546 306.616 118.834 322.457 105.392 337.493C104.585 338.567 103.778 339.372 102.434 340.715C101.359 339.641 100.283 339.104 99.4767 338.567ZM358.653 157.335C369.676 174.787 380.162 191.165 390.109 207.275C388.765 207.543 387.69 207.812 386.883 208.08C360.535 210.765 333.65 213.45 305.958 216.135C303.807 216.403 302.194 216.135 301.118 214.793C289.289 199.489 276.652 183.379 263.478 166.464C263.21 166.196 263.21 165.927 262.672 164.853C296.279 162.168 327.735 159.752 358.653 157.335ZM263.478 163.242C264.285 162.168 264.823 161.094 265.36 160.289C283.374 140.689 301.925 120.284 320.745 99.6099C321.551 98.8045 322.358 97.999 323.164 97.462C325.046 96.388 326.928 95.8511 329.617 95.5826C359.191 93.7031 387.958 91.8237 415.919 89.9443C417.532 89.9443 419.146 89.9443 421.296 89.6758C420.49 90.7497 419.952 91.8237 419.146 92.6292C399.519 112.766 380.43 132.634 361.879 151.966C361.611 152.234 361.342 152.503 361.073 152.771C359.191 154.114 357.04 154.919 354.083 155.188C326.659 157.604 298.43 160.02 269.662 162.705C267.78 162.974 266.167 162.974 263.747 162.974C263.747 163.242 263.747 163.242 263.478 163.242ZM541.475 141.226C565.134 139.347 587.987 137.736 610.57 135.856C612.721 135.588 613.797 136.125 614.066 137.467C617.83 152.503 621.594 166.733 625.089 180.426C625.089 180.694 625.089 180.963 625.089 181.768C613.528 183.379 602.236 184.185 590.675 185.259C578.846 186.332 567.016 187.675 554.917 188.749C549.54 173.713 543.626 158.141 537.711 141.495C537.98 141.495 538.248 141.226 538.517 141.226C539.593 141.494 540.668 141.226 541.475 141.226ZM538.786 139.884C539.862 138.541 540.937 137.736 541.744 136.662C560.563 118.941 579.921 100.952 599.547 82.695C600.623 81.8895 601.429 81.0841 602.505 80.5471C603.58 80.0101 604.925 79.7416 606.269 79.4731C629.928 78.1307 652.781 76.5197 675.365 74.9088C676.44 74.9088 677.516 74.9088 679.129 74.9088C677.784 76.2512 676.978 77.0567 676.171 77.8622C656.276 95.8511 636.918 113.303 617.83 130.486C616.485 131.829 615.141 132.634 613.528 132.903C612.99 132.903 612.453 133.171 611.915 133.171C589.062 135.319 565.672 137.467 541.744 139.615C540.937 139.884 540.13 139.884 538.786 139.884ZM659.771 153.845C668.106 146.596 676.44 139.347 684.775 132.097C686.925 130.218 688.807 129.144 691.496 128.875C711.66 126.996 731.824 125.117 751.451 123.506C752.526 123.506 753.333 123.506 754.946 123.506C753.064 125.117 751.988 126.191 750.913 126.996C732.9 142.031 715.155 157.067 697.68 171.565C695.26 173.445 693.378 174.519 690.689 174.787C682.086 175.861 673.214 176.667 664.342 177.741C653.587 179.083 642.564 180.157 631.541 181.5C630.735 181.5 629.928 181.5 628.315 181.768C628.584 181.5 628.853 181.231 629.122 180.963C630.197 180.157 631.003 179.352 631.81 178.815C640.951 170.492 650.361 162.168 659.771 153.845ZM755.215 123.774C755.483 124.58 755.483 125.385 755.483 126.191C755.752 140.152 756.021 153.577 756.559 166.464C756.559 167.807 756.29 168.881 754.139 170.492C736.395 185.259 719.188 199.489 702.25 213.719C701.712 214.256 701.175 214.524 700.099 215.329C699.83 214.524 699.83 213.987 699.562 213.45C698.217 201.905 696.873 189.554 695.529 177.204C695.26 175.861 695.798 174.787 697.68 172.908C715.693 157.604 733.706 141.763 752.526 125.922C753.333 125.385 754.139 124.848 755.215 123.774ZM692.84 176.398C694.991 190.091 696.873 203.247 698.755 215.866C697.411 216.403 685.043 218.014 671.601 219.894V219.625C661.115 220.968 650.361 222.042 639.607 223.384C638.8 223.384 637.994 223.653 637.187 223.653C633.961 210.765 630.466 197.609 626.971 183.111C650.092 180.694 671.601 178.546 692.84 176.398ZM697.948 217.209C696.335 218.551 695.529 219.357 694.453 220.162C678.591 233.05 662.728 245.937 647.404 258.557C645.791 259.899 644.446 260.704 642.833 261.241C642.295 261.51 641.758 261.51 640.951 261.51C623.207 264.195 604.925 266.88 586.642 269.833C585.567 270.102 584.492 270.102 583.147 270.37C583.954 269.565 584.492 269.028 585.029 268.491C601.161 255.066 617.292 241.373 633.961 227.412C635.036 226.338 636.112 225.801 637.456 225.532C637.725 225.532 637.994 225.264 638.263 225.264C657.889 222.579 677.247 219.894 696.066 217.477C696.604 217.209 697.142 217.477 697.948 217.209ZM634.23 222.847C634.499 224.458 633.961 225.801 631.541 227.68C615.679 241.105 600.354 254.529 585.029 267.685C584.223 268.222 583.416 269.028 582.61 269.833C582.341 269.833 582.341 270.102 582.072 270.102L581.803 269.833C581.534 269.028 581.265 268.491 580.996 267.954C577.501 257.483 574.006 246.474 570.242 235.198C569.705 233.587 570.242 232.244 572.662 230.365C588.524 216.135 604.925 201.905 621.325 187.138C622.4 186.064 623.744 184.99 625.089 183.916L625.358 184.185C625.626 184.99 625.895 185.796 626.164 186.332C629.122 198.952 631.541 211.034 634.23 222.847ZM180.402 474.692C158.625 479.256 136.579 483.82 114.264 488.385C112.919 488.653 111.575 488.922 109.962 489.19C110.5 488.653 110.769 488.116 111.306 487.579C123.136 476.034 135.234 464.489 147.333 452.407C148.408 451.333 149.484 450.527 151.903 450.259C176.1 445.426 199.76 440.862 222.881 436.297C223.419 436.297 223.957 436.297 225.301 436.029C224.226 437.103 223.419 437.908 222.612 438.445C210.514 449.722 198.684 460.73 187.392 471.47C185.51 473.081 183.628 473.886 180.402 474.692ZM216.698 494.56C216.966 494.828 217.235 494.828 217.504 495.365C216.429 495.634 215.622 495.902 214.816 496.171C193.576 500.735 172.336 505.031 150.29 509.595C148.408 509.864 147.333 510.132 146.258 509.595C134.697 503.42 122.867 497.245 110.5 490.801C110.231 490.801 110.231 490.533 109.693 489.996C111.575 489.727 112.651 489.19 113.995 488.922C136.848 484.357 159.163 480.061 180.94 475.497C183.091 474.96 184.704 474.96 186.048 475.497C196.533 482.209 206.75 488.385 216.698 494.56ZM301.656 268.491C311.603 267.417 321.551 266.343 331.23 265C332.574 264.732 333.918 264.732 334.725 264.732C344.942 277.888 354.889 290.238 364.299 302.321C363.224 302.589 357.04 303.663 348.168 305.005C327.197 307.959 306.495 310.912 285.256 313.866C273.695 301.784 261.596 289.164 248.96 275.74C251.38 274.934 278.265 271.176 301.656 268.491ZM249.229 273.861C250.036 272.787 250.573 271.981 251.38 271.176C266.974 255.066 283.105 238.42 299.505 221.505C300.58 220.431 301.387 219.894 302.462 219.357C303.807 218.82 305.151 218.283 307.033 218.283C333.65 215.329 359.46 212.376 385.001 209.423C386.345 209.154 387.69 209.154 389.84 209.154C388.765 210.228 388.227 211.034 387.421 211.839C370.483 228.217 354.083 244.595 337.951 260.436C337.682 260.704 337.145 260.973 336.876 261.241C335.263 262.315 333.65 262.852 331.23 263.121C306.226 266.343 280.685 269.833 254.337 273.324C252.724 273.592 251.38 273.592 249.229 273.861ZM345.479 321.383C336.338 329.975 327.466 338.298 318.594 346.622C316.712 348.501 314.83 349.306 311.603 349.843C288.751 353.602 265.629 357.63 241.97 361.389C240.626 361.657 239.281 361.657 237.399 361.926C238.475 360.852 239.281 360.046 240.357 358.972C254.068 345.548 268.318 331.855 282.567 317.625C284.449 315.745 286.062 314.94 289.289 314.403C304.613 311.986 319.669 309.838 334.725 307.422C343.597 306.079 352.47 304.737 361.073 303.394C361.879 303.394 362.686 303.126 364.299 303.126C364.299 303.126 364.299 303.126 364.03 303.394C362.686 304.468 361.879 305.274 361.073 306.079C355.965 311.449 350.588 316.551 345.479 321.383ZM343.06 379.646C343.328 379.914 343.328 379.914 343.328 380.451C341.715 380.72 340.64 380.988 339.296 381.257C318.056 385.016 296.548 388.506 274.501 392.533C272.082 393.07 270.469 392.802 269.393 391.996C259.714 383.405 249.229 374.545 238.744 365.147C238.206 364.61 237.937 364.342 237.399 363.805C238.475 363.536 239.281 363.268 240.088 362.999C264.823 358.972 289.02 355.213 312.679 351.454C314.561 351.186 315.905 351.186 316.712 351.991C325.853 361.389 334.725 370.517 343.06 379.646ZM249.498 278.425C260.252 290.507 270.737 302.052 280.685 313.06C282.029 314.671 282.029 315.745 279.879 317.893C265.898 331.855 252.455 345.816 239.013 359.241C238.206 360.046 237.399 360.852 236.055 362.194C234.98 361.388 234.173 360.852 233.367 360.315C222.881 350.649 211.858 340.446 200.297 329.707C198.684 328.096 198.415 327.022 200.566 324.874C214.547 310.107 228.796 294.803 243.583 279.23C244.39 278.425 245.465 277.619 246.809 276.277C247.885 277.082 248.96 277.619 249.498 278.425ZM242.239 279.23C227.183 294.534 212.665 309.57 198.415 324.337C196.802 325.948 195.458 327.022 191.963 327.559C164.54 331.586 136.579 335.882 108.08 340.178C107.005 340.446 105.929 340.446 104.316 340.715C104.854 339.641 105.392 339.104 105.929 338.298C120.179 322.726 134.697 307.153 149.215 290.775C151.097 288.628 153.517 287.554 157.281 287.285C185.51 283.526 213.202 279.767 240.357 276.008C241.701 275.74 243.045 275.74 245.465 275.471C244.121 277.082 243.045 278.156 242.239 279.23ZM108.349 341.252C136.579 337.224 164.54 333.465 191.425 329.438C194.383 328.901 195.996 329.17 197.34 330.512C209.707 341.252 221.537 351.454 232.829 361.389C233.367 361.926 233.635 362.194 234.173 362.999C232.56 363.268 231.216 363.536 230.14 363.805C205.406 367.832 180.133 371.591 154.323 375.887C151.635 376.424 150.022 376.155 148.408 375.082C134.966 365.147 120.716 354.676 106.198 343.937C105.66 343.4 105.123 342.863 104.316 342.326C105.929 341.52 107.274 341.252 108.349 341.252ZM154.592 377.229C180.133 372.934 205.406 368.638 229.872 364.61C230.947 364.342 232.291 364.342 234.442 364.073C233.098 365.416 232.291 366.221 231.485 367.027C218.311 379.914 205.137 392.802 192.501 405.152C190.887 406.763 189.006 407.837 185.51 408.374C161.582 412.67 137.116 417.235 112.382 421.799C111.037 422.067 109.424 422.336 107.542 422.604C108.08 421.799 108.618 420.993 109.156 420.457C121.792 407.3 134.966 394.144 148.14 380.451C149.753 378.572 151.366 377.766 154.592 377.229ZM189.543 409.18C201.911 418.04 213.74 426.632 225.032 434.955C221.806 436.029 159.969 447.843 148.946 449.453C135.772 441.399 122.061 432.807 107.005 423.41C135.772 418.309 162.658 413.744 189.543 409.18ZM224.763 433.076C214.816 425.289 204.599 417.235 193.845 409.18C192.769 408.374 192.501 407.569 193.845 405.958C206.75 392.802 219.924 379.646 233.367 365.953C233.904 365.416 234.442 364.879 235.517 364.073C236.324 364.61 237.131 365.147 237.668 365.684C247.885 375.082 257.564 384.21 266.974 392.802C268.049 393.607 268.318 394.413 266.705 396.024C253.531 408.643 240.895 420.993 228.258 433.076C227.99 433.344 227.452 433.881 226.645 434.418C225.839 433.881 225.301 433.613 224.763 433.076ZM230.14 432.27C242.777 420.456 255.682 408.643 268.587 396.292C269.931 394.95 271.275 394.144 273.964 393.607C296.548 389.58 318.594 385.553 340.371 381.525C341.178 381.257 341.984 381.257 343.328 380.988C342.253 382.062 341.446 382.599 340.909 383.136C327.466 394.95 314.561 406.763 301.656 418.309C300.312 419.383 298.967 420.188 296.548 420.725C275.039 425.021 252.993 429.317 230.947 433.613C230.14 433.881 229.334 433.881 227.99 434.15C229.065 433.613 229.603 433.076 230.14 432.27ZM319.4 350.917C318.594 349.843 318.594 349.038 319.938 347.695C334.187 334.002 348.706 320.041 363.493 305.542C364.03 305.005 364.568 304.737 365.375 303.931C366.181 304.737 366.719 305.274 366.988 305.811C374.784 316.282 382.044 326.216 389.034 335.882C389.84 336.956 389.84 338.03 387.958 339.372C382.581 344.205 377.473 349.038 372.365 353.871C363.493 362.194 354.62 370.249 346.017 378.303C345.748 378.572 345.479 378.572 344.942 379.109C344.404 378.572 343.866 378.303 343.597 378.035C336.069 369.712 328.004 360.315 319.4 350.917ZM348.168 377.766C361.611 365.684 375.591 353.065 389.572 340.446C390.916 339.104 392.26 338.298 394.142 337.761C394.68 337.761 394.949 337.493 395.486 337.493C416.726 334.002 437.428 330.512 458.13 327.022C458.936 326.753 459.743 326.753 461.356 326.753C458.667 329.17 456.516 331.049 454.366 332.928C441.729 343.668 429.362 354.408 417.264 365.147C416.188 366.221 415.113 366.758 414.037 367.295C412.962 367.832 411.618 368.101 410.273 368.369C390.916 371.86 371.289 375.618 351.125 379.109C349.781 379.377 348.168 379.646 346.286 379.914C347.092 379.109 347.63 378.303 348.168 377.766ZM457.592 326.485C437.965 329.438 418.07 332.66 397.637 335.882C394.68 336.419 393.067 336.15 391.991 334.808C385.001 325.411 377.204 315.745 369.407 305.811C368.87 305.005 368.332 304.468 367.794 303.394C369.676 303.126 370.752 302.857 371.827 302.589C394.411 299.367 416.457 296.414 437.965 293.192C440.116 292.923 441.461 292.923 442.267 294.266C448.72 304.737 455.172 314.671 461.356 324.337C461.625 324.605 461.625 325.142 461.894 325.948C459.743 325.948 458.667 326.216 457.592 326.485ZM367.794 302.052C368.87 300.978 369.407 300.173 370.214 299.367C385.539 285.137 401.132 270.639 416.995 255.872C417.801 255.066 418.608 254.529 419.414 253.992C420.49 253.455 421.565 253.187 422.91 252.918C445.762 249.965 468.346 246.743 490.392 243.79C491.468 243.521 492.543 243.521 493.887 243.521C492.812 244.595 492.274 245.132 491.468 245.937C475.336 260.436 459.474 274.666 443.88 288.628C443.343 289.164 442.805 289.701 441.998 289.97C440.923 290.507 439.579 291.044 437.697 291.312C416.188 294.534 394.142 298.025 371.827 301.247C371.021 301.784 369.676 301.784 367.794 302.052ZM444.956 293.192C444.149 291.849 444.687 290.775 446.569 288.896C461.894 274.934 477.487 260.436 493.081 245.937C493.618 245.4 494.156 245.132 495.232 244.326C495.769 244.863 496.038 245.132 496.307 245.669C501.684 257.483 506.792 269.028 511.901 280.036C512.438 281.11 512.169 281.915 510.556 283.526C495.232 297.219 480.176 310.644 465.389 323.8C465.12 324.068 464.582 324.605 463.776 325.142C463.238 324.605 462.969 324.068 462.431 323.8C456.785 313.597 451.139 303.394 444.956 293.192ZM466.464 323.263C481.52 310.375 496.576 296.951 512.169 283.526C512.707 283.258 512.976 282.721 513.514 282.452C514.589 281.647 515.933 281.378 517.547 281.11C537.442 278.156 557.068 274.934 576.426 271.981C577.232 271.713 578.308 271.713 579.652 271.713C579.652 271.713 579.652 271.713 579.921 271.713C578.577 272.787 577.77 273.592 576.695 274.397C561.639 287.017 546.583 299.636 532.065 311.986C531.258 312.792 530.452 313.329 529.376 313.597C528.57 314.134 527.494 314.403 526.15 314.403C507.061 317.624 487.704 320.846 468.077 324.068C467.002 324.337 466.195 324.337 464.582 324.605C465.658 324.337 465.926 323.8 466.464 323.263ZM576.695 271.444C557.875 274.129 538.786 276.814 519.16 279.499C516.471 280.036 515.127 279.499 514.32 278.156C509.212 267.685 503.835 256.946 498.458 245.669C498.189 245.132 497.92 244.326 497.651 243.521C500.609 242.984 511.901 241.373 524.806 239.762C533.947 238.688 542.819 237.614 551.96 236.54C558.144 235.735 563.252 235.198 565.941 234.929C566.478 234.929 567.016 235.198 567.554 235.466C572.124 247.548 576.426 259.362 580.728 270.907C578.846 271.176 577.77 271.444 576.695 271.444ZM497.92 241.91C498.727 241.105 499.264 240.299 500.071 239.494C516.471 224.727 533.409 209.423 550.616 194.119C552.229 192.776 553.573 191.702 555.186 191.434C555.455 191.434 555.993 191.165 556.262 191.165C578.308 188.749 600.085 186.064 621.325 183.648C622.131 183.648 622.938 183.648 624.013 183.648C622.669 184.722 621.862 185.796 621.056 186.601C603.849 201.636 586.911 216.135 570.511 230.633C569.167 231.707 568.091 232.513 566.747 233.05C566.478 233.05 566.478 233.05 566.209 233.318C566.209 233.318 566.209 233.318 565.941 233.318C565.672 233.318 565.403 233.318 565.134 233.587C544.163 236.272 522.655 239.225 500.609 242.179C500.071 241.642 499.264 241.642 497.92 241.91ZM551.154 188.749C551.691 190.091 551.154 191.165 549.54 192.776C532.065 208.886 515.127 224.727 498.458 240.031C498.189 240.299 497.651 240.836 496.845 241.373C496.307 240.836 496.038 240.299 495.769 239.762C490.123 227.143 484.477 214.256 478.294 200.562C477.756 199.22 477.756 198.146 479.369 196.535C497.382 179.352 515.665 161.631 534.216 143.642C534.484 143.374 535.022 143.105 535.829 142.568C536.366 143.642 536.635 144.179 536.904 144.985C541.744 160.289 546.583 174.787 551.154 188.749ZM531.796 144.448C513.245 161.9 494.963 178.815 477.218 195.73C476.949 195.998 476.681 196.267 476.143 196.535C474.53 197.609 472.648 198.146 470.228 198.415C446.838 200.831 422.91 203.784 398.444 206.469C397.099 206.738 395.755 206.738 393.604 206.738C394.411 205.664 394.949 205.127 395.755 204.321C413.231 187.138 431.244 169.686 449.795 151.429C450.333 150.892 451.139 150.355 451.677 149.818C453.021 149.012 454.366 148.744 455.979 148.475C481.251 146.327 506.255 143.911 530.452 141.763C531.527 141.763 532.603 141.763 533.947 141.495C533.14 142.837 532.602 143.642 531.796 144.448ZM397.099 207.812C422.103 205.395 446.569 202.979 470.497 200.294C472.917 200.026 474.261 200.294 475.067 201.905C481.52 215.329 487.973 227.949 494.156 240.299C494.425 240.836 494.425 241.373 494.694 242.179C492.812 242.447 491.468 242.716 490.123 242.716C468.615 245.4 446.838 247.817 424.523 250.77C421.296 251.039 419.683 250.77 418.608 249.159C411.08 237.077 403.014 224.458 394.949 211.034C394.411 210.228 394.142 209.423 393.336 208.08C394.949 208.08 396.024 207.812 397.099 207.812ZM415.919 251.039C416.726 252.381 416.457 253.455 414.844 255.066C398.981 270.37 383.657 285.137 368.332 299.904C367.794 300.441 367.257 300.978 366.45 301.515C365.912 300.71 365.106 300.173 364.837 299.636C356.771 288.627 348.437 277.082 339.564 265C338.758 263.658 338.22 262.584 340.102 260.704C356.233 244.326 372.634 227.68 389.572 210.765C389.84 210.497 390.378 209.96 391.185 209.423C391.991 210.228 392.529 210.765 392.798 211.302C400.595 225.264 408.391 238.42 415.919 251.039ZM297.623 215.598C298.698 217.209 298.967 218.283 297.085 220.431C290.633 227.143 284.449 233.855 278.265 240.299C268.587 250.502 259.177 260.704 249.767 270.639C249.229 271.444 248.423 271.981 247.347 273.055C246.541 272.518 245.734 272.25 245.196 271.713C233.098 258.288 220.73 244.326 207.557 229.828C205.943 227.949 206.75 226.606 208.363 224.458C223.15 208.349 237.668 191.702 252.724 174.787C255.144 172.102 257.564 169.418 260.521 166.196C261.596 167.27 262.403 168.075 262.941 168.881C275.039 184.99 286.6 200.831 297.623 215.598ZM259.177 165.39C257.564 167.27 256.488 168.344 255.682 169.418C249.498 176.398 243.045 183.111 236.862 190.091V190.36C226.376 201.905 215.891 213.182 205.943 224.458C204.061 226.606 202.179 227.68 198.684 227.949C168.304 230.902 137.116 234.661 105.123 238.151C104.047 238.151 102.703 238.42 100.821 238.42C101.628 237.346 101.896 236.272 102.703 235.466C118.834 216.672 135.234 197.341 152.172 177.472C153.785 175.593 155.667 174.519 159.163 174.25C179.596 172.371 199.491 170.492 219.117 168.881C230.947 167.807 242.508 166.733 254.068 165.659C255.682 165.39 256.757 165.39 259.177 165.39ZM106.736 239.225C137.923 236.003 168.573 233.05 198.147 229.828C201.373 229.559 203.255 229.828 204.599 231.439C218.042 245.669 231.216 259.362 243.583 272.25C244.121 272.787 244.39 273.324 244.659 273.592C244.39 273.861 244.39 273.86 244.39 274.129L244.121 274.397C243.045 274.666 241.97 274.934 241.163 274.934C212.396 278.425 182.822 281.915 152.441 285.674C136.041 271.444 118.834 256.409 100.283 240.031C103.241 239.762 105.123 239.494 106.736 239.225ZM102.703 420.725C89.5291 412.133 76.0863 403.273 61.5681 393.876C59.4173 392.533 59.1484 391.191 61.0304 389.043C73.6666 374.813 86.5717 360.046 99.7456 345.011C100.283 344.474 101.09 343.668 102.165 342.863C103.241 343.4 104.047 343.937 104.854 344.474C119.103 355.482 132.546 365.953 145.72 375.887C147.064 376.961 147.333 377.766 145.989 379.377C132.815 393.339 120.179 406.763 107.811 420.188C107.274 420.725 106.736 421.262 105.66 422.336C104.316 421.53 103.51 421.262 102.703 420.725ZM106.467 488.385C94.0996 481.404 81.1946 474.423 68.0207 466.905C66.4075 466.1 66.9453 465.026 68.2895 463.952C77.4306 454.018 86.8405 444.084 96.5193 433.881C99.4767 430.928 102.434 427.706 105.929 424.215C107.274 425.021 108.08 425.289 108.887 425.826C121.254 433.881 133.084 441.667 144.644 449.185C146.258 450.259 146.258 451.333 144.644 452.944C133.084 464.489 122.061 475.766 111.037 487.042C110.5 487.579 109.693 488.385 108.887 489.19C107.811 488.653 107.005 488.653 106.467 488.385ZM110.231 544.768C109.156 544.231 108.618 544.231 107.811 543.694C97.057 538.592 85.7651 533.223 74.2043 527.853C72.8601 527.316 72.3223 526.51 73.6666 525.436C84.4208 514.697 95.175 503.689 106.198 492.412C106.736 491.875 107.274 491.338 108.08 490.801C108.887 491.07 109.693 491.338 110.231 491.607C121.792 498.05 132.815 504.226 143.838 510.132C144.913 510.669 145.182 511.475 143.838 512.549C133.084 523.02 122.329 533.223 111.844 543.425C111.575 543.694 111.037 544.231 110.231 544.768ZM215.353 498.319C204.33 508.253 193.576 517.919 182.822 527.584C181.209 528.927 179.596 529.732 176.907 530.269C156.743 534.834 136.579 539.398 115.877 544.231C114.801 544.499 113.457 544.768 112.113 545.036C112.919 544.231 113.188 543.694 113.995 543.157C124.48 533.223 135.234 523.289 146.258 513.086C147.602 511.743 149.215 511.206 151.903 510.669C173.143 506.105 193.845 501.541 214.278 496.976C215.353 496.708 216.429 496.439 218.042 496.171C216.698 496.976 215.891 497.513 215.353 498.319ZM219.117 494.56C218.311 494.023 217.504 493.754 217.235 493.486C208.094 487.579 198.684 481.135 189.006 474.96C187.93 474.155 187.661 473.618 189.006 472.275C200.566 460.999 212.396 449.722 224.494 438.177C225.032 437.64 225.839 437.103 226.645 436.297C227.452 436.834 228.258 437.103 228.527 437.64C237.937 444.889 246.809 451.87 255.413 458.582C256.757 459.388 256.488 460.462 254.875 461.804C243.583 472.275 232.56 482.478 221.806 492.412C220.999 492.949 220.193 493.754 219.117 494.56ZM323.971 447.574C311.872 458.045 299.774 468.516 287.944 478.719C286.869 479.793 285.793 480.33 283.643 480.867C263.478 485.163 243.045 489.727 222.344 494.291C221.806 494.291 221.268 494.56 219.924 494.56C220.73 493.754 220.999 493.486 221.537 492.949C232.829 482.746 244.39 472.544 255.95 462.073C257.832 460.462 259.714 459.656 262.672 458.851C282.567 454.823 301.925 450.796 321.282 446.769C322.358 446.5 323.702 446.232 325.315 445.963C325.046 446.769 324.509 447.037 323.971 447.574ZM259.446 458.582C249.498 451.333 239.013 443.815 228.258 435.76C232.022 434.418 287.675 423.947 299.774 422.067C308.915 429.854 317.787 437.64 326.659 445.158C303.807 449.722 282.029 454.018 259.446 458.582ZM327.735 444.352C327.197 444.084 326.659 443.815 326.122 443.547C318.594 436.566 311.066 429.317 303 422.067C302.194 421.262 301.925 420.456 303.269 419.383C316.174 407.569 329.079 395.487 342.522 383.136C342.791 382.868 343.328 382.331 344.404 381.794C344.942 382.331 345.479 382.868 346.017 383.136C353.545 391.459 360.535 399.246 367.525 407.032C368.332 407.837 368.332 408.643 366.988 409.717C354.083 420.993 341.715 432.27 329.348 443.01C328.81 443.278 328.273 443.815 327.735 444.352ZM431.513 398.172C426.942 401.931 422.641 405.689 418.07 409.448C410.005 416.161 401.939 422.873 394.142 429.585C392.529 430.928 391.185 431.733 388.496 432.27C369.945 436.029 351.125 440.056 332.036 444.084C330.961 444.352 330.155 444.352 328.81 444.621C329.348 444.084 329.617 443.547 330.155 443.278C342.791 432.27 355.427 421.262 368.601 409.985C369.676 408.911 370.752 408.374 372.902 407.837C385.808 405.421 398.444 402.736 410.811 400.32C417.532 398.977 424.254 397.635 430.706 396.292C431.782 396.024 432.588 396.024 434.201 395.755C433.126 396.829 432.319 397.635 431.513 398.172ZM432.32 395.487C412.962 398.977 393.604 402.736 373.44 406.495C371.827 406.763 370.752 406.763 370.214 406.226C362.686 398.44 354.889 390.117 346.824 381.794C346.555 381.525 346.555 381.525 346.555 381.257C348.437 380.72 369.676 376.693 388.496 373.471L388.765 373.739C396.293 372.397 403.821 371.054 411.349 369.712C413.5 369.443 414.575 369.443 415.382 370.517C421.834 378.84 428.018 386.627 434.201 394.144C434.47 394.413 434.47 394.681 434.739 395.218C433.395 395.218 432.857 395.487 432.32 395.487ZM436.083 394.144C435.546 393.607 435.008 393.07 434.739 392.802C429.362 385.284 423.716 377.498 417.532 369.443C416.726 368.101 416.995 367.027 419.146 365.416C432.588 353.602 445.762 341.789 459.474 329.438L459.743 329.17C460.28 328.633 461.087 328.096 462.162 327.29C462.7 327.827 462.969 328.096 463.238 328.364C468.615 337.761 473.992 346.621 479.1 355.482C479.638 356.287 479.369 357.361 477.756 358.435C464.044 370.249 450.871 381.525 437.697 392.802C437.428 393.339 436.89 393.607 436.083 394.144ZM540.399 347.695C526.419 358.972 512.976 370.249 499.533 380.988C498.458 381.794 497.651 382.331 496.576 382.868C496.307 382.868 495.769 383.136 495.232 383.136C476.949 386.627 458.667 390.385 439.847 393.876C439.041 394.144 438.503 394.144 437.159 394.413C438.234 393.339 439.041 392.802 439.847 392.265C453.021 381.257 466.464 369.98 479.907 358.704C480.445 358.167 480.982 357.898 481.52 357.63C482.595 357.093 483.671 356.556 485.284 356.287C503.566 353.065 521.579 349.575 539.324 346.353C540.399 346.085 541.206 346.085 542.55 345.816C541.475 346.622 540.937 347.158 540.399 347.695ZM541.744 345.011C522.386 348.232 503.566 351.454 483.671 354.945C483.133 354.945 482.595 354.945 482.058 354.676C476.412 345.548 470.228 336.15 464.044 325.948C464.851 325.679 465.658 325.679 466.195 325.411C487.166 322.189 507.061 318.967 526.957 315.745C527.763 315.745 528.301 315.745 528.839 316.014C533.678 325.679 538.248 335.076 543.088 344.205C542.55 345.011 542.281 345.011 541.744 345.011ZM544.701 343.937C544.432 343.4 543.894 343.131 543.894 342.594C540.13 334.002 536.366 325.411 532.065 316.282C531.527 315.208 531.796 314.403 533.678 312.792C548.465 300.173 563.252 287.285 578.308 274.397C578.846 273.86 579.652 273.324 580.728 272.518C580.996 273.055 581.265 273.324 581.534 273.861C584.76 284.063 587.987 293.997 591.213 303.394C591.482 304.468 591.213 305.274 589.6 306.616C574.813 318.698 560.563 330.781 546.583 342.594C545.776 342.863 545.239 343.4 544.701 343.937ZM650.361 296.145C649.286 296.951 648.479 297.488 647.941 298.293C633.692 309.57 619.443 320.846 605.462 332.123C603.849 333.465 602.236 334.271 600.354 334.539C583.147 337.761 565.672 340.983 547.927 344.205C547.39 344.205 546.583 344.474 545.508 344.474C546.583 343.4 547.39 342.863 547.927 342.326C561.908 330.781 576.426 319.235 590.944 307.153C591.751 306.616 592.288 306.079 593.095 305.811C593.901 305.274 594.977 305.005 596.052 305.005C613.528 302.052 630.735 299.099 647.672 296.145C648.479 295.877 649.555 295.877 650.63 295.877C650.899 295.877 650.63 295.877 650.361 296.145ZM650.361 294.803C649.823 294.803 649.286 295.071 649.017 295.071C632.079 297.756 614.603 300.441 596.859 303.126C595.246 303.395 594.17 303.394 593.633 302.321C590.138 292.655 586.642 282.989 582.878 272.787C582.878 272.518 582.878 271.981 582.61 271.444C583.954 271.176 585.029 270.907 585.836 270.907C604.387 268.222 622.669 265.806 640.413 263.121C641.22 263.121 642.027 262.852 642.564 263.121H642.833C643.371 263.121 643.64 263.389 643.909 264.195C646.328 274.397 649.017 284.063 651.437 293.46C651.437 293.729 651.437 293.997 651.437 294.534C651.168 294.534 650.63 294.803 650.361 294.803ZM653.318 293.729C653.05 293.192 652.781 292.655 652.781 292.386C650.899 282.989 648.748 273.324 646.597 263.389C646.328 262.315 646.597 261.51 648.479 259.899C657.351 252.65 666.224 245.132 675.096 237.614C682.086 231.707 689.076 225.801 696.335 219.894C697.142 219.357 697.948 218.551 699.293 217.746C699.562 218.551 699.83 219.088 699.83 219.625C701.175 230.633 702.25 241.105 703.594 251.307C703.863 252.65 703.057 253.992 700.906 255.603C686.119 267.685 671.332 279.499 657.082 291.312C656.276 292.118 655.469 292.655 654.394 293.46C653.587 293.729 653.318 293.729 653.318 293.729ZM756.828 247.548C741.234 259.63 725.909 271.713 710.854 283.258C709.509 284.332 708.165 285.137 706.552 285.406C699.293 286.748 691.765 287.822 684.237 289.164C674.827 290.775 665.417 292.386 655.738 293.997C655.2 293.997 654.932 293.997 654.125 294.266C654.932 293.46 655.469 292.923 656.007 292.386C664.342 285.674 672.676 279.23 681.011 272.518C687.732 267.148 694.185 262.047 700.906 256.677C703.326 254.798 705.208 253.992 707.627 253.455C724.027 251.039 739.89 248.622 755.752 246.206C756.828 245.937 757.634 245.937 758.979 245.669C758.172 246.206 757.634 247.011 756.828 247.548ZM705.476 252.113C703.863 240.836 701.981 229.291 700.099 217.209C703.326 216.135 748.493 210.497 757.903 209.96C758.71 221.773 759.247 233.05 760.054 244.595C741.772 247.011 724.027 249.696 705.476 252.113ZM757.097 208.349C739.621 210.765 721.877 213.182 703.594 215.598C703.057 215.598 702.25 215.598 701.444 215.866C702.519 214.793 703.326 213.987 704.132 213.45C720.801 199.757 738.008 185.796 755.215 171.565C757.097 169.955 758.441 169.149 760.592 168.881C778.605 166.733 796.618 164.853 814.094 162.705C814.632 162.705 815.169 162.705 816.514 162.705C815.169 163.779 814.094 164.585 813.287 165.39C795.812 179.083 778.874 192.776 762.205 206.201C760.323 207.275 758.979 208.08 757.097 208.349ZM876.737 113.84C857.38 129.412 838.56 144.716 820.009 159.752C819.74 160.02 819.471 160.02 818.664 160.557C818.664 159.752 818.664 159.483 818.664 158.946C819.471 146.059 820.278 132.903 821.353 118.941C821.353 117.599 822.16 116.256 824.042 114.914C843.399 98.8045 863.026 82.4265 882.921 65.7801C883.459 65.2431 884.265 64.7061 885.341 63.9006C885.341 64.7061 885.609 65.2431 885.341 66.0486C883.19 81.3525 881.039 96.1195 879.157 110.081C878.888 111.155 878.619 112.229 876.737 113.84ZM882.921 112.497C899.321 111.155 915.721 109.544 931.584 107.933C932.39 107.933 933.197 107.933 934.81 107.665C931.315 110.35 928.626 112.497 925.669 114.645C909.537 127.264 893.675 139.347 878.081 151.697C875.124 153.845 873.242 154.919 870.822 155.188C855.229 156.798 839.366 158.678 823.235 160.557C822.16 160.826 820.815 160.826 819.471 161.094C820.546 160.02 821.353 159.215 822.16 158.678C839.904 144.716 857.917 130.218 876.199 115.719C878.619 113.571 880.501 112.766 882.921 112.497ZM881.039 66.0486C861.681 81.8895 842.324 97.462 823.773 113.034C821.084 115.182 819.202 115.988 816.782 116.256C798.769 117.867 780.218 119.478 761.398 121.358C760.323 121.358 759.247 121.358 757.903 121.358C759.516 120.015 760.592 118.941 761.936 118.136C780.756 102.295 799.845 86.1854 819.471 69.8074C821.891 67.6595 823.773 66.854 826.192 66.5855C845.012 65.5116 863.563 64.1691 881.845 62.8267C882.921 62.8267 883.727 62.8267 885.072 62.8267C883.19 64.4376 882.114 65.2431 881.039 66.0486ZM759.516 122.432C778.874 121.089 797.963 119.478 816.514 118.136C818.127 118.136 818.664 118.404 818.664 119.478C818.127 133.44 817.858 147.133 817.32 160.02C817.32 160.289 817.051 160.557 817.051 161.094C815.707 161.363 814.632 161.363 813.825 161.631C796.887 163.242 779.68 164.853 762.205 166.733C760.054 167.001 759.247 166.733 759.247 165.122C758.71 152.234 757.903 138.81 757.097 125.117C757.097 124.58 757.097 123.774 757.097 122.969C758.172 122.969 758.979 122.7 759.516 122.432ZM761.129 242.179C760.861 231.976 760.861 221.236 760.592 210.228C760.592 209.154 760.861 208.08 762.743 206.469C779.68 192.776 797.156 178.546 814.632 164.316C815.169 163.779 815.707 163.511 816.782 162.705C816.782 163.511 816.782 164.048 816.782 164.853C815.976 176.935 815.169 188.48 814.632 199.757C814.632 200.831 814.094 201.905 812.212 203.247C795.543 216.403 779.412 229.291 763.549 241.91C763.011 242.447 762.474 242.716 761.398 243.521C761.398 243.253 761.129 242.716 761.129 242.179ZM864.37 198.146C848.239 210.228 832.645 222.31 817.051 234.124C814.9 235.735 813.556 236.54 811.405 236.809C796.081 238.957 780.756 241.373 764.893 243.79C764.087 243.79 763.28 244.058 762.205 244.058C763.011 243.521 763.28 242.716 764.087 242.447C780.218 229.828 796.618 217.209 813.287 204.053C814.9 202.979 815.976 202.173 817.589 201.905C833.989 199.757 850.389 197.341 866.521 195.193C866.789 195.193 867.058 195.193 867.865 195.193C866.521 196.535 865.445 197.341 864.37 198.146ZM868.94 194.119C867.865 194.387 867.327 194.656 866.521 194.656C850.927 196.535 835.065 198.415 819.202 200.294C817.858 200.562 817.051 200.294 817.32 199.22C817.858 187.675 818.127 175.593 818.664 163.242C818.664 162.974 818.664 162.705 818.933 162.437C821.622 161.363 864.37 156.798 873.511 156.53C871.629 169.686 870.285 182.037 868.94 194.119ZM870.285 191.434C871.898 180.694 873.511 169.418 875.124 157.872C875.393 155.993 876.468 154.651 878.888 152.771C896.095 139.078 913.839 125.117 931.584 111.155C932.659 110.35 933.734 109.544 935.348 108.47C935.079 109.544 935.079 110.35 934.81 111.155C932.121 123.774 929.433 136.125 926.744 147.938C926.475 149.549 925.4 150.892 922.98 152.771C906.042 165.659 889.642 178.546 873.242 191.165C872.167 191.971 871.091 192.776 869.747 193.85C870.016 192.776 870.016 192.239 870.285 191.434ZM973.525 147.401C956.318 160.289 939.112 172.908 922.443 185.527C920.829 186.869 919.485 187.675 917.872 187.675C903.085 189.554 888.029 191.702 872.704 193.85C872.167 193.85 871.629 193.85 870.553 193.85C871.898 192.776 872.973 191.971 873.78 191.434C890.449 178.815 907.387 165.927 924.325 153.04C926.206 151.697 927.551 150.892 929.164 150.623C944.22 149.012 959.276 147.133 974.063 145.522C974.6 145.522 975.138 145.522 975.945 145.522C974.869 146.059 974.332 146.864 973.525 147.401ZM977.827 141.495C977.558 142.3 977.289 143.105 977.02 144.179C960.889 145.79 945.026 147.401 928.626 149.012C931.046 135.856 933.734 122.432 936.423 107.665C938.036 107.396 939.112 107.396 939.918 107.128C955.243 106.054 970.03 104.98 984.817 103.637C986.968 103.369 987.506 104.174 986.968 105.785C984.01 118.404 980.784 130.218 977.827 141.495ZM938.036 106.322C938.843 105.517 939.649 104.711 940.187 104.174C959.276 89.1388 978.902 74.1033 998.797 58.5308C1000.68 57.1884 1002.02 56.3829 1003.64 56.1144C1020.04 55.0404 1036.17 53.9665 1051.76 52.8925C1052.03 52.8925 1052.3 52.8925 1052.84 53.161C1051.22 54.5035 1049.88 55.3089 1048.8 56.3829C1029.72 70.8814 1011.16 85.1114 992.614 99.073C990.194 100.952 988.581 101.758 986.43 102.026C971.374 103.369 956.049 104.711 940.187 106.322C939.918 106.322 939.112 106.322 938.036 106.322ZM978.902 141.226C982.397 129.412 985.892 117.33 989.388 104.711C989.925 103.369 990.732 102.026 992.883 100.415C1011.7 85.9169 1030.52 71.1499 1049.88 56.1144C1050.69 55.3089 1051.76 54.772 1053.11 53.698C1052.84 54.772 1052.84 55.3089 1052.57 56.1144C1047.73 69.8074 1043.16 83.232 1038.86 95.8511C1038.32 97.7305 1036.97 99.0729 1034.56 100.952C1016.81 114.377 999.066 127.801 981.86 140.958C980.784 141.763 979.978 142.3 978.633 143.374C978.633 142.568 978.902 142.031 978.902 141.226ZM1081.6 97.462C1063.59 110.887 1045.58 123.774 1028.1 136.662C1026.22 138.004 1024.88 138.81 1023.53 138.81C1009.55 140.421 995.571 142.031 981.053 143.642C980.515 143.642 979.978 143.642 979.171 143.642C980.515 142.568 981.591 142.031 982.397 141.226C999.873 128.07 1017.89 114.914 1035.9 101.221C1037.78 99.8784 1039.13 99.0729 1040.74 98.8045C1054.99 97.462 1068.97 96.1195 1082.95 94.7771C1083.49 94.7771 1083.76 94.7771 1084.56 94.7771C1083.49 96.1195 1082.68 96.6565 1081.6 97.462ZM1058.48 52.624C1072.46 52.087 1086.44 51.2816 1100.16 50.7446C1102.04 50.7446 1102.58 51.2816 1101.77 53.161C1096.66 66.3171 1091.82 78.9361 1086.98 91.2867C1086.71 92.0922 1086.18 92.8977 1085.91 93.9716C1084.83 94.2401 1084.29 94.2401 1083.49 94.2401C1070.04 95.3141 1056.33 96.1195 1042.62 97.1935C1041.28 97.1935 1040.47 97.1935 1041.01 95.8511C1045.31 82.695 1049.88 69.002 1054.45 55.0404C1054.72 54.5035 1054.99 53.9665 1055.26 52.8925C1056.6 52.8925 1057.41 52.624 1058.48 52.624ZM1016 6.17512C1016.27 5.10115 1016.54 4.02719 1017.08 2.68474C1018.42 2.68474 1019.5 2.41624 1020.57 2.41624C1036.44 2.14775 1052.03 1.87926 1067.62 1.61077C1069.78 1.61077 1070.31 2.41624 1069.51 4.56417C1064.4 19.8681 1059.83 34.6351 1054.99 48.8652C1054.72 49.6706 1054.18 50.7446 1053.91 51.8186C1052.57 51.8186 1051.49 52.087 1050.69 52.087C1036.17 52.624 1021.38 53.4295 1006.06 54.235C1003.91 54.235 1003.37 53.698 1003.91 51.5501C1008.21 37.0516 1011.97 21.7476 1016 6.17512ZM1014.93 6.17512C1010.36 22.2846 1005.79 38.1255 1001.75 53.161C1001.22 54.772 1000.41 56.1144 997.991 57.9938C978.365 73.5663 959.276 88.6018 940.456 103.637C939.649 104.174 938.843 104.98 937.498 105.785C937.498 104.98 937.498 104.174 937.767 103.637C940.725 89.9443 943.951 75.7142 946.908 61.2157C947.446 59.3363 948.522 57.9938 950.941 55.8459C971.105 39.468 991.538 22.8215 1012.51 5.90663C1013.32 5.36964 1014.12 4.56417 1015.47 3.49021C1015.2 4.56417 1015.2 5.36964 1014.93 6.17512ZM891.793 58.2623C911.957 41.6159 932.659 24.701 953.899 7.51757C956.049 5.63813 957.931 4.56417 959.813 4.56417C977.827 4.02719 995.571 3.22172 1012.78 2.68474C1013.32 2.68474 1013.85 2.68474 1015.2 2.95323C1013.32 4.56417 1012.24 5.36964 1010.9 6.44361C990.194 22.8215 969.761 39.1995 950.135 55.0404C947.446 57.1884 945.833 57.9938 943.413 57.9938C926.475 59.0678 909.269 60.1418 891.793 61.4842C890.718 61.4842 889.911 61.4842 888.567 61.4842C889.642 60.1418 890.718 59.3363 891.793 58.2623ZM944.758 59.8733C941.8 75.9827 938.843 91.2867 935.885 106.591C934.003 106.859 933.197 106.859 932.121 106.859C916.797 107.933 900.934 109.007 884.803 110.35C882.383 110.618 881.308 110.081 881.577 107.933C883.19 94.5086 884.803 80.5471 886.416 66.3171C886.416 65.2431 886.685 64.1691 886.954 62.5582C907.118 61.7527 925.938 60.9472 944.758 59.8733ZM826.461 8.59153C829.956 7.51757 885.072 6.17512 892.331 6.98059C890.18 25.7749 888.029 43.7638 886.147 61.7527C865.445 62.8267 845.281 63.6322 824.579 64.7061C825.117 46.7172 825.655 28.1914 826.461 8.59153ZM824.579 8.86002C824.579 10.2025 824.579 11.2764 824.579 12.3504C823.504 29.8023 822.428 46.7172 821.622 62.8267C821.622 64.9746 820.546 66.5856 817.858 69.002C798.5 85.3799 779.68 101.758 761.398 117.599C760.323 118.673 759.247 119.478 757.365 121.089C757.097 119.747 757.097 118.941 757.097 118.136C756.828 103.637 756.559 88.6018 756.021 72.7608C756.021 70.6129 756.828 68.7335 759.516 66.3171C779.412 48.5967 799.845 30.6078 820.546 12.3504C821.622 11.2764 822.966 10.471 824.579 8.86002ZM685.85 70.0759C706.283 51.8186 726.985 33.0242 748.224 13.6929C751.182 11.008 753.333 10.2025 756.021 10.2025C777.798 9.39701 799.307 8.59153 820.009 7.78606C821.084 7.78606 821.891 7.78606 823.773 7.78606C821.622 9.6655 820.278 10.7395 818.933 12.0819C797.963 30.3393 777.53 48.0597 757.634 65.2431C755.483 67.1225 753.601 68.465 751.182 68.465C729.942 69.8074 707.896 71.1499 685.581 72.7608C684.775 72.7608 683.968 72.7608 682.624 72.7608C684.237 71.9554 685.043 70.8814 685.85 70.0759ZM685.312 74.3718C707.358 73.2978 728.867 72.2239 749.837 71.1499C751.988 71.1499 753.064 71.6869 753.064 73.2978C753.87 89.4073 754.677 104.711 755.483 119.478C755.483 120.015 755.483 120.821 755.483 121.626C754.139 121.895 753.064 121.895 752.257 122.163C732.631 123.506 712.736 125.117 692.571 126.728C690.421 126.996 689.345 126.459 689.076 124.848C686.925 109.544 684.506 93.9716 682.086 77.3252C682.086 76.5197 682.086 75.7142 682.086 74.6403C683.43 74.6403 684.506 74.3718 685.312 74.3718ZM686.388 125.922C686.657 127.533 686.119 128.875 683.968 130.486C665.417 146.864 647.404 162.974 629.659 178.815C629.122 179.352 628.315 179.889 626.971 180.963C626.702 179.889 626.433 179.352 626.164 178.546C623.207 165.122 620.249 151.16 617.023 136.662C616.485 134.514 617.292 132.903 619.98 130.486C630.197 121.358 640.413 111.961 650.63 102.295V102.026C659.233 93.9716 667.837 85.9169 676.709 77.8622C677.515 77.0567 678.591 76.2512 679.935 75.1773C680.204 76.2512 680.473 76.7882 680.742 77.5937C682.624 94.7771 684.506 110.618 686.388 125.922ZM591.751 14.2298C617.83 13.6929 643.371 13.4244 668.374 12.8874C670.256 12.8874 671.601 13.1559 671.87 15.0353C674.827 34.9036 677.515 53.698 680.204 71.9554C680.204 72.2239 680.204 72.7608 680.204 73.5663C678.591 73.8348 677.247 73.8348 675.902 74.1033C665.955 74.6403 656.007 75.1773 646.059 75.4458C633.423 75.9827 620.518 76.5197 607.613 77.3252C604.925 77.3252 603.849 76.7882 603.311 74.9088C599.01 56.9199 594.17 38.1255 589.331 18.2572C588.793 17.1832 588.793 16.1093 588.524 14.7668C589.869 14.4983 590.675 14.2298 591.751 14.2298ZM585.836 15.8408C586.374 17.1832 586.642 18.2572 586.911 19.3312C591.213 38.931 595.515 57.9938 599.547 75.9827C600.085 77.8622 599.816 79.4731 597.397 81.8895C577.501 100.952 558.413 119.478 539.593 137.467C539.055 138.004 538.248 138.541 537.173 139.615C536.635 138.541 536.366 137.736 536.098 137.199C530.721 121.089 525.343 104.443 519.429 86.7224C518.891 84.8429 518.891 83.232 521.311 81.0841C541.475 60.9473 561.908 40.005 583.147 18.7942C583.954 17.4517 584.76 16.9147 585.836 15.8408ZM429.362 84.5744C449.257 64.1691 469.69 42.9584 490.392 21.4791C491.468 20.4051 492.543 19.3312 493.887 18.7942C495.5 17.9887 497.114 17.7202 499.264 17.4517C526.688 16.6463 553.573 15.5723 579.652 14.4983C581.265 14.4983 582.878 14.4983 585.029 14.4983C583.416 16.1093 582.341 17.4517 581.265 18.5257C560.295 39.1995 539.862 59.0678 519.697 78.9361C518.891 79.7416 518.084 80.5471 517.278 81.0841C515.665 81.8895 514.051 82.4265 511.901 82.695C485.822 84.3059 459.205 86.1854 432.051 87.7963C430.438 87.7963 428.824 87.7963 426.942 87.7963C427.749 86.4539 428.287 85.3799 429.362 84.5744ZM445.762 88.6018C468.346 87.5278 489.855 86.4539 511.363 85.3799C512.976 85.3799 514.32 85.3799 515.127 85.3799C522.117 104.443 528.839 122.7 535.291 139.884C534.216 140.152 528.032 140.958 519.429 141.763C498.727 143.374 478.025 144.985 456.785 146.596C455.441 146.596 454.366 146.596 453.559 146.596C444.687 128.875 435.546 110.081 425.867 90.2127C427.211 89.9443 435.008 89.1388 445.762 88.6018ZM423.447 91.0182L423.716 91.2867C424.523 92.6292 425.06 93.4346 425.329 94.5086C433.395 112.497 441.192 129.412 448.72 145.79C449.526 147.67 449.526 149.281 447.107 151.697C429.362 169.418 412.155 186.869 395.217 204.053C394.411 204.858 393.604 205.664 392.26 206.738C391.453 205.664 390.916 204.858 390.378 204.053C382.044 189.554 373.171 174.519 364.03 158.946C362.686 156.798 362.955 155.188 365.375 152.503C383.388 133.44 401.67 114.108 420.221 93.9716C421.296 92.8977 422.103 92.0922 423.447 91.0182ZM285.793 22.8215C321.551 22.2846 354.889 21.4791 387.69 20.9421C388.496 21.2106 389.303 21.4791 389.84 21.7476C401.132 44.8378 411.887 66.5855 422.372 88.0648C406.241 89.4073 390.647 89.6758 374.784 90.4812C358.384 91.2867 341.984 92.0922 325.046 92.8977C311.335 71.1499 297.085 48.0597 281.492 23.09C283.374 23.09 284.718 22.8215 285.793 22.8215ZM278.803 24.701C279.61 25.7749 280.685 26.3119 281.223 27.3859C294.666 50.2076 307.571 71.9554 319.669 92.3607C320.745 94.2401 320.745 95.5826 319.131 97.7305C300.043 119.478 281.492 140.689 263.21 161.363C262.941 161.631 262.403 161.9 261.865 162.705C260.79 161.631 260.252 160.826 259.446 160.02C246.541 142.568 233.098 124.043 218.58 104.443C216.966 102.295 216.698 100.684 218.58 97.999C237.399 75.1773 256.757 51.2816 276.652 27.1174C277.19 26.3119 277.728 25.7749 278.803 24.701ZM97.3259 104.174C116.146 80.2786 135.234 55.5774 155.13 30.3393C155.399 29.8023 155.936 29.5338 156.205 28.9968C157.818 27.6544 159.969 27.1174 162.927 26.8489C200.029 25.7749 236.055 24.4325 271.006 23.09C272.351 23.09 273.964 23.09 275.846 23.09H276.115C275.308 24.4325 274.77 25.5065 273.964 26.5804C253.8 50.7446 233.904 73.8348 214.816 96.6565C214.278 97.1935 214.009 97.462 213.471 97.999C211.589 99.3414 209.17 100.147 205.943 100.147C172.336 102.026 137.654 104.443 102.165 106.591C100.283 106.591 98.4013 106.591 95.9816 106.859C96.5193 105.785 96.7882 104.711 97.3259 104.174ZM101.628 108.202C123.674 107.128 145.182 106.054 166.691 104.98C180.133 104.174 193.576 103.637 206.75 102.832C210.245 102.563 212.396 103.1 214.278 105.248C229.334 124.58 243.852 143.105 257.564 160.557C258.101 161.363 258.639 162.168 259.446 163.242C256.757 163.511 254.875 163.779 252.993 163.779C223.15 166.196 192.501 168.344 161.313 171.028C156.743 171.297 154.323 170.76 151.903 168.344C135.503 150.623 118.028 132.366 99.7456 113.034C98.6702 111.692 97.5947 110.35 95.9816 108.739C98.1325 108.739 100.014 108.47 101.628 108.202ZM93.2931 110.081C94.9062 111.424 95.9816 112.497 96.7882 113.303C115.07 133.44 132.277 152.503 148.677 170.492C150.559 172.639 150.559 174.25 148.677 176.398C132.277 196.535 116.415 216.135 100.821 235.198C100.283 236.003 99.4767 236.54 98.6702 237.614C97.5947 237.077 96.5193 236.54 95.9816 236.003C78.506 220.162 60.2239 203.247 40.8663 185.527C39.2532 183.916 38.4466 182.574 40.0597 180.426C56.7287 158.409 73.6666 135.319 91.4111 111.961C91.6799 111.424 92.2176 111.155 93.2931 110.081Z" fill="url(#paint0_linear)"/>
<defs>
<linearGradient id="paint0_linear" x1="595.746" y1="382.876" x2="511.493" y2="132.587" gradientUnits="userSpaceOnUse">
<stop/>
<stop offset="0.3819" stop-color="#68421D"/>
<stop offset="0.4557" stop-color="#6F4720"/>
<stop offset="0.5638" stop-color="#835727"/>
<stop offset="0.6931" stop-color="#A37034"/>
<stop offset="0.8335" stop-color="#D09245"/>
<stop offset="1" stop-color="#E0B580"/>
</linearGradient>
</defs>
</svg>
