<svg width="1257" height="618" viewBox="0 0 1257 618" fill="none" xmlns="http://www.w3.org/2000/svg">
<path opacity="0.5" fill-rule="evenodd" clip-rule="evenodd" d="M10.2168 3.75856C33.6072 29.5337 55.6533 54.2348 76.8929 77.325C79.3126 80.0099 79.3126 82.1579 76.8929 85.1113C55.6533 110.886 35.2203 136.124 15.325 160.557C14.5185 161.363 13.7119 162.437 12.3676 163.511C11.0234 162.705 9.67909 162.168 8.87252 161.363C5.91511 158.678 2.95771 155.724 -0.268555 153.039V156.261C3.22656 159.215 6.72168 162.168 9.94794 165.39C6.99054 165.927 3.49542 166.195 0.000300497 166.464V168.075C1.61343 167.806 2.95771 167.806 4.57084 167.538C5.91511 167.269 6.99054 167.269 9.14138 167.269C8.33481 168.612 7.52825 169.954 6.72168 171.028C4.57084 173.713 2.15114 176.398 0.000300497 179.083V182.842C2.95771 179.083 5.91511 175.593 8.87252 171.834C9.94794 170.76 11.0234 169.686 12.6365 167.806C14.5185 169.149 15.8628 170.223 17.207 171.565C37.1023 189.823 56.191 207.543 74.742 224.189C77.1617 226.606 77.4306 228.485 74.742 231.439C56.7287 251.844 38.9843 271.981 21.7776 291.581C20.7022 292.923 19.6267 293.997 18.0136 295.876C16.1316 294.803 15.0562 293.997 13.9808 293.192C9.41023 289.701 4.57084 285.942 0.000300497 282.452V285.405C4.57084 288.896 9.14138 292.118 13.7119 295.608C13.9808 295.876 14.2496 296.145 15.0562 296.95C12.3676 297.487 10.2168 297.756 8.33481 298.024C5.64626 298.293 2.68885 298.83 0.000300497 299.098V300.441C2.95771 299.904 5.91511 299.635 8.87252 299.098C10.7545 298.83 12.3676 298.561 15.0562 298.293C13.9808 299.635 13.4431 300.709 12.6365 301.515C8.33481 306.079 4.30198 310.643 0.000300497 315.476V317.893C4.83969 312.523 9.41023 307.153 14.2496 301.515C15.0562 300.709 15.8628 299.904 17.207 298.561C18.5513 299.367 19.8956 299.904 20.7021 300.709C38.9843 314.671 56.4599 328.364 73.1289 341.251C74.7421 342.594 75.2798 343.668 73.3978 345.816C56.7287 363.536 40.3286 381.257 24.4661 398.44C23.9284 399.245 22.853 399.782 21.5087 401.125C19.8956 400.051 18.8202 399.514 18.0136 398.977C12.0988 395.218 6.18397 391.191 0.000300497 387.163V389.848C5.91511 393.607 12.0988 397.366 17.7447 400.856C18.2825 401.125 18.5513 401.393 19.3579 402.199C12.9053 403.273 6.18397 404.347 -0.268555 405.689V406.763C4.57084 405.958 9.67909 404.884 14.5185 404.078C15.8628 403.81 17.207 403.81 19.3579 403.541C18.2825 404.884 17.4759 405.689 16.6693 406.763C11.0234 412.67 5.3774 418.308 -0.268555 423.947V426.632C2.95771 423.141 6.18397 419.651 9.67909 416.16C13.4431 412.133 17.207 408.106 21.7776 403.541C23.3907 404.347 24.4661 405.152 25.5415 405.689C41.404 416.16 56.7287 426.095 71.7846 435.76C73.9355 437.103 73.9355 438.445 71.7846 440.593C56.9976 455.36 42.7483 469.859 28.7678 484.357C27.9612 485.163 27.1547 485.968 26.0793 487.042C25.0038 486.773 23.9284 486.505 23.3907 486.237C15.8628 481.941 8.06596 477.645 0.269156 473.349V475.765C8.33481 479.793 16.1316 484.089 23.9284 488.116C15.8628 489.727 8.06596 491.338 0.269156 492.949V494.023C6.18397 492.68 12.3676 491.606 18.2825 490.264C19.6267 489.995 21.2399 489.727 23.9284 489.19C22.5841 490.532 21.7776 491.338 20.971 492.143C13.9808 498.856 6.99054 505.568 0.269156 512.28V514.428C7.7971 506.91 15.0562 499.393 22.853 491.606C23.3907 491.069 24.1973 490.264 25.2727 489.458C26.3481 489.995 27.4235 490.264 27.9612 490.532C42.7483 498.856 56.9976 506.642 70.9781 514.428C72.3223 515.234 72.5912 516.039 71.2469 517.65C57.2665 531.074 43.5548 544.231 30.1121 557.387C29.5744 557.924 29.0367 558.461 27.9612 559.266C26.617 558.729 25.8104 558.461 25.0038 557.924C16.9382 554.165 8.60367 550.137 0.269156 546.11V548.258C9.14138 552.285 18.0136 556.044 26.617 559.803C24.1973 560.34 23.1218 560.608 21.7776 560.877C14.5185 562.488 7.25939 564.099 0.000300497 565.71V566.515C6.99054 564.904 13.7119 563.293 20.7021 561.682C22.3153 561.414 23.6596 561.145 25.8104 560.608C25.0038 561.414 24.735 561.951 23.9284 562.488C15.8628 570.006 7.7971 577.523 0.000300497 585.041V587.458C8.87252 578.866 17.7447 570.543 26.617 561.682C26.8858 561.414 27.1547 561.145 27.9612 560.608C29.0367 560.877 29.8432 561.145 30.6498 561.682C44.0926 568.126 57.2665 574.301 69.9026 580.208C71.2469 580.745 71.7846 581.282 70.1715 582.893C57.2665 594.707 44.8991 606.252 32.5318 617.797L34.6826 616.723C47.05 605.715 59.4173 594.707 72.0535 583.43C73.6666 582.088 75.2798 581.014 78.506 580.477C102.972 574.57 127.169 568.932 150.828 563.293L154.592 561.414C141.687 564.636 88.4537 577.255 74.4732 579.94C60.2239 573.496 45.4368 567.052 30.1121 560.34C34.1449 558.729 99.4767 544.231 118.297 540.472C131.47 547.184 144.376 553.896 156.743 560.34L158.356 559.534C157.818 559.266 157.549 559.266 157.281 558.997C146.258 552.822 134.697 546.378 122.867 539.666C121.523 538.861 121.254 538.324 122.867 536.713C136.848 523.825 150.828 510.669 165.346 497.513C165.884 497.245 166.422 496.708 167.497 495.902C168.572 496.439 169.11 496.708 169.648 497.245C180.94 504.762 191.963 511.743 202.448 518.724C203.524 519.529 203.793 520.066 202.179 521.409C188.468 533.759 175.025 545.841 161.582 557.655L164.271 556.581C177.445 545.036 190.887 533.491 204.33 521.946C205.675 520.872 207.019 519.798 209.707 519.261C233.367 513.891 256.757 508.521 279.879 503.151L283.643 501.54C269.931 505.031 215.084 517.113 206.75 518.455C194.651 511.206 182.284 503.42 169.11 495.365C173.143 494.023 244.927 478.719 254.068 477.108C265.092 484.894 275.577 492.68 286.062 500.198L287.406 499.661C286.869 499.393 286.6 499.124 286.062 498.856C277.19 491.875 268.049 484.626 258.37 477.376C256.757 476.302 257.295 475.228 259.446 473.349C273.964 460.461 288.482 447.574 303.269 434.418C304.076 433.612 305.151 432.807 306.495 431.733C307.302 432.27 308.108 432.807 308.646 433.344C317.518 441.667 326.122 449.722 334.725 457.24C335.8 458.313 335.8 459.387 333.65 460.998C319.131 473.349 305.151 485.431 291.439 497.513L291.17 497.782L293.052 496.976C307.302 485.163 321.551 473.08 336.069 460.998C337.682 459.656 339.296 458.582 342.253 458.045C364.837 453.212 387.152 448.111 409.198 443.278L411.886 441.936C387.689 447.037 363.761 452.138 339.296 457.24C329.348 448.648 319.4 440.056 308.646 430.927C312.41 429.585 382.85 415.623 389.84 414.549C398.444 423.41 406.778 432.001 415.113 440.593L416.726 439.788C416.457 439.519 416.188 439.519 415.919 439.251C408.66 431.196 401.401 422.873 393.604 414.281C392.798 413.475 392.798 412.67 394.411 411.328C410.811 397.098 427.48 382.868 444.687 368.101C444.956 367.832 445.224 367.564 446.031 367.295C446.569 367.832 447.106 368.101 447.375 368.369C454.366 377.766 461.087 387.163 467.539 396.024C468.346 396.829 468.077 397.903 466.464 399.245C460.549 404.078 454.903 408.911 448.988 413.744C439.31 422.067 429.362 430.122 419.952 438.177L422.91 436.834C437.965 424.484 453.29 412.133 468.615 399.514C469.69 398.44 471.035 397.903 472.379 397.366C472.917 397.098 473.454 397.098 473.992 396.829C495.769 392.265 517.009 387.969 537.98 383.405H538.248L540.937 382.331H541.206C519.429 386.626 497.651 390.922 475.067 395.487C473.185 395.755 471.841 396.024 471.035 395.218C464.044 386.089 456.516 376.961 448.988 367.295C448.72 367.027 448.72 366.758 448.451 366.221C450.064 365.953 451.408 365.416 452.752 365.416C476.143 361.12 499.264 356.824 521.848 352.528C523.999 351.991 525.612 351.991 526.419 353.065C532.334 362.462 538.248 371.859 544.163 380.72C544.163 380.988 544.432 380.988 544.432 381.257H544.701L546.045 380.72H546.314C546.045 380.451 545.776 380.183 545.776 380.183C540.668 371.322 535.291 361.925 529.914 352.528C529.376 351.723 529.376 350.917 530.989 349.306C548.465 334.808 566.209 319.772 584.223 304.737C584.492 304.468 585.029 304.2 585.836 303.394C586.373 303.931 586.642 304.468 586.911 305.005C591.482 315.476 596.052 325.679 600.623 335.345C601.161 336.419 600.892 337.224 599.01 338.835C582.072 352.528 565.672 365.953 549.271 379.377L549.54 379.109L551.153 378.303L551.422 378.035C567.285 365.416 583.147 352.797 599.279 339.909C601.161 338.298 602.774 337.493 604.924 336.687C605.462 336.687 605.731 336.419 606.269 336.419C626.971 332.391 647.135 328.364 667.299 324.337H667.568L671.063 322.726C659.502 325.41 613.797 334.002 603.849 335.345C598.741 325.142 593.364 314.402 587.449 302.589C589.6 302.052 597.397 300.441 607.613 298.561C623.476 295.876 638.8 293.192 654.125 290.507C656.814 289.97 658.964 289.701 660.846 289.433C664.879 300.441 669.181 311.18 672.945 321.652H673.214L674.289 321.115H674.558C674.289 321.115 674.289 320.846 674.289 320.578C671.063 310.644 667.837 300.172 664.341 289.433C664.073 288.09 665.148 287.016 666.761 285.674C682.086 273.323 697.411 260.973 713.004 248.085C715.693 245.937 718.381 243.521 721.07 241.373C722.145 240.567 723.221 239.762 724.565 238.688C724.834 239.493 725.103 240.03 725.103 240.567C727.523 252.113 729.942 263.121 732.362 273.86C732.631 274.934 732.362 276.008 730.211 277.619C712.198 291.849 694.722 305.811 677.515 319.504L677.784 319.235L679.935 318.161L680.204 317.893C697.142 304.737 714.349 291.312 731.824 277.888C732.9 277.082 733.975 276.277 735.319 275.74C735.857 275.471 736.395 275.471 736.932 275.471C756.828 271.981 776.454 268.222 795.543 264.732L799.307 263.121C794.467 264.195 784.251 266.074 772.959 267.953C762.474 269.833 751.719 271.712 740.965 273.592C740.159 273.592 739.352 273.86 738.546 273.86C736.395 274.129 735.319 273.86 735.05 272.518C732.631 262.047 729.673 251.307 726.716 240.299C726.447 239.762 726.447 238.956 726.447 238.151C729.404 237.346 742.041 235.198 755.752 233.05C759.247 232.513 762.742 231.976 766.238 231.439C780.218 229.291 792.854 227.411 796.081 227.143C797.963 239.225 799.845 251.039 801.727 262.315L803.071 261.778C803.071 261.241 802.802 260.973 802.802 260.436C801.727 249.965 800.651 238.956 799.038 227.948C798.769 226.337 799.844 224.726 802.533 222.579C821.353 207.812 840.173 192.776 859.53 177.472C860.606 176.667 861.681 175.861 863.563 174.519C863.832 175.593 863.832 176.13 863.832 176.935C864.101 189.286 864.37 201.099 864.639 212.644C864.639 214.255 863.832 215.598 861.143 217.477C842.861 231.707 824.848 245.669 807.104 259.362C806.835 259.362 806.835 259.63 806.566 259.63L808.448 258.825C826.192 245.4 844.474 231.439 862.757 217.477C864.907 215.866 866.521 214.792 868.94 214.524C887.76 211.302 906.311 208.349 924.324 205.127L927.013 203.784C907.118 207.006 887.491 209.959 867.327 213.181C866.521 200.562 865.983 187.406 865.176 173.713C868.671 172.639 926.206 164.316 931.584 164.048C931.315 176.935 930.777 189.554 930.508 202.173L932.121 201.368C932.121 201.099 931.852 200.831 932.121 200.562C932.928 188.749 933.734 176.667 934.541 164.048C934.541 162.974 935.079 161.9 936.961 160.289C957.931 143.911 979.44 127.533 1001.22 110.618C1001.49 110.349 1002.02 110.081 1003.1 109.275C1003.1 110.081 1003.1 110.886 1003.1 111.423C1001.22 124.848 999.335 138.004 997.453 150.623C997.184 151.965 996.378 153.308 993.958 154.919C974.063 169.954 954.436 184.721 935.079 199.488L938.036 198.146C956.856 184.184 975.676 169.954 995.033 155.724C997.184 154.113 998.797 153.308 1000.95 153.039C1018.69 150.355 1036.17 147.67 1053.64 144.985L1056.33 143.642C1038.59 146.059 1020.84 148.475 1002.56 151.16C1000.95 151.428 999.873 151.428 1000.14 150.086C1001.75 137.198 1003.1 123.774 1004.71 109.812C1004.71 109.544 1004.98 109.007 1005.25 108.201C1007.13 107.933 1008.21 107.664 1009.55 107.664C1028.1 105.517 1046.38 103.369 1064.67 100.952C1067.09 100.684 1067.89 101.221 1067.62 102.832C1065.2 115.719 1062.78 128.338 1060.63 140.42C1060.63 140.957 1060.37 141.494 1060.37 142.031L1061.98 141.226C1061.98 140.957 1061.98 140.689 1061.98 140.42C1064.67 127.801 1067.62 114.914 1070.58 101.489C1070.85 100.147 1071.39 99.0728 1073.54 97.4618C1095.59 80.8154 1117.9 63.9005 1140.75 46.4486C1141.29 45.9116 1141.83 45.6431 1143.17 44.8377C1142.9 45.9116 1142.9 46.4486 1142.63 46.9856C1138.33 61.7526 1134.3 75.7141 1130.54 89.6756C1130.27 91.0181 1129.46 92.3605 1127.04 93.9715C1106.07 109.544 1085.64 124.848 1065.2 139.883L1067.36 138.809C1086.71 124.579 1106.34 110.349 1126.23 95.5824C1129.46 93.166 1131.61 92.092 1134.3 91.8235C1150.7 89.6756 1167.1 87.2592 1183.23 85.1113L1187 83.5003C1177.32 85.1113 1140.48 89.6756 1132.69 90.2126C1136.45 75.7141 1140.48 60.4101 1144.79 43.7637C1165.22 41.8843 1184.58 40.0048 1203.67 38.1254C1198.83 53.4294 1193.99 68.1963 1189.42 82.6948L1191.03 81.8894C1191.03 81.6209 1191.03 81.6209 1191.03 81.3524C1195.87 67.6594 1200.98 53.4294 1206.08 38.6624C1206.62 37.0514 1208.24 35.709 1210.39 33.8295C1225.44 22.5529 1241.04 11.2763 1256.36 -0.268799H1255.02C1239.69 11.0078 1224.37 22.2844 1209.31 33.2925C1206.89 34.9035 1205.28 35.9775 1203.4 36.2459C1185.65 38.1254 1167.37 40.5418 1148.82 42.6897C1148.01 42.6897 1147.47 42.6897 1146.4 42.6897C1148.28 41.3473 1149.36 40.5418 1150.43 39.7363C1167.1 26.5803 1185.11 13.4242 1203.13 -0.000308067H1200.98C1183.5 13.1557 1166.29 26.3118 1149.36 39.1993C1148.01 40.0048 1146.94 41.0788 1145.05 42.1527C1145.32 41.0788 1145.32 40.2733 1145.59 39.4678C1149.36 26.5803 1153.12 13.4242 1156.88 -0.000308067H1154.46C1150.97 13.6927 1147.47 26.8488 1144.25 39.7363C1143.98 40.5418 1143.71 41.6158 1143.17 43.2267C1122.47 45.3746 1102.04 47.2541 1081.07 49.402C1084.02 33.8295 1087.25 17.4516 1090.48 -0.000308067H1088.86C1088.86 0.268183 1088.86 0.268183 1088.86 0.536673C1085.37 16.9146 1081.87 32.7556 1078.65 48.0595C1078.11 50.2075 1077.03 51.8184 1073.81 54.2348C1052.03 70.8813 1030.79 87.5277 1010.09 103.637C1008.74 104.711 1007.4 105.517 1005.52 107.128C1005.52 105.785 1005.52 104.98 1005.79 104.174C1007.94 90.2126 1010.09 75.7141 1011.97 60.9471C1012.24 58.5307 1013.85 56.9197 1017.08 54.2348C1039.39 36.7829 1061.98 18.794 1084.83 0.536673C1085.1 0.268183 1085.37 -0.000308067 1085.64 -0.268799H1084.29C1081.87 1.61064 1079.45 3.49007 1077.03 5.36951C1056.33 21.479 1035.9 37.3199 1015.74 52.8924C1011.97 55.8458 1009.55 56.9197 1006.33 57.1882C986.43 59.3362 965.997 61.7526 945.026 64.169C943.413 64.4375 942.069 64.4375 939.918 64.706C941.531 63.3635 942.338 62.2896 943.413 61.4841C966.266 43.2267 989.387 24.9693 1013.05 6.17498C1016.27 3.49007 1018.69 2.41611 1021.65 2.14762C1030.79 1.34215 1039.93 0.536673 1049.07 -0.268799H1023.53C1022.99 -0.268799 1022.73 -0.268799 1022.19 -0.268799H1016.54C1016.27 1.07366 1015.47 2.14762 1013.58 3.75856C988.85 23.8954 964.653 43.4952 940.725 62.8265C940.456 63.095 940.187 63.3635 939.111 63.9005C939.111 63.095 938.843 62.2896 939.111 61.7526C940.187 45.3746 941.262 28.1912 942.338 10.4708C942.338 8.5914 943.413 7.24894 945.833 5.10102C947.984 3.22158 950.135 1.61064 952.285 -0.268799H949.328C947.984 0.805164 946.639 1.87913 945.295 2.95309C942.069 5.638 939.38 6.71196 936.154 6.98045C913.57 9.39687 889.911 11.8133 865.714 13.9612C864.37 13.9612 863.025 13.9612 861.143 13.9612C863.294 12.0818 864.639 11.0078 866.252 9.66536C870.016 6.44347 874.049 3.22158 877.812 -0.000308067H876.468C872.973 3.22158 869.209 6.17498 865.714 9.39687C864.37 10.7393 862.757 11.8133 860.606 13.6927C860.337 12.0818 860.337 11.0078 860.068 9.93385C860.068 6.71196 859.799 3.49007 859.799 -0.000308067H857.648C857.917 4.02705 858.186 7.78592 858.186 11.5448C858.186 12.3503 858.186 13.1557 857.917 14.4982C856.304 14.7667 854.96 15.0352 853.616 15.0352C828.612 16.9146 803.071 18.794 776.992 20.942C774.034 21.2105 772.959 20.6735 772.69 18.5256C771.884 12.3503 771.077 6.44347 770.002 0.268183H766.775C767.582 6.98045 768.388 13.6927 769.195 20.1365C769.464 22.0159 768.926 23.8954 766.238 26.0433C742.31 47.2541 719.188 67.9278 696.335 88.0647C695.529 88.8701 694.453 89.6756 693.109 90.7496C692.571 89.4071 692.302 88.6016 692.034 87.7962C688.27 70.6128 684.506 52.6239 680.473 33.8295C679.935 31.1446 680.742 28.9967 684.237 26.0433C693.647 17.4516 703.057 8.85989 712.467 -0.000308067H709.778C700.099 8.5914 690.42 17.4516 681.01 26.0433C679.129 27.6542 677.515 28.7282 675.633 29.2652C675.096 29.5337 674.289 29.5337 673.483 29.5337C644.177 32.2186 614.066 34.9035 583.147 37.8569C582.072 37.8569 580.996 37.8569 579.114 37.8569C580.728 36.2459 581.803 34.9035 583.147 33.8295C594.977 22.8214 607.075 11.5448 619.174 -0.000308067H615.679C603.58 11.5448 591.751 23.0899 580.19 34.3665C579.383 35.172 578.577 35.709 577.232 37.0514C576.695 35.709 576.157 34.9035 575.888 33.8295C572.393 22.8214 568.629 11.5448 564.865 0.268183H560.832C565.672 13.1557 570.242 25.7748 574.813 37.8569C573.468 38.3939 565.403 39.1993 554.38 40.2733C527.763 42.4212 501.146 44.3007 473.723 46.4486C472.11 46.4486 470.497 46.4486 469.422 46.4486C462.162 31.4131 454.634 16.1091 446.838 -0.000308067H442.805C449.795 15.5722 456.516 30.6076 463.238 45.1061C464.313 47.5226 464.313 49.6705 461.356 52.6239C438.503 75.4456 416.457 97.9988 394.68 120.015C393.604 121.089 392.529 122.163 390.916 123.505C389.84 122.163 389.303 121.089 388.496 120.284C377.742 101.758 366.45 82.4264 354.62 62.2896C353.007 59.6046 353.007 57.4567 356.233 54.2348C372.902 36.7829 389.84 18.794 406.778 0.536673H403.283C385.808 18.5256 368.601 36.5144 351.663 53.9663C351.394 54.2348 350.856 54.7718 350.587 55.0403C348.168 56.6512 345.479 57.7252 341.446 57.9937C305.957 60.9471 269.931 64.4375 232.829 67.6594C230.678 67.9279 228.258 67.9279 225.301 68.1964H225.032C226.107 66.5854 226.645 65.5114 227.452 64.4375C246.54 43.2267 266.167 21.7474 285.793 -0.000308067H281.223C261.596 22.0159 242.777 43.7637 223.957 64.9745C223.688 65.5114 223.15 65.7799 222.075 66.5854C220.73 65.243 219.924 64.169 219.117 63.095C204.599 43.2267 189.274 22.0159 172.874 -0.000308067H166.422C183.897 22.8214 201.104 44.3007 216.966 64.9745C217.773 65.7799 218.311 66.8539 219.117 68.4648C215.622 68.7333 213.202 69.0018 211.052 69.2703C172.605 72.2237 133.352 75.1771 93.0242 78.399C87.3782 78.936 83.8831 78.1305 80.9257 74.9086C59.955 52.3554 37.3712 28.7282 13.7119 3.49007C12.6365 2.41611 11.5611 1.34215 10.4857 -0.000308067H6.18397C7.7971 1.61064 9.14138 2.6846 10.2168 3.75856ZM1010.09 104.174C1031.6 87.7962 1053.11 71.4182 1075.15 54.5033C1077.57 52.6239 1079.19 51.5499 1081.6 51.2814C1101.23 49.1335 1120.32 46.7171 1139.41 44.5692C1140.22 44.5692 1140.75 44.5692 1141.56 44.5692C1140.22 45.6431 1139.14 46.4486 1138.06 47.2541C1115.75 63.9005 1093.97 80.2784 1072.46 96.3879C1070.31 97.9988 1068.43 99.0728 1066.55 99.3413C1047.46 101.758 1028.1 104.443 1008.48 107.128C1007.67 107.128 1007.13 107.128 1005.79 107.396C1007.67 105.785 1009.01 104.98 1010.09 104.174ZM14.7873 166.732C18.5513 166.195 20.971 165.658 23.1218 165.658C63.4501 161.631 102.703 157.604 140.88 153.576C144.913 153.039 147.333 153.576 149.484 155.724C166.959 173.982 183.628 191.434 199.76 208.349C200.297 208.885 200.835 209.691 201.373 210.228C201.104 210.496 201.104 210.765 200.835 210.765C200.835 210.765 200.566 211.033 200.297 211.033C198.953 211.302 197.609 211.57 196.265 211.839C159.163 216.403 120.985 220.968 82.0011 225.8C61.0304 207.006 38.9843 187.675 14.7873 166.732ZM22.3153 292.923C40.5974 273.055 59.1484 252.65 77.9683 231.976C80.388 229.291 83.3454 227.948 88.1848 227.411C124.48 222.579 160.238 217.746 195.189 213.181C196.802 212.913 198.684 212.913 201.642 212.644C199.76 214.524 198.415 215.866 197.34 217.209C178.251 237.077 159.163 256.408 140.88 275.471C138.998 277.619 136.848 278.962 132.815 279.767C97.5947 285.137 61.5681 290.507 25.0038 296.145C23.6596 296.414 22.3153 296.413 20.1644 296.682C20.971 294.803 21.5087 293.997 22.3153 292.923ZM273.964 202.979C286.869 201.636 299.505 200.025 312.141 198.683C314.023 198.414 315.367 198.414 316.443 198.414C329.617 215.329 342.253 231.17 354.62 246.743C353.276 247.28 345.21 248.622 333.918 250.233C307.033 253.992 280.416 257.751 252.993 261.51C238.206 245.937 222.612 229.559 206.212 212.376C209.17 211.302 243.852 206.738 273.964 202.979ZM206.481 210.228C207.557 208.886 208.094 207.812 209.17 206.738C229.334 185.795 250.036 164.585 271.006 142.837C272.351 141.494 273.426 140.689 274.77 139.883C276.383 139.078 278.265 138.541 280.685 138.272C314.83 134.514 348.168 130.486 380.968 126.727C382.85 126.459 384.463 126.459 387.152 126.19C385.808 127.801 385.001 128.875 384.194 129.681C362.417 150.891 341.178 171.565 320.476 191.971C319.938 192.508 319.669 192.776 319.131 193.045C317.249 194.387 315.099 195.192 311.872 195.729C279.61 200.025 246.809 204.321 213.202 208.886C211.052 209.691 209.17 209.959 206.481 210.228ZM560.832 165.927C572.662 164.585 584.223 162.974 595.783 161.631C603.849 160.826 610.57 160.02 613.797 159.752C614.603 159.752 615.41 160.02 615.679 160.557C621.594 176.13 626.971 191.165 632.617 206.201C630.466 206.469 629.121 207.006 627.508 207.006C603.311 210.496 578.577 213.718 553.573 217.477C550.078 218.014 548.465 217.477 547.39 215.598C540.937 202.173 533.947 188.212 526.956 173.713C526.419 172.908 526.15 172.102 525.881 171.028C529.645 170.223 544.432 168.075 560.832 165.927ZM526.688 168.88C527.763 167.806 528.57 166.732 529.645 165.927C550.885 146.864 572.662 127.264 594.708 107.396C596.59 105.517 598.472 104.443 600.623 103.906C601.161 103.906 601.698 103.637 602.236 103.637C630.735 100.415 658.427 97.1933 685.85 93.9715C686.925 93.9715 688.001 93.9715 689.614 93.9715C688.001 95.5824 686.925 96.6564 685.581 97.7303C663.535 116.793 641.758 135.856 620.518 154.113C618.905 155.456 617.561 156.53 615.679 157.067C615.41 157.067 615.141 157.335 614.872 157.335H614.603C614.334 157.335 613.797 157.604 613.528 157.604C586.373 161.094 558.681 164.853 530.452 168.612C529.376 168.612 528.301 168.88 526.688 168.88ZM632.079 207.812C630.197 209.422 629.121 210.228 628.046 211.302C608.42 227.68 589.331 243.789 570.511 259.63C569.436 260.704 568.36 261.241 567.285 261.778C566.209 262.315 564.865 262.584 563.252 262.852C538.786 266.88 513.783 271.175 488.51 275.471C487.166 275.74 485.822 275.74 484.209 276.008C485.015 275.203 485.553 274.397 486.091 273.86C505.448 257.214 525.075 240.03 544.97 222.847C545.508 222.31 546.045 222.042 546.583 221.505C548.196 220.699 549.54 220.162 551.691 219.625C577.501 215.866 602.774 211.839 627.508 208.08C628.853 208.08 629.928 208.08 632.079 207.812ZM544.432 217.746C544.97 219.088 544.701 220.162 542.819 222.042C522.924 239.493 503.835 256.945 484.746 273.86C484.209 274.397 483.671 274.666 482.595 275.471C482.058 274.666 481.52 274.129 480.982 273.592C473.723 261.241 466.464 248.085 458.398 234.661C457.323 233.05 458.13 231.439 460.549 229.291C480.176 211.302 500.071 192.776 520.504 173.982C521.042 173.445 521.848 172.908 523.193 171.834C523.73 172.371 524.268 172.908 524.537 173.445C531.258 189.017 537.98 203.784 544.432 217.746ZM518.622 174.25C497.92 193.045 477.487 211.302 457.323 229.291C456.516 230.096 455.71 230.633 454.903 230.902C453.29 231.707 451.677 232.244 449.526 232.513C421.834 236.54 393.335 241.104 364.568 245.4C362.955 245.669 361.342 245.669 358.922 246.206C360.266 244.863 361.073 243.789 362.148 242.984C381.775 224.726 401.939 205.932 422.103 186.869C423.178 185.795 423.985 185.258 425.329 184.453C426.673 183.916 428.018 183.379 429.9 183.11C459.474 179.352 488.51 175.324 516.74 171.297C518.084 171.028 519.429 171.028 521.31 170.76C520.504 172.639 519.697 173.445 518.622 174.25ZM364.03 247.011C393.067 242.984 421.296 238.956 449.257 234.929C452.215 234.392 453.828 234.661 454.903 236.272C463.238 249.696 471.572 262.584 479.369 274.934C479.638 275.471 479.907 276.008 480.176 276.814C477.756 277.351 476.143 277.619 474.799 277.619C449.526 281.647 423.716 285.674 397.637 289.701C393.604 290.238 391.722 289.97 390.109 288.359C380.968 276.277 371.02 263.926 361.073 251.039C360.266 250.233 359.729 249.159 358.922 247.817C360.804 247.548 362.417 247.28 364.03 247.011ZM479.638 278.156C476.143 281.11 473.454 283.526 470.766 285.942C454.634 299.904 438.772 313.597 423.178 327.29C421.834 328.632 420.49 329.438 418.877 330.243C417.532 330.78 415.919 331.317 414.037 331.586C389.034 336.15 363.761 340.714 337.951 345.547C336.069 345.816 334.187 346.084 331.768 346.621C332.843 345.547 333.381 344.742 334.187 343.936C351.663 328.364 369.407 312.254 387.421 296.145C389.303 294.534 390.916 293.46 393.335 292.655C393.873 292.386 394.411 292.386 395.217 292.118C422.372 287.553 449.257 282.989 475.605 278.425C476.681 278.425 477.756 278.425 479.638 278.156ZM386.883 290.507C387.958 291.849 387.689 293.192 385.539 295.071C378.817 301.246 372.096 307.422 365.375 313.597C353.814 324.068 342.522 334.539 331.499 345.01C331.23 345.279 330.961 345.279 330.154 346.084C329.348 345.547 328.81 345.01 328.541 344.742C318.325 333.465 308.108 321.652 297.085 309.57C296.01 308.227 296.01 307.153 297.892 305.542C316.443 287.822 334.994 269.833 354.083 251.576C354.62 251.039 355.427 250.502 356.502 249.696C357.309 250.77 358.115 251.307 358.653 252.113C368.063 265 377.473 277.888 386.883 290.507ZM330.423 271.444C318.594 282.452 307.033 293.192 295.741 303.931C293.321 306.348 290.902 307.422 286.6 307.959C257.295 312.791 227.452 317.893 197.071 322.994C195.458 323.263 193.576 323.531 191.156 323.8C192.769 322.189 193.845 321.115 194.92 320.041C212.665 302.589 230.947 284.868 249.229 266.88C251.649 264.463 253.8 263.389 257.832 262.852C277.459 259.899 297.085 256.945 316.174 253.992C327.466 252.381 338.758 250.502 350.05 248.891C351.125 248.622 352.201 248.622 354.351 248.354L354.083 248.622C352.469 250.233 351.394 251.039 350.319 252.113C343.597 258.556 336.876 265 330.423 271.444ZM327.466 346.084C327.735 346.353 327.735 346.621 328.004 347.158C325.853 347.695 324.509 347.964 322.895 348.232C295.741 353.065 267.78 357.629 239.55 362.731C236.324 363.268 234.442 363.268 232.829 361.925C220.193 350.917 207.019 339.372 193.307 327.558C192.769 327.021 192.232 326.484 191.425 325.679C192.769 325.41 193.845 324.874 194.92 324.605C226.645 319.504 257.832 314.671 288.213 309.838C290.633 309.57 292.246 309.57 293.321 310.643C304.882 322.726 316.443 334.808 327.466 346.084ZM191.694 328.364C204.868 340.446 217.235 351.991 229.603 363.268C230.947 364.342 231.216 365.416 229.334 367.295C212.396 383.405 195.996 399.245 179.864 415.086C179.327 415.623 178.789 415.892 177.714 416.966C176.638 416.16 175.832 415.892 175.294 415.355C162.658 405.421 149.484 395.218 135.503 384.478C134.159 383.405 133.621 382.331 135.503 380.451C152.172 363.536 169.11 346.353 186.317 328.901C186.855 328.364 187.661 327.558 189.006 326.484C189.812 327.021 190.887 327.558 191.694 328.364ZM182.015 414.012C198.147 398.977 214.816 383.405 231.485 367.832C233.367 366.221 234.98 365.147 238.206 364.61C267.242 359.24 295.741 354.139 323.702 349.038C324.777 348.769 325.584 348.769 327.735 348.501C326.391 349.843 325.584 350.649 324.509 351.454C307.302 366.758 290.633 382.062 273.964 396.829C272.351 398.44 270.737 399.245 267.511 400.051C239.819 405.421 211.589 411.059 183.091 416.697C182.015 416.966 180.94 416.966 179.327 417.234C180.671 415.892 181.209 414.818 182.015 414.012ZM207.019 216.135C220.999 231.707 234.173 246.474 247.078 260.704C248.96 262.584 248.691 264.195 246.272 266.88C228.258 284.868 210.783 302.589 193.845 320.041C192.769 321.115 191.694 322.189 190.081 323.8C188.737 322.726 187.661 321.92 186.855 321.115C173.143 308.496 159.163 295.34 144.376 281.915C142.225 280.036 142.225 278.425 144.644 275.471C162.927 256.408 180.94 236.809 199.76 216.672C200.835 215.598 202.179 214.524 203.793 212.913C204.868 214.255 205.943 215.061 207.019 216.135ZM22.5841 299.904C21.7776 299.367 21.2399 298.561 20.1644 297.756C22.3153 297.219 23.9284 296.95 25.2727 296.682C61.837 291.581 97.3259 286.479 132.277 281.647C136.041 281.11 138.192 281.378 139.805 282.989C155.667 296.682 170.992 310.107 185.51 322.726C186.048 323.263 186.586 323.8 187.392 324.605C185.242 325.142 183.628 325.41 182.284 325.679C150.29 330.78 117.759 335.882 84.6897 340.983C81.1946 341.52 79.0437 341.251 77.1617 339.909C59.6862 327.29 41.404 313.865 22.5841 299.904ZM26.3481 398.708C42.7483 381.794 59.4173 364.61 76.3552 347.158C78.506 345.01 80.6569 343.936 84.9585 343.131C117.759 337.761 150.29 332.123 182.015 326.753C183.628 326.484 184.973 326.216 187.93 325.947C186.317 327.558 185.242 328.632 184.166 329.706C166.959 346.353 150.29 362.731 133.89 378.84C131.739 380.988 129.32 382.331 125.018 383.136C94.0996 388.774 62.9124 394.413 30.9186 400.319C29.0367 400.588 27.1547 400.856 24.735 401.393C25.0038 400.319 25.5415 399.514 26.3481 398.708ZM23.3907 402.467C60.4927 396.024 95.175 390.117 129.589 384.21C145.451 395.755 160.507 406.763 175.294 417.234C171.261 418.577 91.4111 433.881 77.1617 435.76C60.4927 425.289 42.7483 414.549 23.3907 402.467ZM28.7678 485.163C43.8237 470.396 59.4173 455.36 75.0109 440.056C76.3552 438.714 77.9683 437.64 80.9257 437.103C111.844 430.927 142.494 425.021 172.336 419.114C173.143 418.845 173.681 418.845 175.294 418.845C173.95 420.188 172.874 421.262 171.799 422.067C156.474 436.566 141.149 450.527 126.362 464.489C124.211 466.637 121.792 467.711 117.759 468.516C89.7979 474.154 61.5681 480.061 32.5318 486.237C30.9186 486.505 29.3055 486.773 26.8858 487.31C27.6924 486.236 28.2301 485.699 28.7678 485.163ZM28.2301 489.19C27.9612 488.921 27.6924 488.921 27.1547 488.384C29.3055 487.847 30.9186 487.579 32.5318 487.042C61.837 481.135 90.6045 475.497 118.834 469.859C121.523 469.322 123.674 469.053 125.287 469.859C138.73 478.182 151.903 486.236 164.54 494.023C164.809 494.291 165.077 494.56 165.615 494.828C164.271 495.097 163.195 495.634 162.12 495.902C134.966 501.54 107.274 507.447 79.3126 513.354C76.8929 513.891 75.2798 513.891 74.2043 513.354C59.4173 505.568 44.0926 497.513 28.2301 489.19ZM162.927 498.856C148.677 511.475 134.697 524.094 121.254 536.444C119.372 538.055 117.221 539.129 113.726 539.935C87.9159 545.841 61.5681 551.748 34.9515 557.924C33.3383 558.192 31.9941 558.461 30.1121 558.997C31.1875 557.924 31.7252 557.387 32.5318 556.581C45.9745 543.962 59.955 531.074 73.9355 517.918C75.8175 516.307 77.6995 515.502 81.1946 514.696C108.349 508.79 135.234 502.883 161.313 497.245C162.658 496.976 164.271 496.708 166.422 496.439C164.54 497.245 163.733 498.05 162.927 498.856ZM167.766 494.291C166.691 493.754 165.884 493.486 165.077 492.949C153.248 485.163 141.149 477.108 128.513 469.053C127.169 467.979 126.9 467.174 128.513 465.563C143.569 451.064 158.625 436.566 173.95 421.53C174.756 420.725 175.563 420.188 176.907 419.114C177.982 419.651 178.789 420.188 179.596 420.725C191.694 430.122 202.986 438.982 214.278 447.574C215.891 448.648 215.622 449.99 213.471 451.87C198.953 465.294 184.704 478.45 170.723 491.338C170.186 492.143 169.11 492.949 167.766 494.291ZM302.731 433.881C287.138 447.305 271.544 460.73 256.488 473.886C255.144 475.228 253.531 476.034 251.111 476.571C225.301 482.209 198.953 488.116 172.068 493.754C171.261 494.023 170.454 494.023 169.11 494.291C170.186 493.217 170.454 492.68 171.261 492.143C185.779 478.987 200.835 465.831 215.622 452.138C218.042 449.99 220.193 448.916 224.494 448.111C250.036 442.741 275.039 437.64 299.774 432.538C301.387 432.27 302.731 432.001 304.882 431.464C304.076 432.538 303.538 433.075 302.731 433.881ZM219.655 447.574C206.75 438.177 193.307 428.511 179.327 418.308C184.166 416.697 255.95 403.004 271.275 400.856C283.105 411.059 294.397 420.725 305.958 430.659C276.921 436.297 248.691 441.936 219.655 447.574ZM307.571 429.585C306.764 429.048 305.957 428.779 305.689 428.511C296.01 419.651 286.331 410.254 275.846 400.856C274.77 399.782 274.501 398.977 276.383 397.366C293.052 382.062 309.721 366.49 326.928 350.649C327.466 350.112 328.004 349.843 329.348 348.769C330.154 349.575 330.692 350.112 331.23 350.649C340.64 361.388 349.781 371.591 358.922 381.525C359.729 382.599 359.997 383.405 358.115 385.015C341.715 399.514 325.584 414.012 309.721 427.974C309.184 428.242 308.377 428.779 307.571 429.585ZM441.192 370.248C435.546 375.081 429.631 379.914 423.985 384.747C413.5 393.339 403.283 401.93 393.335 410.522C391.185 412.133 389.303 413.207 386.076 413.744C362.148 418.577 337.951 423.678 313.217 428.779C311.872 429.048 310.797 429.316 308.915 429.585C309.453 428.779 309.99 428.242 310.528 427.706C326.659 413.744 343.328 399.514 359.997 385.015C361.611 383.673 362.955 382.868 365.375 382.331C381.775 379.109 398.175 375.887 414.037 372.665C422.641 371.054 431.244 369.174 439.847 367.564C441.192 367.295 442.536 367.295 444.418 366.758C443.343 368.369 442.267 369.174 441.192 370.248ZM441.998 366.758C417.264 371.322 391.991 376.155 366.45 380.72C364.299 380.988 362.955 380.988 362.148 380.183C352.469 369.98 342.522 359.509 332.036 348.501C331.768 348.232 331.768 347.964 331.768 347.695C333.918 346.89 361.611 341.788 385.808 337.493L386.076 337.761C395.755 336.15 405.434 334.539 415.113 332.66C417.801 332.123 419.414 332.391 420.221 333.465C428.556 343.936 436.621 354.139 444.418 364.073C444.687 364.342 444.956 364.879 445.225 365.416C443.611 366.221 442.805 366.49 441.998 366.758ZM447.107 364.879C446.3 364.073 445.762 363.536 445.493 362.999C438.503 353.334 431.244 343.131 423.447 332.928C422.372 331.317 422.91 329.975 425.329 327.558C442.536 312.523 459.743 296.951 477.487 281.378C477.756 281.378 477.756 281.11 478.025 281.11C478.831 280.304 479.907 279.499 481.251 278.425C481.789 278.962 482.327 279.499 482.595 280.036C489.586 292.118 496.307 303.663 502.76 314.671C503.566 315.745 503.028 316.819 501.146 318.698C483.671 333.734 466.464 348.501 449.526 362.999C448.72 363.805 448.182 364.342 447.107 364.879ZM580.996 305.005C563.252 319.504 545.508 334.002 528.301 347.964C526.956 349.038 525.881 349.843 524.268 350.38C523.73 350.649 523.193 350.649 522.655 350.917C499.264 355.481 475.605 360.046 451.408 364.879C450.602 365.147 449.795 365.147 447.913 365.416C449.257 364.073 450.333 363.268 451.139 362.462C468.077 348.232 485.284 333.734 502.76 319.235C503.566 318.698 504.104 318.161 504.91 317.893C506.255 317.087 507.868 316.55 509.75 316.282C533.14 311.986 556.531 307.69 579.383 303.394C580.728 303.126 581.803 303.126 583.685 302.857C582.61 303.663 581.803 304.468 580.996 305.005ZM583.147 301.783C558.413 306.079 533.947 310.375 508.405 314.671C507.599 314.671 507.061 314.671 506.523 314.402C498.996 302.857 491.468 290.507 483.133 277.619C484.208 277.351 485.015 277.351 485.822 277.082C512.707 272.786 538.517 268.759 564.059 264.732C565.134 264.732 565.94 264.732 566.478 265.269C572.662 277.619 578.846 289.701 584.76 301.515C583.954 301.515 583.416 301.783 583.147 301.783ZM586.642 300.441C586.105 299.635 585.836 299.367 585.567 298.561C580.728 287.553 575.888 276.277 570.511 264.732C569.973 263.389 570.242 262.315 572.393 260.167C591.213 244.058 610.302 227.411 629.928 210.765C630.735 209.959 631.81 209.422 632.885 208.349C633.423 208.885 633.692 209.423 633.961 210.228C638.263 223.384 642.295 236.003 646.328 248.354C646.866 249.696 646.328 250.77 644.177 252.381C625.357 267.953 606.806 283.526 588.793 298.561C588.255 299.098 587.718 299.635 586.642 300.441ZM722.952 238.688C721.608 239.762 720.532 240.567 719.726 241.373C701.175 256.14 683.161 270.37 665.148 284.868C662.997 286.748 661.115 287.553 658.696 288.09C636.649 292.118 614.066 296.145 591.213 300.441C590.406 300.709 589.6 300.709 587.987 300.978C589.331 299.635 590.406 299.098 591.213 298.293C609.495 283.526 627.777 268.49 646.597 253.186C647.404 252.381 648.479 251.844 649.286 251.307C650.361 250.77 651.705 250.502 653.05 250.233C675.633 246.474 697.68 242.715 719.726 238.956C720.801 238.688 721.877 238.688 723.759 238.419C723.221 238.419 722.952 238.688 722.952 238.688ZM722.683 237.077C721.876 237.346 721.339 237.346 720.801 237.346C698.755 240.836 676.44 244.326 653.856 247.817C651.705 248.085 650.361 248.085 649.823 247.011C645.522 234.661 640.682 222.042 635.843 208.886C635.574 208.349 635.574 207.812 635.574 207.006C637.187 206.738 638.531 206.469 639.876 206.201C663.804 202.979 687.194 199.488 710.316 196.266C711.391 195.998 712.198 195.998 713.004 195.998H713.273C714.08 196.266 714.349 196.535 714.617 197.34C717.844 210.496 721.07 222.847 724.296 234.929C724.296 235.198 724.296 235.735 724.565 236.272C723.758 236.809 723.221 237.077 722.683 237.077ZM636.112 205.664C637.187 204.59 637.994 203.784 638.8 203.247C659.502 185.795 680.473 168.343 701.712 150.355C703.326 149.012 704.67 148.207 706.283 147.67C706.552 147.67 707.089 147.401 707.358 147.401C732.631 143.911 757.365 140.689 781.831 137.467C782.369 137.467 782.907 137.467 783.982 137.467C782.1 139.078 780.756 140.152 779.411 141.226C758.979 157.872 738.814 174.519 718.919 190.628C716.768 192.239 714.886 193.313 713.004 194.119C712.198 194.387 711.391 194.387 710.585 194.655C687.732 198.146 664.341 201.636 640.682 205.395C639.338 205.395 637.994 205.395 636.112 205.664ZM726.447 236.003C726.178 235.198 725.909 234.661 725.909 234.124C723.221 222.042 720.801 209.691 717.844 196.803C717.575 195.461 717.844 194.387 720.263 192.239C731.555 182.842 743.116 173.445 754.408 163.779V163.511C763.28 155.993 772.421 148.475 781.562 140.689C782.638 139.883 783.713 139.078 785.326 138.004C785.595 139.078 785.864 139.615 785.864 140.42C787.477 154.382 788.821 168.075 790.703 181.231C790.972 183.11 789.897 184.453 787.208 186.869C768.12 202.442 749.3 217.746 730.749 232.781C729.673 233.587 728.598 234.392 727.254 235.466C726.716 235.466 726.716 235.735 726.447 236.003ZM859.799 176.398C839.635 191.971 820.009 207.275 800.651 222.31C798.769 223.653 797.156 224.726 795.005 224.995C785.595 226.606 775.916 228.217 766.238 229.828C754.139 231.976 742.041 233.855 729.673 236.003C729.136 236.003 728.598 236.003 727.522 236.272C728.329 235.466 729.136 234.661 729.942 233.855C740.696 225.263 751.451 216.672 762.205 208.08C770.808 201.368 779.143 194.656 787.746 187.675C790.703 185.258 793.123 184.184 796.618 183.647C817.589 180.425 838.291 177.204 858.724 174.25C860.068 173.982 861.143 173.982 863.025 173.713C861.681 174.787 860.606 175.593 859.799 176.398ZM793.661 182.305C791.51 168.075 789.359 153.039 786.94 137.467C791.241 136.125 849.314 128.875 861.412 128.07C862.219 143.105 863.025 157.872 864.101 172.639C840.442 175.593 817.589 178.815 793.661 182.305ZM865.445 169.417C865.176 156.261 864.907 142.568 864.639 128.338C864.639 126.996 865.176 125.653 867.596 123.505C889.642 105.785 911.688 87.7962 934.541 69.2703C935.348 68.7333 935.885 68.1964 937.498 67.1224C937.498 68.1964 937.498 69.0018 937.498 69.8073C936.423 85.3798 935.616 100.147 934.541 114.645C934.541 115.988 934.003 117.33 931.584 119.21C910.344 136.125 889.373 152.502 868.94 168.88C868.134 169.417 867.327 169.954 866.252 170.76C865.714 170.76 865.445 170.223 865.445 169.417ZM998.26 112.766C977.558 128.338 957.394 143.911 937.23 159.215C934.541 161.094 932.659 162.168 929.97 162.437C910.344 165.39 890.449 168.343 870.016 171.565C868.94 171.834 867.865 171.834 866.521 172.102C867.327 171.297 868.134 170.491 868.94 169.954C889.642 153.845 910.882 137.467 932.39 120.821C934.272 119.21 935.885 118.404 938.036 118.136C959.276 115.182 980.246 112.497 1000.95 109.544C1001.22 109.544 1001.49 109.544 1002.56 109.544C1000.68 110.618 999.604 111.692 998.26 112.766ZM1009.28 59.6046C1007.4 75.9826 1005.79 91.8235 1003.91 107.396C1002.56 107.664 1001.75 107.933 1000.95 108.201C981.053 110.618 960.62 113.034 939.918 115.451C938.305 115.719 937.23 115.451 937.23 114.108C937.767 99.0728 938.305 83.7688 938.843 67.9279C938.843 67.6594 939.111 67.3909 939.111 66.8539C942.607 65.7799 997.453 59.8731 1009.28 59.6046ZM860.068 16.1091C861.143 15.8406 862.219 15.3037 863.025 15.3037C888.029 13.4242 912.495 11.5448 936.423 9.66536C938.305 9.39687 939.38 9.93385 939.38 11.5448C938.843 29.5337 938.305 46.9856 937.498 63.632C937.498 63.9005 937.229 64.169 936.961 65.243C935.348 65.5114 934.003 65.7799 932.659 65.7799C910.882 67.9279 888.836 70.0758 866.252 72.4922C863.563 72.7607 862.488 72.2237 862.219 70.3443C861.412 53.6978 860.606 36.7829 859.53 18.794C860.068 18.2571 860.068 17.4516 860.068 16.1091ZM864.639 75.1771C888.029 72.4922 910.882 69.8073 933.466 67.1224C934.272 67.1224 935.079 67.1224 936.423 67.1224C934.541 68.7333 933.466 69.5388 932.39 70.3443C910.075 88.0647 888.029 105.517 866.521 122.7C864.37 124.579 862.488 125.653 860.068 125.922C837.484 128.875 814.632 132.097 791.241 135.319C790.435 135.319 789.628 135.319 788.284 135.588C789.628 134.245 790.703 133.44 791.779 132.366C813.287 114.645 835.333 96.9249 857.648 78.6675C860.068 76.5196 861.95 75.4456 864.639 75.1771ZM858.186 20.1365C858.724 38.1254 858.993 55.3088 859.53 71.9552C859.53 73.5662 858.993 75.1771 856.573 77.325C833.72 96.1194 811.674 114.914 789.897 132.903C789.359 133.44 788.553 133.977 787.208 135.051C786.939 133.977 786.671 133.44 786.671 132.634C785.057 117.599 783.175 102.026 781.294 85.9167C781.025 84.3058 781.562 82.6948 784.251 80.5469C807.372 60.6786 830.763 40.5418 854.691 20.1365C855.497 19.331 856.573 18.5256 858.186 17.4516C857.917 18.2571 858.186 19.0625 858.186 20.1365ZM695.26 90.4811C696.604 89.4071 697.68 88.3331 698.486 87.5277C710.585 77.0565 722.683 66.5854 735.05 55.8458V55.5773C745.805 46.4486 756.29 37.0514 767.313 27.6542C770.27 25.2378 772.69 23.8954 775.916 23.6269C801.995 21.2105 827.805 18.794 852.809 16.6461C854.153 16.6461 855.229 16.6461 857.38 16.3776C854.96 18.5256 853.616 19.5995 852.002 20.942C828.881 40.5418 806.028 59.6046 783.713 78.399C780.756 81.0839 778.336 82.1579 774.841 82.6948C763.549 84.0373 752.257 85.1113 740.696 86.4537C726.716 88.0647 712.735 89.6756 698.217 91.2866C697.142 91.2866 696.066 91.2865 694.184 91.555C694.453 91.0181 694.722 90.7496 695.26 90.4811ZM777.261 84.5743C779.949 102.026 782.638 118.941 785.057 135.319C783.175 135.856 767.313 138.272 750.106 140.42V140.152C736.664 141.763 722.952 143.374 708.971 144.985C707.896 144.985 706.821 145.253 706.014 145.253C701.981 128.875 697.411 111.692 692.84 93.166C722.414 90.2126 750.106 87.5277 777.261 84.5743ZM690.958 94.7769C691.227 95.8509 691.765 96.9249 691.765 97.7303C695.26 113.84 698.486 129.412 701.981 144.448C702.519 146.596 701.443 148.207 698.755 150.623C678.322 168.075 658.695 185.258 639.069 201.905C637.994 202.71 637.187 203.516 635.843 204.59C635.574 204.59 635.305 204.858 635.036 205.127L634.767 204.858C634.499 204.053 633.961 203.247 633.692 202.442C629.39 189.017 624.82 174.787 619.98 160.557C619.174 158.409 619.98 156.798 622.938 154.113C643.64 135.856 664.341 117.33 685.581 98.5358C687.194 97.1933 688.807 95.8509 690.42 94.2399C690.689 94.5084 690.689 94.7769 690.958 94.7769ZM579.114 40.0048C580.459 39.7363 581.534 39.4678 582.609 39.4678C612.99 37.0514 642.564 34.9035 671.601 32.7556C674.289 32.4871 675.633 33.0241 676.171 34.9035C681.01 54.2348 685.85 72.4922 690.152 90.2126C690.152 90.4811 690.152 91.0181 690.42 92.092C675.633 93.9715 661.115 95.0454 646.328 96.6564C631.272 98.2673 615.948 99.6098 600.354 101.221C593.364 81.8894 586.105 61.7526 578.308 40.2733C578.308 40.2733 578.577 40.0048 579.114 40.0048ZM575.35 41.3473C575.888 42.6897 576.426 43.4952 576.695 44.3007C583.147 63.9005 589.331 82.4264 595.246 100.415C595.783 102.295 595.246 103.637 593.095 105.785C570.511 126.459 548.734 146.596 527.225 166.464C526.688 167.001 526.15 167.269 525.343 168.075C524.806 167.269 524.268 166.732 523.73 166.195C516.471 150.086 508.943 133.44 501.146 115.988C500.34 114.377 500.34 113.034 502.491 110.886C525.612 88.8701 549.003 66.0484 573.2 42.9582C573.737 42.4212 574.275 42.1527 575.35 41.3473ZM395.217 120.821C417.801 98.8043 440.923 75.9826 464.582 52.8924C465.389 52.0869 466.195 51.5499 467.002 51.0129C468.615 50.2075 470.228 49.6705 472.648 49.402C505.179 46.4486 537.173 43.4952 568.629 40.5418C569.973 40.5418 571.318 40.5418 573.2 40.2733C572.124 41.6158 571.318 42.6897 570.511 43.4952C546.583 66.0484 523.193 87.7962 500.34 109.275C499.802 109.812 499.533 110.081 498.996 110.349C496.845 111.692 494.425 112.497 491.468 112.766C461.356 115.988 430.437 119.747 398.981 123.237C397.099 123.505 395.486 123.505 392.798 123.774C393.604 122.7 394.411 121.626 395.217 120.821ZM396.831 125.116C429.093 121.894 460.549 118.673 491.199 115.451C494.425 115.182 496.307 115.451 497.114 117.599C505.448 134.782 513.783 151.16 521.579 167.001C521.848 167.538 522.117 168.343 522.386 169.417C519.966 169.686 518.084 169.954 516.471 170.223C488.779 173.445 460.818 176.935 432.051 180.425C428.018 180.962 425.867 180.425 424.523 178.278C414.844 162.437 404.627 146.327 393.873 129.412C393.335 128.338 392.798 127.264 391.991 125.653C393.873 125.653 395.486 125.385 396.831 125.116ZM389.034 127.264C389.84 128.338 390.647 128.875 391.185 129.681C401.67 147.401 411.349 164.316 421.028 180.425C422.103 182.036 421.834 183.647 419.683 185.795C399.25 205.395 379.355 224.726 359.997 243.521C359.46 244.058 358.653 244.863 357.309 245.669C356.502 244.863 355.696 244.058 355.158 243.252C344.673 229.022 333.918 213.987 322.627 198.683C321.551 197.072 321.013 195.729 323.433 193.313C344.404 172.371 365.375 150.891 387.152 129.144C387.421 128.607 387.958 128.07 389.034 127.264ZM347.63 60.1416C361.611 82.4264 375.053 103.637 388.227 124.311C386.614 124.579 385.27 125.116 384.194 125.116C350.319 128.607 315.636 132.097 280.147 135.588C277.19 135.856 275.308 135.588 273.964 133.977C258.639 114.108 242.508 93.4345 225.57 71.6867C225.301 71.4182 225.032 70.8813 224.494 69.5388C266.974 66.3169 307.571 63.3635 347.63 60.1416ZM220.999 71.4182C222.344 72.7607 223.419 73.8347 224.226 74.9086C239.819 95.8509 254.606 115.988 268.587 135.051C269.931 136.93 270.469 138.541 268.049 141.226C259.983 149.818 251.918 158.409 243.852 167.001L244.121 167.269C231.753 180.425 219.655 193.582 207.556 206.469C206.75 207.275 205.675 208.349 204.33 209.422C203.255 208.617 202.179 208.349 201.642 207.543C186.317 190.36 170.186 172.371 153.248 153.845C151.097 151.428 152.172 149.549 154.323 147.133C172.874 126.19 191.694 104.711 211.052 82.9633C214.009 79.2045 217.235 75.7141 220.999 71.4182ZM81.7323 86.1852C83.8831 83.7688 86.3028 82.1579 90.6045 81.8894C116.683 79.473 142.494 77.0565 167.766 74.9086C182.822 73.5662 197.878 72.2237 212.934 70.8813C214.547 70.6128 216.16 70.6128 219.117 70.6128C216.966 73.0292 215.891 74.3716 214.547 75.7141C206.481 84.5743 198.415 93.4345 190.35 102.295L190.619 102.563C177.176 117.33 163.733 132.097 150.559 146.327C148.14 149.012 145.72 150.355 141.149 150.891C102.165 155.187 61.837 159.752 20.971 164.585C19.3579 164.853 18.0136 164.853 15.5939 164.853C16.4005 163.242 16.9382 162.168 18.0136 161.094C38.7154 136.661 59.955 111.692 81.7323 86.1852Z" fill="url(#paint0_linear)"/>
<defs>
<linearGradient id="paint0_linear" x1="647.593" y1="352.042" x2="539.183" y2="29.9913" gradientUnits="userSpaceOnUse">
<stop/>
<stop offset="0.3819" stop-color="#68421D"/>
<stop offset="0.4557" stop-color="#6F4720"/>
<stop offset="0.5638" stop-color="#835727"/>
<stop offset="0.6931" stop-color="#A37034"/>
<stop offset="0.8335" stop-color="#D09245"/>
<stop offset="1" stop-color="#E0B580"/>
</linearGradient>
</defs>
</svg>
